<?xml version="1.0" encoding="UTF-8"?><svg id="_이어_1" xmlns="http://www.w3.org/2000/svg" viewBox="0 0 325.79 243.95"><path d="M305.67,243.95c-10.93-5.27-20.64-9.62-30.02-14.59-4.64-2.46-8.63-2.44-13.63-.97-37.1,10.93-72.17,6.64-103.17-17.2-24.29-18.68-35.73-43.69-28.95-74.68,5.29-24.17,20.66-41.48,42.03-52.53,39.27-20.31,78.86-19.57,116.44,4.09,24.57,15.47,38.85,38.19,37.3,68.45-1.04,20.17-10.61,36.52-25.14,50.02-2.91,2.7-3.44,4.96-2.42,8.56,2.58,9.07,4.8,18.23,7.55,28.84Zm-93.83-91.97c0,8.58,6.61,15.15,15.18,15.1,8.39-.05,14.9-6.49,15-14.84,.11-8.62-6.41-15.29-14.99-15.35-8.58-.06-15.19,6.51-15.19,15.09Zm66.66,15.11c8.43,.03,15.34-6.71,15.38-15.01,.05-8.32-6.79-15.15-15.21-15.19-8.39-.04-15.33,6.72-15.41,15.01-.08,8.2,6.9,15.16,15.23,15.19Zm-103.32,0c8.55,.02,15.18-6.66,15.11-15.24-.07-8.35-6.59-14.9-14.89-14.96-8.56-.07-15.35,6.54-15.41,14.99-.06,8.45,6.67,15.18,15.19,15.21Z"/><path d="M138.25,213.98c-19.28,1-37.4-.58-54.95-6.49-4.1-1.38-7.45-1.11-11.29,.81-16.67,8.31-33.48,16.35-51.2,24.96,.91-3.91,1.57-7.01,2.36-10.08,3.17-12.4,6.14-24.85,9.71-37.14,1.32-4.56,.14-7.26-3.07-10.37-12.3-11.92-21.28-26.06-25.92-42.6-9.29-33.12-1.74-62.75,20.43-88.46C46.55,18.81,75.68,5.41,109.06,1.29c37.32-4.62,71.91,3.07,102.75,25.16,10.59,7.59,20.05,16.45,27.29,28.29-6.47,0-12.49,.12-18.5-.11-1.04-.04-2.13-1.45-3.03-2.38-25.12-26.06-56.38-36.76-91.9-36.51-31.18,.22-59.09,10-82.15,31.14-19.22,17.61-29.5,39.69-27.53,66.34,1.58,21.46,10.97,39.49,27.01,53.42,6.87,5.97,9.41,11.18,5.92,19.69-2.13,5.18-2.97,10.89-4.35,16.37-.07,.26,.17,.59,.38,1.23,9.48-4.55,18.85-9.19,28.38-13.48,1.85-.84,4.55-1.01,6.46-.34,13.92,4.91,28.15,7.97,42.92,8.67,2.07,.1,4.48,1.67,5.97,3.27,3.26,3.5,6.03,7.45,9.58,11.96Z"/></svg>