<svg width="76" height="12" viewBox="0 0 76 12" fill="none" xmlns="http://www.w3.org/2000/svg">
<path d="M53.9356 0C54.15 0 54.2635 0.12605 54.2635 0.327731V11.6723C54.2635 11.874 54.1373 12 53.9356 12H52.9393C52.7502 12 52.5988 11.9244 52.5106 11.7731L46.4196 2.7479V11.6723C46.4196 11.874 46.2935 12 46.0917 12H44.982C44.7676 12 44.6541 11.874 44.6541 11.6723V0.340336C44.6541 0.113445 44.755 0.012605 44.982 0.012605H46.2809C46.4322 0.012605 46.6214 0.113445 46.7096 0.239496L52.4601 8.83613V0.340336C52.4601 0.138655 52.5862 0.012605 52.788 0.012605H53.9356V0ZM75.4116 0H66.6219C66.4832 0 66.3697 0.113445 66.3697 0.239496V1.33613C66.3697 1.47479 66.4832 1.57563 66.6219 1.57563H70.0268V11.7227C70.0268 11.8613 70.1403 11.9748 70.2791 11.9748H71.6158C71.7545 11.9748 71.868 11.8613 71.868 11.7227V1.57563H75.4116C75.5503 1.57563 75.6512 1.46219 75.6512 1.33613V0.239496C75.6638 0.113445 75.5503 0 75.4116 0ZM63.7341 3.9958C63.7341 2.93698 63.4945 1.52521 61.4137 1.52521H59.9257C57.8449 1.52521 57.6053 2.93698 57.6053 3.9958V5.30672H63.7215V3.9958H63.7341ZM61.4642 0.012605C62.6748 0.012605 65.5122 0.403361 65.5122 3.9958V6.5042C65.5122 6.68067 65.3735 6.81933 65.1969 6.81933H57.6179V8.01681C57.6179 9.07563 57.8575 10.4874 59.9383 10.4874H64.5538C64.7303 10.4874 64.8691 10.6261 64.8691 10.8025V11.6723C64.8691 11.8487 64.7303 11.9874 64.5538 11.9874H59.9004C58.6772 11.9874 55.8524 11.5966 55.8524 8.01681V3.9958C55.8524 0.403361 58.6772 0.012605 59.9004 0.012605H61.4642V0.012605ZM8.14609 5.06723L9.50804 10.916C9.73504 11.8992 10.6178 12 10.9961 12H12.295L9.59632 0.466387C9.53326 0.176471 9.40716 0.113445 9.19278 0.10084H7.06157C6.84718 0.113445 6.72108 0.239496 6.68324 0.466387C6.60758 0.806723 4.74119 8.87395 4.72858 8.94958C4.70336 9.03782 4.67814 9.15126 4.57726 9.15126C4.50159 9.15126 4.43854 9.07563 4.41332 8.94958C4.40071 8.86135 2.79915 0.340336 2.79915 0.340336C2.73609 0.0630252 2.6226 0.012605 2.44605 0.012605H0.289614C0.226561 0.012605 0.125675 0.0252101 0.0626216 0.10084C-0.000431973 0.176471 -0.0130427 0.289916 0.0121787 0.441176L1.96684 10.5252C2.14339 11.4958 2.73609 11.9874 3.74495 11.9874H5.38434C6.17882 11.9874 6.67063 11.5336 6.85979 10.6261L8.14609 5.06723ZM17.6293 0C17.4654 0 17.3267 0.138655 17.3267 0.302521V11.6975C17.3267 11.8613 17.4654 12 17.6293 12H19.8993C20.0632 12 20.2019 11.8613 20.2019 11.6975V0.302521C20.2019 0.138655 20.0632 0 19.8993 0H17.6293ZM39.8746 4.18487C39.8746 2.57143 38.7397 2.33193 38.0587 2.33193H37.3147C36.6337 2.33193 35.4987 2.57143 35.4987 4.18487V4.90336H39.8746V4.18487V4.18487ZM38.5505 0C41.6149 0 42.7625 1.80252 42.7625 4.92857V6.55462C42.7625 7.02101 42.6616 7.07143 42.195 7.07143H35.4987V7.85294C35.4987 9.57983 37.1507 9.66807 37.4786 9.66807H41.905C42.0815 9.66807 42.2202 9.80672 42.2202 9.9958V11.6849C42.2202 11.8613 42.0815 12 41.905 12H36.4067C32.7748 12 32.5983 8.20588 32.5983 7.04622V4.92857C32.5983 2.33193 33.2918 0 36.8985 0H38.5505ZM25.7885 4.27311C25.6371 4.21008 25.1327 3.95798 25.1327 3.28992C25.1327 2.94958 25.3597 2.31933 26.2046 2.31933H30.4797C30.6562 2.31933 30.7949 2.18067 30.7949 2.0042V0.315126C30.7949 0.138655 30.6562 0 30.4797 0C29.4708 0 26.3938 0 25.7506 0C24.0608 0 22.1818 1.21008 22.1818 3.16387C22.1818 5.01681 22.9132 6.01261 24.6913 6.69328C24.6913 6.69328 27.4783 7.76471 27.8188 7.89076C28.2349 8.04202 28.4746 8.36975 28.4746 8.78571C28.4746 9.21429 28.1467 9.66807 27.5414 9.66807H22.661C22.4845 9.66807 22.3457 9.80672 22.3457 9.9958V11.6723C22.3457 11.8487 22.4845 11.9874 22.661 11.9874H28.5376C30.2401 11.9874 31.4255 10.6765 31.4255 8.72269C31.4255 7.08403 30.7823 6.18908 29.3321 5.63445C28.7394 5.42017 26.0659 4.37395 25.7885 4.27311Z" fill="#3D3D3D"/>
<path d="M15.6414 0.386138L13.6528 7.82609L12.0101 0.398988C11.9607 0.180543 12.0966 0.000648311 12.3189 0.000648311H15.3449C15.5673 -0.0122013 15.6908 0.167694 15.6414 0.386138Z" fill="#F37321"/>
</svg>
