<svg width="60" height="510" viewBox="0 0 60 510" fill="none" xmlns="http://www.w3.org/2000/svg">
<path fill-rule="evenodd" clip-rule="evenodd" d="M14.9393 486.939C15.5251 486.354 16.4749 486.354 17.0607 486.939L21.1429 491.022L25.2251 486.939C25.8108 486.354 26.7606 486.354 27.3464 486.939C27.9322 487.525 27.9322 488.475 27.3464 489.061L22.2035 494.204L21.1429 495.264L20.0822 494.204L14.9393 489.061C14.3536 488.475 14.3536 487.525 14.9393 486.939Z" fill="black"/>
<g clip-path="url(#clip0_61_84916)">
<path d="M29.89 457C42.51 457 52.77 467.27 52.77 479.89C52.77 492.5 42.5 502.77 29.89 502.77C17.27 502.77 7 492.51 7 479.89C7 467.27 17.27 457 29.89 457ZM29.89 455C16.14 455 5 466.14 5 479.89C5 493.62 16.14 504.77 29.89 504.77C43.63 504.77 54.77 493.62 54.77 479.89C54.77 466.14 43.63 455 29.89 455Z" fill="black"/>
<path fill-rule="evenodd" clip-rule="evenodd" d="M21.4357 466.486C21.6096 466.248 21.7959 466.016 21.995 465.791C23.7593 463.8 26.4313 462.5 30 462.5V465.5C27.2157 465.5 25.3878 466.486 24.2403 467.781C23.9998 468.052 23.785 468.342 23.5953 468.646L21.4357 466.486ZM19.5 474.45V492H22.5V477.45L19.5 474.45Z" fill="black"/>
<path fill-rule="evenodd" clip-rule="evenodd" d="M40.5 472.265C40.5 470.011 39.7294 467.567 37.9868 465.671C36.2172 463.746 33.5503 462.5 30 462.5V465.5C32.8027 465.5 34.6358 466.458 35.7779 467.701C36.9471 468.973 37.5 470.662 37.5 472.265V482.55L40.5 485.55V472.265Z" fill="black"/>
<path d="M12.48 462.11L47.51 497.45" stroke="black" stroke-width="2" stroke-miterlimit="10" stroke-linejoin="round"/>
</g>
<path fill-rule="evenodd" clip-rule="evenodd" d="M21.0865 365H20.3258L20.1228 365.733L7.03623 412.993L6.68542 414.26H7.99997H49.5555H50.7899L50.5338 413.052L47.1885 397.284H47.3049H49.5059C50.6105 397.284 51.5059 396.389 51.5059 395.284V393.083C51.5059 392.531 51.0582 392.083 50.5059 392.083C49.9537 392.083 49.5059 392.531 49.5059 393.083V395.284H47.3049H46C45.4477 395.284 45 395.732 45 396.284C45 396.32 45.0019 396.356 45.0056 396.391C44.9944 396.494 44.9991 396.601 45.0217 396.708L48.3211 412.26H9.31451L21.8472 367H36.1634L40.0349 381.262C40.1796 381.795 40.7289 382.11 41.2619 381.965C41.7949 381.82 42.1097 381.271 41.965 380.738L37.8932 365.738L37.6929 365H36.9281H21.0865Z" fill="black"/>
<path d="M29.1848 366L29.1848 369.259" stroke="black" stroke-width="2" stroke-linecap="round"/>
<path d="M29.1848 409.185L29.1848 412.445" stroke="black" stroke-width="2" stroke-linecap="round"/>
<path d="M29.1848 372.519L29.1848 377.407" stroke="black" stroke-width="2" stroke-linecap="round"/>
<path d="M29.1848 381.481L29.1848 387.185" stroke="black" stroke-width="2" stroke-linecap="round"/>
<path d="M29.1848 390.444L29.1848 396.963" stroke="black" stroke-width="2" stroke-linecap="round"/>
<path d="M29.1848 400.222L29.1848 405.926" stroke="black" stroke-width="2" stroke-linecap="round"/>
<path d="M41 381.345H36.567C36.0147 381.345 35.567 381.793 35.567 382.345V384.547" stroke="black" stroke-width="2" stroke-linecap="round"/>
<path d="M38.7681 396.284H36.567C36.0147 396.284 35.567 395.836 35.567 395.284V393.083" stroke="black" stroke-width="2" stroke-linecap="round"/>
<path d="M47.3048 381.345H49.5059C50.0581 381.345 50.5059 381.793 50.5059 382.345V384.547" stroke="black" stroke-width="2" stroke-linecap="round"/>
<path d="M39.6147 385.393L46.4592 392.237" stroke="black" stroke-width="1.5" stroke-miterlimit="10" stroke-linejoin="round"/>
<path d="M46.4592 385.393L39.6147 392.237" stroke="black" stroke-width="1.5" stroke-miterlimit="10" stroke-linejoin="round"/>
<g clip-path="url(#clip1_61_84916)">
<path d="M26.63 289.99H30.12C32.54 289.99 34.31 290.43 35.45 291.3C36.59 292.18 37.16 293.5 37.16 295.26C37.16 297.21 36.55 298.63 35.32 299.51C35.07 299.69 34.78 299.85 34.47 299.99L36.75 302.29C37.15 302.07 37.53 301.83 37.88 301.56C39.8 300.06 40.75 297.91 40.75 295.11C40.75 289.73 37.31 287.04 30.44 287.04H23.17V288.6L26.62 292.09V289.99H26.63Z" fill="black"/>
<path d="M26.63 300.84V300.62L23.17 297.13V314.49H26.63V303.81H29.78H29.79L26.85 300.84H26.63Z" fill="black"/>
<path d="M29.89 277C42.51 277 52.77 287.27 52.77 299.89C52.77 312.5 42.5 322.77 29.89 322.77C17.27 322.77 7 312.51 7 299.89C7 287.27 17.27 277 29.89 277ZM29.89 275C16.14 275 5 286.14 5 299.89C5 313.62 16.14 324.77 29.89 324.77C43.63 324.77 54.77 313.62 54.77 299.89C54.77 286.14 43.63 275 29.89 275Z" fill="black"/>
<path d="M12.48 282.11L47.51 317.45" stroke="black" stroke-width="2" stroke-miterlimit="10" stroke-linejoin="round"/>
</g>
<path d="M25.5 217.98H17.531V222.203C17.531 224.103 16.0061 225.652 14.1175 225.71C14.0823 225.71 10.8447 225.71 10.8095 225.71C8.87401 225.71 7.30213 224.138 7.30213 222.203V217.98H2V204.76C2.02346 201.956 3.4663 199.704 6.25813 199.61L11.0954 187.403C11.1919 187.16 11.4273 187 11.6893 187V187H36.5812H37.0152L42.0123 199.622C44.7924 199.716 46.247 201.968 46.2705 204.772V206.5" stroke="black" stroke-width="2" stroke-miterlimit="10" stroke-linecap="round" stroke-linejoin="round"/>
<path d="M33.5318 198.531H14.2588L16.2178 193.557H31.4438L33.5318 198.531Z" fill="black" stroke="black" stroke-miterlimit="10" stroke-linejoin="round"/>
<path d="M58 225C58 216.716 51.2843 210 43 210C34.7157 210 28 216.716 28 225" stroke="black" stroke-width="2" stroke-linecap="round"/>
<circle cx="43.5" cy="222.5" r="2.5" fill="black"/>
<path d="M50 216L43 224" stroke="black" stroke-width="2" stroke-linecap="round"/>
<path d="M15.7129 94.9995H5.99866C5.44637 94.9995 4.99866 95.4472 4.99866 95.9995V105.714" stroke="black" stroke-width="2" stroke-linecap="round"/>
<path d="M15.7129 145H5.99866C5.44637 145 4.99866 144.552 4.99866 144V134.285" stroke="black" stroke-width="2" stroke-linecap="round"/>
<path d="M44.2836 94.9995H53.9979C54.5502 94.9995 54.9979 95.4472 54.9979 95.9995V105.714" stroke="black" stroke-width="2" stroke-linecap="round"/>
<path d="M44.2836 145H53.9979C54.5502 145 54.9979 144.552 54.9979 144V134.285" stroke="black" stroke-width="2" stroke-linecap="round"/>
<mask id="path-31-inside-1_61_84916" fill="white">
<rect x="10" y="110" width="40" height="20.9091" rx="1"/>
</mask>
<rect x="10" y="110" width="40" height="20.9091" rx="1" stroke="black" stroke-width="4" mask="url(#path-31-inside-1_61_84916)"/>
<path d="M24.0448 123.856L23.2635 121.845H20.689L19.9166 123.856H19.0909L21.6256 117.339H22.3624L24.8926 123.856H24.0448ZM23.0194 121.121L22.2914 119.155L21.9807 118.183C21.8919 118.538 21.7987 118.862 21.701 119.155L20.9642 121.121H23.0194Z" fill="black"/>
<path d="M25.7893 117.366H27.6403C28.5103 117.366 29.1377 117.496 29.5224 117.757C29.9101 118.014 30.1039 118.419 30.1039 118.973C30.1039 119.358 29.9988 119.676 29.7887 119.927C29.5786 120.176 29.2723 120.337 28.8699 120.411V120.455C29.37 120.541 29.737 120.714 29.9707 120.975C30.2075 121.235 30.3258 121.58 30.3258 122.009C30.3258 122.589 30.1276 123.042 29.731 123.367C29.3345 123.693 28.7811 123.856 28.0709 123.856H25.7893V117.366ZM26.606 120.127H27.8045C28.3135 120.127 28.6834 120.046 28.9143 119.883C29.1451 119.72 29.2605 119.448 29.2605 119.066C29.2605 118.711 29.1333 118.455 28.8788 118.298C28.6272 118.141 28.2277 118.063 27.6803 118.063H26.606V120.127ZM26.606 120.811V123.163H27.9155C28.4363 123.163 28.8225 123.063 29.0741 122.861C29.3256 122.66 29.4514 122.355 29.4514 121.947C29.4514 121.559 29.3182 121.274 29.0519 121.09C28.7855 120.904 28.386 120.811 27.8534 120.811H26.606Z" fill="black"/>
<path d="M33.9746 123.856H33.1934V119.803C33.1934 119.676 33.1934 119.54 33.1934 119.395C33.1964 119.25 33.1993 119.106 33.2023 118.964C33.2082 118.819 33.2126 118.681 33.2156 118.551C33.2215 118.418 33.2259 118.301 33.2289 118.2C33.1786 118.254 33.1342 118.3 33.0957 118.338C33.0573 118.377 33.0173 118.414 32.9759 118.449C32.9374 118.485 32.896 118.523 32.8516 118.564C32.8072 118.603 32.7539 118.649 32.6918 118.702L32.0348 119.239L31.6087 118.693L33.3088 117.366H33.9746V123.856Z" fill="black"/>
<path d="M40.3001 123.856H36.2518V123.163L37.8054 121.472C38.0274 121.232 38.2256 121.013 38.4002 120.815C38.5748 120.617 38.7228 120.423 38.8441 120.233C38.9684 120.044 39.0631 119.855 39.1282 119.665C39.1933 119.473 39.2259 119.264 39.2259 119.039C39.2259 118.865 39.2007 118.711 39.1504 118.578C39.1001 118.445 39.0276 118.332 38.9329 118.24C38.8412 118.146 38.7317 118.075 38.6044 118.027C38.4772 117.98 38.3351 117.956 38.1783 117.956C37.8972 117.956 37.6427 118.014 37.4148 118.129C37.1899 118.242 36.9754 118.387 36.7712 118.564L36.3184 118.036C36.4368 117.93 36.564 117.831 36.7001 117.739C36.8363 117.644 36.9828 117.563 37.1396 117.495C37.2964 117.427 37.4622 117.373 37.6368 117.335C37.8113 117.293 37.9948 117.273 38.1872 117.273C38.4713 117.273 38.7272 117.313 38.9551 117.393C39.1859 117.472 39.3812 117.588 39.541 117.739C39.7008 117.887 39.8237 118.069 39.9095 118.285C39.9983 118.498 40.0426 118.739 40.0426 119.008C40.0426 119.26 40.0027 119.5 39.9228 119.727C39.8459 119.955 39.7378 120.18 39.5988 120.402C39.4626 120.621 39.2984 120.842 39.106 121.064C38.9166 121.285 38.711 121.516 38.489 121.756L37.2417 123.083V123.119H40.3001V123.856Z" fill="black"/>
<path d="M24.0448 123.856L23.2635 121.845H20.689L19.9166 123.856H19.0909L21.6256 117.339H22.3624L24.8926 123.856H24.0448ZM23.0194 121.121L22.2914 119.155L21.9807 118.183C21.8919 118.538 21.7987 118.862 21.701 119.155L20.9642 121.121H23.0194Z" stroke="black" stroke-width="0.5"/>
<path d="M25.7893 117.366H27.6403C28.5103 117.366 29.1377 117.496 29.5224 117.757C29.9101 118.014 30.1039 118.419 30.1039 118.973C30.1039 119.358 29.9988 119.676 29.7887 119.927C29.5786 120.176 29.2723 120.337 28.8699 120.411V120.455C29.37 120.541 29.737 120.714 29.9707 120.975C30.2075 121.235 30.3258 121.58 30.3258 122.009C30.3258 122.589 30.1276 123.042 29.731 123.367C29.3345 123.693 28.7811 123.856 28.0709 123.856H25.7893V117.366ZM26.606 120.127H27.8045C28.3135 120.127 28.6834 120.046 28.9143 119.883C29.1451 119.72 29.2605 119.448 29.2605 119.066C29.2605 118.711 29.1333 118.455 28.8788 118.298C28.6272 118.141 28.2277 118.063 27.6803 118.063H26.606V120.127ZM26.606 120.811V123.163H27.9155C28.4363 123.163 28.8225 123.063 29.0741 122.861C29.3256 122.66 29.4514 122.355 29.4514 121.947C29.4514 121.559 29.3182 121.274 29.0519 121.09C28.7855 120.904 28.386 120.811 27.8534 120.811H26.606Z" stroke="black" stroke-width="0.5"/>
<path d="M33.9746 123.856H33.1934V119.803C33.1934 119.676 33.1934 119.54 33.1934 119.395C33.1964 119.25 33.1993 119.106 33.2023 118.964C33.2082 118.819 33.2126 118.681 33.2156 118.551C33.2215 118.418 33.2259 118.301 33.2289 118.2C33.1786 118.254 33.1342 118.3 33.0957 118.338C33.0573 118.377 33.0173 118.414 32.9759 118.449C32.9374 118.485 32.896 118.523 32.8516 118.564C32.8072 118.603 32.7539 118.649 32.6918 118.702L32.0348 119.239L31.6087 118.693L33.3088 117.366H33.9746V123.856Z" stroke="black" stroke-width="0.5"/>
<path d="M40.3001 123.856H36.2518V123.163L37.8054 121.472C38.0274 121.232 38.2256 121.013 38.4002 120.815C38.5748 120.617 38.7228 120.423 38.8441 120.233C38.9684 120.044 39.0631 119.855 39.1282 119.665C39.1933 119.473 39.2259 119.264 39.2259 119.039C39.2259 118.865 39.2007 118.711 39.1504 118.578C39.1001 118.445 39.0276 118.332 38.9329 118.24C38.8412 118.146 38.7317 118.075 38.6044 118.027C38.4772 117.98 38.3351 117.956 38.1783 117.956C37.8972 117.956 37.6427 118.014 37.4148 118.129C37.1899 118.242 36.9754 118.387 36.7712 118.564L36.3184 118.036C36.4368 117.93 36.564 117.831 36.7001 117.739C36.8363 117.644 36.9828 117.563 37.1396 117.495C37.2964 117.427 37.4622 117.373 37.6368 117.335C37.8113 117.293 37.9948 117.273 38.1872 117.273C38.4713 117.273 38.7272 117.313 38.9551 117.393C39.1859 117.472 39.3812 117.588 39.541 117.739C39.7008 117.887 39.8237 118.069 39.9095 118.285C39.9983 118.498 40.0426 118.739 40.0426 119.008C40.0426 119.26 40.0027 119.5 39.9228 119.727C39.8459 119.955 39.7378 120.18 39.5988 120.402C39.4626 120.621 39.2984 120.842 39.106 121.064C38.9166 121.285 38.711 121.516 38.489 121.756L37.2417 123.083V123.119H40.3001V123.856Z" stroke="black" stroke-width="0.5"/>
<circle cx="14.5454" cy="113.636" r="0.909091" fill="black"/>
<circle cx="45.4545" cy="113.636" r="0.909091" fill="black"/>
<circle cx="14.5454" cy="127.273" r="0.909091" fill="black"/>
<circle cx="45.4545" cy="127.273" r="0.909091" fill="black"/>
<path d="M2.35254 30.0498L57.6475 30.0498" stroke="black" stroke-width="2" stroke-miterlimit="10" stroke-linejoin="round"/>
<path d="M30 2.15039L30 57.1432" stroke="black" stroke-width="2" stroke-miterlimit="10" stroke-linejoin="round"/>
<path d="M39.3166 48.6833L30 57.9999L20.6835 48.6833" stroke="black" stroke-width="2" stroke-miterlimit="10" stroke-linejoin="round"/>
<path d="M20.6836 11.3165L30.0001 2L39.3167 11.3165" stroke="black" stroke-width="2" stroke-miterlimit="10" stroke-linejoin="round"/>
<path d="M48.6837 20.6838L58.0003 30.0004L48.6837 39.3169" stroke="black" stroke-width="2" stroke-miterlimit="10" stroke-linejoin="round"/>
<path d="M11.3165 39.3169L2 30.0004L11.3165 20.6838" stroke="black" stroke-width="2" stroke-miterlimit="10" stroke-linejoin="round"/>
<line x1="36.4504" y1="51.592" x2="52.2753" y2="35.767" stroke="black" stroke-width="2"/>
<line x1="29.9765" y1="50.8727" x2="50.8366" y2="30.0126" stroke="black" stroke-width="2"/>
<line x1="29.9765" y1="43.6794" x2="43.6435" y2="30.0124" stroke="black" stroke-width="2"/>
<line x1="29.9765" y1="36.486" x2="36.4503" y2="30.0122" stroke="black" stroke-width="2"/>
<defs>
<clipPath id="clip0_61_84916">
<rect width="49.77" height="49.77" fill="white" transform="translate(5 455)"/>
</clipPath>
<clipPath id="clip1_61_84916">
<rect width="49.77" height="49.77" fill="white" transform="translate(5 275)"/>
</clipPath>
</defs>
</svg>
