<svg width="40" height="340" viewBox="0 0 40 340" fill="none" xmlns="http://www.w3.org/2000/svg">
<path fill-rule="evenodd" clip-rule="evenodd" d="M3 14.7086C3 12.1081 5.10813 10 7.70863 10H21.795C24.3955 10 26.5036 12.1081 26.5036 14.7086V25.946C26.5036 28.5466 24.3955 30.6547 21.795 30.6547H7.70863C5.10812 30.6547 3 28.5465 3 25.946V14.7086ZM7.70863 11.6619C6.02595 11.6619 4.66187 13.026 4.66187 14.7086V25.946C4.66187 27.6287 6.02595 28.9928 7.70863 28.9928H21.795C23.4776 28.9928 24.8417 27.6287 24.8417 25.946V14.7086C24.8417 13.026 23.4776 11.6619 21.795 11.6619H7.70863Z" fill="black"/>
<path fill-rule="evenodd" clip-rule="evenodd" d="M34.3382 12.5857C34.3382 12.3822 34.1259 12.2481 33.9421 12.3357L26.5037 15.8778V24.7771L33.9421 28.3192C34.126 28.4068 34.3382 28.2727 34.3382 28.0692V12.5857ZM33.2276 10.8352C34.5143 10.2226 36.0001 11.1607 36.0001 12.5857V28.0692C36.0001 29.4942 34.5143 30.4324 33.2276 29.8197L24.8418 25.8264V14.8285L33.2276 10.8352Z" fill="black"/>
<path d="M19.9854 96.165C17.4866 96.165 15.3141 94.3834 14.797 91.9689H7.1026C6.80766 91.9674 6.51971 91.8789 6.27478 91.7146C6.02984 91.5503 5.83878 91.3174 5.72548 91.0451C5.49452 90.4594 5.63325 89.8138 6.07784 89.3952C6.07548 89.3952 6.52716 88.8655 6.99698 87.743C7.46206 86.6173 8.01622 84.6553 8.01622 81.7134C8.01622 78.2253 8.78479 73.4373 12.4463 70.4371C13.4217 69.6296 14.5388 69.0105 15.7406 68.6115C15.7934 67.9217 16.0078 66.8646 16.759 65.981C17.3006 65.3535 18.3033 64.6094 20.0193 64.6094C21.7882 64.6094 22.7815 65.3567 23.3033 65.9833C23.8709 66.6526 24.2043 67.5165 24.2957 68.5547C25.5037 68.9667 26.6237 69.6015 27.5978 70.4261C29.6016 72.1232 31.9886 75.4655 31.9886 81.7489C31.9886 84.7664 32.5333 86.7253 32.9905 87.8376C33.4098 88.8789 33.8323 89.3195 33.8796 89.3661C34.3565 89.8185 34.5 90.4223 34.3037 90.9883C34.2069 91.2405 34.0446 91.4624 33.8336 91.6312C33.6226 91.7999 33.3705 91.9094 33.1032 91.9484C33.0488 91.9689 32.9495 91.9689 32.884 91.9689H25.1699C24.652 94.3834 22.4811 96.165 19.9854 96.165ZM15.6066 91.9682C16.1079 93.9396 17.9154 95.3759 19.9854 95.3759C22.0523 95.3759 23.859 93.9396 24.3627 91.9682H15.6066ZM24.8436 91.1799H32.8864C32.9045 91.1799 32.9242 91.1815 32.9424 91.1783C33.2514 91.131 33.4705 90.9576 33.5667 90.7132C33.6112 90.5873 33.6178 90.4512 33.5857 90.3216C33.5537 90.192 33.4843 90.0746 33.3862 89.9841L33.3263 89.9249C33.2285 89.8272 32.7295 89.2927 32.2621 88.1332C31.7789 86.9586 31.2011 84.8949 31.2011 81.7473C31.2011 75.7651 28.9655 72.6151 27.0894 71.026C26.1273 70.21 25.0103 69.5968 23.8054 69.2232C23.7276 69.1994 23.6591 69.1522 23.6092 69.088C23.5592 69.0238 23.5303 68.9457 23.5264 68.8645C23.4807 67.8815 23.2032 67.0822 22.6995 66.4886C22.2833 65.9881 21.4824 65.3953 20.0185 65.3953C18.6012 65.3953 17.7885 65.9912 17.3565 66.4918C16.651 67.3218 16.5257 68.3647 16.5131 68.9118C16.5112 68.9954 16.4829 69.0762 16.4322 69.1426C16.3815 69.209 16.311 69.2577 16.2309 69.2815C15.4142 69.5235 14.1813 70.0248 12.9461 71.0441C9.52262 73.8496 8.80371 78.3932 8.80371 81.7111C8.80371 84.783 8.21644 86.8507 7.72377 88.0433C7.18695 89.3243 6.66275 89.9178 6.64067 89.9423C6.53005 90.0409 6.45285 90.1716 6.4198 90.3161C6.38675 90.4606 6.39948 90.6118 6.45622 90.7487C6.50984 90.8755 6.59954 90.9838 6.71418 91.06C6.82883 91.1362 6.96335 91.1771 7.10103 91.1775H24.8436V91.1799Z" fill="black"/>
<path fill-rule="evenodd" clip-rule="evenodd" d="M5.61888 88.9877C5.6285 88.9753 5.64165 88.958 5.658 88.9357C5.69913 88.8797 5.76164 88.7907 5.83895 88.6676C5.99344 88.4217 6.20772 88.0389 6.42862 87.5113C6.86246 86.4608 7.40087 84.5788 7.40087 81.7172C7.40087 78.1781 8.17387 73.1481 12.0543 69.9676C12.9862 69.1963 14.04 68.5873 15.1716 68.165C15.2789 67.4249 15.5628 66.4426 16.2897 65.5876L16.2926 65.5841C16.9316 64.8437 18.0956 64 20.0171 64C21.9858 64 23.1449 64.8424 23.7705 65.5926C24.3558 66.2836 24.7131 67.1364 24.8579 68.1105C25.9986 68.5461 27.0584 69.1717 27.9918 69.9619C30.1339 71.7762 32.5995 75.2901 32.5995 81.7527C32.5995 84.6946 33.1301 86.5738 33.5553 87.6082L33.557 87.6123C33.9255 88.5274 34.2827 88.9069 34.3064 88.9317C34.9449 89.5421 35.1583 90.3927 34.8808 91.193L34.8775 91.2025L34.8739 91.2119C34.738 91.5657 34.5104 91.877 34.2144 92.1138C33.9303 92.3409 33.5932 92.4916 33.2351 92.5518C33.1484 92.5741 33.0719 92.5796 33.0349 92.582C32.9724 92.586 32.9118 92.5858 32.8818 92.5858H25.6414C24.8931 95.0305 22.6009 96.7819 19.9832 96.7819C17.3631 96.7819 15.069 95.0309 14.321 92.5858H7.10039L7.09717 92.5858C6.68167 92.5837 6.27603 92.459 5.93098 92.2275C5.58593 91.9961 5.31677 91.668 5.15717 91.2844L5.15498 91.2791L5.15288 91.2738C4.83943 90.4789 5.01437 89.5848 5.61888 88.9877ZM25.4545 90.5705V90.5681L7.10064 90.5681M7.10064 90.5681C7.0833 90.568 7.06594 90.5628 7.0515 90.5532C7.03754 90.5439 7.02649 90.5309 7.0196 90.5156C7.01229 90.4968 7.01078 90.4762 7.01529 90.4565C7.01997 90.4361 7.03089 90.4176 7.04654 90.4037L7.07127 90.3816L7.09347 90.357C7.15794 90.2856 7.72128 89.6341 8.28704 88.2841L8.28825 88.2812C8.81157 87.0143 9.41463 84.8671 9.41463 81.7148C9.41463 78.4441 10.1308 74.1459 13.3325 71.5221L13.3341 71.5208C14.491 70.5662 15.6445 70.0979 16.4029 69.8731L16.4035 69.8729C16.608 69.8121 16.7879 69.688 16.9173 69.5184C17.0467 69.3489 17.119 69.1428 17.1238 68.9297C17.1352 68.4348 17.2513 67.5647 17.82 66.8944C18.1503 66.5124 18.8 66.0122 20.0163 66.0122C21.2869 66.0122 21.9188 66.5152 22.2258 66.8844L22.2298 66.8891C22.6246 67.3543 22.8706 68.0123 22.9117 68.8968L22.9117 68.8978C22.9217 69.1052 22.9955 69.3044 23.123 69.4683C23.2505 69.6321 23.4255 69.7526 23.624 69.8133V68.9297L23.6216 69.8126C24.7476 70.1617 25.7915 70.7348 26.6906 71.4973C28.4258 72.9672 30.5857 75.9447 30.5857 81.7511C30.5857 84.9739 31.1774 87.1165 31.692 88.3681C32.1923 89.6085 32.7389 90.2107 32.8905 90.3623L32.8934 90.3651L32.9605 90.4314L32.968 90.4383C32.978 90.4475 32.9851 90.4595 32.9884 90.4727C32.9908 90.4828 32.991 90.4932 32.989 90.5033C32.9824 90.5158 32.9739 90.5256 32.9621 90.5346C32.9487 90.5447 32.9225 90.56 32.8764 90.5705H25.4545M23.4817 92.5851H16.4823C17.1281 93.8831 18.4772 94.7665 19.9832 94.7665C21.486 94.7665 22.8346 93.8835 23.4817 92.5851Z" fill="black"/>
<path fill-rule="evenodd" clip-rule="evenodd" d="M5 125H19.1192V139.119H5V125ZM6.65354 126.654V137.466H17.4656V126.654H6.65354Z" fill="black"/>
<path fill-rule="evenodd" clip-rule="evenodd" d="M5 140.883H19.1192V155.002H5V140.883ZM6.65354 142.536V153.348H17.4656V142.536H6.65354Z" fill="black"/>
<path fill-rule="evenodd" clip-rule="evenodd" d="M20.8789 125H34.9981V139.119H20.8789V125ZM22.5324 126.654V137.466H33.3445V126.654H22.5324Z" fill="black"/>
<path fill-rule="evenodd" clip-rule="evenodd" d="M27.942 140.879C28.3986 140.879 28.7688 141.249 28.7688 141.706V154.171C28.7688 154.628 28.3986 154.998 27.942 154.998C27.4854 154.998 27.1152 154.628 27.1152 154.171V141.706C27.1152 141.249 27.4854 140.879 27.942 140.879Z" fill="black"/>
<path fill-rule="evenodd" clip-rule="evenodd" d="M35.002 147.94C35.002 148.397 34.6318 148.767 34.1752 148.767L21.7096 148.767C21.253 148.767 20.8828 148.397 20.8828 147.94C20.8828 147.483 21.253 147.113 21.7096 147.113L34.1752 147.113C34.6318 147.113 35.002 147.483 35.002 147.94Z" fill="black"/>
<path fill-rule="evenodd" clip-rule="evenodd" d="M25.9557 198.554C21.8692 198.554 18.5564 201.867 18.5564 205.954C18.5564 210.04 21.8692 213.353 25.9557 213.353C30.0422 213.353 33.355 210.04 33.355 205.954C33.355 201.867 30.0422 198.554 25.9557 198.554ZM16.9121 205.954C16.9121 200.959 20.9611 196.91 25.9557 196.91C30.9503 196.91 34.9993 200.959 34.9993 205.954C34.9993 210.948 30.9503 214.997 25.9557 214.997C20.9611 214.997 16.9121 210.948 16.9121 205.954Z" fill="black"/>
<path fill-rule="evenodd" clip-rule="evenodd" d="M16.6275 186.644C11.1139 186.644 6.64429 191.114 6.64429 196.627C6.64429 202.141 11.1139 206.611 16.6275 206.611C22.141 206.611 26.6106 202.141 26.6106 196.627C26.6106 191.114 22.141 186.644 16.6275 186.644ZM5 196.627C5 190.206 10.2058 185 16.6275 185C23.0491 185 28.2549 190.206 28.2549 196.627C28.2549 203.049 23.0491 208.255 16.6275 208.255C10.2058 208.255 5 203.049 5 196.627Z" fill="black"/>
<path fill-rule="evenodd" clip-rule="evenodd" d="M11.089 246.791C10.9242 246.791 10.7906 246.924 10.7906 247.089V273.09L19.0282 268.93C19.6204 268.631 20.3194 268.631 20.9116 268.93L29.1492 273.09V247.089C29.1492 246.924 29.0156 246.791 28.8507 246.791H11.089ZM9 247.089C9 245.935 9.93529 245 11.089 245H28.8507C30.0045 245 30.9398 245.935 30.9398 247.089V276L20.1044 270.528C20.0198 270.485 19.92 270.485 19.8354 270.528L9 276V247.089Z" fill="black"/>
<path fill-rule="evenodd" clip-rule="evenodd" d="M20 332.981C27.1691 332.981 32.9808 327.169 32.9808 320C32.9808 312.831 27.1691 307.019 20 307.019C12.8309 307.019 7.01923 312.831 7.01923 320C7.01923 327.169 12.8309 332.981 20 332.981ZM20 335C28.2843 335 35 328.284 35 320C35 311.716 28.2843 305 20 305C11.7157 305 5 311.716 5 320C5 328.284 11.7157 335 20 335Z" fill="black"/>
<path fill-rule="evenodd" clip-rule="evenodd" d="M19.9999 318.414C20.5574 318.414 21.0095 318.866 21.0095 319.424L21.0095 327.501C21.0095 328.058 20.5574 328.51 19.9999 328.51C19.4423 328.51 18.9902 328.058 18.9902 327.501L18.9902 319.424C18.9902 318.866 19.4423 318.414 19.9999 318.414Z" fill="black"/>
<path d="M21.7311 314.809C21.7311 315.765 20.9562 316.54 20.0003 316.54C19.0444 316.54 18.2695 315.765 18.2695 314.809C18.2695 313.853 19.0444 313.078 20.0003 313.078C20.9562 313.078 21.7311 313.853 21.7311 314.809Z" fill="black"/>
</svg>
