<svg width="220" height="580" viewBox="0 0 220 580" fill="none" xmlns="http://www.w3.org/2000/svg">
<g clip-path="url(#clip0_2605_71998)">
<path fill-rule="evenodd" clip-rule="evenodd" d="M28.7059 5.62763C29.5427 6.46447 29.5427 7.82125 28.7059 8.65809L17.364 20L28.7059 31.3419C29.5427 32.1787 29.5427 33.5355 28.7059 34.3724C27.869 35.2092 26.5122 35.2092 25.6754 34.3724L12.8183 21.5152C11.9814 20.6784 11.9814 19.3216 12.8183 18.4848L25.6754 5.62763C26.5122 4.79079 27.869 4.79079 28.7059 5.62763Z" fill="black"/>
<path d="M147.999 6.33474C148.445 6.78105 148.445 7.50467 147.999 7.95098L136.657 19.2929C136.266 19.6834 136.266 20.3166 136.657 20.7071L147.999 32.049C148.445 32.4953 148.445 33.219 147.999 33.6653C147.552 34.1116 146.829 34.1116 146.382 33.6653L133.525 20.8081C133.079 20.3618 133.079 19.6382 133.525 19.1919L146.382 6.33473C146.829 5.88842 147.552 5.88842 147.999 6.33474Z" fill="black"/>
<path d="M17.1784 250.57C16.5275 249.81 15.4722 249.81 14.8214 250.57L8.15469 258.347C7.79673 258.765 7.63563 259.325 7.67141 259.871C7.66816 259.914 7.6665 259.957 7.6665 260C7.6665 260.043 7.66816 260.086 7.6714 260.129C7.63565 260.675 7.79675 261.235 8.15469 261.653L14.8214 269.431C15.4722 270.19 16.5275 270.19 17.1784 269.431C17.8292 268.671 17.8292 267.44 17.1784 266.681L12.8807 261.667H32.6665C33.587 261.667 34.3332 260.921 34.3332 260C34.3332 259.08 33.587 258.333 32.6665 258.333H12.8805L17.1784 253.319C17.8292 252.56 17.8292 251.329 17.1784 250.57Z" fill="black"/>
<path d="M134.808 250.291C135.142 249.903 135.608 249.903 135.942 250.291C136.353 250.771 136.353 251.604 135.942 252.084L129.692 259.375H154.125C154.608 259.375 155 259.767 155 260.25C155 260.733 154.608 261.125 154.125 261.125H129.692L135.942 268.417C136.353 268.896 136.353 269.729 135.942 270.209C135.608 270.597 135.142 270.597 134.808 270.209L127.308 261.459C127.096 261.21 126.978 260.846 127.003 260.46L127.008 260.389L127.003 260.319C127.001 260.296 127 260.273 127 260.25C127 260.227 127.001 260.204 127.003 260.182L127.008 260.111L127.003 260.04C126.978 259.654 127.096 259.29 127.308 259.041L134.808 250.291Z" fill="black"/>
<path d="M24.8213 329.43C25.4722 330.19 26.5274 330.19 27.1783 329.43L33.845 321.653C34.2029 321.235 34.364 320.675 34.3282 320.129C34.3315 320.086 34.3332 320.043 34.3332 320C34.3332 319.956 34.3315 319.913 34.3283 319.871C34.364 319.325 34.2029 318.765 33.845 318.347L27.1783 310.569C26.5274 309.81 25.4722 309.81 24.8213 310.569C24.1704 311.329 24.1704 312.56 24.8213 313.319L29.119 318.333H9.33317C8.41269 318.333 7.6665 319.079 7.6665 320C7.6665 320.92 8.41269 321.666 9.33317 321.666H29.1191L24.8213 326.681C24.1704 327.44 24.1704 328.671 24.8213 329.43Z" fill="black"/>
<path d="M147.192 329.708C146.858 330.097 146.392 330.097 146.058 329.708C145.647 329.229 145.647 328.396 146.058 327.916L152.308 320.625H127.875C127.392 320.625 127 320.233 127 319.75C127 319.266 127.392 318.875 127.875 318.875H152.308L146.058 311.583C145.647 311.103 145.647 310.271 146.058 309.791C146.392 309.403 146.858 309.403 147.192 309.791L154.692 318.541C154.904 318.79 155.022 319.154 154.997 319.54L154.992 319.61L154.997 319.681C154.999 319.704 155 319.726 155 319.75C155 319.773 154.999 319.796 154.997 319.818L154.992 319.889L154.997 319.96C155.022 320.346 154.904 320.71 154.692 320.958L147.192 329.708Z" fill="black"/>
<path d="M71.5695 263.821C70.8102 264.472 70.8102 265.528 71.5695 266.178L79.3473 272.845C79.7647 273.203 80.3247 273.364 80.8705 273.328C80.9133 273.332 80.9565 273.333 81.0002 273.333C81.0438 273.333 81.087 273.332 81.1298 273.328C81.6756 273.364 82.2355 273.203 82.6529 272.845L90.4306 266.178C91.19 265.528 91.19 264.472 90.4306 263.821C89.6713 263.171 88.4401 263.171 87.6808 263.821L82.6668 268.119L82.6668 248.333C82.6668 247.413 81.9206 246.667 81.0002 246.667C80.0797 246.667 79.3335 247.413 79.3335 248.333L79.3335 268.119L74.3194 263.821C73.56 263.171 72.3289 263.171 71.5695 263.821Z" fill="black"/>
<path d="M190.291 266.192C189.903 265.858 189.903 265.392 190.291 265.058C190.771 264.647 191.604 264.647 192.084 265.058L199.375 271.309L199.375 246.875C199.375 246.392 199.767 246 200.25 246C200.733 246 201.125 246.392 201.125 246.875L201.125 271.308L208.417 265.058C208.897 264.647 209.729 264.647 210.209 265.058C210.597 265.392 210.597 265.858 210.209 266.192L201.459 273.692C201.21 273.904 200.846 274.022 200.46 273.997L200.389 273.992L200.319 273.997C200.296 273.999 200.273 274 200.25 274C200.227 274 200.204 273.999 200.182 273.997L200.111 273.992L200.04 273.997C199.654 274.022 199.29 273.904 199.041 273.692L190.291 266.192Z" fill="black"/>
<path d="M89.1992 321.667L72.8812 321.667L77.1788 326.681C77.8297 327.44 77.8297 328.671 77.1788 329.431C76.528 330.19 75.4727 330.19 74.8218 329.431L68.1551 321.653C67.797 321.235 67.6359 320.674 67.6719 320.128C67.6687 320.086 67.6671 320.043 67.6671 320C67.6671 319.957 67.6687 319.914 67.6719 319.872C67.6359 319.326 67.797 318.765 68.1551 318.347L74.8218 310.569C75.4727 309.81 76.528 309.81 77.1788 310.569C77.8297 311.329 77.8297 312.56 77.1788 313.319L72.881 318.333L89.1995 318.333L84.6989 312.708C84.1239 311.989 84.2405 310.94 84.9592 310.365C85.678 309.79 86.7268 309.907 87.3018 310.625L93.9685 318.959C94.197 319.244 94.3337 319.606 94.3337 320C94.3337 320.403 94.1907 320.773 93.9525 321.061L87.3018 329.374C86.7268 330.093 85.678 330.21 84.9592 329.635C84.2405 329.06 84.1239 328.011 84.6989 327.292L89.1992 321.667Z" fill="black"/>
<path d="M194.942 310.291C194.608 309.903 194.142 309.903 193.808 310.291L186.308 319.041C186.096 319.29 185.978 319.654 186.003 320.04L186.008 320.111L186.003 320.173C186.001 320.198 186 320.224 186 320.25C186 320.275 186.001 320.299 186.003 320.323L186.008 320.389L186.003 320.46C185.978 320.846 186.096 321.21 186.308 321.459L193.808 330.209C194.142 330.597 194.608 330.597 194.942 330.209C195.353 329.729 195.353 328.897 194.942 328.417L188.692 321.125L211.308 321.125L205.058 328.417C204.647 328.897 204.647 329.729 205.058 330.209C205.392 330.597 205.858 330.597 206.192 330.209L213.691 321.459C213.904 321.21 214.022 320.846 213.997 320.46L213.992 320.389L213.997 320.328C213.999 320.302 214 320.276 214 320.25C214 320.226 213.999 320.201 213.997 320.177L213.992 320.111L213.997 320.04C214.022 319.654 213.904 319.29 213.691 319.041L206.192 310.292C205.858 309.903 205.392 309.903 205.058 310.292C204.647 310.771 204.647 311.604 205.058 312.084L211.308 319.375L188.692 319.375L194.942 312.084C195.353 311.604 195.353 310.771 194.942 310.291Z" fill="black"/>
<path d="M79.3333 388.199L79.3333 371.881L74.3194 376.179C73.56 376.829 72.3289 376.829 71.5695 376.179C70.8102 375.528 70.8102 374.472 71.5695 373.822L79.3473 367.155C79.7651 366.797 80.3258 366.636 80.8721 366.672C80.9143 366.668 80.957 366.667 81 366.667C81.043 366.667 81.0857 366.668 81.1279 366.672C81.6743 366.636 82.235 366.797 82.6529 367.155L90.4306 373.822C91.19 374.472 91.19 375.528 90.4306 376.179C89.6713 376.829 88.4401 376.829 87.6808 376.179L82.6667 371.881L82.6667 388.199L88.2924 383.699C89.0111 383.124 90.06 383.24 90.635 383.959C91.21 384.678 91.0935 385.727 90.3747 386.302L82.0414 392.968C81.7561 393.197 81.394 393.333 81 393.333C80.597 393.333 80.2274 393.19 79.9392 392.952L71.6257 386.302C70.907 385.727 70.7904 384.678 71.3654 383.959C71.9404 383.24 72.9893 383.124 73.708 383.699L79.3333 388.199Z" fill="black"/>
<path d="M190.291 385.058C189.903 385.392 189.903 385.858 190.291 386.192L199.041 393.692C199.29 393.904 199.654 394.022 200.04 393.997L200.111 393.992L200.173 393.997C200.198 393.999 200.224 394 200.25 394C200.275 394 200.299 393.999 200.323 393.997L200.389 393.992L200.46 393.997C200.846 394.022 201.21 393.904 201.459 393.692L210.209 386.192C210.597 385.858 210.597 385.392 210.209 385.058C209.729 384.647 208.897 384.647 208.417 385.058L201.125 391.308L201.125 368.692L208.417 374.942C208.897 375.353 209.729 375.353 210.209 374.942C210.597 374.608 210.597 374.142 210.209 373.808L201.459 366.309C201.21 366.096 200.846 365.978 200.46 366.003L200.389 366.008L200.328 366.003C200.302 366.001 200.276 366 200.25 366C200.226 366 200.201 366.001 200.177 366.003L200.111 366.008L200.04 366.003C199.654 365.978 199.29 366.096 199.041 366.309L190.292 373.808C189.903 374.142 189.903 374.608 190.292 374.942C190.771 375.353 191.604 375.353 192.084 374.942L199.375 368.692L199.375 391.308L192.084 385.058C191.604 384.647 190.771 384.647 190.291 385.058Z" fill="black"/>
<path d="M30.4301 376.179C31.1895 375.528 31.1895 374.473 30.4301 373.822L22.6524 367.155C22.235 366.797 21.675 366.636 21.1292 366.672C21.0864 366.668 21.0432 366.667 20.9995 366.667C20.9559 366.667 20.9126 366.668 20.8699 366.672C20.3241 366.636 19.7642 366.797 19.3468 367.155L11.569 373.822C10.8097 374.473 10.8097 375.528 11.569 376.179C12.3284 376.83 13.5595 376.83 14.3189 376.179L19.3328 371.881L19.3328 391.667C19.3328 392.587 20.079 393.333 20.9995 393.333C21.92 393.333 22.6662 392.587 22.6662 391.667L22.6662 371.881L27.6803 376.179C28.4396 376.83 29.6708 376.83 30.4301 376.179Z" fill="black"/>
<path fill-rule="evenodd" clip-rule="evenodd" d="M150.709 373.808C151.097 374.142 151.097 374.608 150.709 374.942C150.229 375.353 149.396 375.353 148.916 374.942L141.625 368.692L141.625 393.125C141.625 393.608 141.233 394 140.75 394C140.267 394 139.875 393.608 139.875 393.125L139.875 368.692L132.583 374.942C132.103 375.353 131.271 375.353 130.791 374.942C130.403 374.608 130.403 374.142 130.791 373.808L139.541 366.308C139.79 366.096 140.154 365.978 140.54 366.003L140.611 366.008L140.681 366.003C140.704 366.001 140.727 366 140.75 366C140.773 366 140.796 366.001 140.818 366.003L140.889 366.008L140.96 366.003C141.346 365.978 141.71 366.096 141.959 366.308L150.709 373.808Z" fill="black"/>
<path d="M16.5012 433.388C17.1346 432.649 18.1983 432.649 18.8318 433.388C19.4262 434.081 19.4262 435.178 18.8318 435.872L16.6741 438.389L28.7776 438.389C29.6674 438.389 30.3888 439.11 30.3888 440C30.3888 440.89 29.6674 441.611 28.7776 441.611L16.6741 441.611L18.8318 444.129C19.4262 444.822 19.4262 445.919 18.8318 446.613C18.1983 447.352 17.1346 447.352 16.5012 446.613L12.0567 441.427C11.7378 441.055 11.59 440.567 11.6133 440.087C11.6118 440.059 11.611 440.029 11.611 440C11.611 439.971 11.6118 439.942 11.6133 439.913C11.59 439.433 11.7378 438.945 12.0567 438.573L16.5012 433.388Z" fill="black"/>
<path fill-rule="evenodd" clip-rule="evenodd" d="M20.9998 426.167C13.3599 426.167 7.1665 432.36 7.1665 440C7.1665 447.64 13.3599 453.833 20.9998 453.833C28.6398 453.833 34.8332 447.64 34.8332 440C34.8332 432.36 28.6398 426.167 20.9998 426.167ZM10.3887 440C10.3887 434.14 15.1395 429.389 20.9998 429.389C26.8602 429.389 31.6109 434.14 31.6109 440C31.6109 445.86 26.8602 450.611 20.9998 450.611C15.1395 450.611 10.3887 445.86 10.3887 440Z" fill="black"/>
<path d="M136.881 433.713C137.315 433.207 138.018 433.207 138.452 433.713C138.886 434.219 138.886 435.04 138.452 435.546L135.587 438.889L148.778 438.889C149.391 438.889 149.889 439.387 149.889 440C149.889 440.614 149.391 441.111 148.778 441.111L135.587 441.111L138.452 444.454C138.886 444.96 138.886 445.781 138.452 446.287C138.018 446.793 137.315 446.793 136.881 446.287L132.436 441.102C132.198 440.823 132.09 440.45 132.114 440.086C132.112 440.057 132.111 440.029 132.111 440C132.111 439.971 132.112 439.943 132.114 439.915C132.09 439.551 132.198 439.177 132.436 438.898L136.881 433.713Z" fill="black"/>
<path fill-rule="evenodd" clip-rule="evenodd" d="M154.333 440C154.333 447.364 148.364 453.333 141 453.333C133.636 453.333 127.667 447.364 127.667 440C127.667 432.636 133.636 426.667 141 426.667C148.364 426.667 154.333 432.636 154.333 440ZM152.111 440C152.111 446.137 147.136 451.111 141 451.111C134.863 451.111 129.889 446.137 129.889 440C129.889 433.864 134.863 428.889 141 428.889C147.136 428.889 152.111 433.864 152.111 440Z" fill="black"/>
<path d="M79.8888 432.222C79.8888 431.609 80.3863 431.111 80.9999 431.111C81.6136 431.111 82.1111 431.609 82.1111 432.222V445.413L85.4537 442.548C85.9599 442.114 86.7807 442.114 87.2869 442.548C87.7932 442.982 87.7932 443.685 87.2869 444.119L82.1017 448.564C81.8232 448.802 81.4494 448.91 81.0852 448.886C81.0571 448.888 81.0286 448.889 80.9999 448.889C80.9712 448.889 80.9428 448.888 80.9146 448.886C80.5504 448.91 80.1766 448.802 79.898 448.564L74.7128 444.119C74.2066 443.685 74.2066 442.982 74.7128 442.548C75.2191 442.114 76.0398 442.114 76.5461 442.548L79.8888 445.413L79.8888 432.222Z" fill="black"/>
<path fill-rule="evenodd" clip-rule="evenodd" d="M80.9998 426.667C88.3636 426.667 94.3332 432.636 94.3332 440C94.3332 447.364 88.3636 453.333 80.9998 453.333C73.636 453.333 67.6665 447.364 67.6665 440C67.6665 432.636 73.636 426.667 80.9998 426.667ZM80.9998 428.889C87.1363 428.889 92.1109 433.864 92.1109 440C92.1109 446.137 87.1363 451.111 80.9998 451.111C74.8633 451.111 69.8887 446.137 69.8887 440C69.8887 433.864 74.8633 428.889 80.9998 428.889Z" fill="black"/>
<path d="M79.8888 432.222C79.8888 431.609 80.3863 431.111 80.9999 431.111C81.6136 431.111 82.1111 431.609 82.1111 432.222V445.413L85.4537 442.548C85.9599 442.114 86.7807 442.114 87.2869 442.548C87.7932 442.982 87.7932 443.685 87.2869 444.119L82.1017 448.564C81.8232 448.802 81.4494 448.91 81.0852 448.886C81.0571 448.888 81.0286 448.889 80.9999 448.889C80.9712 448.889 80.9428 448.888 80.9146 448.886C80.5504 448.91 80.1766 448.802 79.898 448.564L74.7128 444.119C74.2066 443.685 74.2066 442.982 74.7128 442.548C75.2191 442.114 76.0398 442.114 76.5461 442.548L79.8888 445.413L79.8888 432.222Z" stroke="black"/>
<path fill-rule="evenodd" clip-rule="evenodd" d="M80.9998 426.667C88.3636 426.667 94.3332 432.636 94.3332 440C94.3332 447.364 88.3636 453.333 80.9998 453.333C73.636 453.333 67.6665 447.364 67.6665 440C67.6665 432.636 73.636 426.667 80.9998 426.667ZM80.9998 428.889C87.1363 428.889 92.1109 433.864 92.1109 440C92.1109 446.137 87.1363 451.111 80.9998 451.111C74.8633 451.111 69.8887 446.137 69.8887 440C69.8887 433.864 74.8633 428.889 80.9998 428.889Z" stroke="black"/>
<path d="M198.889 432.222C198.889 431.609 199.386 431.111 200 431.111C200.614 431.111 201.111 431.609 201.111 432.222V445.413L204.454 442.548C204.96 442.114 205.781 442.114 206.287 442.548C206.793 442.982 206.793 443.685 206.287 444.119L201.102 448.564C200.823 448.802 200.449 448.91 200.085 448.886C200.057 448.888 200.029 448.889 200 448.889C199.971 448.889 199.943 448.888 199.915 448.886C199.55 448.91 199.177 448.802 198.898 448.564L193.713 444.119C193.207 443.685 193.207 442.982 193.713 442.548C194.219 442.114 195.04 442.114 195.546 442.548L198.889 445.413L198.889 432.222Z" fill="black"/>
<path fill-rule="evenodd" clip-rule="evenodd" d="M200 426.667C207.364 426.667 213.333 432.636 213.333 440C213.333 447.364 207.364 453.333 200 453.333C192.636 453.333 186.667 447.364 186.667 440C186.667 432.636 192.636 426.667 200 426.667ZM200 428.889C206.136 428.889 211.111 433.864 211.111 440C211.111 446.137 206.136 451.111 200 451.111C193.863 451.111 188.889 446.137 188.889 440C188.889 433.864 193.863 428.889 200 428.889Z" fill="black"/>
<path d="M75.8754 500.625L78.6882 504.141C79.0476 504.59 78.9748 505.246 78.5255 505.605C78.0763 505.965 77.4208 505.892 77.0614 505.442L72.8965 500.236C72.7526 500.058 72.6665 499.831 72.6665 499.583C72.6665 499.334 72.7543 499.105 72.9006 498.925L77.0614 493.724C77.4208 493.275 78.0763 493.202 78.5255 493.562C78.9748 493.921 79.0476 494.577 78.6882 495.026L75.8755 498.542H86.0743L83.3883 495.408C82.9815 494.933 82.9815 494.164 83.3883 493.689C83.7951 493.215 84.4546 493.215 84.8614 493.689L89.0281 498.55C89.2518 498.812 89.3525 499.162 89.3301 499.503C89.3321 499.53 89.3332 499.556 89.3332 499.583C89.3332 499.61 89.3321 499.637 89.3301 499.664C89.3525 500.005 89.2518 500.355 89.0281 500.616L84.8614 505.477C84.4546 505.952 83.7951 505.952 83.3883 505.477C82.9815 505.003 82.9815 504.233 83.3883 503.759L86.0743 500.625H75.8754Z" fill="black"/>
<path fill-rule="evenodd" clip-rule="evenodd" d="M94.3332 500C94.3332 492.636 88.3636 486.667 80.9998 486.667C73.636 486.667 67.6665 492.636 67.6665 500C67.6665 507.364 73.636 513.333 80.9998 513.333C88.3636 513.333 94.3332 507.364 94.3332 500ZM92.1109 500C92.1109 493.864 87.1363 488.889 80.9998 488.889C74.8633 488.889 69.8887 493.864 69.8887 500C69.8887 506.137 74.8633 511.111 80.9998 511.111C87.1363 511.111 92.1109 506.137 92.1109 500Z" fill="black"/>
<path d="M75.8754 500.625L78.6882 504.141C79.0476 504.59 78.9748 505.246 78.5255 505.605C78.0763 505.965 77.4208 505.892 77.0614 505.442L72.8965 500.236C72.7526 500.058 72.6665 499.831 72.6665 499.583C72.6665 499.334 72.7543 499.105 72.9006 498.925L77.0614 493.724C77.4208 493.275 78.0763 493.202 78.5255 493.562C78.9748 493.921 79.0476 494.577 78.6882 495.026L75.8755 498.542H86.0743L83.3883 495.408C82.9815 494.933 82.9815 494.164 83.3883 493.689C83.7951 493.215 84.4546 493.215 84.8614 493.689L89.0281 498.55C89.2518 498.812 89.3525 499.162 89.3301 499.503C89.3321 499.53 89.3332 499.556 89.3332 499.583C89.3332 499.61 89.3321 499.637 89.3301 499.664C89.3525 500.005 89.2518 500.355 89.0281 500.616L84.8614 505.477C84.4546 505.952 83.7951 505.952 83.3883 505.477C82.9815 505.003 82.9815 504.233 83.3883 503.759L86.0743 500.625H75.8754Z" stroke="black" stroke-linecap="round"/>
<path fill-rule="evenodd" clip-rule="evenodd" d="M94.3332 500C94.3332 492.636 88.3636 486.667 80.9998 486.667C73.636 486.667 67.6665 492.636 67.6665 500C67.6665 507.364 73.636 513.333 80.9998 513.333C88.3636 513.333 94.3332 507.364 94.3332 500ZM92.1109 500C92.1109 493.864 87.1363 488.889 80.9998 488.889C74.8633 488.889 69.8887 493.864 69.8887 500C69.8887 506.137 74.8633 511.111 80.9998 511.111C87.1363 511.111 92.1109 506.137 92.1109 500Z" stroke="black" stroke-linecap="round"/>
<path d="M194.875 500.625L197.688 504.141C198.048 504.59 197.975 505.246 197.526 505.605C197.076 505.965 196.421 505.892 196.061 505.442L191.896 500.236C191.753 500.058 191.667 499.831 191.667 499.583C191.667 499.334 191.754 499.105 191.901 498.925L196.061 493.724C196.421 493.275 197.076 493.202 197.526 493.562C197.975 493.921 198.048 494.577 197.688 495.026L194.875 498.542H205.074L202.388 495.408C201.981 494.933 201.981 494.164 202.388 493.689C202.795 493.215 203.455 493.215 203.861 493.689L208.028 498.55C208.252 498.812 208.353 499.162 208.33 499.503C208.332 499.53 208.333 499.556 208.333 499.583C208.333 499.61 208.332 499.637 208.33 499.664C208.353 500.005 208.252 500.355 208.028 500.616L203.861 505.477C203.455 505.952 202.795 505.952 202.388 505.477C201.981 505.003 201.981 504.233 202.388 503.759L205.074 500.625H194.875Z" fill="black"/>
<path fill-rule="evenodd" clip-rule="evenodd" d="M213.333 500C213.333 492.636 207.364 486.667 200 486.667C192.636 486.667 186.667 492.636 186.667 500C186.667 507.364 192.636 513.333 200 513.333C207.364 513.333 213.333 507.364 213.333 500ZM211.111 500C211.111 493.864 206.136 488.889 200 488.889C193.863 488.889 188.889 493.864 188.889 500C188.889 506.137 193.863 511.111 200 511.111C206.136 511.111 211.111 506.137 211.111 500Z" fill="black"/>
<path d="M80.3748 554.876L76.8589 557.688C76.4096 558.048 75.7541 557.975 75.3947 557.526C75.0354 557.077 75.1082 556.421 75.5574 556.062L80.7636 551.897C80.9422 551.753 81.1693 551.667 81.4165 551.667C81.666 551.667 81.895 551.754 82.0744 551.901L87.2755 556.062C87.7248 556.421 87.7976 557.077 87.4382 557.526C87.0788 557.975 86.4233 558.048 85.9741 557.688L82.4582 554.876V565.075L85.5919 562.389C86.0665 561.982 86.836 561.982 87.3106 562.389C87.7851 562.795 87.7851 563.455 87.3106 563.862L82.4494 568.028C82.1884 568.252 81.8381 568.353 81.4968 568.33C81.4703 568.332 81.4435 568.333 81.4165 568.333C81.3895 568.333 81.3627 568.332 81.3362 568.33C80.9949 568.353 80.6446 568.252 80.3836 568.028L75.5225 563.862C75.0479 563.455 75.0479 562.795 75.5225 562.389C75.997 561.982 76.7665 561.982 77.2411 562.389L80.3748 565.075V554.876Z" fill="black"/>
<path fill-rule="evenodd" clip-rule="evenodd" d="M80.9998 573.333C88.3636 573.333 94.3332 567.364 94.3332 560C94.3332 552.636 88.3636 546.667 80.9998 546.667C73.636 546.667 67.6665 552.636 67.6665 560C67.6665 567.364 73.636 573.333 80.9998 573.333ZM80.9998 571.111C87.1363 571.111 92.1109 566.137 92.1109 560C92.1109 553.864 87.1363 548.889 80.9998 548.889C74.8633 548.889 69.8887 553.864 69.8887 560C69.8887 566.137 74.8633 571.111 80.9998 571.111Z" fill="black"/>
<path d="M80.3748 554.876L76.8589 557.688C76.4096 558.048 75.7541 557.975 75.3947 557.526C75.0354 557.077 75.1082 556.421 75.5574 556.062L80.7636 551.897C80.9422 551.753 81.1693 551.667 81.4165 551.667C81.666 551.667 81.895 551.754 82.0744 551.901L87.2755 556.062C87.7248 556.421 87.7976 557.077 87.4382 557.526C87.0788 557.975 86.4233 558.048 85.9741 557.688L82.4582 554.876V565.075L85.5919 562.389C86.0665 561.982 86.836 561.982 87.3106 562.389C87.7851 562.795 87.7851 563.455 87.3106 563.862L82.4494 568.028C82.1884 568.252 81.8381 568.353 81.4968 568.33C81.4703 568.332 81.4435 568.333 81.4165 568.333C81.3895 568.333 81.3627 568.332 81.3362 568.33C80.9949 568.353 80.6446 568.252 80.3836 568.028L75.5225 563.862C75.0479 563.455 75.0479 562.795 75.5225 562.389C75.997 561.982 76.7665 561.982 77.2411 562.389L80.3748 565.075V554.876Z" stroke="black" stroke-linecap="round"/>
<path fill-rule="evenodd" clip-rule="evenodd" d="M80.9998 573.333C88.3636 573.333 94.3332 567.364 94.3332 560C94.3332 552.636 88.3636 546.667 80.9998 546.667C73.636 546.667 67.6665 552.636 67.6665 560C67.6665 567.364 73.636 573.333 80.9998 573.333ZM80.9998 571.111C87.1363 571.111 92.1109 566.137 92.1109 560C92.1109 553.864 87.1363 548.889 80.9998 548.889C74.8633 548.889 69.8887 553.864 69.8887 560C69.8887 566.137 74.8633 571.111 80.9998 571.111Z" stroke="black" stroke-linecap="round"/>
<path d="M199.375 554.876L195.859 557.688C195.41 558.048 194.754 557.975 194.395 557.526C194.035 557.077 194.108 556.421 194.557 556.062L199.764 551.897C199.942 551.753 200.169 551.667 200.417 551.667C200.666 551.667 200.895 551.754 201.074 551.901L206.276 556.062C206.725 556.421 206.798 557.077 206.438 557.526C206.079 557.975 205.423 558.048 204.974 557.688L201.458 554.876V565.075L204.592 562.389C205.066 561.982 205.836 561.982 206.311 562.389C206.785 562.795 206.785 563.455 206.311 563.862L201.449 568.028C201.188 568.252 200.838 568.353 200.497 568.33C200.47 568.332 200.444 568.333 200.417 568.333C200.389 568.333 200.363 568.332 200.336 568.33C199.995 568.353 199.645 568.252 199.384 568.028L194.522 563.862C194.048 563.455 194.048 562.795 194.522 562.389C194.997 561.982 195.767 561.982 196.241 562.389L199.375 565.075V554.876Z" fill="black"/>
<path fill-rule="evenodd" clip-rule="evenodd" d="M200 573.333C207.364 573.333 213.333 567.364 213.333 560C213.333 552.636 207.364 546.667 200 546.667C192.636 546.667 186.667 552.636 186.667 560C186.667 567.364 192.636 573.333 200 573.333ZM200 571.111C206.136 571.111 211.111 566.137 211.111 560C211.111 553.864 206.136 548.889 200 548.889C193.863 548.889 188.889 553.864 188.889 560C188.889 566.137 193.863 571.111 200 571.111Z" fill="black"/>
<path d="M27.2868 555.881C27.7931 556.315 27.7931 557.018 27.2868 557.452C26.7806 557.886 25.9598 557.886 25.4536 557.452L22.1108 554.587V567.778C22.1108 568.392 21.6134 568.889 20.9997 568.889C20.3861 568.889 19.8886 568.392 19.8886 567.778V554.587L16.546 557.452C16.0397 557.886 15.219 557.886 14.7127 557.452C14.2065 557.018 14.2065 556.315 14.7127 555.881L19.8979 551.437C20.1765 551.198 20.5503 551.09 20.9145 551.114C20.9426 551.112 20.971 551.111 20.9997 551.111C21.0284 551.111 21.0569 551.112 21.085 551.114C21.4493 551.09 21.8231 551.198 22.1016 551.437L27.2868 555.881Z" fill="black"/>
<path fill-rule="evenodd" clip-rule="evenodd" d="M20.9998 573.333C13.636 573.333 7.6665 567.364 7.6665 560C7.6665 552.636 13.636 546.667 20.9998 546.667C28.3636 546.667 34.3332 552.636 34.3332 560C34.3332 567.364 28.3636 573.333 20.9998 573.333ZM20.9998 571.111C14.8633 571.111 9.88873 566.137 9.88873 560C9.88873 553.864 14.8633 548.889 20.9998 548.889C27.1363 548.889 32.1109 553.864 32.1109 560C32.1109 566.137 27.1363 571.111 20.9998 571.111Z" fill="black"/>
<path d="M27.2868 555.881C27.7931 556.315 27.7931 557.018 27.2868 557.452C26.7806 557.886 25.9598 557.886 25.4536 557.452L22.1108 554.587V567.778C22.1108 568.392 21.6134 568.889 20.9997 568.889C20.3861 568.889 19.8886 568.392 19.8886 567.778V554.587L16.546 557.452C16.0397 557.886 15.219 557.886 14.7127 557.452C14.2065 557.018 14.2065 556.315 14.7127 555.881L19.8979 551.437C20.1765 551.198 20.5503 551.09 20.9145 551.114C20.9426 551.112 20.971 551.111 20.9997 551.111C21.0284 551.111 21.0569 551.112 21.085 551.114C21.4493 551.09 21.8231 551.198 22.1016 551.437L27.2868 555.881Z" stroke="black"/>
<path fill-rule="evenodd" clip-rule="evenodd" d="M20.9998 573.333C13.636 573.333 7.6665 567.364 7.6665 560C7.6665 552.636 13.636 546.667 20.9998 546.667C28.3636 546.667 34.3332 552.636 34.3332 560C34.3332 567.364 28.3636 573.333 20.9998 573.333ZM20.9998 571.111C14.8633 571.111 9.88873 566.137 9.88873 560C9.88873 553.864 14.8633 548.889 20.9998 548.889C27.1363 548.889 32.1109 553.864 32.1109 560C32.1109 566.137 27.1363 571.111 20.9998 571.111Z" stroke="black"/>
<path d="M147.287 555.881C147.793 556.315 147.793 557.018 147.287 557.452C146.781 557.886 145.96 557.886 145.454 557.452L142.111 554.587V567.778C142.111 568.392 141.613 568.889 141 568.889C140.386 568.889 139.889 568.392 139.889 567.778V554.587L136.546 557.452C136.04 557.886 135.219 557.886 134.713 557.452C134.207 557.018 134.207 556.315 134.713 555.881L139.898 551.437C140.176 551.198 140.55 551.09 140.914 551.114C140.943 551.112 140.971 551.111 141 551.111C141.028 551.111 141.057 551.112 141.085 551.114C141.449 551.09 141.823 551.198 142.102 551.437L147.287 555.881Z" fill="black"/>
<path fill-rule="evenodd" clip-rule="evenodd" d="M141 573.333C133.636 573.333 127.667 567.364 127.667 560C127.667 552.636 133.636 546.667 141 546.667C148.364 546.667 154.333 552.636 154.333 560C154.333 567.364 148.364 573.333 141 573.333ZM141 571.111C134.863 571.111 129.889 566.137 129.889 560C129.889 553.864 134.863 548.889 141 548.889C147.136 548.889 152.111 553.864 152.111 560C152.111 566.137 147.136 571.111 141 571.111Z" fill="black"/>
<path d="M13.222 498.889L26.4126 498.889L23.5475 495.546C23.1136 495.04 23.1136 494.219 23.5475 493.713C23.9814 493.207 24.685 493.207 25.1189 493.713L29.5633 498.898C29.8021 499.177 29.9094 499.55 29.8855 499.915C29.8876 499.943 29.8887 499.971 29.8887 500C29.8887 500.029 29.8876 500.057 29.8855 500.085C29.9095 500.45 29.8021 500.823 29.5633 501.102L25.1189 506.287C24.685 506.793 23.9814 506.793 23.5475 506.287C23.1136 505.781 23.1136 504.96 23.5475 504.454L26.4127 501.111H13.222C12.6084 501.111 12.1109 500.614 12.1109 500C12.1109 499.386 12.6084 498.889 13.222 498.889Z" fill="black"/>
<path fill-rule="evenodd" clip-rule="evenodd" d="M7.6665 500C7.6665 492.636 13.636 486.667 20.9998 486.667C28.3636 486.667 34.3332 492.636 34.3332 500C34.3332 507.364 28.3636 513.333 20.9998 513.333C13.636 513.333 7.6665 507.364 7.6665 500ZM9.88873 500C9.88873 493.864 14.8633 488.889 20.9998 488.889C27.1363 488.889 32.1109 493.864 32.1109 500C32.1109 506.137 27.1363 511.111 20.9998 511.111C14.8633 511.111 9.88873 506.137 9.88873 500Z" fill="black"/>
<path d="M13.222 498.889L26.4126 498.889L23.5475 495.546C23.1136 495.04 23.1136 494.219 23.5475 493.713C23.9814 493.207 24.685 493.207 25.1189 493.713L29.5633 498.898C29.8021 499.177 29.9094 499.55 29.8855 499.915C29.8876 499.943 29.8887 499.971 29.8887 500C29.8887 500.029 29.8876 500.057 29.8855 500.085C29.9095 500.45 29.8021 500.823 29.5633 501.102L25.1189 506.287C24.685 506.793 23.9814 506.793 23.5475 506.287C23.1136 505.781 23.1136 504.96 23.5475 504.454L26.4127 501.111H13.222C12.6084 501.111 12.1109 500.614 12.1109 500C12.1109 499.386 12.6084 498.889 13.222 498.889Z" stroke="black"/>
<path fill-rule="evenodd" clip-rule="evenodd" d="M7.6665 500C7.6665 492.636 13.636 486.667 20.9998 486.667C28.3636 486.667 34.3332 492.636 34.3332 500C34.3332 507.364 28.3636 513.333 20.9998 513.333C13.636 513.333 7.6665 507.364 7.6665 500ZM9.88873 500C9.88873 493.864 14.8633 488.889 20.9998 488.889C27.1363 488.889 32.1109 493.864 32.1109 500C32.1109 506.137 27.1363 511.111 20.9998 511.111C14.8633 511.111 9.88873 506.137 9.88873 500Z" stroke="black"/>
<path d="M133.222 498.889L146.413 498.889L143.548 495.546C143.114 495.04 143.114 494.219 143.548 493.713C143.981 493.207 144.685 493.207 145.119 493.713L149.563 498.898C149.802 499.177 149.909 499.55 149.885 499.915C149.888 499.943 149.889 499.971 149.889 500C149.889 500.029 149.888 500.057 149.885 500.085C149.909 500.45 149.802 500.823 149.563 501.102L145.119 506.287C144.685 506.793 143.981 506.793 143.548 506.287C143.114 505.781 143.114 504.96 143.548 504.454L146.413 501.111H133.222C132.608 501.111 132.111 500.614 132.111 500C132.111 499.386 132.608 498.889 133.222 498.889Z" fill="black"/>
<path fill-rule="evenodd" clip-rule="evenodd" d="M127.667 500C127.667 492.636 133.636 486.667 141 486.667C148.364 486.667 154.333 492.636 154.333 500C154.333 507.364 148.364 513.333 141 513.333C133.636 513.333 127.667 507.364 127.667 500ZM129.889 500C129.889 493.864 134.863 488.889 141 488.889C147.136 488.889 152.111 493.864 152.111 500C152.111 506.137 147.136 511.111 141 511.111C134.863 511.111 129.889 506.137 129.889 500Z" fill="black"/>
<path fill-rule="evenodd" clip-rule="evenodd" d="M12.8181 65.6276C11.9812 66.4645 11.9812 67.8212 12.8181 68.6581L24.16 80L12.8181 91.3419C11.9812 92.1788 11.9812 93.5355 12.8181 94.3724C13.6549 95.2092 15.0117 95.2092 15.8485 94.3724L28.7057 81.5152C29.5425 80.6784 29.5425 79.3216 28.7057 78.4848L15.8485 65.6276C15.0117 64.7908 13.6549 64.7908 12.8181 65.6276Z" fill="black"/>
<path fill-rule="evenodd" clip-rule="evenodd" d="M133.525 66.3347C133.079 66.781 133.079 67.5046 133.525 67.9509L144.867 79.2928C145.257 79.6834 145.257 80.3165 144.867 80.7071L133.525 92.049C133.079 92.4953 133.079 93.2189 133.525 93.6652L132.818 94.3723L133.525 93.6652C133.971 94.1115 134.695 94.1115 135.141 93.6652L135.848 94.3723L135.141 93.6652L147.998 80.8081C148.445 80.3618 148.445 79.6381 147.998 79.1918L135.141 66.3347C134.695 65.8884 133.971 65.8884 133.525 66.3347Z" fill="black"/>
<path fill-rule="evenodd" clip-rule="evenodd" d="M35.1341 147.944C34.2973 148.781 32.9405 148.781 32.1036 147.944L20.7617 136.602L9.41981 147.944C8.58297 148.781 7.22619 148.781 6.38935 147.944C5.55251 147.107 5.55251 145.75 6.38935 144.913L19.2465 132.056C20.0833 131.219 21.4401 131.219 22.2769 132.056L35.1341 144.913C35.9709 145.75 35.9709 147.107 35.1341 147.944Z" fill="black"/>
<path fill-rule="evenodd" clip-rule="evenodd" d="M154.427 147.237C153.981 147.683 153.257 147.683 152.811 147.237L141.469 135.895C141.078 135.504 140.445 135.504 140.055 135.895L128.713 147.237C128.266 147.683 127.543 147.683 127.096 147.237C126.65 146.79 126.65 146.067 127.096 145.62L139.954 132.763C140.4 132.317 141.124 132.317 141.57 132.763L154.427 145.62C154.873 146.067 154.873 146.79 154.427 147.237Z" fill="black"/>
<path fill-rule="evenodd" clip-rule="evenodd" d="M6.38935 192.056C7.22618 191.219 8.58297 191.219 9.4198 192.056L20.7617 203.398L32.1036 192.056C32.9405 191.219 34.2973 191.219 35.1341 192.056C35.9709 192.893 35.9709 194.25 35.1341 195.087L22.2769 207.944C21.4401 208.781 20.0833 208.781 19.2465 207.944L6.38935 195.087C5.55251 194.25 5.55251 192.893 6.38935 192.056Z" fill="black"/>
<path d="M127.097 192.763C127.543 192.317 128.267 192.317 128.713 192.763L140.055 204.105C140.446 204.496 141.079 204.496 141.469 204.105L152.811 192.763C153.258 192.317 153.981 192.317 154.427 192.763C154.874 193.21 154.874 193.933 154.427 194.38L141.57 207.237C141.124 207.683 140.4 207.683 139.954 207.237L127.097 194.38C126.651 193.933 126.651 193.21 127.097 192.763Z" fill="black"/>
<path fill-rule="evenodd" clip-rule="evenodd" d="M82.0392 5.62763C82.876 6.46447 82.876 7.82125 82.0392 8.65809L70.6972 20L82.0392 31.3419C82.876 32.1788 82.876 33.5355 82.0392 34.3724C81.2023 35.2092 79.8455 35.2092 79.0087 34.3724L66.1516 21.5152C65.3147 20.6784 65.3147 19.3216 66.1516 18.4848L79.0087 5.62763C79.8455 4.79079 81.2023 4.79079 82.0392 5.62763Z" fill="black"/>
<path fill-rule="evenodd" clip-rule="evenodd" d="M95.3725 5.62763C96.2093 6.46447 96.2093 7.82125 95.3725 8.65809L84.0306 20L95.3725 31.3419C96.2093 32.1788 96.2093 33.5355 95.3725 34.3724C94.5357 35.2092 93.1789 35.2092 92.342 34.3724L79.4849 21.5152C78.6481 20.6784 78.6481 19.3216 79.4849 18.4848L92.342 5.62763C93.1789 4.79079 94.5357 4.79079 95.3725 5.62763Z" fill="black"/>
<path d="M200.808 6.33474C201.254 6.78105 201.254 7.50467 200.808 7.95098L189.466 19.2929C189.076 19.6834 189.076 20.3166 189.466 20.7071L200.808 32.049C201.254 32.4953 201.254 33.219 200.808 33.6653C200.362 34.1116 199.638 34.1116 199.192 33.6653L186.335 20.8081C185.888 20.3618 185.888 19.6382 186.335 19.1919L199.192 6.33474C199.638 5.88842 200.362 5.88842 200.808 6.33474Z" fill="black"/>
<path d="M214.141 6.33474C214.588 6.78105 214.588 7.50467 214.141 7.95098L202.8 19.2929C202.409 19.6834 202.409 20.3166 202.8 20.7071L214.141 32.049C214.588 32.4953 214.588 33.219 214.141 33.6653C213.695 34.1116 212.972 34.1116 212.525 33.6653L199.668 20.8081C199.222 20.3618 199.222 19.6382 199.668 19.1919L212.525 6.33474C212.972 5.88842 213.695 5.88842 214.141 6.33474Z" fill="black"/>
<path fill-rule="evenodd" clip-rule="evenodd" d="M79.4849 65.6276C78.6481 66.4645 78.6481 67.8212 79.4849 68.6581L90.8268 80L79.4849 91.3419C78.6481 92.1788 78.6481 93.5355 79.4849 94.3724C80.3217 95.2092 81.6785 95.2092 82.5153 94.3724L95.3725 81.5152C96.2093 80.6784 96.2093 79.3216 95.3725 78.4848L82.5154 65.6276C81.6785 64.7908 80.3217 64.7908 79.4849 65.6276Z" fill="black"/>
<path fill-rule="evenodd" clip-rule="evenodd" d="M66.1516 65.6276C65.3147 66.4645 65.3147 67.8212 66.1516 68.6581L77.4935 80L66.1516 91.3419C65.3147 92.1788 65.3147 93.5355 66.1516 94.3724C66.9884 95.2092 68.3452 95.2092 69.182 94.3724L82.0392 81.5152C82.876 80.6784 82.876 79.3216 82.0392 78.4848L69.182 65.6276C68.3452 64.7908 66.9884 64.7908 66.1516 65.6276Z" fill="black"/>
<path d="M199.668 66.3347C199.222 66.781 199.222 67.5047 199.668 67.951L211.01 79.2929C211.401 79.6834 211.401 80.3166 211.01 80.7071L199.668 92.049C199.222 92.4953 199.222 93.219 199.668 93.6653C200.114 94.1116 200.838 94.1116 201.284 93.6653L214.141 80.8081C214.588 80.3618 214.588 79.6382 214.141 79.1919L201.284 66.3347C200.838 65.8884 200.114 65.8884 199.668 66.3347Z" fill="black"/>
<path d="M186.335 66.3347C185.888 66.7811 185.888 67.5047 186.335 67.951L197.677 79.2929C198.067 79.6834 198.067 80.3166 197.677 80.7071L186.335 92.049C185.888 92.4953 185.888 93.219 186.335 93.6653C186.781 94.1116 187.505 94.1116 187.951 93.6653L200.808 80.8081C201.254 80.3618 201.254 79.6382 200.808 79.1919L187.951 66.3347C187.505 65.8884 186.781 65.8884 186.335 66.3347Z" fill="black"/>
<path fill-rule="evenodd" clip-rule="evenodd" d="M95.1341 141.277C94.2973 142.114 92.9405 142.114 92.1036 141.277L80.7617 129.935L69.4198 141.277C68.583 142.114 67.2262 142.114 66.3893 141.277C65.5525 140.44 65.5525 139.084 66.3893 138.247L79.2465 125.39C80.0833 124.553 81.4401 124.553 82.2769 125.39L95.1341 138.247C95.9709 139.084 95.9709 140.44 95.1341 141.277Z" fill="black"/>
<path fill-rule="evenodd" clip-rule="evenodd" d="M95.1341 154.611C94.2973 155.447 92.9405 155.447 92.1036 154.611L80.7617 143.269L69.4198 154.611C68.583 155.447 67.2262 155.447 66.3893 154.611C65.5525 153.774 65.5525 152.417 66.3893 151.58L79.2465 138.723C80.0833 137.886 81.4401 137.886 82.2769 138.723L95.1341 151.58C95.9709 152.417 95.9709 153.774 95.1341 154.611Z" fill="black"/>
<path d="M213.427 140.57C212.981 141.016 212.257 141.016 211.811 140.57L200.469 129.228C200.078 128.838 199.445 128.838 199.055 129.228L187.713 140.57C187.266 141.016 186.543 141.016 186.096 140.57C185.65 140.124 185.65 139.4 186.096 138.954L198.954 126.097C199.4 125.65 200.124 125.65 200.57 126.097L213.427 138.954C213.873 139.4 213.873 140.124 213.427 140.57Z" fill="black"/>
<path d="M213.427 153.903C212.981 154.35 212.257 154.35 211.811 153.903L200.469 142.562C200.078 142.171 199.445 142.171 199.055 142.562L187.713 153.903C187.266 154.35 186.543 154.35 186.096 153.903C185.65 153.457 185.65 152.733 186.096 152.287L198.954 139.43C199.4 138.984 200.124 138.984 200.57 139.43L213.427 152.287C213.873 152.733 213.873 153.457 213.427 153.903Z" fill="black"/>
<path fill-rule="evenodd" clip-rule="evenodd" d="M66.3893 198.723C67.2262 197.886 68.583 197.886 69.4198 198.723L80.7617 210.065L92.1036 198.723C92.9405 197.886 94.2973 197.886 95.1341 198.723C95.9709 199.56 95.9709 200.917 95.1341 201.753L82.2769 214.611C81.4401 215.447 80.0833 215.447 79.2465 214.611L66.3893 201.753C65.5525 200.917 65.5525 199.56 66.3893 198.723Z" fill="black"/>
<path fill-rule="evenodd" clip-rule="evenodd" d="M66.3893 185.39C67.2262 184.553 68.583 184.553 69.4198 185.39L80.7617 196.732L92.1036 185.39C92.9405 184.553 94.2973 184.553 95.1341 185.39C95.9709 186.226 95.9709 187.583 95.1341 188.42L82.2769 201.277C81.4401 202.114 80.0833 202.114 79.2465 201.277L66.3893 188.42C65.5525 187.583 65.5525 186.226 66.3893 185.39Z" fill="black"/>
<path d="M186.096 199.43C186.543 198.984 187.266 198.984 187.713 199.43L199.055 210.772C199.445 211.162 200.078 211.162 200.469 210.772L211.811 199.43C212.257 198.984 212.981 198.984 213.427 199.43C213.873 199.876 213.873 200.6 213.427 201.046L200.57 213.903C200.124 214.35 199.4 214.35 198.954 213.903L186.096 201.046C185.65 200.6 185.65 199.876 186.096 199.43Z" fill="black"/>
<path d="M186.096 186.097C186.543 185.65 187.266 185.65 187.713 186.097L199.055 197.439C199.445 197.829 200.078 197.829 200.469 197.439L211.811 186.097C212.257 185.65 212.981 185.65 213.427 186.097C213.873 186.543 213.873 187.267 213.427 187.713L200.57 200.57C200.124 201.016 199.4 201.016 198.954 200.57L186.096 187.713C185.65 187.267 185.65 186.543 186.096 186.097Z" fill="black"/>
</g>
<defs>
<clipPath id="clip0_2605_71998">
<rect width="220" height="580" rx="5" fill="white"/>
</clipPath>
</defs>
</svg>
