<svg width="160" height="580" viewBox="0 0 160 580" fill="none" xmlns="http://www.w3.org/2000/svg">
<g clip-path="url(#clip0_3511_24527)">
<path d="M17.8372 18.8833C17.2684 19.2814 17.2684 20.1237 17.8372 20.5218L31.76 30.2678C32.4228 30.7318 33.3335 30.2576 33.3335 29.4486V9.95657C33.3335 9.14754 32.4228 8.67339 31.76 9.13733L17.8372 18.8833Z" fill="black"/>
<path d="M6.17066 18.8833C5.60194 19.2814 5.60194 20.1237 6.17065 20.5218L20.0935 30.2678C20.7563 30.7318 21.667 30.2576 21.667 29.4486V9.95657C21.667 9.14754 20.7563 8.67339 20.0935 9.13733L6.17066 18.8833Z" fill="black"/>
<path d="M14.6589 79.1565C14.0414 79.5495 14.0414 80.4509 14.6589 80.8438L30.1296 90.6888C30.7954 91.1125 31.6665 90.6343 31.6665 89.8452V70.1552C31.6665 69.3661 30.7954 68.8879 30.1296 69.3115L14.6589 79.1565Z" fill="black"/>
<rect x="11.6665" y="91.6667" width="3.33333" height="23.3333" rx="1" transform="rotate(-180 11.6665 91.6667)" fill="black"/>
<path d="M33.6434 139.152C34.27 139.544 34.27 140.456 33.6434 140.848L9.86349 155.71C9.19745 156.127 8.3335 155.648 8.3335 154.862V125.138C8.3335 124.352 9.19745 123.873 9.86349 124.29L33.6434 139.152Z" fill="black"/>
<path d="M27.85 212.5H12.1833C11.5661 212.516 10.9521 212.406 10.3787 212.177C9.80525 211.948 9.28438 211.605 8.8478 211.169C8.41122 210.732 8.06806 210.211 7.83922 209.638C7.61037 209.064 7.50063 208.45 7.51667 207.833V192.166C7.50063 191.549 7.61037 190.935 7.83922 190.362C8.06806 189.788 8.41122 189.268 8.8478 188.831C9.28438 188.394 9.80525 188.051 10.3787 187.822C10.9521 187.594 11.5661 187.484 12.1833 187.5H27.85C28.4672 187.484 29.0812 187.594 29.6547 187.822C30.2281 188.051 30.749 188.394 31.1855 188.831C31.6221 189.268 31.9653 189.788 32.1941 190.362C32.423 190.935 32.5327 191.549 32.5167 192.166V207.833C32.5327 208.45 32.423 209.064 32.1941 209.638C31.9653 210.211 31.6221 210.732 31.1855 211.169C30.749 211.605 30.2281 211.948 29.6547 212.177C29.0812 212.406 28.4672 212.516 27.85 212.5Z" fill="black"/>
<circle cx="19.5" cy="260.5" r="14.5" fill="black"/>
<path d="M12.8501 333.5V306.5C12.8501 306.058 13.0257 305.634 13.3383 305.321C13.6508 305.009 14.0747 304.833 14.5168 304.833C14.9588 304.833 15.3827 305.009 15.6953 305.321C16.0078 305.634 16.1834 306.058 16.1834 306.5V333.5C16.1834 333.942 16.0078 334.366 15.6953 334.678C15.3827 334.991 14.9588 335.167 14.5168 335.167C14.0747 335.167 13.6508 334.991 13.3383 334.678C13.0257 334.366 12.8501 333.942 12.8501 333.5V333.5Z" fill="black"/>
<path d="M23.8501 333.5V306.5C23.8501 306.058 24.0257 305.634 24.3383 305.321C24.6508 305.009 25.0747 304.833 25.5168 304.833C25.9588 304.833 26.3827 305.009 26.6953 305.321C27.0078 305.634 27.1834 306.058 27.1834 306.5V333.5C27.1834 333.942 27.0078 334.366 26.6953 334.678C26.3827 334.991 25.9588 335.167 25.5168 335.167C25.0747 335.167 24.6508 334.991 24.3383 334.678C24.0257 334.366 23.8501 333.942 23.8501 333.5V333.5Z" fill="black"/>
<path d="M25.3411 379.156C25.9586 379.549 25.9586 380.451 25.3411 380.844L9.87037 390.689C9.20465 391.112 8.3335 390.634 8.3335 389.845V370.155C8.3335 369.366 9.20465 368.888 9.87037 369.311L25.3411 379.156Z" fill="black"/>
<rect width="3.33334" height="23.3333" rx="1" transform="matrix(1 0 0 -1 28.3335 391.667)" fill="black"/>
<path d="M22.1628 438.883C22.7316 439.281 22.7316 440.124 22.1628 440.522L8.23997 450.268C7.57719 450.732 6.6665 450.258 6.6665 449.449V429.957C6.6665 429.148 7.57719 428.673 8.23997 429.137L22.1628 438.883Z" fill="black"/>
<path d="M33.8293 438.883C34.3981 439.281 34.3981 440.124 33.8293 440.522L19.9065 450.268C19.2437 450.732 18.333 450.258 18.333 449.449V429.957C18.333 429.148 19.2437 428.673 19.9065 429.137L33.8293 438.883Z" fill="black"/>
<path d="M20.3057 486.724C20.9675 486.251 21.8869 486.724 21.8869 487.537V513.463C21.8869 514.276 20.9675 514.749 20.3057 514.276L11.4529 507.953H6C4.89543 507.953 4 507.058 4 505.953V495.047C4 493.943 4.89543 493.047 6 493.047H11.4529L20.3057 486.724Z" fill="black"/>
<path d="M26.349 507.814C28.1986 505.931 29.3395 503.35 29.3395 500.502C29.3395 497.642 28.189 495.051 26.3257 493.166" stroke="black" stroke-width="2" stroke-linecap="round" stroke-linejoin="round"/>
<path d="M30.501 488.906C33.4681 491.873 35.3033 495.972 35.3033 500.5C35.3033 505.028 33.4681 509.127 30.501 512.094" stroke="black" stroke-width="2" stroke-linecap="round" stroke-linejoin="round"/>
<path d="M22.6911 548.039C22.6912 547.855 22.6425 547.674 22.55 547.516C22.4575 547.357 22.3246 547.226 22.1647 547.135C22.0049 547.044 21.8239 546.998 21.6402 547C21.4564 547.002 21.2766 547.053 21.119 547.148L10.9822 553.226H7.11519C5.39353 553.226 4 554.618 4 556.342V564.653C4 566.375 5.39145 567.768 7.11519 567.768H10.9822L21.1169 573.851C21.2746 573.946 21.4546 573.997 21.6386 574C21.8227 574.002 22.004 573.956 22.1642 573.865C22.3244 573.775 22.4576 573.643 22.5502 573.484C22.6427 573.325 22.6914 573.144 22.6911 572.96V548.039Z" fill="black"/>
<path d="M36.3416 564.735L32.1685 560.563L36.3416 556.391L34.258 554.303L30.0819 558.475L25.9088 554.303L23.8223 556.391L27.9954 560.563L23.8223 564.735L25.9088 566.822L30.0819 562.65L34.255 566.822L36.3416 564.735Z" fill="black"/>
<path d="M80.3039 5.00266C78.8178 4.99282 77.3446 5.27826 75.9698 5.84242C74.5949 6.40658 73.3458 7.23821 72.295 8.28904C71.2442 9.33987 70.4125 10.589 69.8484 11.9638C69.2842 13.3387 68.9988 14.8119 69.0086 16.298C68.9259 18.3741 69.44 20.4304 70.49 22.2234L80.1187 35L89.7475 22.2234C90.7571 20.4142 91.2683 18.3694 91.2289 16.298C91.3109 14.8245 91.0874 13.35 90.5723 11.9671C90.0572 10.5841 89.2617 9.32268 88.2357 8.26193C87.2098 7.20118 85.9755 6.36407 84.6105 5.80318C83.2455 5.24229 81.7793 4.96974 80.3039 5.00266V5.00266Z" stroke="black" stroke-width="3"/>
<path d="M80.3041 13.1501C80.9267 13.1501 81.5353 13.3348 82.053 13.6807C82.5706 14.0266 82.9741 14.5182 83.2124 15.0934C83.4506 15.6686 83.513 16.3015 83.3915 16.9121C83.27 17.5228 82.9702 18.0837 82.53 18.5239C82.0898 18.9641 81.5289 19.2639 80.9182 19.3854C80.3076 19.5069 79.6747 19.4445 79.0995 19.2063C78.5243 18.968 78.0327 18.5645 77.6868 18.0469C77.3409 17.5292 77.1562 16.9206 77.1562 16.298C77.1796 15.4705 77.5187 14.6833 78.1041 14.098C78.6894 13.5126 79.4766 13.1735 80.3041 13.1501Z" stroke="black" stroke-width="3"/>
<path d="M80.3039 65.0027C78.8178 64.9928 77.3446 65.2783 75.9698 65.8424C74.5949 66.4066 73.3458 67.2382 72.295 68.2891C71.2442 69.3399 70.4125 70.589 69.8484 71.9638C69.2842 73.3387 68.9988 74.8119 69.0086 76.298C68.9259 78.3741 69.44 80.4304 70.49 82.2233L80.1187 95L89.7475 82.2233C90.7571 80.4142 91.2683 78.3694 91.2289 76.298C91.3109 74.8245 91.0874 73.35 90.5723 71.9671C90.0572 70.5842 89.2617 69.3227 88.2357 68.2619C87.2097 67.2012 85.9755 66.3641 84.6105 65.8032C83.2455 65.2423 81.7793 64.9697 80.3039 65.0027V65.0027ZM80.3039 79.4458C79.8898 79.4483 79.4794 79.3685 79.0964 79.2112C78.7133 79.0539 78.3653 78.8221 78.0725 78.5293C77.7797 78.2365 77.548 77.8885 77.3906 77.5055C77.2333 77.1225 77.1536 76.712 77.156 76.298C77.1794 75.4705 77.5185 74.6833 78.1039 74.0979C78.6892 73.5126 79.4764 73.1734 80.3039 73.1501C81.1388 73.1501 81.9394 73.4817 82.5298 74.0721C83.1201 74.6624 83.4518 75.4631 83.4518 76.298C83.4518 77.1328 83.1201 77.9335 82.5298 78.5238C81.9394 79.1142 81.1388 79.4458 80.3039 79.4458V79.4458Z" fill="black"/>
<path d="M68.8335 128.917V149.75L89.6668 128.917H68.8335Z" stroke="black" stroke-width="3"/>
<path d="M68.8332 132.083C70.5821 132.083 71.9998 130.666 71.9998 128.917C71.9998 127.168 70.5821 125.75 68.8332 125.75C67.0843 125.75 65.6665 127.168 65.6665 128.917C65.6665 130.666 67.0843 132.083 68.8332 132.083Z" fill="white" stroke="black" stroke-width="3"/>
<path d="M68.8332 152.75C70.5821 152.75 71.9998 151.332 71.9998 149.583C71.9998 147.834 70.5821 146.417 68.8332 146.417C67.0843 146.417 65.6665 147.834 65.6665 149.583C65.6665 151.332 67.0843 152.75 68.8332 152.75Z" fill="white" stroke="black" stroke-width="3"/>
<path d="M89.5002 132.083C91.2491 132.083 92.6668 130.666 92.6668 128.917C92.6668 127.168 91.2491 125.75 89.5002 125.75C87.7513 125.75 86.3335 127.168 86.3335 128.917C86.3335 130.666 87.7513 132.083 89.5002 132.083Z" fill="white" stroke="black" stroke-width="3"/>
<path d="M81.3333 132.917C79.1232 132.917 77.0036 133.795 75.4408 135.358C73.878 136.92 73 139.04 73 141.25C73 147.917 81 153.583 81.3333 153.75C81.3333 153.75 89.6667 147.917 89.6667 141.25C89.6323 139.051 88.7433 136.951 87.1879 135.396C85.6325 133.84 83.5328 132.951 81.3333 132.917ZM81.3333 145.583C80.5092 145.583 79.7037 145.339 79.0185 144.881C78.3333 144.423 77.7992 143.773 77.4838 143.011C77.1685 142.25 77.086 141.412 77.2467 140.604C77.4075 139.796 77.8043 139.053 78.3871 138.47C78.9698 137.888 79.7122 137.491 80.5205 137.33C81.3287 137.169 82.1665 137.252 82.9278 137.567C83.6892 137.883 84.3399 138.417 84.7978 139.102C85.2556 139.787 85.5 140.593 85.5 141.417C85.4828 142.516 85.0383 143.566 84.2606 144.344C83.4829 145.122 82.433 145.566 81.3333 145.583Z" fill="black"/>
<path d="M77.1665 141.25C77.1665 142.074 77.4109 142.88 77.8687 143.565C78.3266 144.25 78.9773 144.784 79.7387 145.099C80.5 145.415 81.3378 145.497 82.146 145.337C82.9543 145.176 83.6967 144.779 84.2794 144.196C84.8622 143.613 85.259 142.871 85.4198 142.063C85.5805 141.255 85.498 140.417 85.1827 139.655C84.8673 138.894 84.3333 138.243 83.648 137.785C82.9628 137.328 82.1573 137.083 81.3332 137.083C80.2425 137.128 79.2087 137.582 78.4369 138.354C77.665 139.125 77.2116 140.159 77.1665 141.25V141.25Z" fill="white"/>
<path d="M78.3332 186.083L69.9998 189.25C69.4664 189.466 69.0082 189.833 68.6822 190.308C68.3562 190.782 68.1769 191.341 68.1665 191.917V199.75C68.3902 202.781 69.4843 205.683 71.3173 208.108C73.1504 210.532 75.6444 212.375 78.4998 213.417C78.986 213.583 79.5137 213.583 79.9998 213.417C82.8553 212.375 85.3493 210.532 87.1824 208.108C89.0154 205.683 90.1095 202.781 90.3332 199.75V191.917C90.3462 191.374 90.1693 190.843 89.8332 190.417C89.5105 189.946 89.042 189.595 88.4998 189.417L80.1665 186.25C79.9229 186.022 79.6104 185.883 79.2784 185.852C78.9464 185.822 78.6138 185.903 78.3332 186.083V186.083ZM79.3332 210.583V199.583H70.9998V191.75L79.3332 188.583V199.583H87.6665C87.392 201.996 86.4735 204.29 85.0073 206.225C83.5411 208.161 81.5812 209.666 79.3332 210.583V210.583Z" fill="black"/>
<path d="M80.0002 262.927C85.8538 262.927 90.488 265.122 90.488 267.561V270.976H70.2441V267.561C70.0002 264.878 74.6343 262.927 80.0002 262.927ZM80.0002 249.512C81.2197 249.512 82.1953 250 83.4148 250.976C84.1465 251.707 84.8782 252.927 84.8782 254.39C84.8782 255.854 84.3904 256.585 83.4148 257.805C82.6831 258.537 81.4636 259.268 80.0002 259.268C78.7807 259.268 77.8051 258.781 76.5855 257.805C75.8538 257.073 75.1221 255.854 75.1221 254.39C75.1221 252.927 75.6099 252.195 76.5855 250.976C77.5611 249.756 78.7807 249.512 80.0002 249.512V249.512Z" fill="#03D0FF" stroke="#03D0FF" stroke-width="0.79"/>
<path d="M83.4153 272.927L83.1714 275.61V276.098H86.3421L86.586 275.854L94.6348 267.805L94.8787 267.561L94.6348 267.317L92.1958 264.878L91.9519 264.634L91.708 264.878L83.4153 272.927ZM92.1958 264.146V264.634L94.6348 267.073L94.8787 267.317L95.1226 267.073L96.8299 265.366L97.0738 265.122L96.8299 264.878L94.3909 262.439L94.147 262.195L93.9031 262.439L92.1958 264.146Z" fill="black"/>
<path d="M86.3419 276.098H82.9272V272.683L83.1711 272.439L94.1468 261.463L97.5614 264.878L86.3419 276.098ZM83.659 275.61H86.098L94.1468 267.561L91.7077 265.122L83.659 273.171V275.61V275.61ZM92.4394 264.146L94.8785 266.585L96.5858 264.878L94.1468 262.439L92.4394 264.146Z" fill="white"/>
<path d="M72.439 329.512H83.9024C84.6341 329.512 84.878 329.268 85.1219 328.78C85.3658 328.536 85.8536 327.805 85.8536 327.561V316.341C85.8536 315.61 85.6097 315.366 85.1219 315.122C84.878 314.878 84.1463 314.39 83.9024 314.39H72.439C71.7073 314.39 71.4634 314.634 71.2195 315.122C70.9756 315.366 70.4878 316.097 70.4878 316.341V327.805C70.4878 328.536 70.7317 328.78 71.2195 329.024C71.2195 329.268 71.9512 329.512 72.439 329.512ZM74.3902 320.976H77.0732V318.293H79.0244V320.976H81.7073V322.927H79.0244V325.61H77.0732V322.927H74.3902V320.976V320.976Z" fill="#3E66FB"/>
<path d="M87.5611 310.488H76.0977V312.439H87.5611V323.659H89.5123V312.195C89.2684 311.463 88.5367 310.488 87.5611 310.488Z" fill="#3E66FB"/>
<path d="M81.4631 334.146L81.2192 334.39V338.049H85.1217L85.3656 337.805L95.8534 327.317L96.0973 327.073L95.8534 326.829L92.6827 323.659L92.4388 323.415L92.1948 323.659L81.4631 334.146V334.146ZM92.9266 322.683L92.6827 322.927L92.9266 323.171L96.0973 326.341L96.3412 326.585L96.5851 326.341L98.7802 324.146L99.0241 323.902L98.7802 323.659L95.6095 320.488L95.3656 320.244L95.1217 320.488L92.9266 322.683Z" fill="black"/>
<path d="M85.1217 338.537H80.7314V334.146L95.1217 319.756L99.5119 324.146L96.3412 327.317L85.1217 338.537V338.537ZM81.7071 337.561H84.8778L95.3656 327.073L92.1949 323.902L81.7071 334.39V337.561V337.561ZM93.1705 322.927L96.3412 326.098L98.5363 323.902L95.3656 320.732L93.1705 322.927Z" fill="white"/>
<path d="M92.7435 394.552H80.0523C78.5766 394.552 77.396 393.358 77.396 391.866V379.03C77.396 377.537 78.5766 376.343 80.0523 376.343H92.7435C94.2192 376.343 95.3998 377.537 95.3998 379.03V391.866C95.3998 393.358 94.2192 394.552 92.7435 394.552V394.552Z" fill="black"/>
<path d="M81.5281 384.701H67.9514C66.1806 384.701 65 383.507 65 381.716V367.985C65 366.194 66.1806 365 67.9514 365H81.5281C83.2989 365 84.4795 366.194 84.4795 367.985V381.716C84.4795 383.209 83.2989 384.701 81.5281 384.701Z" fill="#3E66FB" stroke="white" stroke-width="0.6" stroke-miterlimit="10"/>
<path d="M73.559 372.164C73.559 371.866 73.2639 371.866 73.559 372.164L69.7221 371.866V370.075H73.8541C74.0509 370.075 74.2477 370.174 74.4444 370.373L75.0347 370.97C75.2315 371.169 75.3299 371.368 75.3299 371.567V372.164C75.3299 372.761 75.0347 373.657 74.7396 374.254C74.4444 374.851 74.1493 375.448 73.559 376.045L72.0833 377.537C71.493 377.836 70.9027 378.433 70.3124 378.731H70.0173L69.427 378.134C69.1318 377.836 69.1318 377.537 69.1318 377.537C69.1318 377.537 69.1318 377.239 69.427 377.239C69.7221 376.94 70.3124 376.642 70.6076 376.343C71.1978 376.045 71.493 375.746 71.7881 375.149C72.0833 374.851 72.6736 374.254 72.6736 373.657C73.2639 373.06 73.559 372.761 73.559 372.164V372.164ZM77.1007 369.179H78.8716V373.06H80.9376V374.552H78.8716V380.522C78.8716 380.721 78.7732 380.821 78.5764 380.821H77.3959C77.1007 380.821 77.1007 380.522 77.1007 380.522V369.179V369.179Z" fill="white"/>
<path d="M87.0177 390.164H85.4829L88.4344 380.94H89.5854L92.5369 390.164H91.0021L90.4413 388.314H87.5784L86.9881 390.164H87.0177ZM88.0507 386.791H90.0281L89.0542 383.627L88.0507 386.791V386.791Z" fill="white"/>
<path opacity="0.5" d="M88.6114 367.09H92.1531C93.924 367.09 95.1046 368.284 95.1046 370.075V372.761C95.1046 373.06 94.8094 373.06 94.8094 373.06C94.5143 373.06 94.5143 372.761 94.5143 372.761V369.776C94.5143 368.881 93.924 368.284 93.0386 367.985H88.9065C89.2017 367.985 89.2017 368.284 89.4968 368.284C89.792 368.284 89.792 368.582 89.792 368.881C89.5952 369.08 89.3985 369.08 89.2017 368.881C88.6114 368.582 88.0211 368.284 87.4308 367.687C87.1357 367.388 87.1357 367.09 87.4308 366.791C88.0211 366.493 88.6114 365.896 89.2017 365.597C89.3985 365.398 89.5952 365.398 89.792 365.597C90.0871 365.896 89.792 365.896 89.4968 366.194C89.2017 366.791 88.9066 366.791 88.6114 367.09V367.09Z" fill="black" stroke="black" stroke-width="0.3" stroke-miterlimit="10"/>
<path d="M72.6738 393.358H69.1321C67.3612 393.358 66.1807 392.164 66.1807 390.373V387.686C66.1807 387.388 66.4758 387.388 66.4758 387.388C66.771 387.388 66.771 387.686 66.771 387.686V390.672C66.771 391.567 67.3612 392.164 68.2467 392.463H72.3787C72.0835 392.463 72.0835 392.164 71.7884 392.164C71.4933 392.164 71.4933 391.866 71.4933 391.567C71.69 391.368 71.8868 391.368 72.0835 391.567C72.6738 391.866 73.2641 392.164 73.8544 392.761C74.1496 393.06 74.1496 393.358 73.8544 393.657C73.2641 393.955 72.6738 394.552 72.0835 394.851C71.8868 395.05 71.69 395.05 71.4933 394.851C71.1981 394.552 71.4933 394.552 71.7884 394.254C72.0835 393.657 72.3787 393.358 72.6738 393.358V393.358Z" fill="black" stroke="black" stroke-width="0.3" stroke-miterlimit="10"/>
<path d="M126.5 15.5H149V24.5H126.5V15.5Z" fill="black"/>
<path d="M126.5 11C125.307 11 124.162 11.4741 123.318 12.318C122.474 13.1619 122 14.3065 122 15.5V24.5C122 25.6935 122.474 26.8381 123.318 27.682C124.162 28.5259 125.307 29 126.5 29H149C150.193 29 151.338 28.5259 152.182 27.682C153.026 26.8381 153.5 25.6935 153.5 24.5V15.5C153.5 14.3065 153.026 13.1619 152.182 12.318C151.338 11.4741 150.193 11 149 11H126.5ZM149 13.25C149.597 13.25 150.169 13.4871 150.591 13.909C151.013 14.331 151.25 14.9033 151.25 15.5V24.5C151.25 25.0967 151.013 25.669 150.591 26.091C150.169 26.5129 149.597 26.75 149 26.75H126.5C125.903 26.75 125.331 26.5129 124.909 26.091C124.487 25.669 124.25 25.0967 124.25 24.5V15.5C124.25 14.9033 124.487 14.331 124.909 13.909C125.331 13.4871 125.903 13.25 126.5 13.25H149ZM158 20C158 20.8951 157.644 21.7536 157.011 22.3865C156.379 23.0194 155.52 23.375 154.625 23.375V16.625C155.52 16.625 156.379 16.9806 157.011 17.6135C157.644 18.2464 158 19.1049 158 20Z" fill="black"/>
<path d="M126.5 75.5H137.75V84.5H126.5V75.5Z" fill="black"/>
<path d="M126.5 71C125.307 71 124.162 71.4741 123.318 72.318C122.474 73.1619 122 74.3065 122 75.5V84.5C122 85.6935 122.474 86.8381 123.318 87.682C124.162 88.5259 125.307 89 126.5 89H149C150.193 89 151.338 88.5259 152.182 87.682C153.026 86.8381 153.5 85.6935 153.5 84.5V75.5C153.5 74.3065 153.026 73.1619 152.182 72.318C151.338 71.4741 150.193 71 149 71H126.5ZM149 73.25C149.597 73.25 150.169 73.4871 150.591 73.909C151.013 74.331 151.25 74.9033 151.25 75.5V84.5C151.25 85.0967 151.013 85.669 150.591 86.091C150.169 86.5129 149.597 86.75 149 86.75H126.5C125.903 86.75 125.331 86.5129 124.909 86.091C124.487 85.669 124.25 85.0967 124.25 84.5V75.5C124.25 74.9033 124.487 74.331 124.909 73.909C125.331 73.4871 125.903 73.25 126.5 73.25H149ZM158 80C158 80.8951 157.644 81.7536 157.011 82.3865C156.379 83.0194 155.52 83.375 154.625 83.375V76.625C155.52 76.625 156.379 76.9806 157.011 77.6135C157.644 78.2464 158 79.1049 158 80Z" fill="black"/>
<path d="M126.5 131C125.307 131 124.162 131.474 123.318 132.318C122.474 133.162 122 134.307 122 135.5V144.5C122 145.693 122.474 146.838 123.318 147.682C124.162 148.526 125.307 149 126.5 149H149C150.193 149 151.338 148.526 152.182 147.682C153.026 146.838 153.5 145.693 153.5 144.5V135.5C153.5 134.307 153.026 133.162 152.182 132.318C151.338 131.474 150.193 131 149 131H126.5ZM149 133.25C149.597 133.25 150.169 133.487 150.591 133.909C151.013 134.331 151.25 134.903 151.25 135.5V144.5C151.25 145.097 151.013 145.669 150.591 146.091C150.169 146.513 149.597 146.75 149 146.75H126.5C125.903 146.75 125.331 146.513 124.909 146.091C124.487 145.669 124.25 145.097 124.25 144.5V135.5C124.25 134.903 124.487 134.331 124.909 133.909C125.331 133.487 125.903 133.25 126.5 133.25H149ZM158 140C158 140.895 157.644 141.754 157.011 142.386C156.379 143.019 155.52 143.375 154.625 143.375V136.625C155.52 136.625 156.379 136.981 157.011 137.614C157.644 138.246 158 139.105 158 140Z" fill="black"/>
</g>
<defs>
<clipPath id="clip0_3511_24527">
<rect width="160" height="580" rx="5" fill="white"/>
</clipPath>
</defs>
</svg>
