<svg width="160" height="580" viewBox="0 0 160 580" fill="none" xmlns="http://www.w3.org/2000/svg">
<path d="M17.837 18.8833C17.2683 19.2814 17.2683 20.1237 17.837 20.5218L31.7599 30.2678C32.4227 30.7318 33.3334 30.2576 33.3334 29.4486V9.95657C33.3334 9.14754 32.4227 8.67339 31.7599 9.13733L17.837 18.8833Z" fill="black"/>
<path d="M6.17041 18.8833C5.6017 19.2814 5.60169 20.1237 6.17041 20.5218L20.0933 30.2678C20.7561 30.7318 21.6667 30.2576 21.6667 29.4486V9.95657C21.6667 9.14754 20.7561 8.67339 20.0933 9.13733L6.17041 18.8833Z" fill="black"/>
<path d="M14.659 79.1563C14.0415 79.5493 14.0415 80.4507 14.659 80.8437L30.1297 90.6886C30.7955 91.1123 31.6666 90.6341 31.6666 89.845V70.155C31.6666 69.3659 30.7955 68.8877 30.1298 69.3113L14.659 79.1563Z" fill="black"/>
<rect x="11.6666" y="91.6667" width="3.33333" height="23.3333" rx="1" transform="rotate(-180 11.6666 91.6667)" fill="black"/>
<path d="M33.6432 139.152C34.2699 139.544 34.2699 140.456 33.6432 140.848L9.86337 155.71C9.19732 156.127 8.33337 155.648 8.33337 154.862V125.138C8.33337 124.352 9.19732 123.873 9.86337 124.29L33.6432 139.152Z" fill="black"/>
<path d="M27.85 212.5H12.1833C11.5661 212.516 10.9521 212.406 10.3787 212.177C9.80525 211.948 9.28438 211.605 8.8478 211.169C8.41122 210.732 8.06806 210.211 7.83922 209.638C7.61037 209.064 7.50063 208.45 7.51667 207.833V192.167C7.50063 191.549 7.61037 190.935 7.83922 190.362C8.06806 189.788 8.41122 189.268 8.8478 188.831C9.28438 188.394 9.80525 188.051 10.3787 187.822C10.9521 187.594 11.5661 187.484 12.1833 187.5H27.85C28.4672 187.484 29.0812 187.594 29.6547 187.822C30.2281 188.051 30.749 188.394 31.1855 188.831C31.6221 189.268 31.9653 189.788 32.1941 190.362C32.423 190.935 32.5327 191.549 32.5167 192.167V207.833C32.5327 208.45 32.423 209.064 32.1941 209.638C31.9653 210.211 31.6221 210.732 31.1855 211.169C30.749 211.605 30.2281 211.948 29.6547 212.177C29.0812 212.406 28.4672 212.516 27.85 212.5Z" fill="black"/>
<circle cx="19.5" cy="260.5" r="14.5" fill="black"/>
<path d="M12.8501 333.5V306.5C12.8501 306.058 13.0257 305.634 13.3383 305.321C13.6508 305.009 14.0747 304.833 14.5168 304.833C14.9588 304.833 15.3827 305.009 15.6953 305.321C16.0078 305.634 16.1834 306.058 16.1834 306.5V333.5C16.1834 333.942 16.0078 334.366 15.6953 334.678C15.3827 334.991 14.9588 335.167 14.5168 335.167C14.0747 335.167 13.6508 334.991 13.3383 334.678C13.0257 334.366 12.8501 333.942 12.8501 333.5V333.5Z" fill="black"/>
<path d="M23.85 333.5V306.5C23.85 306.058 24.0256 305.634 24.3381 305.321C24.6507 305.009 25.0746 304.833 25.5166 304.833C25.9587 304.833 26.3826 305.009 26.6952 305.321C27.0077 305.634 27.1833 306.058 27.1833 306.5V333.5C27.1833 333.942 27.0077 334.366 26.6952 334.678C26.3826 334.991 25.9587 335.167 25.5166 335.167C25.0746 335.167 24.6507 334.991 24.3381 334.678C24.0256 334.366 23.85 333.942 23.85 333.5V333.5Z" fill="black"/>
<path d="M25.341 379.156C25.9585 379.549 25.9585 380.451 25.341 380.844L9.87025 390.689C9.20452 391.112 8.33337 390.634 8.33337 389.845V370.155C8.33337 369.366 9.20452 368.888 9.87025 369.311L25.341 379.156Z" fill="black"/>
<rect width="3.33334" height="23.3333" rx="1" transform="matrix(1 0 0 -1 28.3334 391.667)" fill="black"/>
<path d="M22.163 438.883C22.7317 439.281 22.7317 440.124 22.163 440.522L8.24009 450.268C7.57731 450.732 6.66663 450.258 6.66663 449.449V429.957C6.66663 429.148 7.57731 428.673 8.24009 429.137L22.163 438.883Z" fill="black"/>
<path d="M33.8296 438.883C34.3983 439.281 34.3983 440.124 33.8296 440.522L19.9067 450.268C19.2439 450.732 18.3333 450.258 18.3333 449.449V429.957C18.3333 429.148 19.2439 428.673 19.9067 429.137L33.8296 438.883Z" fill="black"/>
<path d="M20.3057 486.724C20.9675 486.251 21.8869 486.724 21.8869 487.537V513.463C21.8869 514.276 20.9675 514.749 20.3057 514.276L11.4529 507.953H6C4.89543 507.953 4 507.058 4 505.953V495.047C4 493.943 4.89543 493.047 6 493.047H11.4529L20.3057 486.724Z" fill="black"/>
<path d="M26.3488 507.813C28.1984 505.931 29.3392 503.349 29.3392 500.502C29.3392 497.642 28.1888 495.051 26.3254 493.166" stroke="black" stroke-width="2" stroke-linecap="round" stroke-linejoin="round"/>
<path d="M30.5009 488.906C33.468 491.873 35.3032 495.972 35.3032 500.5C35.3032 505.028 33.468 509.127 30.5009 512.094" stroke="black" stroke-width="2" stroke-linecap="round" stroke-linejoin="round"/>
<path d="M22.6911 548.039C22.6912 547.855 22.6425 547.674 22.55 547.516C22.4575 547.357 22.3246 547.226 22.1647 547.135C22.0049 547.044 21.8239 546.998 21.6402 547C21.4564 547.002 21.2766 547.053 21.119 547.148L10.9822 553.226H7.11519C5.39353 553.226 4 554.618 4 556.342V564.653C4 566.375 5.39145 567.768 7.11519 567.768H10.9822L21.1169 573.851C21.2746 573.946 21.4546 573.997 21.6386 574C21.8227 574.002 22.004 573.956 22.1642 573.865C22.3244 573.775 22.4576 573.643 22.5502 573.484C22.6427 573.325 22.6914 573.144 22.6911 572.96V548.039Z" fill="black"/>
<path d="M36.3416 564.735L32.1685 560.563L36.3416 556.39L34.258 554.303L30.0819 558.475L25.9088 554.303L23.8223 556.39L27.9954 560.563L23.8223 564.735L25.9088 566.822L30.0819 562.65L34.255 566.822L36.3416 564.735Z" fill="black"/>
<path d="M80.304 5.00266C78.818 4.99282 77.3447 5.27826 75.9699 5.84242C74.595 6.40658 73.3459 7.23821 72.2951 8.28904C71.2443 9.33987 70.4127 10.589 69.8485 11.9638C69.2843 13.3387 68.9989 14.8119 69.0087 16.298C68.926 18.3741 69.4401 20.4304 70.4901 22.2234L80.1189 35L89.7476 22.2234C90.7572 20.4142 91.2684 18.3694 91.229 16.298C91.3111 14.8245 91.0875 13.35 90.5724 11.9671C90.0573 10.5841 89.2618 9.32268 88.2359 8.26193C87.2099 7.20118 85.9756 6.36407 84.6106 5.80318C83.2456 5.24229 81.7794 4.96974 80.304 5.00266V5.00266Z" stroke="black" stroke-width="3"/>
<path d="M80.304 13.1502C80.9266 13.1502 81.5352 13.3348 82.0529 13.6807C82.5705 14.0266 82.974 14.5182 83.2122 15.0934C83.4505 15.6686 83.5128 16.3015 83.3914 16.9122C83.2699 17.5228 82.9701 18.0837 82.5299 18.5239C82.0896 18.9642 81.5287 19.264 80.9181 19.3854C80.3075 19.5069 79.6746 19.4446 79.0994 19.2063C78.5242 18.968 78.0325 18.5646 77.6866 18.0469C77.3407 17.5292 77.1561 16.9206 77.1561 16.298C77.1795 15.4706 77.5186 14.6834 78.104 14.098C78.6893 13.5126 79.4765 13.1735 80.304 13.1502Z" stroke="black" stroke-width="3"/>
<path d="M80.304 65.0027C78.818 64.9928 77.3447 65.2783 75.9699 65.8424C74.595 66.4066 73.3459 67.2382 72.2951 68.2891C71.2443 69.3399 70.4127 70.589 69.8485 71.9638C69.2843 73.3387 68.9989 74.8119 69.0087 76.298C68.926 78.3741 69.4401 80.4304 70.4901 82.2233L80.1189 95L89.7476 82.2233C90.7572 80.4142 91.2684 78.3694 91.229 76.298C91.311 74.8245 91.0875 73.35 90.5724 71.9671C90.0573 70.5842 89.2618 69.3227 88.2358 68.2619C87.2099 67.2012 85.9756 66.3641 84.6106 65.8032C83.2456 65.2423 81.7794 64.9697 80.304 65.0027V65.0027ZM80.304 79.4458C79.89 79.4483 79.4795 79.3685 79.0965 79.2112C78.7135 79.0539 78.3655 78.8221 78.0727 78.5293C77.7799 78.2365 77.5481 77.8885 77.3908 77.5055C77.2334 77.1225 77.1537 76.712 77.1562 76.298C77.1795 75.4705 77.5186 74.6833 78.104 74.0979C78.6893 73.5126 79.4765 73.1734 80.304 73.1501C81.1389 73.1501 81.9396 73.4817 82.5299 74.0721C83.1202 74.6624 83.4519 75.4631 83.4519 76.298C83.4519 77.1328 83.1202 77.9335 82.5299 78.5238C81.9396 79.1142 81.1389 79.4458 80.304 79.4458V79.4458Z" fill="black"/>
<path d="M68.8335 128.917V149.75L89.6668 128.917H68.8335Z" stroke="black" stroke-width="3"/>
<path d="M68.8335 132.083C70.5824 132.083 72.0002 130.665 72.0002 128.917C72.0002 127.168 70.5824 125.75 68.8335 125.75C67.0846 125.75 65.6669 127.168 65.6669 128.917C65.6669 130.665 67.0846 132.083 68.8335 132.083Z" fill="white" stroke="black" stroke-width="3"/>
<path d="M68.8335 152.75C70.5824 152.75 72.0002 151.332 72.0002 149.583C72.0002 147.834 70.5824 146.417 68.8335 146.417C67.0846 146.417 65.6669 147.834 65.6669 149.583C65.6669 151.332 67.0846 152.75 68.8335 152.75Z" fill="white" stroke="black" stroke-width="3"/>
<path d="M89.5002 132.083C91.2491 132.083 92.6668 130.665 92.6668 128.917C92.6668 127.168 91.2491 125.75 89.5002 125.75C87.7513 125.75 86.3335 127.168 86.3335 128.917C86.3335 130.665 87.7513 132.083 89.5002 132.083Z" fill="white" stroke="black" stroke-width="3"/>
<path d="M81.3335 132.917C79.1233 132.917 77.0037 133.795 75.4409 135.357C73.8781 136.92 73.0001 139.04 73.0001 141.25C73.0001 147.917 81.0001 153.583 81.3335 153.75C81.3335 153.75 89.6668 147.917 89.6668 141.25C89.6324 139.051 88.7434 136.951 87.188 135.395C85.6326 133.84 83.5329 132.951 81.3335 132.917ZM81.3335 145.583C80.5094 145.583 79.7038 145.339 79.0186 144.881C78.3334 144.423 77.7993 143.773 77.484 143.011C77.1686 142.25 77.0861 141.412 77.2469 140.604C77.4076 139.796 77.8045 139.053 78.3872 138.47C78.9699 137.888 79.7123 137.491 80.5206 137.33C81.3288 137.169 82.1666 137.252 82.928 137.567C83.6893 137.883 84.3401 138.417 84.7979 139.102C85.2557 139.787 85.5001 140.593 85.5001 141.417C85.4829 142.516 85.0384 143.566 84.2607 144.344C83.483 145.122 82.4332 145.566 81.3335 145.583Z" fill="black"/>
<path d="M77.1667 141.25C77.1667 142.074 77.4111 142.88 77.869 143.565C78.3268 144.25 78.9775 144.784 79.7389 145.1C80.5003 145.415 81.338 145.497 82.1463 145.337C82.9545 145.176 83.697 144.779 84.2797 144.196C84.8624 143.614 85.2592 142.871 85.42 142.063C85.5808 141.255 85.4983 140.417 85.1829 139.655C84.8675 138.894 84.3335 138.243 83.6483 137.786C82.9631 137.328 82.1575 137.083 81.3334 137.083C80.2428 137.128 79.209 137.582 78.4371 138.354C77.6653 139.126 77.2118 140.159 77.1667 141.25V141.25Z" fill="white"/>
<path d="M78.3335 186.083L70.0002 189.25C69.4668 189.466 69.0085 189.833 68.6825 190.308C68.3566 190.782 68.1772 191.341 68.1669 191.917V199.75C68.3905 202.781 69.4846 205.683 71.3177 208.107C73.1507 210.532 75.6448 212.375 78.5002 213.417C78.9864 213.583 79.514 213.583 80.0002 213.417C82.8556 212.375 85.3497 210.532 87.1827 208.107C89.0158 205.683 90.1099 202.781 90.3335 199.75V191.917C90.3465 191.374 90.1697 190.843 89.8335 190.417C89.5109 189.946 89.0423 189.595 88.5002 189.417L80.1669 186.25C79.9233 186.022 79.6108 185.882 79.2788 185.852C78.9468 185.822 78.6142 185.903 78.3335 186.083V186.083ZM79.3335 210.583V199.583H71.0002V191.75L79.3335 188.583V199.583H87.6669C87.3923 201.996 86.4738 204.29 85.0076 206.225C83.5415 208.161 81.5816 209.666 79.3335 210.583V210.583Z" fill="black"/>
<path d="M80.0001 262.927C85.8537 262.927 90.4879 265.122 90.4879 267.561V270.976H70.244V267.561C70.0001 264.878 74.6342 262.927 80.0001 262.927ZM80.0001 249.512C81.2196 249.512 82.1952 250 83.4147 250.976C84.1464 251.707 84.8781 252.927 84.8781 254.39C84.8781 255.854 84.3903 256.585 83.4147 257.805C82.683 258.537 81.4635 259.268 80.0001 259.268C78.7805 259.268 77.8049 258.78 76.5854 257.805C75.8537 257.073 75.122 255.854 75.122 254.39C75.122 252.927 75.6098 252.195 76.5854 250.976C77.561 249.756 78.7805 249.512 80.0001 249.512V249.512Z" fill="#03D0FF" stroke="#03D0FF" stroke-width="0.79"/>
<path d="M83.4147 272.927L83.1708 275.61V276.098H86.3415L86.5854 275.854L94.6342 267.805L94.8781 267.561L94.6342 267.317L92.1952 264.878L91.9513 264.634L91.7074 264.878L83.4147 272.927ZM92.1952 264.146V264.634L94.6342 267.073L94.8781 267.317L95.122 267.073L96.8293 265.366L97.0732 265.122L96.8293 264.878L94.3903 262.439L94.1464 262.195L93.9025 262.439L92.1952 264.146Z" fill="black"/>
<path d="M86.3415 276.098H82.9269V272.683L83.1708 272.439L94.1464 261.463L97.561 264.878L86.3415 276.098ZM83.6586 275.61H86.0976L94.1464 267.561L91.7074 265.122L83.6586 273.171V275.61V275.61ZM92.4391 264.146L94.8781 266.585L96.5854 264.878L94.1464 262.439L92.4391 264.146Z" fill="white"/>
<path d="M72.4391 329.512H83.9025C84.6343 329.512 84.8782 329.268 85.1221 328.78C85.366 328.537 85.8538 327.805 85.8538 327.561V316.341C85.8538 315.61 85.6099 315.366 85.1221 315.122C84.8782 314.878 84.1465 314.39 83.9025 314.39H72.4391C71.7074 314.39 71.4635 314.634 71.2196 315.122C70.9757 315.366 70.4879 316.098 70.4879 316.341V327.805C70.4879 328.537 70.7318 328.78 71.2196 329.024C71.2196 329.268 71.9513 329.512 72.4391 329.512ZM74.3904 320.976H77.0733V318.293H79.0245V320.976H81.7074V322.927H79.0245V325.61H77.0733V322.927H74.3904V320.976V320.976Z" fill="#3E66FB"/>
<path d="M87.5611 310.488H76.0977V312.439H87.5611V323.659H89.5123V312.195C89.2684 311.463 88.5367 310.488 87.5611 310.488Z" fill="#3E66FB"/>
<path d="M81.4635 334.146L81.2196 334.39V338.049H85.122L85.3659 337.805L95.8538 327.317L96.0977 327.073L95.8538 326.829L92.683 323.659L92.4391 323.415L92.1952 323.659L81.4635 334.146V334.146ZM92.9269 322.683L92.683 322.927L92.9269 323.171L96.0977 326.341L96.3416 326.585L96.5855 326.341L98.7806 324.146L99.0245 323.902L98.7806 323.659L95.6099 320.488L95.3659 320.244L95.122 320.488L92.9269 322.683Z" fill="black"/>
<path d="M85.1221 338.537H80.7318V334.146L95.1221 319.756L99.5123 324.146L96.3416 327.317L85.1221 338.537V338.537ZM81.7074 337.561H84.8782L95.366 327.073L92.1952 323.902L81.7074 334.39V337.561V337.561ZM93.1708 322.927L96.3416 326.098L98.5367 323.902L95.366 320.732L93.1708 322.927Z" fill="white"/>
<path d="M92.7437 394.552H80.0525C78.5768 394.552 77.3962 393.358 77.3962 391.866V379.03C77.3962 377.537 78.5768 376.343 80.0525 376.343H92.7437C94.2195 376.343 95.4 377.537 95.4 379.03V391.866C95.4 393.358 94.2195 394.552 92.7437 394.552V394.552Z" fill="black"/>
<path d="M81.5282 384.702H67.9516C66.1807 384.702 65.0001 383.507 65.0001 381.716V367.985C65.0001 366.194 66.1807 365 67.9516 365H81.5282C83.2991 365 84.4796 366.194 84.4796 367.985V381.716C84.4796 383.209 83.2991 384.702 81.5282 384.702Z" fill="#3E66FB" stroke="white" stroke-width="0.6" stroke-miterlimit="10"/>
<path d="M73.5592 372.164C73.5592 371.866 73.2641 371.866 73.5592 372.164L69.7224 371.866V370.075H73.8544C74.0511 370.075 74.2479 370.174 74.4447 370.373L75.035 370.97C75.2317 371.169 75.3301 371.368 75.3301 371.567V372.164C75.3301 372.761 75.035 373.657 74.7398 374.254C74.4447 374.851 74.1495 375.448 73.5592 376.045L72.0835 377.537C71.4932 377.836 70.9029 378.433 70.3127 378.731H70.0175L69.4272 378.134C69.1321 377.836 69.1321 377.537 69.1321 377.537C69.1321 377.537 69.1321 377.239 69.4272 377.239C69.7224 376.94 70.3127 376.642 70.6078 376.343C71.1981 376.045 71.4932 375.746 71.7884 375.149C72.0835 374.851 72.6738 374.254 72.6738 373.657C73.2641 373.06 73.5592 372.761 73.5592 372.164V372.164ZM77.101 369.179H78.8718V373.06H80.9378V374.552H78.8718V380.522C78.8718 380.721 78.7735 380.821 78.5767 380.821H77.3961C77.101 380.821 77.101 380.522 77.101 380.522V369.179V369.179Z" fill="white"/>
<path d="M87.0178 390.164H85.483L88.4345 380.94H89.5855L92.537 390.164H91.0022L90.4415 388.313H87.5786L86.9883 390.164H87.0178ZM88.0508 386.791H90.0283L89.0543 383.627L88.0508 386.791V386.791Z" fill="white"/>
<path opacity="0.5" d="M88.6115 367.09H92.1533C93.9241 367.09 95.1047 368.284 95.1047 370.075V372.761C95.1047 373.06 94.8096 373.06 94.8096 373.06C94.5144 373.06 94.5144 372.761 94.5144 372.761V369.776C94.5144 368.881 93.9241 368.284 93.0387 367.985H88.9067C89.2018 367.985 89.2018 368.284 89.497 368.284C89.7921 368.284 89.7921 368.582 89.7921 368.881C89.5953 369.08 89.3986 369.08 89.2018 368.881C88.6115 368.582 88.0212 368.284 87.431 367.687C87.1358 367.388 87.1358 367.09 87.431 366.791C88.0212 366.493 88.6115 365.896 89.2018 365.597C89.3986 365.398 89.5953 365.398 89.7921 365.597C90.0872 365.896 89.7921 365.896 89.497 366.194C89.2018 366.791 88.9067 366.791 88.6115 367.09V367.09Z" fill="black" stroke="black" stroke-width="0.3" stroke-miterlimit="10"/>
<path d="M72.6738 393.358H69.1321C67.3612 393.358 66.1807 392.164 66.1807 390.373V387.687C66.1807 387.388 66.4758 387.388 66.4758 387.388C66.771 387.388 66.771 387.687 66.771 387.687V390.672C66.771 391.567 67.3612 392.164 68.2467 392.463H72.3787C72.0835 392.463 72.0835 392.164 71.7884 392.164C71.4933 392.164 71.4933 391.866 71.4933 391.567C71.69 391.368 71.8868 391.368 72.0835 391.567C72.6738 391.866 73.2641 392.164 73.8544 392.761C74.1496 393.06 74.1496 393.358 73.8544 393.657C73.2641 393.955 72.6738 394.552 72.0835 394.851C71.8868 395.05 71.69 395.05 71.4933 394.851C71.1981 394.552 71.4933 394.552 71.7884 394.254C72.0835 393.657 72.3787 393.358 72.6738 393.358V393.358Z" fill="black" stroke="black" stroke-width="0.3" stroke-miterlimit="10"/>
<path d="M126.5 15.5H149V24.5H126.5V15.5Z" fill="black"/>
<path d="M126.5 11C125.307 11 124.162 11.4741 123.318 12.318C122.474 13.1619 122 14.3065 122 15.5V24.5C122 25.6935 122.474 26.8381 123.318 27.682C124.162 28.5259 125.307 29 126.5 29H149C150.193 29 151.338 28.5259 152.182 27.682C153.026 26.8381 153.5 25.6935 153.5 24.5V15.5C153.5 14.3065 153.026 13.1619 152.182 12.318C151.338 11.4741 150.193 11 149 11H126.5ZM149 13.25C149.597 13.25 150.169 13.4871 150.591 13.909C151.013 14.331 151.25 14.9033 151.25 15.5V24.5C151.25 25.0967 151.013 25.669 150.591 26.091C150.169 26.5129 149.597 26.75 149 26.75H126.5C125.903 26.75 125.331 26.5129 124.909 26.091C124.487 25.669 124.25 25.0967 124.25 24.5V15.5C124.25 14.9033 124.487 14.331 124.909 13.909C125.331 13.4871 125.903 13.25 126.5 13.25H149ZM158 20C158 20.8951 157.644 21.7536 157.011 22.3865C156.379 23.0194 155.52 23.375 154.625 23.375V16.625C155.52 16.625 156.379 16.9806 157.011 17.6135C157.644 18.2464 158 19.1049 158 20Z" fill="black"/>
<path d="M126.5 75.5H137.75V84.5H126.5V75.5Z" fill="black"/>
<path d="M126.5 71C125.307 71 124.162 71.4741 123.318 72.318C122.474 73.1619 122 74.3065 122 75.5V84.5C122 85.6935 122.474 86.8381 123.318 87.682C124.162 88.5259 125.307 89 126.5 89H149C150.193 89 151.338 88.5259 152.182 87.682C153.026 86.8381 153.5 85.6935 153.5 84.5V75.5C153.5 74.3065 153.026 73.1619 152.182 72.318C151.338 71.4741 150.193 71 149 71H126.5ZM149 73.25C149.597 73.25 150.169 73.4871 150.591 73.909C151.013 74.331 151.25 74.9033 151.25 75.5V84.5C151.25 85.0967 151.013 85.669 150.591 86.091C150.169 86.5129 149.597 86.75 149 86.75H126.5C125.903 86.75 125.331 86.5129 124.909 86.091C124.487 85.669 124.25 85.0967 124.25 84.5V75.5C124.25 74.9033 124.487 74.331 124.909 73.909C125.331 73.4871 125.903 73.25 126.5 73.25H149ZM158 80C158 80.8951 157.644 81.7536 157.011 82.3865C156.379 83.0194 155.52 83.375 154.625 83.375V76.625C155.52 76.625 156.379 76.9806 157.011 77.6135C157.644 78.2464 158 79.1049 158 80Z" fill="black"/>
<path d="M126.5 131C125.307 131 124.162 131.474 123.318 132.318C122.474 133.162 122 134.307 122 135.5V144.5C122 145.693 122.474 146.838 123.318 147.682C124.162 148.526 125.307 149 126.5 149H149C150.193 149 151.338 148.526 152.182 147.682C153.026 146.838 153.5 145.693 153.5 144.5V135.5C153.5 134.307 153.026 133.162 152.182 132.318C151.338 131.474 150.193 131 149 131H126.5ZM149 133.25C149.597 133.25 150.169 133.487 150.591 133.909C151.013 134.331 151.25 134.903 151.25 135.5V144.5C151.25 145.097 151.013 145.669 150.591 146.091C150.169 146.513 149.597 146.75 149 146.75H126.5C125.903 146.75 125.331 146.513 124.909 146.091C124.487 145.669 124.25 145.097 124.25 144.5V135.5C124.25 134.903 124.487 134.331 124.909 133.909C125.331 133.487 125.903 133.25 126.5 133.25H149ZM158 140C158 140.895 157.644 141.754 157.011 142.386C156.379 143.019 155.52 143.375 154.625 143.375V136.625C155.52 136.625 156.379 136.981 157.011 137.614C157.644 138.246 158 139.105 158 140Z" fill="black"/>
</svg>
