<?xml version="1.0" encoding="utf-8"?>
<!-- Generator: Adobe Illustrator 26.0.2, SVG Export Plug-In . SVG Version: 6.00 Build 0)  -->
<svg version="1.1" id="Layer_1" xmlns="http://www.w3.org/2000/svg" xmlns:xlink="http://www.w3.org/1999/xlink" x="0px" y="0px"
	 viewBox="0 0 596.8 1382.9" style="enable-background:new 0 0 596.8 1382.9;" xml:space="preserve">
<style type="text/css">
	.st0{fill:#FF7800;}
	.st1{fill:#FFFFFF;}
	.st2{fill:#3A3A3A;}
</style>
<g>
	<path class="st0" d="M125.9,30.7c0.2-0.8,0.2-1.7,0.2-2.5c0-8,0-16,0-24.1c0-2.7-0.2-2.5,2.5-2.5h11.3c0.5,0,1,0,1.5,0
		c0.4,0,0.8,0.3,0.9,0.7v0.1c0,0.6,0,1.2,0,1.8v93.6c-0.5,0.3-1.1,0.5-1.6,0.4h-13c-0.3,0-0.6,0-0.9,0s-0.6-0.2-0.6-0.5
		c-0.1-0.5-0.1-1-0.1-1.5c-0.6-0.4-1,0-1.5,0.2c-2.4,0.9-4.9,1.5-7.5,1.8c-14.9,1.6-28.3-9.1-30-24c-0.2-1.5-0.2-2.9-0.2-4.4
		c0-4.6,0-9.3,0-13.9c-0.1-4.4,1-8.7,3-12.5c4.7-8.6,11.9-13.7,21.7-14.8c4.3-0.5,8.6,0.1,12.6,1.7
		C124.6,30.5,125.2,30.7,125.9,30.7z M126,63.4v-8c0-0.9-0.1-1.8-0.3-2.6c-1.7-6.4-8.3-10.2-14.7-8.5c-5.1,1.4-8.7,5.9-8.9,11.1
		c-0.1,4.7,0,9.4,0,14.1c0,0.7,0,1.3,0,2c0.3,6.5,5.8,11.6,12.3,11.5c6.4-0.2,11.6-5.4,11.6-11.9C126,68.5,126,66,126,63.4z"/>
	<path class="st0" d="M368.3,41.9c0.7,0.1,1.4,0.4,2.1,0.8c7.2,3.3,15.6,0.1,18.9-7c3.3-7.2,0.1-15.6-7-18.9s-15.6-0.1-18.9,7
		c-0.9,2-1.3,4.1-1.3,6.2c0,22.7,0.1,45.5,0.1,68.3c0,0.3,0,0.6,0,0.9s0.1,0.6-0.2,0.8c-0.4,0.2-0.7-0.2-0.9-0.4
		c-4.5-4.4-8.9-8.8-13.4-13.2c-0.7-0.7-1.1-1.6-1-2.6c0-3.8,0-7.5,0-11.3V62.1c0-0.6,0-1.2-0.1-1.8c0-0.3-0.3-0.5-0.6-0.6
		c-0.5,0-1-0.1-1.5-0.1c-1.7,0-3.4,0-5.1,0c-0.8,0.1-1.5-0.2-2-0.8c-4.5-4.6-9-9.1-13.5-13.7c-0.1-0.1-0.2-0.2-0.3-0.3
		c-0.1-0.2,0-0.4,0.1-0.5h0.1c0.6-0.1,1.2-0.1,1.8-0.1c6.1,0,12.2,0,18.3,0c3,0,2.7,0.2,2.7-2.8c0-3.8,0-7.7,0-11.5
		c0-4.4,0.9-8.8,2.8-12.8c4.6-9.3,12-15.1,22.2-16.7C387.8-2.2,403,8.8,405.5,25s-8.3,31.4-24.5,34l0,0c-3.7,0.6-7.5,0.5-11.2-0.3
		c-0.3-0.1-0.6-0.2-0.8-0.2c-0.5-0.1-0.8-0.5-0.8-0.9s0-0.7,0-1.1c0-4.3,0-8.5,0-12.8C368.2,43,368.3,42.5,368.3,41.9z"/>
	<path class="st0" d="M21.8,64V32.8c0-0.7,0-1.3,0-2c0-0.4,0.4-0.8,0.8-0.8c0,0,0,0,0.1,0h0.9c4.5,0,9,0,13.5,0c0.9,0,1.6,0,1.7,1.2
		c0,0.5,0.5,0.5,0.8,0.4c0.5-0.2,1.1-0.5,1.6-0.7c11.5-4.4,24.6-0.7,32,9.2c2.7,3.7,4.4,8.1,5,12.6c0.3,2,0.4,4.1,0.4,6.2
		c0,12.4,0,24.8,0,37.1v0.7c0,1.7,0,1.7-1.8,1.7c-4.1,0-8.2,0-12.4,0c-1.1,0-1.2-0.2-1.3-1.3c0-0.6,0-1.2,0-1.8V58.8
		c0-1.8-0.1-3.5-0.5-5.3c-0.8-3.8-3.6-7-7.3-8.2c-3.8-1.5-8.1-1-11.4,1.4c-1.7,1.2-3.3,2.7-4.6,4.4c-0.5,0.6-0.7,1.3-0.7,2
		c0,0.6,0,1.2,0,1.8c0,13.5,0,27.1,0,40.7c0,2.7,0.2,2.5-2.5,2.5h-12c-0.5,0-1,0-1.5,0c-0.7,0-0.9-0.2-0.9-1s0-1.3,0-2L21.8,64z"/>
	<path class="st0" d="M148.8,63.1c0-3-0.1-5.9,0-8.8c0.7-15.1,13.4-26.8,28.5-26.1c12.8,0.6,23.5,9.9,25.7,22.5
		c0.3,1.5,0.4,3.1,0.4,4.6c0,5.3,0,10.6,0,15.9c-0.2,15.1-12.5,27.2-27.6,27.1c-12.8-0.1-23.9-9.2-26.5-21.7c-0.4-2-0.6-3.9-0.6-5.9
		C148.8,68.2,148.8,65.7,148.8,63.1L148.8,63.1z M188.1,63.5L188.1,63.5c-0.1-2.9,0-5.9-0.1-8.8c-0.3-4.9-3.6-9-8.3-10.4
		c-4.9-1.5-9.2-0.2-12.6,3.5c-2,2.2-3.1,5.1-3,8.1c0,4.9,0,9.9,0,14.8c0,0.8,0.1,1.6,0.3,2.4c1.1,5,4.1,8.3,9.1,9.4
		s9.1-0.5,12.3-4.6c1.6-2.1,2.4-4.6,2.3-7.2C188.1,68.4,188.1,66,188.1,63.5z"/>
	<path class="st0" d="M264.9,63.5c0,2.7,0,5.5,0,8.2c-0.3,15.1-12.9,27-27.9,26.7c-12.9-0.3-23.8-9.5-26.2-22.1
		c-0.3-1.7-0.5-3.5-0.5-5.3c0-5.1,0-10.2,0-15.2c0-15.1,12.3-27.3,27.4-27.3S265,40.8,265,55.9l0,0C265,58.3,265,60.9,264.9,63.5
		L264.9,63.5z M225.6,63.2L225.6,63.2c0,0.7,0,1.3,0,2c0,2.3-0.1,4.7,0.1,7.1c0.3,4.6,3.4,8.6,7.9,10c4.7,1.7,8.9,0.6,12.4-2.8
		c2.4-2.3,3.6-5.5,3.6-8.8c0-4.9,0-9.7,0-14.6c0-0.8-0.1-1.6-0.2-2.4c-1.2-6.5-7.4-10.8-13.9-9.7c-3,0.5-5.7,2.2-7.5,4.7
		c-1.5,2.1-2.3,4.6-2.3,7.2C225.6,58.3,225.6,60.8,225.6,63.2z"/>
	<path class="st0" d="M481.7,95.7c-0.8-0.1-1.4,0.4-2.1,0.6c-10.2,3.5-19.5,2.1-27.7-4.9c-6-5-9.5-12.4-9.4-20.2
		c-0.1-12.8,0-25.6,0-38.5c0-2,0-2,1.9-2c3.8,0,7.7,0,11.5,0h1.1c0.4,0,0.8,0.3,0.8,0.7v0.1c0,0.7,0,1.3,0,2c0,12.1,0,24.2,0,36.2
		c-0.1,1.5,0.1,3.1,0.5,4.6c2.1,6.3,8.9,9.7,15.1,7.7c4-1.3,7-4.6,8-8.7c0.2-1.2,0.3-2.5,0.3-3.7v-36c0-0.7,0-1.3,0-2
		c0-0.4,0.3-0.8,0.7-0.8h0.1h2.6c3.3,0,6.6,0,10,0c1.9,0,1.9,0,1.9,2v0.9c0,20.6,0,41.3,0,61.9c0,0.7,0,1.3,0,2
		c0,0.4-0.3,0.8-0.8,0.8h-0.1c-0.4,0-0.7,0-1.1,0h-11.3c-0.4,0-0.7,0-1.1,0s-0.7-0.3-0.7-0.7C481.9,97,482.2,96.3,481.7,95.7z"/>
	<path class="st0" d="M512.1,78.8c0.1,0,0.2,0,0.3,0.1c3.8,3.2,8.3,4.7,13,5.7c3.3,0.7,6.7,1,10.1,0.7c1.9-0.2,3.8-0.7,5.5-1.6
		s2.9-2.4,3.3-4.2c0.6-2-0.1-4.2-1.8-5.5c-1.2-0.9-2.7-1.6-4.2-2c-3.1-0.9-6.4-1.3-9.6-1.3c-2.3,0.1-4.6-0.1-6.8-0.5
		c-1.5-0.3-3-0.7-4.4-1.3c-6.3-2.7-10-7.6-11.3-14.3c-0.6-2.9-0.5-5.9,0.1-8.8c1-4.6,3.7-8.6,7.6-11.3c2.9-2,6.2-3.4,9.7-4.1
		c12.2-2.5,23.2,0.5,33.1,7.7c0.3,0.2,0.6,0.5,0.8,0.7c0.1,0.2,0.1,0.4,0,0.6c-0.2,0.2-0.4,0.5-0.5,0.7c-2.6,2.9-5.2,5.8-7.8,8.7
		c-0.2,0.2-0.4,0.4-0.6,0.6c-0.3,0.3-0.7,0.3-1,0l-1.1-0.8c-4-2.7-8.6-4.3-13.4-4.6c-3-0.2-6.1,0.2-8.9,1.3
		c-2.8,1.1-4.4,2.5-3.5,6.8c0.2,1.5,1.3,2.7,2.8,3.1c1.3,0.4,2.6,0.6,3.9,0.5c2.6-0.1,5.3,0.1,7.9,0.4c3.5,0.4,7,1.3,10.2,2.7
		c1.6,0.6,3.1,1.4,4.5,2.3c7.7,4.9,11,14.4,8,23c-1.7,5.3-5.5,9.7-10.5,12.3c-3.2,1.7-6.7,2.7-10.3,3c-9.1,0.9-18.3-0.7-26.6-4.7
		c-2.6-1.2-5-2.8-7.2-4.7c-0.5-0.4-0.9-0.8-1.3-1.2s-0.4-0.7,0-1.1c0.1-0.2,0.3-0.3,0.5-0.5l8.9-8.3
		C511.6,79.1,511.9,78.9,512.1,78.8z"/>
	<path class="st0" d="M411.1,42.5c0-12,0-24,0-36c0-2.5-0.3-2.4,2.4-2.4H425c0.4,0,0.7,0,1.1,0c1,0.1,1.2,0.3,1.2,1.2
		c0,0.7,0,1.3,0,2v63.2c0,2.5,0,5,0,7.5c0,0.7,0,1.5,0.1,2.2c0.2,1.4,0.7,1.9,2.2,1.9c1.8,0,3.7,0,5.5,0c1,0,1.9,0,2.9,0
		c0.7,0,0.9,0.2,0.9,1c0,0.3,0,0.6,0,0.9v12.4c0,0.4,0,0.7,0,1.1s-0.3,0.7-0.6,0.7c0,0,0,0-0.1,0c-4,0-8.1,0.4-12.1-0.2
		c-5.2-0.7-9.8-3.9-12.2-8.6c-1.8-3.2-2.8-6.9-2.8-10.6c0-4.6,0-9.3,0-13.9C411.1,57.4,411.1,50,411.1,42.5z"/>
	<path class="st0" d="M0,49.8C0,34.6,0,19.4,0,4.3c0-3-0.3-2.7,2.8-2.7c3.9,0,7.8,0,11.7,0c0.6,0,1.2,0,1.8,0.1
		c0.3,0,0.5,0.3,0.5,0.6c0,0.8,0.1,1.6,0.1,2.4c0,26.5,0,53,0,79.5v11.5c0,0.5,0,1,0,1.6c0,0.7-0.2,0.8-1,0.9c-0.3,0-0.6,0-0.9,0H2
		c-0.4,0-0.9,0-1.3-0.1c-0.3,0-0.6-0.3-0.6-0.6c0-0.7,0-1.5,0-2.2C0,80.1,0,65,0,49.8z"/>
	<path class="st0" d="M320.6,36.2c-3.4,3.7-7.1,7.2-10.9,10.5c-0.5-0.1-0.7-0.5-1.1-0.7c-4-3-8.3-3.7-12.9-1.4
		c-4.2,1.9-6.8,6.2-6.7,10.9c-0.1,7.2,0,14.4,0,21.6c0,6.3,0,12.5,0,18.8c0.1,0.7,0,1.4-0.2,2.1c-0.5,0.2-1,0.3-1.6,0.2h-12.6
		c-0.4,0-0.7,0-1.1,0s-0.7-0.3-0.7-0.7l0,0c0-0.6,0-1.2,0-1.8V31.1c0-2.9-0.2-2.6,2.6-2.6c3.8,0,7.7,0,11.5,0c0.4,0,0.7,0,1.1,0
		c0.6,0,1,0.2,1,0.9c0,0.3,0.1,0.6,0.2,1c1.6-0.5,3.1-1.1,4.6-1.5c1.6-0.4,3.2-0.7,4.8-0.9c1.6-0.2,3.2-0.2,4.9,0
		c1.6,0.1,3.2,0.4,4.8,0.8c1.6,0.4,3.1,1,4.5,1.7s2.8,1.5,4.1,2.5C318.4,33.9,319.6,35,320.6,36.2z"/>
	<path class="st0" d="M573.2,6.5c0-1.8,0-3.5,0-5.3c0-1,0.2-1.2,1.2-1.2c2.7,0,5.5,0,8.2,0c1,0,1.1,0.2,1.1,1.2c0,3,0,6,0,9.1
		c0,0.7,0,1.3,0,2s0.3,0.9,1,0.9c0.5,0,1,0,1.5,0h8.6c2,0,2,0,2,1.9c0,2.3,0,4.6,0,6.9c0,0.3,0,0.6,0,0.9c0,0.7-0.2,0.9-1,0.9
		c-0.5,0-1,0-1.5,0c-2.7,0-5.3,0-8,0c-0.5,0-1,0-1.5,0c-0.9,0-1.1,0.2-1.1,1c0,0.5,0,1,0,1.5c0,2.7,0,5.4,0,8.2c0,0.6,0,1.2,0,1.8
		c0,0.4-0.3,0.7-0.7,0.7c0,0,0,0-0.1,0H580h-6c-0.4,0-0.8-0.3-0.8-0.7v-0.1c0-0.6,0-1.2,0-1.8v-8c0-0.6,0-1.2,0-1.8
		c0-0.4-0.3-0.8-0.7-0.8h-0.1c-0.6,0-1.2,0-1.8,0h-9.1c-1.3,0-1.4-0.1-1.5-1.3c0-2.7,0-5.4,0-8.2c0-0.9,0.2-1,1.1-1
		c3.1,0,6.2,0,9.3,0s2.8,0.3,2.8-2.7C573.1,9.2,573.1,7.8,573.2,6.5L573.2,6.5z"/>
</g>
<g>
	<path class="st0" d="M125.9,180.7c0.2-0.8,0.2-1.7,0.2-2.5c0-8,0-16,0-24.1c0-2.7-0.2-2.5,2.5-2.5h11.3c0.5,0,1,0,1.5,0
		c0.4,0,0.8,0.3,0.9,0.7v0.1c0,0.6,0,1.2,0,1.8v93.6c-0.5,0.3-1.1,0.5-1.6,0.4h-13c-0.3,0-0.6,0-0.9,0s-0.6-0.2-0.6-0.5
		c-0.1-0.5-0.1-1-0.1-1.5c-0.6-0.4-1,0-1.5,0.2c-2.4,0.9-4.9,1.5-7.5,1.8c-14.9,1.6-28.3-9.1-30-24c-0.2-1.5-0.2-2.9-0.2-4.4
		c0-4.6,0-9.3,0-13.9c-0.1-4.4,1-8.7,3-12.5c4.7-8.6,11.9-13.7,21.7-14.8c4.3-0.5,8.6,0.1,12.6,1.7
		C124.6,180.5,125.2,180.7,125.9,180.7z M126,213.4v-8c0-0.9-0.1-1.8-0.3-2.6c-1.7-6.4-8.3-10.2-14.7-8.5c-5.1,1.4-8.7,5.9-8.9,11.1
		c-0.1,4.7,0,9.4,0,14.1c0,0.7,0,1.3,0,2c0.3,6.5,5.8,11.6,12.3,11.5c6.4-0.2,11.6-5.4,11.6-11.9C126,218.5,126,216,126,213.4z"/>
	<path class="st1" d="M368.3,191.9c0.7,0.1,1.4,0.4,2.1,0.8c7.2,3.3,15.6,0.1,18.9-7c3.3-7.2,0.1-15.6-7-18.9s-15.6-0.1-18.9,7
		c-0.9,2-1.3,4.1-1.3,6.2c0,22.7,0.1,45.5,0.1,68.3c0,0.3,0,0.6,0,0.9s0.1,0.6-0.2,0.8c-0.4,0.2-0.7-0.2-0.9-0.4
		c-4.5-4.4-8.9-8.8-13.4-13.2c-0.7-0.7-1.1-1.6-1-2.6c0-3.8,0-7.5,0-11.3v-10.4c0-0.6,0-1.2-0.1-1.8c0-0.3-0.3-0.5-0.6-0.6
		c-0.5,0-1-0.1-1.5-0.1c-1.7,0-3.4,0-5.1,0c-0.8,0.1-1.5-0.2-2-0.8c-4.5-4.6-9-9.1-13.5-13.7c-0.1-0.1-0.2-0.2-0.3-0.3
		c-0.1-0.2,0-0.4,0.1-0.5h0.1c0.6-0.1,1.2-0.1,1.8-0.1c6.1,0,12.2,0,18.3,0c3,0,2.7,0.2,2.7-2.8c0-3.8,0-7.7,0-11.5
		c0-4.4,0.9-8.8,2.8-12.8c4.6-9.3,12-15.1,22.2-16.7c16.2-2.6,31.4,8.4,33.9,24.6s-8.3,31.4-24.5,34l0,0c-3.7,0.6-7.5,0.5-11.2-0.3
		c-0.3-0.1-0.6-0.2-0.8-0.2c-0.5-0.1-0.8-0.5-0.8-0.9s0-0.7,0-1.1c0-4.3,0-8.5,0-12.8C368.2,193,368.3,192.5,368.3,191.9z"/>
	<path class="st0" d="M21.8,214v-31.2c0-0.7,0-1.3,0-2c0-0.4,0.4-0.8,0.8-0.8c0,0,0,0,0.1,0h0.9c4.5,0,9,0,13.5,0
		c0.9,0,1.6,0,1.7,1.2c0,0.5,0.5,0.5,0.8,0.4c0.5-0.2,1.1-0.5,1.6-0.7c11.5-4.4,24.6-0.7,32,9.2c2.7,3.7,4.4,8.1,5,12.6
		c0.3,2,0.4,4.1,0.4,6.2c0,12.4,0,24.8,0,37.1v0.7c0,1.7,0,1.7-1.8,1.7c-4.1,0-8.2,0-12.4,0c-1.1,0-1.2-0.2-1.3-1.3
		c0-0.6,0-1.2,0-1.8v-36.5c0-1.8-0.1-3.5-0.5-5.3c-0.8-3.8-3.6-7-7.3-8.2c-3.8-1.5-8.1-1-11.4,1.4c-1.7,1.2-3.3,2.7-4.6,4.4
		c-0.5,0.6-0.7,1.3-0.7,2c0,0.6,0,1.2,0,1.8c0,13.5,0,27.1,0,40.7c0,2.7,0.2,2.5-2.5,2.5h-12c-0.5,0-1,0-1.5,0c-0.7,0-0.9-0.2-0.9-1
		s0-1.3,0-2L21.8,214z"/>
	<path class="st0" d="M148.8,213.1c0-3-0.1-5.9,0-8.8c0.7-15.1,13.4-26.8,28.5-26.1c12.8,0.6,23.5,9.9,25.7,22.5
		c0.3,1.5,0.4,3.1,0.4,4.6c0,5.3,0,10.6,0,15.9c-0.2,15.1-12.5,27.2-27.6,27.1c-12.8-0.1-23.9-9.2-26.5-21.7c-0.4-2-0.6-3.9-0.6-5.9
		C148.8,218.2,148.8,215.7,148.8,213.1L148.8,213.1z M188.1,213.5L188.1,213.5c-0.1-2.9,0-5.9-0.1-8.8c-0.3-4.9-3.6-9-8.3-10.4
		c-4.9-1.5-9.2-0.2-12.6,3.5c-2,2.2-3.1,5.1-3,8.1c0,4.9,0,9.9,0,14.8c0,0.8,0.1,1.6,0.3,2.4c1.1,5,4.1,8.3,9.1,9.4
		c5,1.1,9.1-0.5,12.3-4.6c1.6-2.1,2.4-4.6,2.3-7.2C188.1,218.4,188.1,216,188.1,213.5z"/>
	<path class="st0" d="M264.9,213.5c0,2.7,0,5.5,0,8.2c-0.3,15.1-12.9,27-27.9,26.7c-12.9-0.3-23.8-9.5-26.2-22.1
		c-0.3-1.7-0.5-3.5-0.5-5.3c0-5.1,0-10.2,0-15.2c0-15.1,12.3-27.3,27.4-27.3c15.1,0,27.3,12.3,27.3,27.4l0,0
		C265,208.3,265,210.9,264.9,213.5L264.9,213.5z M225.6,213.2L225.6,213.2c0,0.7,0,1.3,0,2c0,2.3-0.1,4.7,0.1,7.1
		c0.3,4.6,3.4,8.6,7.9,10c4.7,1.7,8.9,0.6,12.4-2.8c2.4-2.3,3.6-5.5,3.6-8.8c0-4.9,0-9.7,0-14.6c0-0.8-0.1-1.6-0.2-2.4
		c-1.2-6.5-7.4-10.8-13.9-9.7c-3,0.5-5.7,2.2-7.5,4.7c-1.5,2.1-2.3,4.6-2.3,7.2C225.6,208.3,225.6,210.8,225.6,213.2z"/>
	<path class="st1" d="M481.7,245.7c-0.8-0.1-1.4,0.4-2.1,0.6c-10.2,3.5-19.5,2.1-27.7-4.9c-6-5-9.5-12.4-9.4-20.2
		c-0.1-12.8,0-25.6,0-38.5c0-2,0-2,1.9-2c3.8,0,7.7,0,11.5,0h1.1c0.4,0,0.8,0.3,0.8,0.7v0.1c0,0.7,0,1.3,0,2c0,12.1,0,24.2,0,36.2
		c-0.1,1.5,0.1,3.1,0.5,4.6c2.1,6.3,8.9,9.7,15.1,7.7c4-1.3,7-4.6,8-8.7c0.2-1.2,0.3-2.5,0.3-3.7v-36c0-0.7,0-1.3,0-2
		c0-0.4,0.3-0.8,0.7-0.8h0.1h2.6c3.3,0,6.6,0,10,0c1.9,0,1.9,0,1.9,2v0.9c0,20.6,0,41.3,0,61.9c0,0.7,0,1.3,0,2
		c0,0.4-0.3,0.8-0.8,0.8h-0.1c-0.4,0-0.7,0-1.1,0h-11.3c-0.4,0-0.7,0-1.1,0s-0.7-0.3-0.7-0.7C481.9,247,482.2,246.3,481.7,245.7z"/>
	<path class="st1" d="M512.1,228.8c0.1,0,0.2,0,0.3,0.1c3.8,3.2,8.3,4.7,13,5.7c3.3,0.7,6.7,1,10.1,0.7c1.9-0.2,3.8-0.7,5.5-1.6
		c1.7-0.9,2.9-2.4,3.3-4.2c0.6-2-0.1-4.2-1.8-5.5c-1.2-0.9-2.7-1.6-4.2-2c-3.1-0.9-6.4-1.3-9.6-1.3c-2.3,0.1-4.6-0.1-6.8-0.5
		c-1.5-0.3-3-0.7-4.4-1.3c-6.3-2.7-10-7.6-11.3-14.3c-0.6-2.9-0.5-5.9,0.1-8.8c1-4.6,3.7-8.6,7.6-11.3c2.9-2,6.2-3.4,9.7-4.1
		c12.2-2.5,23.2,0.5,33.1,7.7c0.3,0.2,0.6,0.5,0.8,0.7c0.1,0.2,0.1,0.4,0,0.6c-0.2,0.2-0.4,0.5-0.5,0.7c-2.6,2.9-5.2,5.8-7.8,8.7
		c-0.2,0.2-0.4,0.4-0.6,0.6c-0.3,0.3-0.7,0.3-1,0l-1.1-0.8c-4-2.7-8.6-4.3-13.4-4.6c-3-0.2-6.1,0.2-8.9,1.3
		c-2.8,1.1-4.4,2.5-3.5,6.8c0.2,1.5,1.3,2.7,2.8,3.1c1.3,0.4,2.6,0.6,3.9,0.5c2.6-0.1,5.3,0.1,7.9,0.4c3.5,0.4,7,1.3,10.2,2.7
		c1.6,0.6,3.1,1.4,4.5,2.3c7.7,4.9,11,14.4,8,23c-1.7,5.3-5.5,9.7-10.5,12.3c-3.2,1.7-6.7,2.7-10.3,3c-9.1,0.9-18.3-0.7-26.6-4.7
		c-2.6-1.2-5-2.8-7.2-4.7c-0.5-0.4-0.9-0.8-1.3-1.2s-0.4-0.7,0-1.1c0.1-0.2,0.3-0.3,0.5-0.5l8.9-8.3
		C511.6,229.1,511.9,228.9,512.1,228.8z"/>
	<path class="st1" d="M411.1,192.5c0-12,0-24,0-36c0-2.5-0.3-2.4,2.4-2.4H425c0.4,0,0.7,0,1.1,0c1,0.1,1.2,0.3,1.2,1.2
		c0,0.7,0,1.3,0,2v63.2c0,2.5,0,5,0,7.5c0,0.7,0,1.5,0.1,2.2c0.2,1.4,0.7,1.9,2.2,1.9c1.8,0,3.7,0,5.5,0c1,0,1.9,0,2.9,0
		c0.7,0,0.9,0.2,0.9,1c0,0.3,0,0.6,0,0.9v12.4c0,0.4,0,0.7,0,1.1c0,0.4-0.3,0.7-0.6,0.7c0,0,0,0-0.1,0c-4,0-8.1,0.4-12.1-0.2
		c-5.2-0.7-9.8-3.9-12.2-8.6c-1.8-3.2-2.8-6.9-2.8-10.6c0-4.6,0-9.3,0-13.9C411.1,207.4,411.1,200,411.1,192.5z"/>
	<path class="st0" d="M0,199.8c0-15.2,0-30.4,0-45.5c0-3-0.3-2.7,2.8-2.7c3.9,0,7.8,0,11.7,0c0.6,0,1.2,0,1.8,0.1
		c0.3,0,0.5,0.3,0.5,0.6c0,0.8,0.1,1.6,0.1,2.4c0,26.5,0,53,0,79.5v11.5c0,0.5,0,1,0,1.6c0,0.7-0.2,0.8-1,0.9c-0.3,0-0.6,0-0.9,0H2
		c-0.4,0-0.9,0-1.3-0.1c-0.3,0-0.6-0.3-0.6-0.6c0-0.7,0-1.5,0-2.2C0,230.1,0,215,0,199.8z"/>
	<path class="st0" d="M320.6,186.2c-3.4,3.7-7.1,7.2-10.9,10.5c-0.5-0.1-0.7-0.5-1.1-0.7c-4-3-8.3-3.7-12.9-1.4
		c-4.2,1.9-6.8,6.2-6.7,10.9c-0.1,7.2,0,14.4,0,21.6c0,6.3,0,12.5,0,18.8c0.1,0.7,0,1.4-0.2,2.1c-0.5,0.2-1,0.3-1.6,0.2h-12.6
		c-0.4,0-0.7,0-1.1,0s-0.7-0.3-0.7-0.7l0,0c0-0.6,0-1.2,0-1.8v-64.6c0-2.9-0.2-2.6,2.6-2.6c3.8,0,7.7,0,11.5,0c0.4,0,0.7,0,1.1,0
		c0.6,0,1,0.2,1,0.9c0,0.3,0.1,0.6,0.2,1c1.6-0.5,3.1-1.1,4.6-1.5c1.6-0.4,3.2-0.7,4.8-0.9c1.6-0.2,3.2-0.2,4.9,0
		c1.6,0.1,3.2,0.4,4.8,0.8c1.6,0.4,3.1,1,4.5,1.7s2.8,1.5,4.1,2.5C318.4,183.9,319.6,185,320.6,186.2z"/>
	<path class="st1" d="M573.2,156.5c0-1.8,0-3.5,0-5.3c0-1,0.2-1.2,1.2-1.2c2.7,0,5.5,0,8.2,0c1,0,1.1,0.2,1.1,1.2c0,3,0,6,0,9.1
		c0,0.7,0,1.3,0,2s0.3,0.9,1,0.9c0.5,0,1,0,1.5,0h8.6c2,0,2,0,2,1.9c0,2.3,0,4.6,0,6.9c0,0.3,0,0.6,0,0.9c0,0.7-0.2,0.9-1,0.9
		c-0.5,0-1,0-1.5,0c-2.7,0-5.3,0-8,0c-0.5,0-1,0-1.5,0c-0.9,0-1.1,0.2-1.1,1c0,0.5,0,1,0,1.5c0,2.7,0,5.4,0,8.2c0,0.6,0,1.2,0,1.8
		c0,0.4-0.3,0.7-0.7,0.7c0,0,0,0-0.1,0H580h-6c-0.4,0-0.8-0.3-0.8-0.7v-0.1c0-0.6,0-1.2,0-1.8v-8c0-0.6,0-1.2,0-1.8
		c0-0.4-0.3-0.8-0.7-0.8h-0.1c-0.6,0-1.2,0-1.8,0h-9.1c-1.3,0-1.4-0.1-1.5-1.3c0-2.7,0-5.4,0-8.2c0-0.9,0.2-1,1.1-1
		c3.1,0,6.2,0,9.3,0s2.8,0.3,2.8-2.7C573.1,159.2,573.1,157.8,573.2,156.5L573.2,156.5z"/>
</g>
<g>
	<path class="st1" d="M125.9,330.7c0.2-0.8,0.2-1.7,0.2-2.5c0-8,0-16,0-24.1c0-2.7-0.2-2.5,2.5-2.5h11.3c0.5,0,1,0,1.5,0
		c0.4,0,0.8,0.3,0.9,0.7v0.1c0,0.6,0,1.2,0,1.8v93.6c-0.5,0.3-1.1,0.5-1.6,0.4h-13c-0.3,0-0.6,0-0.9,0s-0.6-0.2-0.6-0.5
		c-0.1-0.5-0.1-1-0.1-1.5c-0.6-0.4-1,0-1.5,0.2c-2.4,0.9-4.9,1.5-7.5,1.8c-14.9,1.6-28.3-9.1-30-24c-0.2-1.5-0.2-2.9-0.2-4.4
		c0-4.6,0-9.3,0-13.9c-0.1-4.4,1-8.7,3-12.5c4.7-8.6,11.9-13.7,21.7-14.8c4.3-0.5,8.6,0.1,12.6,1.7
		C124.6,330.5,125.2,330.7,125.9,330.7z M126,363.4v-8c0-0.9-0.1-1.8-0.3-2.6c-1.7-6.4-8.3-10.2-14.7-8.5c-5.1,1.4-8.7,5.9-8.9,11.1
		c-0.1,4.7,0,9.4,0,14.1c0,0.7,0,1.3,0,2c0.3,6.5,5.8,11.6,12.3,11.5c6.4-0.2,11.6-5.4,11.6-11.9C126,368.5,126,366,126,363.4z"/>
	<path class="st0" d="M368.3,341.9c0.7,0.1,1.4,0.4,2.1,0.8c7.2,3.3,15.6,0.1,18.9-7c3.3-7.2,0.1-15.6-7-18.9s-15.6-0.1-18.9,7
		c-0.9,2-1.3,4.1-1.3,6.2c0,22.7,0.1,45.5,0.1,68.3c0,0.3,0,0.6,0,0.9s0.1,0.6-0.2,0.8c-0.4,0.2-0.7-0.2-0.9-0.4
		c-4.5-4.4-8.9-8.8-13.4-13.2c-0.7-0.7-1.1-1.6-1-2.6c0-3.8,0-7.5,0-11.3v-10.4c0-0.6,0-1.2-0.1-1.8c0-0.3-0.3-0.5-0.6-0.6
		c-0.5,0-1-0.1-1.5-0.1c-1.7,0-3.4,0-5.1,0c-0.8,0.1-1.5-0.2-2-0.8c-4.5-4.6-9-9.1-13.5-13.7c-0.1-0.1-0.2-0.2-0.3-0.3
		c-0.1-0.2,0-0.4,0.1-0.5h0.1c0.6-0.1,1.2-0.1,1.8-0.1c6.1,0,12.2,0,18.3,0c3,0,2.7,0.2,2.7-2.8c0-3.8,0-7.7,0-11.5
		c0-4.4,0.9-8.8,2.8-12.8c4.6-9.3,12-15.1,22.2-16.7c16.2-2.6,31.4,8.4,33.9,24.6s-8.3,31.4-24.5,34l0,0c-3.7,0.6-7.5,0.5-11.2-0.3
		c-0.3-0.1-0.6-0.2-0.8-0.2c-0.5-0.1-0.8-0.5-0.8-0.9s0-0.7,0-1.1c0-4.3,0-8.5,0-12.8C368.2,343,368.3,342.5,368.3,341.9z"/>
	<path class="st1" d="M21.8,364v-31.2c0-0.7,0-1.3,0-2c0-0.4,0.4-0.8,0.8-0.8c0,0,0,0,0.1,0h0.9c4.5,0,9,0,13.5,0
		c0.9,0,1.6,0,1.7,1.2c0,0.5,0.5,0.5,0.8,0.4c0.5-0.2,1.1-0.5,1.6-0.7c11.5-4.4,24.6-0.7,32,9.2c2.7,3.7,4.4,8.1,5,12.6
		c0.3,2,0.4,4.1,0.4,6.2c0,12.4,0,24.8,0,37.1v0.7c0,1.7,0,1.7-1.8,1.7c-4.1,0-8.2,0-12.4,0c-1.1,0-1.2-0.2-1.3-1.3
		c0-0.6,0-1.2,0-1.8v-36.5c0-1.8-0.1-3.5-0.5-5.3c-0.8-3.8-3.6-7-7.3-8.2c-3.8-1.5-8.1-1-11.4,1.4c-1.7,1.2-3.3,2.7-4.6,4.4
		c-0.5,0.6-0.7,1.3-0.7,2c0,0.6,0,1.2,0,1.8c0,13.5,0,27.1,0,40.7c0,2.7,0.2,2.5-2.5,2.5h-12c-0.5,0-1,0-1.5,0c-0.7,0-0.9-0.2-0.9-1
		s0-1.3,0-2L21.8,364z"/>
	<path class="st1" d="M148.8,363.1c0-3-0.1-5.9,0-8.8c0.7-15.1,13.4-26.8,28.5-26.1c12.8,0.6,23.5,9.9,25.7,22.5
		c0.3,1.5,0.4,3.1,0.4,4.6c0,5.3,0,10.6,0,15.9c-0.2,15.1-12.5,27.2-27.6,27.1c-12.8-0.1-23.9-9.2-26.5-21.7c-0.4-2-0.6-3.9-0.6-5.9
		C148.8,368.2,148.8,365.7,148.8,363.1L148.8,363.1z M188.1,363.5L188.1,363.5c-0.1-2.9,0-5.9-0.1-8.8c-0.3-4.9-3.6-9-8.3-10.4
		c-4.9-1.5-9.2-0.2-12.6,3.5c-2,2.2-3.1,5.1-3,8.1c0,4.9,0,9.9,0,14.8c0,0.8,0.1,1.6,0.3,2.4c1.1,5,4.1,8.3,9.1,9.4
		s9.1-0.5,12.3-4.6c1.6-2.1,2.4-4.6,2.3-7.2C188.1,368.4,188.1,366,188.1,363.5z"/>
	<path class="st1" d="M264.9,363.5c0,2.7,0,5.5,0,8.2c-0.3,15.1-12.9,27-27.9,26.7c-12.9-0.3-23.8-9.5-26.2-22.1
		c-0.3-1.7-0.5-3.5-0.5-5.3c0-5.1,0-10.2,0-15.2c0-15.1,12.3-27.3,27.4-27.3c15.1,0,27.3,12.3,27.3,27.4l0,0
		C265,358.3,265,360.9,264.9,363.5L264.9,363.5z M225.6,363.2L225.6,363.2c0,0.7,0,1.3,0,2c0,2.3-0.1,4.7,0.1,7.1
		c0.3,4.6,3.4,8.6,7.9,10c4.7,1.7,8.9,0.6,12.4-2.8c2.4-2.3,3.6-5.5,3.6-8.8c0-4.9,0-9.7,0-14.6c0-0.8-0.1-1.6-0.2-2.4
		c-1.2-6.5-7.4-10.8-13.9-9.7c-3,0.5-5.7,2.2-7.5,4.7c-1.5,2.1-2.3,4.6-2.3,7.2C225.6,358.3,225.6,360.8,225.6,363.2z"/>
	<path class="st0" d="M481.7,395.7c-0.8-0.1-1.4,0.4-2.1,0.6c-10.2,3.5-19.5,2.1-27.7-4.9c-6-5-9.5-12.4-9.4-20.2
		c-0.1-12.8,0-25.6,0-38.5c0-2,0-2,1.9-2c3.8,0,7.7,0,11.5,0h1.1c0.4,0,0.8,0.3,0.8,0.7v0.1c0,0.7,0,1.3,0,2c0,12.1,0,24.2,0,36.2
		c-0.1,1.5,0.1,3.1,0.5,4.6c2.1,6.3,8.9,9.7,15.1,7.7c4-1.3,7-4.6,8-8.7c0.2-1.2,0.3-2.5,0.3-3.7v-36c0-0.7,0-1.3,0-2
		c0-0.4,0.3-0.8,0.7-0.8h0.1h2.6c3.3,0,6.6,0,10,0c1.9,0,1.9,0,1.9,2v0.9c0,20.6,0,41.3,0,61.9c0,0.7,0,1.3,0,2
		c0,0.4-0.3,0.8-0.8,0.8h-0.1c-0.4,0-0.7,0-1.1,0h-11.3c-0.4,0-0.7,0-1.1,0s-0.7-0.3-0.7-0.7C481.9,397,482.2,396.3,481.7,395.7z"/>
	<path class="st0" d="M512.1,378.8c0.1,0,0.2,0,0.3,0.1c3.8,3.2,8.3,4.7,13,5.7c3.3,0.7,6.7,1,10.1,0.7c1.9-0.2,3.8-0.7,5.5-1.6
		s2.9-2.4,3.3-4.2c0.6-2-0.1-4.2-1.8-5.5c-1.2-0.9-2.7-1.6-4.2-2c-3.1-0.9-6.4-1.3-9.6-1.3c-2.3,0.1-4.6-0.1-6.8-0.5
		c-1.5-0.3-3-0.7-4.4-1.3c-6.3-2.7-10-7.6-11.3-14.3c-0.6-2.9-0.5-5.9,0.1-8.8c1-4.6,3.7-8.6,7.6-11.3c2.9-2,6.2-3.4,9.7-4.1
		c12.2-2.5,23.2,0.5,33.1,7.7c0.3,0.2,0.6,0.5,0.8,0.7c0.1,0.2,0.1,0.4,0,0.6c-0.2,0.2-0.4,0.5-0.5,0.7c-2.6,2.9-5.2,5.8-7.8,8.7
		c-0.2,0.2-0.4,0.4-0.6,0.6c-0.3,0.3-0.7,0.3-1,0l-1.1-0.8c-4-2.7-8.6-4.3-13.4-4.6c-3-0.2-6.1,0.2-8.9,1.3
		c-2.8,1.1-4.4,2.5-3.5,6.8c0.2,1.5,1.3,2.7,2.8,3.1c1.3,0.4,2.6,0.6,3.9,0.5c2.6-0.1,5.3,0.1,7.9,0.4c3.5,0.4,7,1.3,10.2,2.7
		c1.6,0.6,3.1,1.4,4.5,2.3c7.7,4.9,11,14.4,8,23c-1.7,5.3-5.5,9.7-10.5,12.3c-3.2,1.7-6.7,2.7-10.3,3c-9.1,0.9-18.3-0.7-26.6-4.7
		c-2.6-1.2-5-2.8-7.2-4.7c-0.5-0.4-0.9-0.8-1.3-1.2s-0.4-0.7,0-1.1c0.1-0.2,0.3-0.3,0.5-0.5l8.9-8.3
		C511.6,379.1,511.9,378.9,512.1,378.8z"/>
	<path class="st0" d="M411.1,342.5c0-12,0-24,0-36c0-2.5-0.3-2.4,2.4-2.4H425c0.4,0,0.7,0,1.1,0c1,0.1,1.2,0.3,1.2,1.2
		c0,0.7,0,1.3,0,2v63.2c0,2.5,0,5,0,7.5c0,0.7,0,1.5,0.1,2.2c0.2,1.4,0.7,1.9,2.2,1.9c1.8,0,3.7,0,5.5,0c1,0,1.9,0,2.9,0
		c0.7,0,0.9,0.2,0.9,1c0,0.3,0,0.6,0,0.9v12.4c0,0.4,0,0.7,0,1.1s-0.3,0.7-0.6,0.7c0,0,0,0-0.1,0c-4,0-8.1,0.4-12.1-0.2
		c-5.2-0.7-9.8-3.9-12.2-8.6c-1.8-3.2-2.8-6.9-2.8-10.6c0-4.6,0-9.3,0-13.9C411.1,357.4,411.1,350,411.1,342.5z"/>
	<path class="st1" d="M0,349.8c0-15.2,0-30.4,0-45.5c0-3-0.3-2.7,2.8-2.7c3.9,0,7.8,0,11.7,0c0.6,0,1.2,0,1.8,0.1
		c0.3,0,0.5,0.3,0.5,0.6c0,0.8,0.1,1.6,0.1,2.4c0,26.5,0,53,0,79.5v11.5c0,0.5,0,1,0,1.6c0,0.7-0.2,0.8-1,0.9c-0.3,0-0.6,0-0.9,0H2
		c-0.4,0-0.9,0-1.3-0.1c-0.3,0-0.6-0.3-0.6-0.6c0-0.7,0-1.5,0-2.2C0,380.1,0,365,0,349.8z"/>
	<path class="st1" d="M320.6,336.2c-3.4,3.7-7.1,7.2-10.9,10.5c-0.5-0.1-0.7-0.5-1.1-0.7c-4-3-8.3-3.7-12.9-1.4
		c-4.2,1.9-6.8,6.2-6.7,10.9c-0.1,7.2,0,14.4,0,21.6c0,6.3,0,12.5,0,18.8c0.1,0.7,0,1.4-0.2,2.1c-0.5,0.2-1,0.3-1.6,0.2h-12.6
		c-0.4,0-0.7,0-1.1,0s-0.7-0.3-0.7-0.7l0,0c0-0.6,0-1.2,0-1.8v-64.6c0-2.9-0.2-2.6,2.6-2.6c3.8,0,7.7,0,11.5,0c0.4,0,0.7,0,1.1,0
		c0.6,0,1,0.2,1,0.9c0,0.3,0.1,0.6,0.2,1c1.6-0.5,3.1-1.1,4.6-1.5c1.6-0.4,3.2-0.7,4.8-0.9c1.6-0.2,3.2-0.2,4.9,0
		c1.6,0.1,3.2,0.4,4.8,0.8c1.6,0.4,3.1,1,4.5,1.7s2.8,1.5,4.1,2.5C318.4,333.9,319.6,335,320.6,336.2z"/>
	<path class="st0" d="M573.2,306.5c0-1.8,0-3.5,0-5.3c0-1,0.2-1.2,1.2-1.2c2.7,0,5.5,0,8.2,0c1,0,1.1,0.2,1.1,1.2c0,3,0,6,0,9.1
		c0,0.7,0,1.3,0,2s0.3,0.9,1,0.9c0.5,0,1,0,1.5,0h8.6c2,0,2,0,2,1.9c0,2.3,0,4.6,0,6.9c0,0.3,0,0.6,0,0.9c0,0.7-0.2,0.9-1,0.9
		c-0.5,0-1,0-1.5,0c-2.7,0-5.3,0-8,0c-0.5,0-1,0-1.5,0c-0.9,0-1.1,0.2-1.1,1c0,0.5,0,1,0,1.5c0,2.7,0,5.4,0,8.2c0,0.6,0,1.2,0,1.8
		c0,0.4-0.3,0.7-0.7,0.7c0,0,0,0-0.1,0H580h-6c-0.4,0-0.8-0.3-0.8-0.7v-0.1c0-0.6,0-1.2,0-1.8v-8c0-0.6,0-1.2,0-1.8
		c0-0.4-0.3-0.8-0.7-0.8h-0.1c-0.6,0-1.2,0-1.8,0h-9.1c-1.3,0-1.4-0.1-1.5-1.3c0-2.7,0-5.4,0-8.2c0-0.9,0.2-1,1.1-1
		c3.1,0,6.2,0,9.3,0s2.8,0.3,2.8-2.7C573.1,309.2,573.1,307.8,573.2,306.5L573.2,306.5z"/>
</g>
<g>
	<path class="st2" d="M125.9,480.7c0.2-0.8,0.2-1.7,0.2-2.5c0-8,0-16,0-24.1c0-2.7-0.2-2.5,2.5-2.5h11.3c0.5,0,1,0,1.5,0
		c0.4,0,0.8,0.3,0.9,0.7v0.1c0,0.6,0,1.2,0,1.8v93.6c-0.5,0.3-1.1,0.5-1.6,0.4h-13c-0.3,0-0.6,0-0.9,0s-0.6-0.2-0.6-0.5
		c-0.1-0.5-0.1-1-0.1-1.5c-0.6-0.4-1,0-1.5,0.2c-2.4,0.9-4.9,1.5-7.5,1.8c-14.9,1.6-28.3-9.1-30-24c-0.2-1.5-0.2-2.9-0.2-4.4
		c0-4.6,0-9.3,0-13.9c-0.1-4.4,1-8.7,3-12.5c4.7-8.6,11.9-13.7,21.7-14.8c4.3-0.5,8.6,0.1,12.6,1.7
		C124.6,480.5,125.2,480.7,125.9,480.7z M126,513.4v-8c0-0.9-0.1-1.8-0.3-2.6c-1.7-6.4-8.3-10.2-14.7-8.5c-5.1,1.4-8.7,5.9-8.9,11.1
		c-0.1,4.7,0,9.4,0,14.1c0,0.7,0,1.3,0,2c0.3,6.5,5.8,11.6,12.3,11.5c6.4-0.2,11.6-5.4,11.6-11.9C126,518.5,126,516,126,513.4z"/>
	<path class="st0" d="M368.3,491.9c0.7,0.1,1.4,0.4,2.1,0.8c7.2,3.3,15.6,0.1,18.9-7c3.3-7.2,0.1-15.6-7-18.9s-15.6-0.1-18.9,7
		c-0.9,2-1.3,4.1-1.3,6.2c0,22.7,0.1,45.5,0.1,68.3c0,0.3,0,0.6,0,0.9s0.1,0.6-0.2,0.8c-0.4,0.2-0.7-0.2-0.9-0.4
		c-4.5-4.4-8.9-8.8-13.4-13.2c-0.7-0.7-1.1-1.6-1-2.6c0-3.8,0-7.5,0-11.3v-10.4c0-0.6,0-1.2-0.1-1.8c0-0.3-0.3-0.5-0.6-0.6
		c-0.5,0-1-0.1-1.5-0.1c-1.7,0-3.4,0-5.1,0c-0.8,0.1-1.5-0.2-2-0.8c-4.5-4.6-9-9.1-13.5-13.7c-0.1-0.1-0.2-0.2-0.3-0.3
		c-0.1-0.2,0-0.4,0.1-0.5h0.1c0.6-0.1,1.2-0.1,1.8-0.1c6.1,0,12.2,0,18.3,0c3,0,2.7,0.2,2.7-2.8c0-3.8,0-7.7,0-11.5
		c0-4.4,0.9-8.8,2.8-12.8c4.6-9.3,12-15.1,22.2-16.7c16.2-2.6,31.4,8.4,33.9,24.6s-8.3,31.4-24.5,34l0,0c-3.7,0.6-7.5,0.5-11.2-0.3
		c-0.3-0.1-0.6-0.2-0.8-0.2c-0.5-0.1-0.8-0.5-0.8-0.9s0-0.7,0-1.1c0-4.3,0-8.5,0-12.8C368.2,493,368.3,492.5,368.3,491.9z"/>
	<path class="st2" d="M21.8,514v-31.2c0-0.7,0-1.3,0-2c0-0.4,0.4-0.8,0.8-0.8c0,0,0,0,0.1,0h0.9c4.5,0,9,0,13.5,0
		c0.9,0,1.6,0,1.7,1.2c0,0.5,0.5,0.5,0.8,0.4c0.5-0.2,1.1-0.5,1.6-0.7c11.5-4.4,24.6-0.7,32,9.2c2.7,3.7,4.4,8.1,5,12.6
		c0.3,2,0.4,4.1,0.4,6.2c0,12.4,0,24.8,0,37.1v0.7c0,1.7,0,1.7-1.8,1.7c-4.1,0-8.2,0-12.4,0c-1.1,0-1.2-0.2-1.3-1.3
		c0-0.6,0-1.2,0-1.8v-36.5c0-1.8-0.1-3.5-0.5-5.3c-0.8-3.8-3.6-7-7.3-8.2c-3.8-1.5-8.1-1-11.4,1.4c-1.7,1.2-3.3,2.7-4.6,4.4
		c-0.5,0.6-0.7,1.3-0.7,2c0,0.6,0,1.2,0,1.8c0,13.5,0,27.1,0,40.7c0,2.7,0.2,2.5-2.5,2.5h-12c-0.5,0-1,0-1.5,0c-0.7,0-0.9-0.2-0.9-1
		s0-1.3,0-2L21.8,514z"/>
	<path class="st2" d="M148.8,513.1c0-3-0.1-5.9,0-8.8c0.7-15.1,13.4-26.8,28.5-26.1c12.8,0.6,23.5,9.9,25.7,22.5
		c0.3,1.5,0.4,3.1,0.4,4.6c0,5.3,0,10.6,0,15.9c-0.2,15.1-12.5,27.2-27.6,27.1c-12.8-0.1-23.9-9.2-26.5-21.7c-0.4-2-0.6-3.9-0.6-5.9
		C148.8,518.2,148.8,515.7,148.8,513.1L148.8,513.1z M188.1,513.5L188.1,513.5c-0.1-2.9,0-5.9-0.1-8.8c-0.3-4.9-3.6-9-8.3-10.4
		c-4.9-1.5-9.2-0.2-12.6,3.5c-2,2.2-3.1,5.1-3,8.1c0,4.9,0,9.9,0,14.8c0,0.8,0.1,1.6,0.3,2.4c1.1,5,4.1,8.3,9.1,9.4
		c5,1.1,9.1-0.5,12.3-4.6c1.6-2.1,2.4-4.6,2.3-7.2C188.1,518.4,188.1,516,188.1,513.5z"/>
	<path class="st2" d="M264.9,513.5c0,2.7,0,5.5,0,8.2c-0.3,15.1-12.9,27-27.9,26.7c-12.9-0.3-23.8-9.5-26.2-22.1
		c-0.3-1.7-0.5-3.5-0.5-5.3c0-5.1,0-10.2,0-15.2c0-15.1,12.3-27.3,27.4-27.3c15.1,0,27.3,12.3,27.3,27.4l0,0
		C265,508.3,265,510.9,264.9,513.5L264.9,513.5z M225.6,513.2L225.6,513.2c0,0.7,0,1.3,0,2c0,2.3-0.1,4.7,0.1,7.1
		c0.3,4.6,3.4,8.6,7.9,10c4.7,1.7,8.9,0.6,12.4-2.8c2.4-2.3,3.6-5.5,3.6-8.8c0-4.9,0-9.7,0-14.6c0-0.8-0.1-1.6-0.2-2.4
		c-1.2-6.5-7.4-10.8-13.9-9.7c-3,0.5-5.7,2.2-7.5,4.7c-1.5,2.1-2.3,4.6-2.3,7.2C225.6,508.3,225.6,510.8,225.6,513.2z"/>
	<path class="st0" d="M481.7,545.7c-0.8-0.1-1.4,0.4-2.1,0.6c-10.2,3.5-19.5,2.1-27.7-4.9c-6-5-9.5-12.4-9.4-20.2
		c-0.1-12.8,0-25.6,0-38.5c0-2,0-2,1.9-2c3.8,0,7.7,0,11.5,0h1.1c0.4,0,0.8,0.3,0.8,0.7v0.1c0,0.7,0,1.3,0,2c0,12.1,0,24.2,0,36.2
		c-0.1,1.5,0.1,3.1,0.5,4.6c2.1,6.3,8.9,9.7,15.1,7.7c4-1.3,7-4.6,8-8.7c0.2-1.2,0.3-2.5,0.3-3.7v-36c0-0.7,0-1.3,0-2
		c0-0.4,0.3-0.8,0.7-0.8h0.1h2.6c3.3,0,6.6,0,10,0c1.9,0,1.9,0,1.9,2v0.9c0,20.6,0,41.3,0,61.9c0,0.7,0,1.3,0,2
		c0,0.4-0.3,0.8-0.8,0.8h-0.1c-0.4,0-0.7,0-1.1,0h-11.3c-0.4,0-0.7,0-1.1,0s-0.7-0.3-0.7-0.7C481.9,547,482.2,546.3,481.7,545.7z"/>
	<path class="st0" d="M512.1,528.8c0.1,0,0.2,0,0.3,0.1c3.8,3.2,8.3,4.7,13,5.7c3.3,0.7,6.7,1,10.1,0.7c1.9-0.2,3.8-0.7,5.5-1.6
		c1.7-0.9,2.9-2.4,3.3-4.2c0.6-2-0.1-4.2-1.8-5.5c-1.2-0.9-2.7-1.6-4.2-2c-3.1-0.9-6.4-1.3-9.6-1.3c-2.3,0.1-4.6-0.1-6.8-0.5
		c-1.5-0.3-3-0.7-4.4-1.3c-6.3-2.7-10-7.6-11.3-14.3c-0.6-2.9-0.5-5.9,0.1-8.8c1-4.6,3.7-8.6,7.6-11.3c2.9-2,6.2-3.4,9.7-4.1
		c12.2-2.5,23.2,0.5,33.1,7.7c0.3,0.2,0.6,0.5,0.8,0.7c0.1,0.2,0.1,0.4,0,0.6c-0.2,0.2-0.4,0.5-0.5,0.7c-2.6,2.9-5.2,5.8-7.8,8.7
		c-0.2,0.2-0.4,0.4-0.6,0.6c-0.3,0.3-0.7,0.3-1,0l-1.1-0.8c-4-2.7-8.6-4.3-13.4-4.6c-3-0.2-6.1,0.2-8.9,1.3
		c-2.8,1.1-4.4,2.5-3.5,6.8c0.2,1.5,1.3,2.7,2.8,3.1c1.3,0.4,2.6,0.6,3.9,0.5c2.6-0.1,5.3,0.1,7.9,0.4c3.5,0.4,7,1.3,10.2,2.7
		c1.6,0.6,3.1,1.4,4.5,2.3c7.7,4.9,11,14.4,8,23c-1.7,5.3-5.5,9.7-10.5,12.3c-3.2,1.7-6.7,2.7-10.3,3c-9.1,0.9-18.3-0.7-26.6-4.7
		c-2.6-1.2-5-2.8-7.2-4.7c-0.5-0.4-0.9-0.8-1.3-1.2s-0.4-0.7,0-1.1c0.1-0.2,0.3-0.3,0.5-0.5l8.9-8.3
		C511.6,529.1,511.9,528.9,512.1,528.8z"/>
	<path class="st0" d="M411.1,492.5c0-12,0-24,0-36c0-2.5-0.3-2.4,2.4-2.4H425c0.4,0,0.7,0,1.1,0c1,0.1,1.2,0.3,1.2,1.2
		c0,0.7,0,1.3,0,2v63.2c0,2.5,0,5,0,7.5c0,0.7,0,1.5,0.1,2.2c0.2,1.4,0.7,1.9,2.2,1.9c1.8,0,3.7,0,5.5,0c1,0,1.9,0,2.9,0
		c0.7,0,0.9,0.2,0.9,1c0,0.3,0,0.6,0,0.9v12.4c0,0.4,0,0.7,0,1.1s-0.3,0.7-0.6,0.7c0,0,0,0-0.1,0c-4,0-8.1,0.4-12.1-0.2
		c-5.2-0.7-9.8-3.9-12.2-8.6c-1.8-3.2-2.8-6.9-2.8-10.6c0-4.6,0-9.3,0-13.9C411.1,507.4,411.1,500,411.1,492.5z"/>
	<path class="st2" d="M0,499.8c0-15.2,0-30.4,0-45.5c0-3-0.3-2.7,2.8-2.7c3.9,0,7.8,0,11.7,0c0.6,0,1.2,0,1.8,0.1
		c0.3,0,0.5,0.3,0.5,0.6c0,0.8,0.1,1.6,0.1,2.4c0,26.5,0,53,0,79.5v11.5c0,0.5,0,1,0,1.6c0,0.7-0.2,0.8-1,0.9c-0.3,0-0.6,0-0.9,0H2
		c-0.4,0-0.9,0-1.3-0.1c-0.3,0-0.6-0.3-0.6-0.6c0-0.7,0-1.5,0-2.2C0,530.1,0,515,0,499.8z"/>
	<path class="st2" d="M320.6,486.2c-3.4,3.7-7.1,7.2-10.9,10.5c-0.5-0.1-0.7-0.5-1.1-0.7c-4-3-8.3-3.7-12.9-1.4
		c-4.2,1.9-6.8,6.2-6.7,10.9c-0.1,7.2,0,14.4,0,21.6c0,6.3,0,12.5,0,18.8c0.1,0.7,0,1.4-0.2,2.1c-0.5,0.2-1,0.3-1.6,0.2h-12.6
		c-0.4,0-0.7,0-1.1,0s-0.7-0.3-0.7-0.7l0,0c0-0.6,0-1.2,0-1.8v-64.6c0-2.9-0.2-2.6,2.6-2.6c3.8,0,7.7,0,11.5,0c0.4,0,0.7,0,1.1,0
		c0.6,0,1,0.2,1,0.9c0,0.3,0.1,0.6,0.2,1c1.6-0.5,3.1-1.1,4.6-1.5c1.6-0.4,3.2-0.7,4.8-0.9c1.6-0.2,3.2-0.2,4.9,0
		c1.6,0.1,3.2,0.4,4.8,0.8c1.6,0.4,3.1,1,4.5,1.7s2.8,1.5,4.1,2.5C318.4,483.9,319.6,485,320.6,486.2z"/>
	<path class="st0" d="M573.2,456.5c0-1.8,0-3.5,0-5.3c0-1,0.2-1.2,1.2-1.2c2.7,0,5.5,0,8.2,0c1,0,1.1,0.2,1.1,1.2c0,3,0,6,0,9.1
		c0,0.7,0,1.3,0,2s0.3,0.9,1,0.9c0.5,0,1,0,1.5,0h8.6c2,0,2,0,2,1.9c0,2.3,0,4.6,0,6.9c0,0.3,0,0.6,0,0.9c0,0.7-0.2,0.9-1,0.9
		c-0.5,0-1,0-1.5,0c-2.7,0-5.3,0-8,0c-0.5,0-1,0-1.5,0c-0.9,0-1.1,0.2-1.1,1c0,0.5,0,1,0,1.5c0,2.7,0,5.4,0,8.2c0,0.6,0,1.2,0,1.8
		c0,0.4-0.3,0.7-0.7,0.7c0,0,0,0-0.1,0H580h-6c-0.4,0-0.8-0.3-0.8-0.7v-0.1c0-0.6,0-1.2,0-1.8v-8c0-0.6,0-1.2,0-1.8
		c0-0.4-0.3-0.8-0.7-0.8h-0.1c-0.6,0-1.2,0-1.8,0h-9.1c-1.3,0-1.4-0.1-1.5-1.3c0-2.7,0-5.4,0-8.2c0-0.9,0.2-1,1.1-1
		c3.1,0,6.2,0,9.3,0s2.8,0.3,2.8-2.7C573.1,459.2,573.1,457.8,573.2,456.5L573.2,456.5z"/>
</g>
<g>
	<path class="st0" d="M125.9,1230.7c0.2-0.8,0.2-1.7,0.2-2.5c0-8,0-16,0-24.1c0-2.7-0.2-2.5,2.5-2.5h11.3c0.5,0,1,0,1.5,0
		c0.4,0,0.8,0.3,0.9,0.7v0.1c0,0.6,0,1.2,0,1.8v93.6c-0.5,0.3-1.1,0.5-1.6,0.4h-13c-0.3,0-0.6,0-0.9,0s-0.6-0.2-0.6-0.5
		c-0.1-0.5-0.1-1-0.1-1.5c-0.6-0.4-1,0-1.5,0.2c-2.4,0.9-4.9,1.5-7.5,1.8c-14.9,1.6-28.3-9.1-30-24c-0.2-1.5-0.2-2.9-0.2-4.4
		c0-4.6,0-9.3,0-13.9c-0.1-4.4,1-8.7,3-12.5c4.7-8.6,11.9-13.7,21.7-14.8c4.3-0.5,8.6,0.1,12.6,1.7
		C124.6,1230.5,125.2,1230.7,125.9,1230.7z M126,1263.4v-8c0-0.9-0.1-1.8-0.3-2.6c-1.7-6.4-8.3-10.2-14.7-8.5
		c-5.1,1.4-8.7,5.9-8.9,11.1c-0.1,4.7,0,9.4,0,14.1c0,0.7,0,1.3,0,2c0.3,6.5,5.8,11.6,12.3,11.5c6.4-0.2,11.6-5.4,11.6-11.9
		C126,1268.5,126,1266,126,1263.4z"/>
	<path class="st2" d="M368.3,1241.9c0.7,0.1,1.4,0.4,2.1,0.8c7.2,3.3,15.6,0.1,18.9-7c3.3-7.2,0.1-15.6-7-18.9
		c-7.1-3.3-15.6-0.1-18.9,7c-0.9,2-1.3,4.1-1.3,6.2c0,22.7,0.1,45.5,0.1,68.3c0,0.3,0,0.6,0,0.9s0.1,0.6-0.2,0.8
		c-0.4,0.2-0.7-0.2-0.9-0.4c-4.5-4.4-8.9-8.8-13.4-13.2c-0.7-0.7-1.1-1.6-1-2.6c0-3.8,0-7.5,0-11.3v-10.4c0-0.6,0-1.2-0.1-1.8
		c0-0.3-0.3-0.5-0.6-0.6c-0.5,0-1-0.1-1.5-0.1c-1.7,0-3.4,0-5.1,0c-0.8,0.1-1.5-0.2-2-0.8c-4.5-4.6-9-9.1-13.5-13.7
		c-0.1-0.1-0.2-0.2-0.3-0.3c-0.1-0.2,0-0.4,0.1-0.5h0.1c0.6-0.1,1.2-0.1,1.8-0.1c6.1,0,12.2,0,18.3,0c3,0,2.7,0.2,2.7-2.8
		c0-3.8,0-7.7,0-11.5c0-4.4,0.9-8.8,2.8-12.8c4.6-9.3,12-15.1,22.2-16.7c16.2-2.6,31.4,8.4,33.9,24.6c2.5,16.2-8.3,31.4-24.5,34l0,0
		c-3.7,0.6-7.5,0.5-11.2-0.3c-0.3-0.1-0.6-0.2-0.8-0.2c-0.5-0.1-0.8-0.5-0.8-0.9c0-0.4,0-0.7,0-1.1c0-4.3,0-8.5,0-12.8
		C368.2,1243,368.3,1242.5,368.3,1241.9z"/>
	<path class="st0" d="M21.8,1264v-31.2c0-0.7,0-1.3,0-2c0-0.4,0.4-0.8,0.8-0.8c0,0,0,0,0.1,0h0.9c4.5,0,9,0,13.5,0
		c0.9,0,1.6,0,1.7,1.2c0,0.5,0.5,0.5,0.8,0.4c0.5-0.2,1.1-0.5,1.6-0.7c11.5-4.4,24.6-0.7,32,9.2c2.7,3.7,4.4,8.1,5,12.6
		c0.3,2,0.4,4.1,0.4,6.2c0,12.4,0,24.8,0,37.1v0.7c0,1.7,0,1.7-1.8,1.7c-4.1,0-8.2,0-12.4,0c-1.1,0-1.2-0.2-1.3-1.3
		c0-0.6,0-1.2,0-1.8v-36.5c0-1.8-0.1-3.5-0.5-5.3c-0.8-3.8-3.6-7-7.3-8.2c-3.8-1.5-8.1-1-11.4,1.4c-1.7,1.2-3.3,2.7-4.6,4.4
		c-0.5,0.6-0.7,1.3-0.7,2c0,0.6,0,1.2,0,1.8c0,13.5,0,27.1,0,40.7c0,2.7,0.2,2.5-2.5,2.5h-12c-0.5,0-1,0-1.5,0c-0.7,0-0.9-0.2-0.9-1
		c0-0.8,0-1.3,0-2L21.8,1264z"/>
	<path class="st0" d="M148.8,1263.1c0-3-0.1-5.9,0-8.8c0.7-15.1,13.4-26.8,28.5-26.1c12.8,0.6,23.5,9.9,25.7,22.5
		c0.3,1.5,0.4,3.1,0.4,4.6c0,5.3,0,10.6,0,15.9c-0.2,15.1-12.5,27.2-27.6,27.1c-12.8-0.1-23.9-9.2-26.5-21.7c-0.4-2-0.6-3.9-0.6-5.9
		C148.8,1268.2,148.8,1265.7,148.8,1263.1L148.8,1263.1z M188.1,1263.5L188.1,1263.5c-0.1-2.9,0-5.9-0.1-8.8
		c-0.3-4.9-3.6-9-8.3-10.4c-4.9-1.5-9.2-0.2-12.6,3.5c-2,2.2-3.1,5.1-3,8.1c0,4.9,0,9.9,0,14.8c0,0.8,0.1,1.6,0.3,2.4
		c1.1,5,4.1,8.3,9.1,9.4c5,1.1,9.1-0.5,12.3-4.6c1.6-2.1,2.4-4.6,2.3-7.2C188.1,1268.4,188.1,1266,188.1,1263.5z"/>
	<path class="st0" d="M264.9,1263.5c0,2.7,0,5.5,0,8.2c-0.3,15.1-12.9,27-27.9,26.7c-12.9-0.3-23.8-9.5-26.2-22.1
		c-0.3-1.7-0.5-3.5-0.5-5.3c0-5.1,0-10.2,0-15.2c0-15.1,12.3-27.3,27.4-27.3c15.1,0,27.3,12.3,27.3,27.4l0,0
		C265,1258.3,265,1260.9,264.9,1263.5L264.9,1263.5z M225.6,1263.2L225.6,1263.2c0,0.7,0,1.3,0,2c0,2.3-0.1,4.7,0.1,7.1
		c0.3,4.6,3.4,8.6,7.9,10c4.7,1.7,8.9,0.6,12.4-2.8c2.4-2.3,3.6-5.5,3.6-8.8c0-4.9,0-9.7,0-14.6c0-0.8-0.1-1.6-0.2-2.4
		c-1.2-6.5-7.4-10.8-13.9-9.7c-3,0.5-5.7,2.2-7.5,4.7c-1.5,2.1-2.3,4.6-2.3,7.2C225.6,1258.3,225.6,1260.8,225.6,1263.2z"/>
	<path class="st2" d="M481.7,1295.7c-0.8-0.1-1.4,0.4-2.1,0.6c-10.2,3.5-19.5,2.1-27.7-4.9c-6-5-9.5-12.4-9.4-20.2
		c-0.1-12.8,0-25.6,0-38.5c0-2,0-2,1.9-2c3.8,0,7.7,0,11.5,0h1.1c0.4,0,0.8,0.3,0.8,0.7v0.1c0,0.7,0,1.3,0,2c0,12.1,0,24.2,0,36.2
		c-0.1,1.5,0.1,3.1,0.5,4.6c2.1,6.3,8.9,9.7,15.1,7.7c4-1.3,7-4.6,8-8.7c0.2-1.2,0.3-2.5,0.3-3.7v-36c0-0.7,0-1.3,0-2
		c0-0.4,0.3-0.8,0.7-0.8h0.1h2.6c3.3,0,6.6,0,10,0c1.9,0,1.9,0,1.9,2v0.9c0,20.6,0,41.3,0,61.9c0,0.7,0,1.3,0,2
		c0,0.4-0.3,0.8-0.8,0.8h-0.1c-0.4,0-0.7,0-1.1,0h-11.3c-0.4,0-0.7,0-1.1,0s-0.7-0.3-0.7-0.7C481.9,1297,482.2,1296.3,481.7,1295.7z
		"/>
	<path class="st2" d="M512.1,1278.8c0.1,0,0.2,0,0.3,0.1c3.8,3.2,8.3,4.7,13,5.7c3.3,0.7,6.7,1,10.1,0.7c1.9-0.2,3.8-0.7,5.5-1.6
		c1.7-0.9,2.9-2.4,3.3-4.2c0.6-2-0.1-4.2-1.8-5.5c-1.2-0.9-2.7-1.6-4.2-2c-3.1-0.9-6.4-1.3-9.6-1.3c-2.3,0.1-4.6-0.1-6.8-0.5
		c-1.5-0.3-3-0.7-4.4-1.3c-6.3-2.7-10-7.6-11.3-14.3c-0.6-2.9-0.5-5.9,0.1-8.8c1-4.6,3.7-8.6,7.6-11.3c2.9-2,6.2-3.4,9.7-4.1
		c12.2-2.5,23.2,0.5,33.1,7.7c0.3,0.2,0.6,0.5,0.8,0.7c0.1,0.2,0.1,0.4,0,0.6c-0.2,0.2-0.4,0.5-0.5,0.7c-2.6,2.9-5.2,5.8-7.8,8.7
		c-0.2,0.2-0.4,0.4-0.6,0.6c-0.3,0.3-0.7,0.3-1,0l-1.1-0.8c-4-2.7-8.6-4.3-13.4-4.6c-3-0.2-6.1,0.2-8.9,1.3
		c-2.8,1.1-4.4,2.5-3.5,6.8c0.2,1.5,1.3,2.7,2.8,3.1c1.3,0.4,2.6,0.6,3.9,0.5c2.6-0.1,5.3,0.1,7.9,0.4c3.5,0.4,7,1.3,10.2,2.7
		c1.6,0.6,3.1,1.4,4.5,2.3c7.7,4.9,11,14.4,8,23c-1.7,5.3-5.5,9.7-10.5,12.3c-3.2,1.7-6.7,2.7-10.3,3c-9.1,0.9-18.3-0.7-26.6-4.7
		c-2.6-1.2-5-2.8-7.2-4.7c-0.5-0.4-0.9-0.8-1.3-1.2s-0.4-0.7,0-1.1c0.1-0.2,0.3-0.3,0.5-0.5l8.9-8.3
		C511.6,1279.1,511.9,1278.9,512.1,1278.8z"/>
	<path class="st2" d="M411.1,1242.5c0-12,0-24,0-36c0-2.5-0.3-2.4,2.4-2.4H425c0.4,0,0.7,0,1.1,0c1,0.1,1.2,0.3,1.2,1.2
		c0,0.7,0,1.3,0,2v63.2c0,2.5,0,5,0,7.5c0,0.7,0,1.5,0.1,2.2c0.2,1.4,0.7,1.9,2.2,1.9c1.8,0,3.7,0,5.5,0c1,0,1.9,0,2.9,0
		c0.7,0,0.9,0.2,0.9,1c0,0.3,0,0.6,0,0.9v12.4c0,0.4,0,0.7,0,1.1c0,0.4-0.3,0.7-0.6,0.7c0,0,0,0-0.1,0c-4,0-8.1,0.4-12.1-0.2
		c-5.2-0.7-9.8-3.9-12.2-8.6c-1.8-3.2-2.8-6.9-2.8-10.6c0-4.6,0-9.3,0-13.9C411.1,1257.4,411.1,1250,411.1,1242.5z"/>
	<path class="st0" d="M0,1249.8c0-15.2,0-30.4,0-45.5c0-3-0.3-2.7,2.8-2.7c3.9,0,7.8,0,11.7,0c0.6,0,1.2,0,1.8,0.1
		c0.3,0,0.5,0.3,0.5,0.6c0,0.8,0.1,1.6,0.1,2.4c0,26.5,0,53,0,79.5v11.5c0,0.5,0,1,0,1.6c0,0.7-0.2,0.8-1,0.9c-0.3,0-0.6,0-0.9,0H2
		c-0.4,0-0.9,0-1.3-0.1c-0.3,0-0.6-0.3-0.6-0.6c0-0.7,0-1.5,0-2.2C0,1280.1,0,1265,0,1249.8z"/>
	<path class="st0" d="M320.6,1236.2c-3.4,3.7-7.1,7.2-10.9,10.5c-0.5-0.1-0.7-0.5-1.1-0.7c-4-3-8.3-3.7-12.9-1.4
		c-4.2,1.9-6.8,6.2-6.7,10.9c-0.1,7.2,0,14.4,0,21.6c0,6.3,0,12.5,0,18.8c0.1,0.7,0,1.4-0.2,2.1c-0.5,0.2-1,0.3-1.6,0.2h-12.6
		c-0.4,0-0.7,0-1.1,0s-0.7-0.3-0.7-0.7l0,0c0-0.6,0-1.2,0-1.8v-64.6c0-2.9-0.2-2.6,2.6-2.6c3.8,0,7.7,0,11.5,0c0.4,0,0.7,0,1.1,0
		c0.6,0,1,0.2,1,0.9c0,0.3,0.1,0.6,0.2,1c1.6-0.5,3.1-1.1,4.6-1.5c1.6-0.4,3.2-0.7,4.8-0.9c1.6-0.2,3.2-0.2,4.9,0
		c1.6,0.1,3.2,0.4,4.8,0.8c1.6,0.4,3.1,1,4.5,1.7c1.4,0.7,2.8,1.5,4.1,2.5C318.4,1233.9,319.6,1235,320.6,1236.2z"/>
	<path class="st2" d="M573.2,1206.5c0-1.8,0-3.5,0-5.3c0-1,0.2-1.2,1.2-1.2c2.7,0,5.5,0,8.2,0c1,0,1.1,0.2,1.1,1.2c0,3,0,6,0,9.1
		c0,0.7,0,1.3,0,2c0,0.7,0.3,0.9,1,0.9c0.5,0,1,0,1.5,0h8.6c2,0,2,0,2,1.9c0,2.3,0,4.6,0,6.9c0,0.3,0,0.6,0,0.9c0,0.7-0.2,0.9-1,0.9
		c-0.5,0-1,0-1.5,0c-2.7,0-5.3,0-8,0c-0.5,0-1,0-1.5,0c-0.9,0-1.1,0.2-1.1,1c0,0.5,0,1,0,1.5c0,2.7,0,5.4,0,8.2c0,0.6,0,1.2,0,1.8
		c0,0.4-0.3,0.7-0.7,0.7c0,0,0,0-0.1,0H580h-6c-0.4,0-0.8-0.3-0.8-0.7v-0.1c0-0.6,0-1.2,0-1.8v-8c0-0.6,0-1.2,0-1.8
		c0-0.4-0.3-0.8-0.7-0.8h-0.1c-0.6,0-1.2,0-1.8,0h-9.1c-1.3,0-1.4-0.1-1.5-1.3c0-2.7,0-5.4,0-8.2c0-0.9,0.2-1,1.1-1
		c3.1,0,6.2,0,9.3,0s2.8,0.3,2.8-2.7C573.1,1209.2,573.1,1207.8,573.2,1206.5L573.2,1206.5z"/>
</g>
<g>
	<path class="st2" d="M125.9,630.7c0.2-0.8,0.2-1.7,0.2-2.5c0-8,0-16,0-24.1c0-2.7-0.2-2.5,2.5-2.5h11.3c0.5,0,1,0,1.5,0
		c0.4,0,0.8,0.3,0.9,0.7v0.1c0,0.6,0,1.2,0,1.8v93.6c-0.5,0.3-1.1,0.5-1.6,0.4h-13c-0.3,0-0.6,0-0.9,0s-0.6-0.2-0.6-0.5
		c-0.1-0.5-0.1-1-0.1-1.5c-0.6-0.4-1,0-1.5,0.2c-2.4,0.9-4.9,1.5-7.5,1.8c-14.9,1.6-28.3-9.1-30-24c-0.2-1.5-0.2-2.9-0.2-4.4
		c0-4.6,0-9.3,0-13.9c-0.1-4.4,1-8.7,3-12.5c4.7-8.6,11.9-13.7,21.7-14.8c4.3-0.5,8.6,0.1,12.6,1.7
		C124.6,630.5,125.2,630.7,125.9,630.7z M126,663.4v-8c0-0.9-0.1-1.8-0.3-2.6c-1.7-6.4-8.3-10.2-14.7-8.5c-5.1,1.4-8.7,5.9-8.9,11.1
		c-0.1,4.7,0,9.4,0,14.1c0,0.7,0,1.3,0,2c0.3,6.5,5.8,11.6,12.3,11.5c6.4-0.2,11.6-5.4,11.6-11.9C126,668.5,126,666,126,663.4z"/>
	<path class="st1" d="M368.3,641.9c0.7,0.1,1.4,0.4,2.1,0.8c7.2,3.3,15.6,0.1,18.9-7c3.3-7.2,0.1-15.6-7-18.9s-15.6-0.1-18.9,7
		c-0.9,2-1.3,4.1-1.3,6.2c0,22.7,0.1,45.5,0.1,68.3c0,0.3,0,0.6,0,0.9s0.1,0.6-0.2,0.8c-0.4,0.2-0.7-0.2-0.9-0.4
		c-4.5-4.4-8.9-8.8-13.4-13.2c-0.7-0.7-1.1-1.6-1-2.6c0-3.8,0-7.5,0-11.3v-10.4c0-0.6,0-1.2-0.1-1.8c0-0.3-0.3-0.5-0.6-0.6
		c-0.5,0-1-0.1-1.5-0.1c-1.7,0-3.4,0-5.1,0c-0.8,0.1-1.5-0.2-2-0.8c-4.5-4.6-9-9.1-13.5-13.7c-0.1-0.1-0.2-0.2-0.3-0.3
		c-0.1-0.2,0-0.4,0.1-0.5h0.1c0.6-0.1,1.2-0.1,1.8-0.1c6.1,0,12.2,0,18.3,0c3,0,2.7,0.2,2.7-2.8c0-3.8,0-7.7,0-11.5
		c0-4.4,0.9-8.8,2.8-12.8c4.6-9.3,12-15.1,22.2-16.7c16.2-2.6,31.4,8.4,33.9,24.6s-8.3,31.4-24.5,34l0,0c-3.7,0.6-7.5,0.5-11.2-0.3
		c-0.3-0.1-0.6-0.2-0.8-0.2c-0.5-0.1-0.8-0.5-0.8-0.9s0-0.7,0-1.1c0-4.3,0-8.5,0-12.8C368.2,643,368.3,642.5,368.3,641.9z"/>
	<path class="st2" d="M21.8,664v-31.2c0-0.7,0-1.3,0-2c0-0.4,0.4-0.8,0.8-0.8c0,0,0,0,0.1,0h0.9c4.5,0,9,0,13.5,0
		c0.9,0,1.6,0,1.7,1.2c0,0.5,0.5,0.5,0.8,0.4c0.5-0.2,1.1-0.5,1.6-0.7c11.5-4.4,24.6-0.7,32,9.2c2.7,3.7,4.4,8.1,5,12.6
		c0.3,2,0.4,4.1,0.4,6.2c0,12.4,0,24.8,0,37.1v0.7c0,1.7,0,1.7-1.8,1.7c-4.1,0-8.2,0-12.4,0c-1.1,0-1.2-0.2-1.3-1.3
		c0-0.6,0-1.2,0-1.8v-36.5c0-1.8-0.1-3.5-0.5-5.3c-0.8-3.8-3.6-7-7.3-8.2c-3.8-1.5-8.1-1-11.4,1.4c-1.7,1.2-3.3,2.7-4.6,4.4
		c-0.5,0.6-0.7,1.3-0.7,2c0,0.6,0,1.2,0,1.8c0,13.5,0,27.1,0,40.7c0,2.7,0.2,2.5-2.5,2.5h-12c-0.5,0-1,0-1.5,0c-0.7,0-0.9-0.2-0.9-1
		s0-1.3,0-2L21.8,664z"/>
	<path class="st2" d="M148.8,663.1c0-3-0.1-5.9,0-8.8c0.7-15.1,13.4-26.8,28.5-26.1c12.8,0.6,23.5,9.9,25.7,22.5
		c0.3,1.5,0.4,3.1,0.4,4.6c0,5.3,0,10.6,0,15.9c-0.2,15.1-12.5,27.2-27.6,27.1c-12.8-0.1-23.9-9.2-26.5-21.7c-0.4-2-0.6-3.9-0.6-5.9
		C148.8,668.2,148.8,665.7,148.8,663.1L148.8,663.1z M188.1,663.5L188.1,663.5c-0.1-2.9,0-5.9-0.1-8.8c-0.3-4.9-3.6-9-8.3-10.4
		c-4.9-1.5-9.2-0.2-12.6,3.5c-2,2.2-3.1,5.1-3,8.1c0,4.9,0,9.9,0,14.8c0,0.8,0.1,1.6,0.3,2.4c1.1,5,4.1,8.3,9.1,9.4
		c5,1.1,9.1-0.5,12.3-4.6c1.6-2.1,2.4-4.6,2.3-7.2C188.1,668.4,188.1,666,188.1,663.5z"/>
	<path class="st2" d="M264.9,663.5c0,2.7,0,5.5,0,8.2c-0.3,15.1-12.9,27-27.9,26.7c-12.9-0.3-23.8-9.5-26.2-22.1
		c-0.3-1.7-0.5-3.5-0.5-5.3c0-5.1,0-10.2,0-15.2c0-15.1,12.3-27.3,27.4-27.3c15.1,0,27.3,12.3,27.3,27.4l0,0
		C265,658.3,265,660.9,264.9,663.5L264.9,663.5z M225.6,663.2L225.6,663.2c0,0.7,0,1.3,0,2c0,2.3-0.1,4.7,0.1,7.1
		c0.3,4.6,3.4,8.6,7.9,10c4.7,1.7,8.9,0.6,12.4-2.8c2.4-2.3,3.6-5.5,3.6-8.8c0-4.9,0-9.7,0-14.6c0-0.8-0.1-1.6-0.2-2.4
		c-1.2-6.5-7.4-10.8-13.9-9.7c-3,0.5-5.7,2.2-7.5,4.7c-1.5,2.1-2.3,4.6-2.3,7.2C225.6,658.3,225.6,660.8,225.6,663.2z"/>
	<path class="st1" d="M481.7,695.7c-0.8-0.1-1.4,0.4-2.1,0.6c-10.2,3.5-19.5,2.1-27.7-4.9c-6-5-9.5-12.4-9.4-20.2
		c-0.1-12.8,0-25.6,0-38.5c0-2,0-2,1.9-2c3.8,0,7.7,0,11.5,0h1.1c0.4,0,0.8,0.3,0.8,0.7v0.1c0,0.7,0,1.3,0,2c0,12.1,0,24.2,0,36.2
		c-0.1,1.5,0.1,3.1,0.5,4.6c2.1,6.3,8.9,9.7,15.1,7.7c4-1.3,7-4.6,8-8.7c0.2-1.2,0.3-2.5,0.3-3.7v-36c0-0.7,0-1.3,0-2
		c0-0.4,0.3-0.8,0.7-0.8h0.1h2.6c3.3,0,6.6,0,10,0c1.9,0,1.9,0,1.9,2v0.9c0,20.6,0,41.3,0,61.9c0,0.7,0,1.3,0,2
		c0,0.4-0.3,0.8-0.8,0.8h-0.1c-0.4,0-0.7,0-1.1,0h-11.3c-0.4,0-0.7,0-1.1,0s-0.7-0.3-0.7-0.7C481.9,697,482.2,696.3,481.7,695.7z"/>
	<path class="st1" d="M512.1,678.8c0.1,0,0.2,0,0.3,0.1c3.8,3.2,8.3,4.7,13,5.7c3.3,0.7,6.7,1,10.1,0.7c1.9-0.2,3.8-0.7,5.5-1.6
		c1.7-0.9,2.9-2.4,3.3-4.2c0.6-2-0.1-4.2-1.8-5.5c-1.2-0.9-2.7-1.6-4.2-2c-3.1-0.9-6.4-1.3-9.6-1.3c-2.3,0.1-4.6-0.1-6.8-0.5
		c-1.5-0.3-3-0.7-4.4-1.3c-6.3-2.7-10-7.6-11.3-14.3c-0.6-2.9-0.5-5.9,0.1-8.8c1-4.6,3.7-8.6,7.6-11.3c2.9-2,6.2-3.4,9.7-4.1
		c12.2-2.5,23.2,0.5,33.1,7.7c0.3,0.2,0.6,0.5,0.8,0.7c0.1,0.2,0.1,0.4,0,0.6c-0.2,0.2-0.4,0.5-0.5,0.7c-2.6,2.9-5.2,5.8-7.8,8.7
		c-0.2,0.2-0.4,0.4-0.6,0.6c-0.3,0.3-0.7,0.3-1,0l-1.1-0.8c-4-2.7-8.6-4.3-13.4-4.6c-3-0.2-6.1,0.2-8.9,1.3
		c-2.8,1.1-4.4,2.5-3.5,6.8c0.2,1.5,1.3,2.7,2.8,3.1c1.3,0.4,2.6,0.6,3.9,0.5c2.6-0.1,5.3,0.1,7.9,0.4c3.5,0.4,7,1.3,10.2,2.7
		c1.6,0.6,3.1,1.4,4.5,2.3c7.7,4.9,11,14.4,8,23c-1.7,5.3-5.5,9.7-10.5,12.3c-3.2,1.7-6.7,2.7-10.3,3c-9.1,0.9-18.3-0.7-26.6-4.7
		c-2.6-1.2-5-2.8-7.2-4.7c-0.5-0.4-0.9-0.8-1.3-1.2s-0.4-0.7,0-1.1c0.1-0.2,0.3-0.3,0.5-0.5l8.9-8.3
		C511.6,679.1,511.9,678.9,512.1,678.8z"/>
	<path class="st1" d="M411.1,642.5c0-12,0-24,0-36c0-2.5-0.3-2.4,2.4-2.4H425c0.4,0,0.7,0,1.1,0c1,0.1,1.2,0.3,1.2,1.2
		c0,0.7,0,1.3,0,2v63.2c0,2.5,0,5,0,7.5c0,0.7,0,1.5,0.1,2.2c0.2,1.4,0.7,1.9,2.2,1.9c1.8,0,3.7,0,5.5,0c1,0,1.9,0,2.9,0
		c0.7,0,0.9,0.2,0.9,1c0,0.3,0,0.6,0,0.9v12.4c0,0.4,0,0.7,0,1.1s-0.3,0.7-0.6,0.7c0,0,0,0-0.1,0c-4,0-8.1,0.4-12.1-0.2
		c-5.2-0.7-9.8-3.9-12.2-8.6c-1.8-3.2-2.8-6.9-2.8-10.6c0-4.6,0-9.3,0-13.9C411.1,657.4,411.1,650,411.1,642.5z"/>
	<path class="st2" d="M0,649.8c0-15.2,0-30.4,0-45.5c0-3-0.3-2.7,2.8-2.7c3.9,0,7.8,0,11.7,0c0.6,0,1.2,0,1.8,0.1
		c0.3,0,0.5,0.3,0.5,0.6c0,0.8,0.1,1.6,0.1,2.4c0,26.5,0,53,0,79.5v11.5c0,0.5,0,1,0,1.6c0,0.7-0.2,0.8-1,0.9c-0.3,0-0.6,0-0.9,0H2
		c-0.4,0-0.9,0-1.3-0.1c-0.3,0-0.6-0.3-0.6-0.6c0-0.7,0-1.5,0-2.2C0,680.1,0,665,0,649.8z"/>
	<path class="st2" d="M320.6,636.2c-3.4,3.7-7.1,7.2-10.9,10.5c-0.5-0.1-0.7-0.5-1.1-0.7c-4-3-8.3-3.7-12.9-1.4
		c-4.2,1.9-6.8,6.2-6.7,10.9c-0.1,7.2,0,14.4,0,21.6c0,6.3,0,12.5,0,18.8c0.1,0.7,0,1.4-0.2,2.1c-0.5,0.2-1,0.3-1.6,0.2h-12.6
		c-0.4,0-0.7,0-1.1,0s-0.7-0.3-0.7-0.7l0,0c0-0.6,0-1.2,0-1.8v-64.6c0-2.9-0.2-2.6,2.6-2.6c3.8,0,7.7,0,11.5,0c0.4,0,0.7,0,1.1,0
		c0.6,0,1,0.2,1,0.9c0,0.3,0.1,0.6,0.2,1c1.6-0.5,3.1-1.1,4.6-1.5c1.6-0.4,3.2-0.7,4.8-0.9c1.6-0.2,3.2-0.2,4.9,0
		c1.6,0.1,3.2,0.4,4.8,0.8c1.6,0.4,3.1,1,4.5,1.7s2.8,1.5,4.1,2.5C318.4,633.9,319.6,635,320.6,636.2z"/>
	<path class="st1" d="M573.2,606.5c0-1.8,0-3.5,0-5.3c0-1,0.2-1.2,1.2-1.2c2.7,0,5.5,0,8.2,0c1,0,1.1,0.2,1.1,1.2c0,3,0,6,0,9.1
		c0,0.7,0,1.3,0,2s0.3,0.9,1,0.9c0.5,0,1,0,1.5,0h8.6c2,0,2,0,2,1.9c0,2.3,0,4.6,0,6.9c0,0.3,0,0.6,0,0.9c0,0.7-0.2,0.9-1,0.9
		c-0.5,0-1,0-1.5,0c-2.7,0-5.3,0-8,0c-0.5,0-1,0-1.5,0c-0.9,0-1.1,0.2-1.1,1c0,0.5,0,1,0,1.5c0,2.7,0,5.4,0,8.2c0,0.6,0,1.2,0,1.8
		c0,0.4-0.3,0.7-0.7,0.7c0,0,0,0-0.1,0H580h-6c-0.4,0-0.8-0.3-0.8-0.7v-0.1c0-0.6,0-1.2,0-1.8v-8c0-0.6,0-1.2,0-1.8
		c0-0.4-0.3-0.8-0.7-0.8h-0.1c-0.6,0-1.2,0-1.8,0h-9.1c-1.3,0-1.4-0.1-1.5-1.3c0-2.7,0-5.4,0-8.2c0-0.9,0.2-1,1.1-1
		c3.1,0,6.2,0,9.3,0s2.8,0.3,2.8-2.7C573.1,609.2,573.1,607.8,573.2,606.5L573.2,606.5z"/>
</g>
<g>
	<path class="st2" d="M125.9,1080.7c0.2-0.8,0.2-1.7,0.2-2.5c0-8,0-16,0-24.1c0-2.7-0.2-2.5,2.5-2.5h11.3c0.5,0,1,0,1.5,0
		c0.4,0,0.8,0.3,0.9,0.7v0.1c0,0.6,0,1.2,0,1.8v93.6c-0.5,0.3-1.1,0.5-1.6,0.4h-13c-0.3,0-0.6,0-0.9,0s-0.6-0.2-0.6-0.5
		c-0.1-0.5-0.1-1-0.1-1.5c-0.6-0.4-1,0-1.5,0.2c-2.4,0.9-4.9,1.5-7.5,1.8c-14.9,1.6-28.3-9.1-30-24c-0.2-1.5-0.2-2.9-0.2-4.4
		c0-4.6,0-9.3,0-13.9c-0.1-4.4,1-8.7,3-12.5c4.7-8.6,11.9-13.7,21.7-14.8c4.3-0.5,8.6,0.1,12.6,1.7
		C124.6,1080.5,125.2,1080.7,125.9,1080.7z M126,1113.4v-8c0-0.9-0.1-1.8-0.3-2.6c-1.7-6.4-8.3-10.2-14.7-8.5
		c-5.1,1.4-8.7,5.9-8.9,11.1c-0.1,4.7,0,9.4,0,14.1c0,0.7,0,1.3,0,2c0.3,6.5,5.8,11.6,12.3,11.5c6.4-0.2,11.6-5.4,11.6-11.9
		C126,1118.5,126,1116,126,1113.4z"/>
	<path class="st2" d="M368.3,1091.9c0.7,0.1,1.4,0.4,2.1,0.8c7.2,3.3,15.6,0.1,18.9-7c3.3-7.2,0.1-15.6-7-18.9s-15.6-0.1-18.9,7
		c-0.9,2-1.3,4.1-1.3,6.2c0,22.7,0.1,45.5,0.1,68.3c0,0.3,0,0.6,0,0.9s0.1,0.6-0.2,0.8c-0.4,0.2-0.7-0.2-0.9-0.4
		c-4.5-4.4-8.9-8.8-13.4-13.2c-0.7-0.7-1.1-1.6-1-2.6c0-3.8,0-7.5,0-11.3v-10.4c0-0.6,0-1.2-0.1-1.8c0-0.3-0.3-0.5-0.6-0.6
		c-0.5,0-1-0.1-1.5-0.1c-1.7,0-3.4,0-5.1,0c-0.8,0.1-1.5-0.2-2-0.8c-4.5-4.6-9-9.1-13.5-13.7c-0.1-0.1-0.2-0.2-0.3-0.3
		c-0.1-0.2,0-0.4,0.1-0.5h0.1c0.6-0.1,1.2-0.1,1.8-0.1c6.1,0,12.2,0,18.3,0c3,0,2.7,0.2,2.7-2.8c0-3.8,0-7.7,0-11.5
		c0-4.4,0.9-8.8,2.8-12.8c4.6-9.3,12-15.1,22.2-16.7c16.2-2.6,31.4,8.4,33.9,24.6s-8.3,31.4-24.5,34l0,0c-3.7,0.6-7.5,0.5-11.2-0.3
		c-0.3-0.1-0.6-0.2-0.8-0.2c-0.5-0.1-0.8-0.5-0.8-0.9s0-0.7,0-1.1c0-4.3,0-8.5,0-12.8C368.2,1093,368.3,1092.5,368.3,1091.9z"/>
	<path class="st2" d="M21.8,1114v-31.2c0-0.7,0-1.3,0-2c0-0.4,0.4-0.8,0.8-0.8c0,0,0,0,0.1,0h0.9c4.5,0,9,0,13.5,0
		c0.9,0,1.6,0,1.7,1.2c0,0.5,0.5,0.5,0.8,0.4c0.5-0.2,1.1-0.5,1.6-0.7c11.5-4.4,24.6-0.7,32,9.2c2.7,3.7,4.4,8.1,5,12.6
		c0.3,2,0.4,4.1,0.4,6.2c0,12.4,0,24.8,0,37.1v0.7c0,1.7,0,1.7-1.8,1.7c-4.1,0-8.2,0-12.4,0c-1.1,0-1.2-0.2-1.3-1.3
		c0-0.6,0-1.2,0-1.8v-36.5c0-1.8-0.1-3.5-0.5-5.3c-0.8-3.8-3.6-7-7.3-8.2c-3.8-1.5-8.1-1-11.4,1.4c-1.7,1.2-3.3,2.7-4.6,4.4
		c-0.5,0.6-0.7,1.3-0.7,2c0,0.6,0,1.2,0,1.8c0,13.5,0,27.1,0,40.7c0,2.7,0.2,2.5-2.5,2.5h-12c-0.5,0-1,0-1.5,0c-0.7,0-0.9-0.2-0.9-1
		s0-1.3,0-2L21.8,1114z"/>
	<path class="st2" d="M148.8,1113.1c0-3-0.1-5.9,0-8.8c0.7-15.1,13.4-26.8,28.5-26.1c12.8,0.6,23.5,9.9,25.7,22.5
		c0.3,1.5,0.4,3.1,0.4,4.6c0,5.3,0,10.6,0,15.9c-0.2,15.1-12.5,27.2-27.6,27.1c-12.8-0.1-23.9-9.2-26.5-21.7c-0.4-2-0.6-3.9-0.6-5.9
		C148.8,1118.2,148.8,1115.7,148.8,1113.1L148.8,1113.1z M188.1,1113.5L188.1,1113.5c-0.1-2.9,0-5.9-0.1-8.8
		c-0.3-4.9-3.6-9-8.3-10.4c-4.9-1.5-9.2-0.2-12.6,3.5c-2,2.2-3.1,5.1-3,8.1c0,4.9,0,9.9,0,14.8c0,0.8,0.1,1.6,0.3,2.4
		c1.1,5,4.1,8.3,9.1,9.4s9.1-0.5,12.3-4.6c1.6-2.1,2.4-4.6,2.3-7.2C188.1,1118.4,188.1,1116,188.1,1113.5z"/>
	<path class="st2" d="M264.9,1113.5c0,2.7,0,5.5,0,8.2c-0.3,15.1-12.9,27-27.9,26.7c-12.9-0.3-23.8-9.5-26.2-22.1
		c-0.3-1.7-0.5-3.5-0.5-5.3c0-5.1,0-10.2,0-15.2c0-15.1,12.3-27.3,27.4-27.3c15.1,0,27.3,12.3,27.3,27.4l0,0
		C265,1108.3,265,1110.9,264.9,1113.5L264.9,1113.5z M225.6,1113.2L225.6,1113.2c0,0.7,0,1.3,0,2c0,2.3-0.1,4.7,0.1,7.1
		c0.3,4.6,3.4,8.6,7.9,10c4.7,1.7,8.9,0.6,12.4-2.8c2.4-2.3,3.6-5.5,3.6-8.8c0-4.9,0-9.7,0-14.6c0-0.8-0.1-1.6-0.2-2.4
		c-1.2-6.5-7.4-10.8-13.9-9.7c-3,0.5-5.7,2.2-7.5,4.7c-1.5,2.1-2.3,4.6-2.3,7.2C225.6,1108.3,225.6,1110.8,225.6,1113.2z"/>
	<path class="st2" d="M481.7,1145.7c-0.8-0.1-1.4,0.4-2.1,0.6c-10.2,3.5-19.5,2.1-27.7-4.9c-6-5-9.5-12.4-9.4-20.2
		c-0.1-12.8,0-25.6,0-38.5c0-2,0-2,1.9-2c3.8,0,7.7,0,11.5,0h1.1c0.4,0,0.8,0.3,0.8,0.7v0.1c0,0.7,0,1.3,0,2c0,12.1,0,24.2,0,36.2
		c-0.1,1.5,0.1,3.1,0.5,4.6c2.1,6.3,8.9,9.7,15.1,7.7c4-1.3,7-4.6,8-8.7c0.2-1.2,0.3-2.5,0.3-3.7v-36c0-0.7,0-1.3,0-2
		c0-0.4,0.3-0.8,0.7-0.8h0.1h2.6c3.3,0,6.6,0,10,0c1.9,0,1.9,0,1.9,2v0.9c0,20.6,0,41.3,0,61.9c0,0.7,0,1.3,0,2
		c0,0.4-0.3,0.8-0.8,0.8h-0.1c-0.4,0-0.7,0-1.1,0h-11.3c-0.4,0-0.7,0-1.1,0s-0.7-0.3-0.7-0.7C481.9,1147,482.2,1146.3,481.7,1145.7z
		"/>
	<path class="st2" d="M512.1,1128.8c0.1,0,0.2,0,0.3,0.1c3.8,3.2,8.3,4.7,13,5.7c3.3,0.7,6.7,1,10.1,0.7c1.9-0.2,3.8-0.7,5.5-1.6
		s2.9-2.4,3.3-4.2c0.6-2-0.1-4.2-1.8-5.5c-1.2-0.9-2.7-1.6-4.2-2c-3.1-0.9-6.4-1.3-9.6-1.3c-2.3,0.1-4.6-0.1-6.8-0.5
		c-1.5-0.3-3-0.7-4.4-1.3c-6.3-2.7-10-7.6-11.3-14.3c-0.6-2.9-0.5-5.9,0.1-8.8c1-4.6,3.7-8.6,7.6-11.3c2.9-2,6.2-3.4,9.7-4.1
		c12.2-2.5,23.2,0.5,33.1,7.7c0.3,0.2,0.6,0.5,0.8,0.7c0.1,0.2,0.1,0.4,0,0.6c-0.2,0.2-0.4,0.5-0.5,0.7c-2.6,2.9-5.2,5.8-7.8,8.7
		c-0.2,0.2-0.4,0.4-0.6,0.6c-0.3,0.3-0.7,0.3-1,0l-1.1-0.8c-4-2.7-8.6-4.3-13.4-4.6c-3-0.2-6.1,0.2-8.9,1.3
		c-2.8,1.1-4.4,2.5-3.5,6.8c0.2,1.5,1.3,2.7,2.8,3.1c1.3,0.4,2.6,0.6,3.9,0.5c2.6-0.1,5.3,0.1,7.9,0.4c3.5,0.4,7,1.3,10.2,2.7
		c1.6,0.6,3.1,1.4,4.5,2.3c7.7,4.9,11,14.4,8,23c-1.7,5.3-5.5,9.7-10.5,12.3c-3.2,1.7-6.7,2.7-10.3,3c-9.1,0.9-18.3-0.7-26.6-4.7
		c-2.6-1.2-5-2.8-7.2-4.7c-0.5-0.4-0.9-0.8-1.3-1.2s-0.4-0.7,0-1.1c0.1-0.2,0.3-0.3,0.5-0.5l8.9-8.3
		C511.6,1129.1,511.9,1128.9,512.1,1128.8z"/>
	<path class="st2" d="M411.1,1092.5c0-12,0-24,0-36c0-2.5-0.3-2.4,2.4-2.4H425c0.4,0,0.7,0,1.1,0c1,0.1,1.2,0.3,1.2,1.2
		c0,0.7,0,1.3,0,2v63.2c0,2.5,0,5,0,7.5c0,0.7,0,1.5,0.1,2.2c0.2,1.4,0.7,1.9,2.2,1.9c1.8,0,3.7,0,5.5,0c1,0,1.9,0,2.9,0
		c0.7,0,0.9,0.2,0.9,1c0,0.3,0,0.6,0,0.9v12.4c0,0.4,0,0.7,0,1.1s-0.3,0.7-0.6,0.7c0,0,0,0-0.1,0c-4,0-8.1,0.4-12.1-0.2
		c-5.2-0.7-9.8-3.9-12.2-8.6c-1.8-3.2-2.8-6.9-2.8-10.6c0-4.6,0-9.3,0-13.9C411.1,1107.4,411.1,1100,411.1,1092.5z"/>
	<path class="st2" d="M0,1099.8c0-15.2,0-30.4,0-45.5c0-3-0.3-2.7,2.8-2.7c3.9,0,7.8,0,11.7,0c0.6,0,1.2,0,1.8,0.1
		c0.3,0,0.5,0.3,0.5,0.6c0,0.8,0.1,1.6,0.1,2.4c0,26.5,0,53,0,79.5v11.5c0,0.5,0,1,0,1.6c0,0.7-0.2,0.8-1,0.9c-0.3,0-0.6,0-0.9,0H2
		c-0.4,0-0.9,0-1.3-0.1c-0.3,0-0.6-0.3-0.6-0.6c0-0.7,0-1.5,0-2.2C0,1130.1,0,1115,0,1099.8z"/>
	<path class="st2" d="M320.6,1086.2c-3.4,3.7-7.1,7.2-10.9,10.5c-0.5-0.1-0.7-0.5-1.1-0.7c-4-3-8.3-3.7-12.9-1.4
		c-4.2,1.9-6.8,6.2-6.7,10.9c-0.1,7.2,0,14.4,0,21.6c0,6.3,0,12.5,0,18.8c0.1,0.7,0,1.4-0.2,2.1c-0.5,0.2-1,0.3-1.6,0.2h-12.6
		c-0.4,0-0.7,0-1.1,0s-0.7-0.3-0.7-0.7l0,0c0-0.6,0-1.2,0-1.8v-64.6c0-2.9-0.2-2.6,2.6-2.6c3.8,0,7.7,0,11.5,0c0.4,0,0.7,0,1.1,0
		c0.6,0,1,0.2,1,0.9c0,0.3,0.1,0.6,0.2,1c1.6-0.5,3.1-1.1,4.6-1.5c1.6-0.4,3.2-0.7,4.8-0.9c1.6-0.2,3.2-0.2,4.9,0
		c1.6,0.1,3.2,0.4,4.8,0.8c1.6,0.4,3.1,1,4.5,1.7s2.8,1.5,4.1,2.5C318.4,1083.9,319.6,1085,320.6,1086.2z"/>
	<path class="st2" d="M573.2,1056.5c0-1.8,0-3.5,0-5.3c0-1,0.2-1.2,1.2-1.2c2.7,0,5.5,0,8.2,0c1,0,1.1,0.2,1.1,1.2c0,3,0,6,0,9.1
		c0,0.7,0,1.3,0,2s0.3,0.9,1,0.9c0.5,0,1,0,1.5,0h8.6c2,0,2,0,2,1.9c0,2.3,0,4.6,0,6.9c0,0.3,0,0.6,0,0.9c0,0.7-0.2,0.9-1,0.9
		c-0.5,0-1,0-1.5,0c-2.7,0-5.3,0-8,0c-0.5,0-1,0-1.5,0c-0.9,0-1.1,0.2-1.1,1c0,0.5,0,1,0,1.5c0,2.7,0,5.4,0,8.2c0,0.6,0,1.2,0,1.8
		c0,0.4-0.3,0.7-0.7,0.7c0,0,0,0-0.1,0H580h-6c-0.4,0-0.8-0.3-0.8-0.7v-0.1c0-0.6,0-1.2,0-1.8v-8c0-0.6,0-1.2,0-1.8
		c0-0.4-0.3-0.8-0.7-0.8h-0.1c-0.6,0-1.2,0-1.8,0h-9.1c-1.3,0-1.4-0.1-1.5-1.3c0-2.7,0-5.4,0-8.2c0-0.9,0.2-1,1.1-1
		c3.1,0,6.2,0,9.3,0s2.8,0.3,2.8-2.7C573.1,1059.2,573.1,1057.8,573.2,1056.5L573.2,1056.5z"/>
</g>
<g>
	<path class="st1" d="M125.9,780.7c0.2-0.8,0.2-1.7,0.2-2.5c0-8,0-16,0-24.1c0-2.7-0.2-2.5,2.5-2.5h11.3c0.5,0,1,0,1.5,0
		c0.4,0,0.8,0.3,0.9,0.7v0.1c0,0.6,0,1.2,0,1.8v93.6c-0.5,0.3-1.1,0.5-1.6,0.4h-13c-0.3,0-0.6,0-0.9,0s-0.6-0.2-0.6-0.5
		c-0.1-0.5-0.1-1-0.1-1.5c-0.6-0.4-1,0-1.5,0.2c-2.4,0.9-4.9,1.5-7.5,1.8c-14.9,1.6-28.3-9.1-30-24c-0.2-1.5-0.2-2.9-0.2-4.4
		c0-4.6,0-9.3,0-13.9c-0.1-4.4,1-8.7,3-12.5c4.7-8.6,11.9-13.7,21.7-14.8c4.3-0.5,8.6,0.1,12.6,1.7
		C124.6,780.5,125.2,780.7,125.9,780.7z M126,813.4v-8c0-0.9-0.1-1.8-0.3-2.6c-1.7-6.4-8.3-10.2-14.7-8.5c-5.1,1.4-8.7,5.9-8.9,11.1
		c-0.1,4.7,0,9.4,0,14.1c0,0.7,0,1.3,0,2c0.3,6.5,5.8,11.6,12.3,11.5c6.4-0.2,11.6-5.4,11.6-11.9C126,818.5,126,816,126,813.4z"/>
	<path class="st2" d="M368.3,791.9c0.7,0.1,1.4,0.4,2.1,0.8c7.2,3.3,15.6,0.1,18.9-7c3.3-7.2,0.1-15.6-7-18.9s-15.6-0.1-18.9,7
		c-0.9,2-1.3,4.1-1.3,6.2c0,22.7,0.1,45.5,0.1,68.3c0,0.3,0,0.6,0,0.9s0.1,0.6-0.2,0.8c-0.4,0.2-0.7-0.2-0.9-0.4
		c-4.5-4.4-8.9-8.8-13.4-13.2c-0.7-0.7-1.1-1.6-1-2.6c0-3.8,0-7.5,0-11.3v-10.4c0-0.6,0-1.2-0.1-1.8c0-0.3-0.3-0.5-0.6-0.6
		c-0.5,0-1-0.1-1.5-0.1c-1.7,0-3.4,0-5.1,0c-0.8,0.1-1.5-0.2-2-0.8c-4.5-4.6-9-9.1-13.5-13.7c-0.1-0.1-0.2-0.2-0.3-0.3
		c-0.1-0.2,0-0.4,0.1-0.5h0.1c0.6-0.1,1.2-0.1,1.8-0.1c6.1,0,12.2,0,18.3,0c3,0,2.7,0.2,2.7-2.8c0-3.8,0-7.7,0-11.5
		c0-4.4,0.9-8.8,2.8-12.8c4.6-9.3,12-15.1,22.2-16.7c16.2-2.6,31.4,8.4,33.9,24.6s-8.3,31.4-24.5,34l0,0c-3.7,0.6-7.5,0.5-11.2-0.3
		c-0.3-0.1-0.6-0.2-0.8-0.2c-0.5-0.1-0.8-0.5-0.8-0.9s0-0.7,0-1.1c0-4.3,0-8.5,0-12.8C368.2,793,368.3,792.5,368.3,791.9z"/>
	<path class="st1" d="M21.8,814v-31.2c0-0.7,0-1.3,0-2c0-0.4,0.4-0.8,0.8-0.8c0,0,0,0,0.1,0h0.9c4.5,0,9,0,13.5,0
		c0.9,0,1.6,0,1.7,1.2c0,0.5,0.5,0.5,0.8,0.4c0.5-0.2,1.1-0.5,1.6-0.7c11.5-4.4,24.6-0.7,32,9.2c2.7,3.7,4.4,8.1,5,12.6
		c0.3,2,0.4,4.1,0.4,6.2c0,12.4,0,24.8,0,37.1v0.7c0,1.7,0,1.7-1.8,1.7c-4.1,0-8.2,0-12.4,0c-1.1,0-1.2-0.2-1.3-1.3
		c0-0.6,0-1.2,0-1.8v-36.5c0-1.8-0.1-3.5-0.5-5.3c-0.8-3.8-3.6-7-7.3-8.2c-3.8-1.5-8.1-1-11.4,1.4c-1.7,1.2-3.3,2.7-4.6,4.4
		c-0.5,0.6-0.7,1.3-0.7,2c0,0.6,0,1.2,0,1.8c0,13.5,0,27.1,0,40.7c0,2.7,0.2,2.5-2.5,2.5h-12c-0.5,0-1,0-1.5,0c-0.7,0-0.9-0.2-0.9-1
		s0-1.3,0-2L21.8,814z"/>
	<path class="st1" d="M148.8,813.1c0-3-0.1-5.9,0-8.8c0.7-15.1,13.4-26.8,28.5-26.1c12.8,0.6,23.5,9.9,25.7,22.5
		c0.3,1.5,0.4,3.1,0.4,4.6c0,5.3,0,10.6,0,15.9c-0.2,15.1-12.5,27.2-27.6,27.1c-12.8-0.1-23.9-9.2-26.5-21.7c-0.4-2-0.6-3.9-0.6-5.9
		C148.8,818.2,148.8,815.7,148.8,813.1L148.8,813.1z M188.1,813.5L188.1,813.5c-0.1-2.9,0-5.9-0.1-8.8c-0.3-4.9-3.6-9-8.3-10.4
		c-4.9-1.5-9.2-0.2-12.6,3.5c-2,2.2-3.1,5.1-3,8.1c0,4.9,0,9.9,0,14.8c0,0.8,0.1,1.6,0.3,2.4c1.1,5,4.1,8.3,9.1,9.4
		c5,1.1,9.1-0.5,12.3-4.6c1.6-2.1,2.4-4.6,2.3-7.2C188.1,818.4,188.1,816,188.1,813.5z"/>
	<path class="st1" d="M264.9,813.5c0,2.7,0,5.5,0,8.2c-0.3,15.1-12.9,27-27.9,26.7c-12.9-0.3-23.8-9.5-26.2-22.1
		c-0.3-1.7-0.5-3.5-0.5-5.3c0-5.1,0-10.2,0-15.2c0-15.1,12.3-27.3,27.4-27.3c15.1,0,27.3,12.3,27.3,27.4l0,0
		C265,808.3,265,810.9,264.9,813.5L264.9,813.5z M225.6,813.2L225.6,813.2c0,0.7,0,1.3,0,2c0,2.3-0.1,4.7,0.1,7.1
		c0.3,4.6,3.4,8.6,7.9,10c4.7,1.7,8.9,0.6,12.4-2.8c2.4-2.3,3.6-5.5,3.6-8.8c0-4.9,0-9.7,0-14.6c0-0.8-0.1-1.6-0.2-2.4
		c-1.2-6.5-7.4-10.8-13.9-9.7c-3,0.5-5.7,2.2-7.5,4.7c-1.5,2.1-2.3,4.6-2.3,7.2C225.6,808.3,225.6,810.8,225.6,813.2z"/>
	<path class="st2" d="M481.7,845.7c-0.8-0.1-1.4,0.4-2.1,0.6c-10.2,3.5-19.5,2.1-27.7-4.9c-6-5-9.5-12.4-9.4-20.2
		c-0.1-12.8,0-25.6,0-38.5c0-2,0-2,1.9-2c3.8,0,7.7,0,11.5,0h1.1c0.4,0,0.8,0.3,0.8,0.7v0.1c0,0.7,0,1.3,0,2c0,12.1,0,24.2,0,36.2
		c-0.1,1.5,0.1,3.1,0.5,4.6c2.1,6.3,8.9,9.7,15.1,7.7c4-1.3,7-4.6,8-8.7c0.2-1.2,0.3-2.5,0.3-3.7v-36c0-0.7,0-1.3,0-2
		c0-0.4,0.3-0.8,0.7-0.8h0.1h2.6c3.3,0,6.6,0,10,0c1.9,0,1.9,0,1.9,2v0.9c0,20.6,0,41.3,0,61.9c0,0.7,0,1.3,0,2
		c0,0.4-0.3,0.8-0.8,0.8h-0.1c-0.4,0-0.7,0-1.1,0h-11.3c-0.4,0-0.7,0-1.1,0s-0.7-0.3-0.7-0.7C481.9,847,482.2,846.3,481.7,845.7z"/>
	<path class="st2" d="M512.1,828.8c0.1,0,0.2,0,0.3,0.1c3.8,3.2,8.3,4.7,13,5.7c3.3,0.7,6.7,1,10.1,0.7c1.9-0.2,3.8-0.7,5.5-1.6
		c1.7-0.9,2.9-2.4,3.3-4.2c0.6-2-0.1-4.2-1.8-5.5c-1.2-0.9-2.7-1.6-4.2-2c-3.1-0.9-6.4-1.3-9.6-1.3c-2.3,0.1-4.6-0.1-6.8-0.5
		c-1.5-0.3-3-0.7-4.4-1.3c-6.3-2.7-10-7.6-11.3-14.3c-0.6-2.9-0.5-5.9,0.1-8.8c1-4.6,3.7-8.6,7.6-11.3c2.9-2,6.2-3.4,9.7-4.1
		c12.2-2.5,23.2,0.5,33.1,7.7c0.3,0.2,0.6,0.5,0.8,0.7c0.1,0.2,0.1,0.4,0,0.6c-0.2,0.2-0.4,0.5-0.5,0.7c-2.6,2.9-5.2,5.8-7.8,8.7
		c-0.2,0.2-0.4,0.4-0.6,0.6c-0.3,0.3-0.7,0.3-1,0l-1.1-0.8c-4-2.7-8.6-4.3-13.4-4.6c-3-0.2-6.1,0.2-8.9,1.3
		c-2.8,1.1-4.4,2.5-3.5,6.8c0.2,1.5,1.3,2.7,2.8,3.1c1.3,0.4,2.6,0.6,3.9,0.5c2.6-0.1,5.3,0.1,7.9,0.4c3.5,0.4,7,1.3,10.2,2.7
		c1.6,0.6,3.1,1.4,4.5,2.3c7.7,4.9,11,14.4,8,23c-1.7,5.3-5.5,9.7-10.5,12.3c-3.2,1.7-6.7,2.7-10.3,3c-9.1,0.9-18.3-0.7-26.6-4.7
		c-2.6-1.2-5-2.8-7.2-4.7c-0.5-0.4-0.9-0.8-1.3-1.2s-0.4-0.7,0-1.1c0.1-0.2,0.3-0.3,0.5-0.5l8.9-8.3
		C511.6,829.1,511.9,828.9,512.1,828.8z"/>
	<path class="st2" d="M411.1,792.5c0-12,0-24,0-36c0-2.5-0.3-2.4,2.4-2.4H425c0.4,0,0.7,0,1.1,0c1,0.1,1.2,0.3,1.2,1.2
		c0,0.7,0,1.3,0,2v63.2c0,2.5,0,5,0,7.5c0,0.7,0,1.5,0.1,2.2c0.2,1.4,0.7,1.9,2.2,1.9c1.8,0,3.7,0,5.5,0c1,0,1.9,0,2.9,0
		c0.7,0,0.9,0.2,0.9,1c0,0.3,0,0.6,0,0.9v12.4c0,0.4,0,0.7,0,1.1s-0.3,0.7-0.6,0.7c0,0,0,0-0.1,0c-4,0-8.1,0.4-12.1-0.2
		c-5.2-0.7-9.8-3.9-12.2-8.6c-1.8-3.2-2.8-6.9-2.8-10.6c0-4.6,0-9.3,0-13.9C411.1,807.4,411.1,800,411.1,792.5z"/>
	<path class="st1" d="M0,799.8c0-15.2,0-30.4,0-45.5c0-3-0.3-2.7,2.8-2.7c3.9,0,7.8,0,11.7,0c0.6,0,1.2,0,1.8,0.1
		c0.3,0,0.5,0.3,0.5,0.6c0,0.8,0.1,1.6,0.1,2.4c0,26.5,0,53,0,79.5v11.5c0,0.5,0,1,0,1.6c0,0.7-0.2,0.8-1,0.9c-0.3,0-0.6,0-0.9,0H2
		c-0.4,0-0.9,0-1.3-0.1c-0.3,0-0.6-0.3-0.6-0.6c0-0.7,0-1.5,0-2.2C0,830.1,0,815,0,799.8z"/>
	<path class="st1" d="M320.6,786.2c-3.4,3.7-7.1,7.2-10.9,10.5c-0.5-0.1-0.7-0.5-1.1-0.7c-4-3-8.3-3.7-12.9-1.4
		c-4.2,1.9-6.8,6.2-6.7,10.9c-0.1,7.2,0,14.4,0,21.6c0,6.3,0,12.5,0,18.8c0.1,0.7,0,1.4-0.2,2.1c-0.5,0.2-1,0.3-1.6,0.2h-12.6
		c-0.4,0-0.7,0-1.1,0s-0.7-0.3-0.7-0.7l0,0c0-0.6,0-1.2,0-1.8v-64.6c0-2.9-0.2-2.6,2.6-2.6c3.8,0,7.7,0,11.5,0c0.4,0,0.7,0,1.1,0
		c0.6,0,1,0.2,1,0.9c0,0.3,0.1,0.6,0.2,1c1.6-0.5,3.1-1.1,4.6-1.5c1.6-0.4,3.2-0.7,4.8-0.9c1.6-0.2,3.2-0.2,4.9,0
		c1.6,0.1,3.2,0.4,4.8,0.8c1.6,0.4,3.1,1,4.5,1.7s2.8,1.5,4.1,2.5C318.4,783.9,319.6,785,320.6,786.2z"/>
	<path class="st2" d="M573.2,756.5c0-1.8,0-3.5,0-5.3c0-1,0.2-1.2,1.2-1.2c2.7,0,5.5,0,8.2,0c1,0,1.1,0.2,1.1,1.2c0,3,0,6,0,9.1
		c0,0.7,0,1.3,0,2s0.3,0.9,1,0.9c0.5,0,1,0,1.5,0h8.6c2,0,2,0,2,1.9c0,2.3,0,4.6,0,6.9c0,0.3,0,0.6,0,0.9c0,0.7-0.2,0.9-1,0.9
		c-0.5,0-1,0-1.5,0c-2.7,0-5.3,0-8,0c-0.5,0-1,0-1.5,0c-0.9,0-1.1,0.2-1.1,1c0,0.5,0,1,0,1.5c0,2.7,0,5.4,0,8.2c0,0.6,0,1.2,0,1.8
		c0,0.4-0.3,0.7-0.7,0.7c0,0,0,0-0.1,0H580h-6c-0.4,0-0.8-0.3-0.8-0.7v-0.1c0-0.6,0-1.2,0-1.8v-8c0-0.6,0-1.2,0-1.8
		c0-0.4-0.3-0.8-0.7-0.8h-0.1c-0.6,0-1.2,0-1.8,0h-9.1c-1.3,0-1.4-0.1-1.5-1.3c0-2.7,0-5.4,0-8.2c0-0.9,0.2-1,1.1-1
		c3.1,0,6.2,0,9.3,0s2.8,0.3,2.8-2.7C573.1,759.2,573.1,757.8,573.2,756.5L573.2,756.5z"/>
</g>
<g>
	<path class="st1" d="M125.9,930.7c0.2-0.8,0.2-1.7,0.2-2.5c0-8,0-16,0-24.1c0-2.7-0.2-2.5,2.5-2.5h11.3c0.5,0,1,0,1.5,0
		c0.4,0,0.8,0.3,0.9,0.7v0.1c0,0.6,0,1.2,0,1.8v93.6c-0.5,0.3-1.1,0.5-1.6,0.4h-13c-0.3,0-0.6,0-0.9,0s-0.6-0.2-0.6-0.5
		c-0.1-0.5-0.1-1-0.1-1.5c-0.6-0.4-1,0-1.5,0.2c-2.4,0.9-4.9,1.5-7.5,1.8c-14.9,1.6-28.3-9.1-30-24c-0.2-1.5-0.2-2.9-0.2-4.4
		c0-4.6,0-9.3,0-13.9c-0.1-4.4,1-8.7,3-12.5c4.7-8.6,11.9-13.7,21.7-14.8c4.3-0.5,8.6,0.1,12.6,1.7
		C124.6,930.5,125.2,930.7,125.9,930.7z M126,963.4v-8c0-0.9-0.1-1.8-0.3-2.6c-1.7-6.4-8.3-10.2-14.7-8.5c-5.1,1.4-8.7,5.9-8.9,11.1
		c-0.1,4.7,0,9.4,0,14.1c0,0.7,0,1.3,0,2c0.3,6.5,5.8,11.6,12.3,11.5c6.4-0.2,11.6-5.4,11.6-11.9C126,968.5,126,966,126,963.4z"/>
	<path class="st1" d="M368.3,941.9c0.7,0.1,1.4,0.4,2.1,0.8c7.2,3.3,15.6,0.1,18.9-7c3.3-7.2,0.1-15.6-7-18.9s-15.6-0.1-18.9,7
		c-0.9,2-1.3,4.1-1.3,6.2c0,22.7,0.1,45.5,0.1,68.3c0,0.3,0,0.6,0,0.9s0.1,0.6-0.2,0.8c-0.4,0.2-0.7-0.2-0.9-0.4
		c-4.5-4.4-8.9-8.8-13.4-13.2c-0.7-0.7-1.1-1.6-1-2.6c0-3.8,0-7.5,0-11.3v-10.4c0-0.6,0-1.2-0.1-1.8c0-0.3-0.3-0.5-0.6-0.6
		c-0.5,0-1-0.1-1.5-0.1c-1.7,0-3.4,0-5.1,0c-0.8,0.1-1.5-0.2-2-0.8c-4.5-4.6-9-9.1-13.5-13.7c-0.1-0.1-0.2-0.2-0.3-0.3
		c-0.1-0.2,0-0.4,0.1-0.5h0.1c0.6-0.1,1.2-0.1,1.8-0.1c6.1,0,12.2,0,18.3,0c3,0,2.7,0.2,2.7-2.8c0-3.8,0-7.7,0-11.5
		c0-4.4,0.9-8.8,2.8-12.8c4.6-9.3,12-15.1,22.2-16.7c16.2-2.6,31.4,8.4,33.9,24.6s-8.3,31.4-24.5,34l0,0c-3.7,0.6-7.5,0.5-11.2-0.3
		c-0.3-0.1-0.6-0.2-0.8-0.2c-0.5-0.1-0.8-0.5-0.8-0.9s0-0.7,0-1.1c0-4.3,0-8.5,0-12.8C368.2,943,368.3,942.5,368.3,941.9z"/>
	<path class="st1" d="M21.8,964v-31.2c0-0.7,0-1.3,0-2c0-0.4,0.4-0.8,0.8-0.8c0,0,0,0,0.1,0h0.9c4.5,0,9,0,13.5,0
		c0.9,0,1.6,0,1.7,1.2c0,0.5,0.5,0.5,0.8,0.4c0.5-0.2,1.1-0.5,1.6-0.7c11.5-4.4,24.6-0.7,32,9.2c2.7,3.7,4.4,8.1,5,12.6
		c0.3,2,0.4,4.1,0.4,6.2c0,12.4,0,24.8,0,37.1v0.7c0,1.7,0,1.7-1.8,1.7c-4.1,0-8.2,0-12.4,0c-1.1,0-1.2-0.2-1.3-1.3
		c0-0.6,0-1.2,0-1.8v-36.5c0-1.8-0.1-3.5-0.5-5.3c-0.8-3.8-3.6-7-7.3-8.2c-3.8-1.5-8.1-1-11.4,1.4c-1.7,1.2-3.3,2.7-4.6,4.4
		c-0.5,0.6-0.7,1.3-0.7,2c0,0.6,0,1.2,0,1.8c0,13.5,0,27.1,0,40.7c0,2.7,0.2,2.5-2.5,2.5h-12c-0.5,0-1,0-1.5,0c-0.7,0-0.9-0.2-0.9-1
		s0-1.3,0-2L21.8,964z"/>
	<path class="st1" d="M148.8,963.1c0-3-0.1-5.9,0-8.8c0.7-15.1,13.4-26.8,28.5-26.1c12.8,0.6,23.5,9.9,25.7,22.5
		c0.3,1.5,0.4,3.1,0.4,4.6c0,5.3,0,10.6,0,15.9c-0.2,15.1-12.5,27.2-27.6,27.1c-12.8-0.1-23.9-9.2-26.5-21.7c-0.4-2-0.6-3.9-0.6-5.9
		C148.8,968.2,148.8,965.7,148.8,963.1L148.8,963.1z M188.1,963.5L188.1,963.5c-0.1-2.9,0-5.9-0.1-8.8c-0.3-4.9-3.6-9-8.3-10.4
		c-4.9-1.5-9.2-0.2-12.6,3.5c-2,2.2-3.1,5.1-3,8.1c0,4.9,0,9.9,0,14.8c0,0.8,0.1,1.6,0.3,2.4c1.1,5,4.1,8.3,9.1,9.4
		c5,1.1,9.1-0.5,12.3-4.6c1.6-2.1,2.4-4.6,2.3-7.2C188.1,968.4,188.1,966,188.1,963.5z"/>
	<path class="st1" d="M264.9,963.5c0,2.7,0,5.5,0,8.2c-0.3,15.1-12.9,27-27.9,26.7c-12.9-0.3-23.8-9.5-26.2-22.1
		c-0.3-1.7-0.5-3.5-0.5-5.3c0-5.1,0-10.2,0-15.2c0-15.1,12.3-27.3,27.4-27.3c15.1,0,27.3,12.3,27.3,27.4l0,0
		C265,958.3,265,960.9,264.9,963.5L264.9,963.5z M225.6,963.2L225.6,963.2c0,0.7,0,1.3,0,2c0,2.3-0.1,4.7,0.1,7.1
		c0.3,4.6,3.4,8.6,7.9,10c4.7,1.7,8.9,0.6,12.4-2.8c2.4-2.3,3.6-5.5,3.6-8.8c0-4.9,0-9.7,0-14.6c0-0.8-0.1-1.6-0.2-2.4
		c-1.2-6.5-7.4-10.8-13.9-9.7c-3,0.5-5.7,2.2-7.5,4.7c-1.5,2.1-2.3,4.6-2.3,7.2C225.6,958.3,225.6,960.8,225.6,963.2z"/>
	<path class="st1" d="M481.7,995.7c-0.8-0.1-1.4,0.4-2.1,0.6c-10.2,3.5-19.5,2.1-27.7-4.9c-6-5-9.5-12.4-9.4-20.2
		c-0.1-12.8,0-25.6,0-38.5c0-2,0-2,1.9-2c3.8,0,7.7,0,11.5,0h1.1c0.4,0,0.8,0.3,0.8,0.7v0.1c0,0.7,0,1.3,0,2c0,12.1,0,24.2,0,36.2
		c-0.1,1.5,0.1,3.1,0.5,4.6c2.1,6.3,8.9,9.7,15.1,7.7c4-1.3,7-4.6,8-8.7c0.2-1.2,0.3-2.5,0.3-3.7v-36c0-0.7,0-1.3,0-2
		c0-0.4,0.3-0.8,0.7-0.8h0.1h2.6c3.3,0,6.6,0,10,0c1.9,0,1.9,0,1.9,2v0.9c0,20.6,0,41.3,0,61.9c0,0.7,0,1.3,0,2
		c0,0.4-0.3,0.8-0.8,0.8h-0.1c-0.4,0-0.7,0-1.1,0h-11.3c-0.4,0-0.7,0-1.1,0s-0.7-0.3-0.7-0.7C481.9,997,482.2,996.3,481.7,995.7z"/>
	<path class="st1" d="M512.1,978.8c0.1,0,0.2,0,0.3,0.1c3.8,3.2,8.3,4.7,13,5.7c3.3,0.7,6.7,1,10.1,0.7c1.9-0.2,3.8-0.7,5.5-1.6
		c1.7-0.9,2.9-2.4,3.3-4.2c0.6-2-0.1-4.2-1.8-5.5c-1.2-0.9-2.7-1.6-4.2-2c-3.1-0.9-6.4-1.3-9.6-1.3c-2.3,0.1-4.6-0.1-6.8-0.5
		c-1.5-0.3-3-0.7-4.4-1.3c-6.3-2.7-10-7.6-11.3-14.3c-0.6-2.9-0.5-5.9,0.1-8.8c1-4.6,3.7-8.6,7.6-11.3c2.9-2,6.2-3.4,9.7-4.1
		c12.2-2.5,23.2,0.5,33.1,7.7c0.3,0.2,0.6,0.5,0.8,0.7c0.1,0.2,0.1,0.4,0,0.6c-0.2,0.2-0.4,0.5-0.5,0.7c-2.6,2.9-5.2,5.8-7.8,8.7
		c-0.2,0.2-0.4,0.4-0.6,0.6c-0.3,0.3-0.7,0.3-1,0l-1.1-0.8c-4-2.7-8.6-4.3-13.4-4.6c-3-0.2-6.1,0.2-8.9,1.3
		c-2.8,1.1-4.4,2.5-3.5,6.8c0.2,1.5,1.3,2.7,2.8,3.1c1.3,0.4,2.6,0.6,3.9,0.5c2.6-0.1,5.3,0.1,7.9,0.4c3.5,0.4,7,1.3,10.2,2.7
		c1.6,0.6,3.1,1.4,4.5,2.3c7.7,4.9,11,14.4,8,23c-1.7,5.3-5.5,9.7-10.5,12.3c-3.2,1.7-6.7,2.7-10.3,3c-9.1,0.9-18.3-0.7-26.6-4.7
		c-2.6-1.2-5-2.8-7.2-4.7c-0.5-0.4-0.9-0.8-1.3-1.2s-0.4-0.7,0-1.1c0.1-0.2,0.3-0.3,0.5-0.5l8.9-8.3
		C511.6,979.1,511.9,978.9,512.1,978.8z"/>
	<path class="st1" d="M411.1,942.5c0-12,0-24,0-36c0-2.5-0.3-2.4,2.4-2.4H425c0.4,0,0.7,0,1.1,0c1,0.1,1.2,0.3,1.2,1.2
		c0,0.7,0,1.3,0,2v63.2c0,2.5,0,5,0,7.5c0,0.7,0,1.5,0.1,2.2c0.2,1.4,0.7,1.9,2.2,1.9c1.8,0,3.7,0,5.5,0c1,0,1.9,0,2.9,0
		c0.7,0,0.9,0.2,0.9,1c0,0.3,0,0.6,0,0.9v12.4c0,0.4,0,0.7,0,1.1s-0.3,0.7-0.6,0.7c0,0,0,0-0.1,0c-4,0-8.1,0.4-12.1-0.2
		c-5.2-0.7-9.8-3.9-12.2-8.6c-1.8-3.2-2.8-6.9-2.8-10.6c0-4.6,0-9.3,0-13.9C411.1,957.4,411.1,950,411.1,942.5z"/>
	<path class="st1" d="M0,949.8c0-15.2,0-30.4,0-45.5c0-3-0.3-2.7,2.8-2.7c3.9,0,7.8,0,11.7,0c0.6,0,1.2,0,1.8,0.1
		c0.3,0,0.5,0.3,0.5,0.6c0,0.8,0.1,1.6,0.1,2.4c0,26.5,0,53,0,79.5v11.5c0,0.5,0,1,0,1.6c0,0.7-0.2,0.8-1,0.9c-0.3,0-0.6,0-0.9,0H2
		c-0.4,0-0.9,0-1.3-0.1c-0.3,0-0.6-0.3-0.6-0.6c0-0.7,0-1.5,0-2.2C0,980.1,0,965,0,949.8z"/>
	<path class="st1" d="M320.6,936.2c-3.4,3.7-7.1,7.2-10.9,10.5c-0.5-0.1-0.7-0.5-1.1-0.7c-4-3-8.3-3.7-12.9-1.4
		c-4.2,1.9-6.8,6.2-6.7,10.9c-0.1,7.2,0,14.4,0,21.6c0,6.3,0,12.5,0,18.8c0.1,0.7,0,1.4-0.2,2.1c-0.5,0.2-1,0.3-1.6,0.2h-12.6
		c-0.4,0-0.7,0-1.1,0s-0.7-0.3-0.7-0.7l0,0c0-0.6,0-1.2,0-1.8v-64.6c0-2.9-0.2-2.6,2.6-2.6c3.8,0,7.7,0,11.5,0c0.4,0,0.7,0,1.1,0
		c0.6,0,1,0.2,1,0.9c0,0.3,0.1,0.6,0.2,1c1.6-0.5,3.1-1.1,4.6-1.5c1.6-0.4,3.2-0.7,4.8-0.9c1.6-0.2,3.2-0.2,4.9,0
		c1.6,0.1,3.2,0.4,4.8,0.8c1.6,0.4,3.1,1,4.5,1.7s2.8,1.5,4.1,2.5C318.4,933.9,319.6,935,320.6,936.2z"/>
	<path class="st1" d="M573.2,906.5c0-1.8,0-3.5,0-5.3c0-1,0.2-1.2,1.2-1.2c2.7,0,5.5,0,8.2,0c1,0,1.1,0.2,1.1,1.2c0,3,0,6,0,9.1
		c0,0.7,0,1.3,0,2s0.3,0.9,1,0.9c0.5,0,1,0,1.5,0h8.6c2,0,2,0,2,1.9c0,2.3,0,4.6,0,6.9c0,0.3,0,0.6,0,0.9c0,0.7-0.2,0.9-1,0.9
		c-0.5,0-1,0-1.5,0c-2.7,0-5.3,0-8,0c-0.5,0-1,0-1.5,0c-0.9,0-1.1,0.2-1.1,1c0,0.5,0,1,0,1.5c0,2.7,0,5.4,0,8.2c0,0.6,0,1.2,0,1.8
		c0,0.4-0.3,0.7-0.7,0.7c0,0,0,0-0.1,0H580h-6c-0.4,0-0.8-0.3-0.8-0.7v-0.1c0-0.6,0-1.2,0-1.8v-8c0-0.6,0-1.2,0-1.8
		c0-0.4-0.3-0.8-0.7-0.8h-0.1c-0.6,0-1.2,0-1.8,0h-9.1c-1.3,0-1.4-0.1-1.5-1.3c0-2.7,0-5.4,0-8.2c0-0.9,0.2-1,1.1-1
		c3.1,0,6.2,0,9.3,0s2.8,0.3,2.8-2.7C573.1,909.2,573.1,907.8,573.2,906.5L573.2,906.5z"/>
</g>
<rect x="-204" class="st1" width="100.1" height="100.1"/>
<rect x="-204" y="150" class="st1" width="100.1" height="100.1"/>
<rect x="-204" y="300" class="st1" width="100.1" height="100.1"/>
<rect x="-204" y="450" class="st1" width="100.1" height="100.1"/>
<rect x="-204" y="600" class="st1" width="100.1" height="100.1"/>
<rect x="-204" y="750" class="st1" width="100.1" height="100.1"/>
<rect x="-204" y="900" class="st1" width="100.1" height="100.1"/>
<rect x="-204" y="1050" class="st1" width="100.1" height="100.1"/>
<rect x="-204" y="1200" class="st1" width="100.1" height="100.1"/>
</svg>
