<svg width="100" height="580" viewBox="0 0 100 580" fill="none" xmlns="http://www.w3.org/2000/svg">
<g clip-path="url(#clip0_3556_21192)">
<circle cx="80" cy="20" r="15" fill="black"/>
<path d="M76.312 26H83.432V24.096H81.208V14.144H79.464C78.712 14.624 77.896 14.928 76.712 15.152V16.608H78.856V24.096H76.312V26Z" fill="black"/>
<circle cx="80" cy="80" r="15" fill="black"/>
<path d="M75.688 86H83.624V84.016H81.064C80.504 84.016 79.72 84.08 79.128 84.144C81.288 82.032 83.064 79.728 83.064 77.584C83.064 75.376 81.576 73.936 79.336 73.936C77.72 73.936 76.664 74.56 75.576 75.728L76.856 77.008C77.464 76.352 78.168 75.792 79.032 75.792C80.168 75.792 80.808 76.512 80.808 77.712C80.808 79.536 78.904 81.76 75.688 84.64V86Z" fill="black"/>
<circle cx="80" cy="140" r="15" fill="black"/>
<path d="M79.384 146.224C81.64 146.224 83.544 144.96 83.544 142.784C83.544 141.232 82.52 140.24 81.192 139.872V139.792C82.44 139.296 83.16 138.368 83.16 137.088C83.16 135.072 81.608 133.936 79.32 133.936C77.928 133.936 76.792 134.496 75.768 135.392L76.968 136.832C77.672 136.176 78.36 135.792 79.208 135.792C80.216 135.792 80.792 136.336 80.792 137.264C80.792 138.32 80.088 139.072 77.912 139.072V140.752C80.488 140.752 81.176 141.488 81.176 142.64C81.176 143.712 80.36 144.304 79.16 144.304C78.088 144.304 77.224 143.776 76.52 143.088L75.416 144.576C76.248 145.52 77.512 146.224 79.384 146.224Z" fill="black"/>
<circle cx="80" cy="200" r="15" fill="black"/>
<path d="M77.624 201.136L79.464 198.192C79.8 197.552 80.12 196.896 80.408 196.256H80.472C80.44 196.96 80.392 198.032 80.392 198.72V201.136H77.624ZM80.392 206H82.584V202.928H83.976V201.136H82.584V194.144H79.752L75.336 201.328V202.928H80.392V206Z" fill="black"/>
<circle cx="80" cy="260" r="15" fill="black"/>
<path d="M79.416 266.224C81.608 266.224 83.56 264.704 83.56 262.064C83.56 259.488 81.896 258.304 79.912 258.304C79.368 258.304 78.968 258.416 78.488 258.64L78.712 256.128H83.016V254.144H76.68L76.36 259.904L77.432 260.608C78.12 260.16 78.504 259.984 79.208 259.984C80.408 259.984 81.208 260.752 81.208 262.128C81.208 263.52 80.344 264.304 79.112 264.304C78.008 264.304 77.176 263.76 76.504 263.104L75.416 264.608C76.296 265.488 77.544 266.224 79.416 266.224Z" fill="black"/>
<circle cx="80" cy="320" r="15" fill="black"/>
<path d="M79.928 320.208C80.952 320.208 81.624 320.864 81.624 322.256C81.624 323.712 80.888 324.448 80.008 324.448C79.016 324.448 78.216 323.616 77.992 321.456C78.536 320.56 79.288 320.208 79.928 320.208ZM80.056 326.224C82.072 326.224 83.768 324.688 83.768 322.256C83.768 319.728 82.36 318.544 80.376 318.544C79.608 318.544 78.584 319.024 77.944 319.824C78.04 316.848 79.16 315.824 80.52 315.824C81.208 315.824 81.928 316.208 82.344 316.688L83.592 315.28C82.872 314.544 81.832 313.936 80.376 313.936C77.992 313.936 75.8 315.824 75.8 320.24C75.8 324.416 77.8 326.224 80.056 326.224Z" fill="black"/>
<circle cx="80" cy="380" r="15" fill="black"/>
<path d="M77.976 386H80.36C80.552 381.36 80.92 378.944 83.672 375.584V374.144H75.8V376.128H81.128C78.872 379.264 78.184 381.888 77.976 386Z" fill="black"/>
<circle cx="80" cy="440" r="15" fill="black"/>
<path d="M79.704 446.224C82.104 446.224 83.688 444.848 83.688 443.056C83.688 441.44 82.792 440.48 81.704 439.888V439.808C82.488 439.248 83.224 438.272 83.224 437.104C83.224 435.216 81.88 433.952 79.784 433.952C77.736 433.952 76.216 435.168 76.216 437.072C76.216 438.336 76.872 439.232 77.784 439.888V439.968C76.68 440.544 75.752 441.536 75.752 443.056C75.752 444.912 77.448 446.224 79.704 446.224ZM80.456 439.232C79.208 438.736 78.296 438.192 78.296 437.072C78.296 436.128 78.936 435.6 79.736 435.6C80.728 435.6 81.304 436.288 81.304 437.248C81.304 437.952 81.032 438.624 80.456 439.232ZM79.768 444.56C78.664 444.56 77.784 443.872 77.784 442.8C77.784 441.92 78.232 441.12 78.872 440.608C80.408 441.232 81.496 441.744 81.496 442.976C81.496 444 80.776 444.56 79.768 444.56Z" fill="black"/>
<circle cx="80" cy="500" r="15" fill="black"/>
<path d="M77.8 497.888C77.8 496.432 78.52 495.712 79.4 495.712C80.408 495.712 81.224 496.512 81.432 498.656C80.888 499.568 80.136 499.936 79.48 499.936C78.456 499.936 77.8 499.28 77.8 497.888ZM79.08 506.224C81.432 506.224 83.624 504.288 83.624 499.808C83.624 495.696 81.608 493.936 79.368 493.936C77.336 493.936 75.64 495.456 75.64 497.888C75.64 500.4 77.064 501.616 79.032 501.616C79.832 501.616 80.84 501.136 81.464 500.336C81.352 503.296 80.264 504.304 78.936 504.304C78.232 504.304 77.512 503.936 77.08 503.456L75.832 504.88C76.536 505.6 77.608 506.224 79.08 506.224Z" fill="black"/>
<circle cx="80" cy="560" r="15" fill="black"/>
<path d="M72.312 566H79.432V564.096H77.208V554.144H75.464C74.712 554.624 73.896 554.928 72.712 555.152V556.608H74.856V564.096H72.312V566ZM85.1419 566.224C87.5579 566.224 89.1419 564.112 89.1419 560.032C89.1419 555.952 87.5579 553.936 85.1419 553.936C82.7259 553.936 81.1259 555.936 81.1259 560.032C81.1259 564.112 82.7259 566.224 85.1419 566.224ZM85.1419 564.384C84.1179 564.384 83.3499 563.36 83.3499 560.032C83.3499 556.72 84.1179 555.76 85.1419 555.76C86.1659 555.76 86.9179 556.72 86.9179 560.032C86.9179 563.36 86.1659 564.384 85.1419 564.384Z" fill="black"/>
<circle cx="20" cy="20" r="14" stroke="black" stroke-width="2"/>
<path d="M16.312 26H23.432V24.096H21.208V14.144H19.464C18.712 14.624 17.896 14.928 16.712 15.152V16.608H18.856V24.096H16.312V26Z" fill="black"/>
<circle cx="20" cy="80" r="14" stroke="black" stroke-width="2"/>
<path d="M15.688 86H23.624V84.016H21.064C20.504 84.016 19.72 84.08 19.128 84.144C21.288 82.032 23.064 79.728 23.064 77.584C23.064 75.376 21.576 73.936 19.336 73.936C17.72 73.936 16.664 74.56 15.576 75.728L16.856 77.008C17.464 76.352 18.168 75.792 19.032 75.792C20.168 75.792 20.808 76.512 20.808 77.712C20.808 79.536 18.904 81.76 15.688 84.64V86Z" fill="black"/>
<circle cx="20" cy="140" r="14" stroke="black" stroke-width="2"/>
<path d="M19.384 146.224C21.64 146.224 23.544 144.96 23.544 142.784C23.544 141.232 22.52 140.24 21.192 139.872V139.792C22.44 139.296 23.16 138.368 23.16 137.088C23.16 135.072 21.608 133.936 19.32 133.936C17.928 133.936 16.792 134.496 15.768 135.392L16.968 136.832C17.672 136.176 18.36 135.792 19.208 135.792C20.216 135.792 20.792 136.336 20.792 137.264C20.792 138.32 20.088 139.072 17.912 139.072V140.752C20.488 140.752 21.176 141.488 21.176 142.64C21.176 143.712 20.36 144.304 19.16 144.304C18.088 144.304 17.224 143.776 16.52 143.088L15.416 144.576C16.248 145.52 17.512 146.224 19.384 146.224Z" fill="black"/>
<circle cx="20" cy="200" r="14" stroke="black" stroke-width="2"/>
<path d="M17.624 201.136L19.464 198.192C19.8 197.552 20.12 196.896 20.408 196.256H20.472C20.44 196.96 20.392 198.032 20.392 198.72V201.136H17.624ZM20.392 206H22.584V202.928H23.976V201.136H22.584V194.144H19.752L15.336 201.328V202.928H20.392V206Z" fill="black"/>
<circle cx="20" cy="260" r="14" stroke="black" stroke-width="2"/>
<path d="M19.416 266.224C21.608 266.224 23.56 264.704 23.56 262.064C23.56 259.488 21.896 258.304 19.912 258.304C19.368 258.304 18.968 258.416 18.488 258.64L18.712 256.128H23.016V254.144H16.68L16.36 259.904L17.432 260.608C18.12 260.16 18.504 259.984 19.208 259.984C20.408 259.984 21.208 260.752 21.208 262.128C21.208 263.52 20.344 264.304 19.112 264.304C18.008 264.304 17.176 263.76 16.504 263.104L15.416 264.608C16.296 265.488 17.544 266.224 19.416 266.224Z" fill="black"/>
<circle cx="20" cy="320" r="14" stroke="black" stroke-width="2"/>
<path d="M19.928 320.208C20.952 320.208 21.624 320.864 21.624 322.256C21.624 323.712 20.888 324.448 20.008 324.448C19.016 324.448 18.216 323.616 17.992 321.456C18.536 320.56 19.288 320.208 19.928 320.208ZM20.056 326.224C22.072 326.224 23.768 324.688 23.768 322.256C23.768 319.728 22.36 318.544 20.376 318.544C19.608 318.544 18.584 319.024 17.944 319.824C18.04 316.848 19.16 315.824 20.52 315.824C21.208 315.824 21.928 316.208 22.344 316.688L23.592 315.28C22.872 314.544 21.832 313.936 20.376 313.936C17.992 313.936 15.8 315.824 15.8 320.24C15.8 324.416 17.8 326.224 20.056 326.224Z" fill="black"/>
<circle cx="20" cy="380" r="14" stroke="black" stroke-width="2"/>
<path d="M17.976 386H20.36C20.552 381.36 20.92 378.944 23.672 375.584V374.144H15.8V376.128H21.128C18.872 379.264 18.184 381.888 17.976 386Z" fill="black"/>
<circle cx="20" cy="440" r="14" stroke="black" stroke-width="2"/>
<path d="M19.704 446.224C22.104 446.224 23.688 444.848 23.688 443.056C23.688 441.44 22.792 440.48 21.704 439.888V439.808C22.488 439.248 23.224 438.272 23.224 437.104C23.224 435.216 21.88 433.952 19.784 433.952C17.736 433.952 16.216 435.168 16.216 437.072C16.216 438.336 16.872 439.232 17.784 439.888V439.968C16.68 440.544 15.752 441.536 15.752 443.056C15.752 444.912 17.448 446.224 19.704 446.224ZM20.456 439.232C19.208 438.736 18.296 438.192 18.296 437.072C18.296 436.128 18.936 435.6 19.736 435.6C20.728 435.6 21.304 436.288 21.304 437.248C21.304 437.952 21.032 438.624 20.456 439.232ZM19.768 444.56C18.664 444.56 17.784 443.872 17.784 442.8C17.784 441.92 18.232 441.12 18.872 440.608C20.408 441.232 21.496 441.744 21.496 442.976C21.496 444 20.776 444.56 19.768 444.56Z" fill="black"/>
<circle cx="20" cy="500" r="14" stroke="black" stroke-width="2"/>
<path d="M17.8 497.888C17.8 496.432 18.52 495.712 19.4 495.712C20.408 495.712 21.224 496.512 21.432 498.656C20.888 499.568 20.136 499.936 19.48 499.936C18.456 499.936 17.8 499.28 17.8 497.888ZM19.08 506.224C21.432 506.224 23.624 504.288 23.624 499.808C23.624 495.696 21.608 493.936 19.368 493.936C17.336 493.936 15.64 495.456 15.64 497.888C15.64 500.4 17.064 501.616 19.032 501.616C19.832 501.616 20.84 501.136 21.464 500.336C21.352 503.296 20.264 504.304 18.936 504.304C18.232 504.304 17.512 503.936 17.08 503.456L15.832 504.88C16.536 505.6 17.608 506.224 19.08 506.224Z" fill="black"/>
<circle cx="20" cy="560" r="14" stroke="black" stroke-width="2"/>
<path d="M12.312 566H19.432V564.096H17.208V554.144H15.464C14.712 554.624 13.896 554.928 12.712 555.152V556.608H14.856V564.096H12.312V566ZM25.1419 566.224C27.5579 566.224 29.1419 564.112 29.1419 560.032C29.1419 555.952 27.5579 553.936 25.1419 553.936C22.7259 553.936 21.1259 555.936 21.1259 560.032C21.1259 564.112 22.7259 566.224 25.1419 566.224ZM25.1419 564.384C24.1179 564.384 23.3499 563.36 23.3499 560.032C23.3499 556.72 24.1179 555.76 25.1419 555.76C26.1659 555.76 26.9179 556.72 26.9179 560.032C26.9179 563.36 26.1659 564.384 25.1419 564.384Z" fill="black"/>
</g>
<defs>
<clipPath id="clip0_3556_21192">
<rect width="100" height="580" rx="5" fill="white"/>
</clipPath>
</defs>
</svg>
