<svg width="160" height="460" viewBox="0 0 160 460" fill="none" xmlns="http://www.w3.org/2000/svg">
<g clip-path="url(#clip0_3508_47556)">
<path d="M25.7798 247.69C25.7798 247.69 21.7398 247.23 20.3698 247.86C20.2198 247.93 20.0598 248 19.8998 248.06C19.4398 248.25 18.4598 248.8 17.6898 250.26C17.6898 250.26 17.1298 251.41 17.1698 253.2L17.1498 256.15H13.5298V260.35H17.1398L17.1598 271.09L21.4398 271.12L21.4698 260.36H25.0998L25.6498 256.13L21.4698 256.16L21.4898 253.03C21.4898 253.03 21.5098 251.38 23.6798 251.42L25.7498 251.44L25.7698 247.69H25.7798Z" fill="black"/>
<path d="M84.7698 428.94H74.9198C71.5498 428.94 68.7998 431.68 68.7998 435.06V445.16C68.7998 448.53 71.5398 451.28 74.9198 451.28H84.7698C88.1398 451.28 90.8898 448.54 90.8898 445.16V435.06C90.8898 431.69 88.1498 428.94 84.7698 428.94ZM89.0498 445.16C89.0498 447.52 87.1298 449.44 84.7698 449.44H74.9198C72.5598 449.44 70.6398 447.52 70.6398 445.16V435.06C70.6398 432.7 72.5598 430.78 74.9198 430.78H84.7698C87.1298 430.78 89.0498 432.7 89.0498 435.06V445.16Z" fill="black"/>
<path d="M79.9396 434.62C76.8396 434.62 74.3296 437.14 74.3296 440.23C74.3296 443.32 76.8496 445.84 79.9396 445.84C83.0296 445.84 85.5496 443.32 85.5496 440.23C85.5496 437.14 83.0296 434.62 79.9396 434.62ZM79.9396 443.92C77.9096 443.92 76.2496 442.27 76.2496 440.23C76.2496 438.19 77.8996 436.54 79.9396 436.54C81.9796 436.54 83.6296 438.19 83.6296 440.23C83.6296 442.27 81.9796 443.92 79.9396 443.92Z" fill="black"/>
<path d="M85.8997 432.58C85.0897 432.58 84.4297 433.24 84.4297 434.05C84.4297 434.86 85.0897 435.52 85.8997 435.52C86.7097 435.52 87.3697 434.86 87.3697 434.05C87.3697 433.24 86.7097 432.58 85.8997 432.58Z" fill="black"/>
<path d="M9.64014 326.57C9.64014 326.57 15.8201 330.97 22.9901 326.34C22.9901 326.34 28.3101 323.26 28.0901 315.88C28.0901 315.88 29.7401 314.7 30.2701 313.64C30.2701 313.64 28.7901 314.3 27.8401 314.25C27.8401 314.25 28.8801 313.99 29.7001 312.01C29.7001 312.01 27.5801 313.04 26.9901 313.01C26.9901 313.01 24.6901 310.4 21.5601 312.36C21.5601 312.36 18.8601 314.24 19.7401 316.88C19.7401 316.88 14.7401 316.97 11.0201 312.45C11.0201 312.45 9.09014 315.66 12.2601 318.08C12.2601 318.08 11.5201 318.17 10.4101 317.58C10.4101 317.58 10.3501 320.99 13.7401 321.76C13.7401 321.76 13.1101 322.09 11.9801 321.86C11.9801 321.86 12.2901 324.57 15.8301 324.8C15.8301 324.8 13.7701 326.83 9.65014 326.58L9.64014 326.57Z" fill="black"/>
<path d="M133.58 437.87C133.58 437.87 131.72 428.91 139.8 428.86C146.47 428.81 146.41 434.99 146.18 437.14C146.12 437.7 146.62 438.16 147.17 438.06C147.37 438.02 147.62 437.95 147.9 437.85C147.9 437.85 148.44 437.67 149.04 438.03C149.53 438.33 149.19 438.77 148.91 439.08C148.81 439.19 148.69 439.27 148.55 439.31C148.09 439.46 147.01 439.83 146.66 440.1C146.22 440.44 145.65 441.19 147.72 443.59C149.79 445.99 151.43 445.68 151.57 445.81C151.75 445.99 152.66 446.4 149.1 447.3C148.82 447.37 148.59 447.58 148.5 447.86C148.38 448.23 148.22 448.71 148.18 448.78C148.11 448.9 146.06 448.56 144.91 448.79C144.81 448.81 144.71 448.85 144.62 448.91C144.01 449.32 141.25 451.09 139.8 451C138.18 450.9 138.3 450.9 135.37 448.98C135.34 448.96 135.3 448.94 135.27 448.92C135.01 448.8 133.93 448.4 132.02 448.92C132 448.92 131.98 448.93 131.96 448.95C131.89 449 131.62 449.09 131.39 448.09C131.31 447.76 131.06 447.51 130.73 447.45C130.47 447.4 130.15 447.32 129.78 447.18C128.99 446.88 128.94 445.78 129.69 445.4C130.97 444.76 132.61 443.5 133.41 441.11C133.41 441.08 133.43 441.06 133.44 441.03C133.51 440.88 133.83 439.97 131.44 439.48C131.16 439.42 130.89 439.3 130.66 439.12C130.37 438.89 130.15 438.56 130.58 438.16C130.58 438.16 131.02 437.67 131.82 437.88C132.62 438.09 133.72 438.58 133.57 437.88L133.58 437.87Z" fill="black"/>
<path d="M88.7699 372.3H71.8899C70.1299 372.3 68.6899 373.74 68.6899 375.5V385.14C68.6899 386.9 70.1299 388.34 71.8899 388.34H88.7699C90.5299 388.34 91.9699 386.9 91.9699 385.14V375.5C91.9699 373.74 90.5299 372.3 88.7699 372.3ZM78.0099 383.82V376.86L84.0399 380.34L78.0099 383.81V383.82Z" fill="black" stroke="black" stroke-width="0.16" stroke-miterlimit="10"/>
<path d="M152.04 262.38C152.15 261.73 152.2 261.07 152.2 260.39C152.2 253.78 146.84 248.42 140.23 248.42C139.55 248.42 138.88 248.48 138.22 248.59C137.16 247.97 135.92 247.61 134.59 247.61C130.62 247.61 127.4 250.83 127.4 254.8C127.4 256.14 127.77 257.39 128.41 258.47C128.31 259.1 128.26 259.74 128.26 260.4C128.26 267.01 133.62 272.37 140.23 272.37C140.88 272.37 141.51 272.32 142.13 272.22C143.22 272.88 144.49 273.26 145.86 273.26C149.83 273.26 153.05 270.04 153.05 266.07C153.05 264.72 152.68 263.46 152.03 262.38H152.04ZM146.82 265.65C146.5 266.18 146.02 266.62 145.43 267.04C144.84 267.42 144.13 267.69 143.3 267.93C142.47 268.14 141.56 268.25 140.55 268.25C139.69 268.25 138.87 268.16 138.07 267.98C137.3 267.77 136.59 267.54 135.94 267.18C135.32 266.83 134.79 266.41 134.32 265.94C133.89 265.51 133.56 265.03 133.32 264.5C133.28 264.42 133.32 264.32 133.4 264.29L135.2 263.61L136.53 263.09C136.87 262.96 137.26 263.08 137.45 263.38C137.68 263.74 137.99 264.05 138.41 264.31H138.42C139.07 264.67 139.77 264.87 140.54 264.87C141.37 264.87 142.02 264.81 142.49 264.69C142.99 264.57 143.23 264.39 143.23 264.22C143.23 263.75 142.96 263.36 142.43 263.01C141.9 262.63 141.1 262.36 140.04 262.21C138.12 261.91 136.7 261.32 135.7 260.38C134.73 259.41 134.22 258.25 134.22 256.95C134.22 256.3 134.37 255.71 134.66 255.18C134.98 254.62 135.43 254.18 135.96 253.79C136.52 253.38 137.17 253.11 137.94 252.9C138.74 252.66 139.59 252.58 140.54 252.58C141.84 252.58 143.05 252.88 144.17 253.55C145.29 254.2 146.15 255.12 146.71 256.24V256.27C146.71 256.27 146.77 256.32 146.77 256.36C146.77 256.38 146.77 256.4 146.79 256.42C146.83 256.5 146.79 256.6 146.71 256.63L143.45 258.07C143.37 258.1 143.28 258.07 143.25 257.99C142.94 257.34 142.57 256.8 142.07 256.42C141.57 255.98 141.07 255.77 140.53 255.77C139.79 255.77 139.23 255.8 138.76 255.98C138.32 256.13 138.08 256.33 138.08 256.6C138.08 257.07 138.35 257.49 138.82 257.84C139.32 258.19 140.06 258.43 141.01 258.61C143.11 258.91 144.67 259.5 145.71 260.47C146.77 261.41 147.28 262.57 147.28 263.87C147.28 264.52 147.16 265.08 146.81 265.64L146.82 265.65Z" fill="black"/>
<rect width="40" height="40" transform="translate(120)" fill="#26ADE3"/>
<path d="M152.04 22.3801C152.15 21.7301 152.2 21.0701 152.2 20.3901C152.2 13.7801 146.84 8.4201 140.23 8.4201C139.55 8.4201 138.88 8.4801 138.22 8.5901C137.16 7.9701 135.92 7.61011 134.59 7.61011C130.62 7.61011 127.4 10.8301 127.4 14.8001C127.4 16.1401 127.77 17.3901 128.41 18.4701C128.31 19.1001 128.26 19.7401 128.26 20.4001C128.26 27.0101 133.62 32.3701 140.23 32.3701C140.88 32.3701 141.51 32.3201 142.13 32.2201C143.22 32.8801 144.49 33.2601 145.86 33.2601C149.83 33.2601 153.05 30.0401 153.05 26.0701C153.05 24.7201 152.68 23.4601 152.03 22.3801H152.04ZM146.82 25.6501C146.5 26.1801 146.02 26.6201 145.43 27.0401C144.84 27.4201 144.13 27.6901 143.3 27.9301C142.47 28.1401 141.56 28.2501 140.55 28.2501C139.69 28.2501 138.87 28.1601 138.07 27.9801C137.3 27.7701 136.59 27.5401 135.94 27.1801C135.32 26.8301 134.79 26.4101 134.32 25.9401C133.89 25.5101 133.56 25.0301 133.32 24.5001C133.28 24.4201 133.32 24.3201 133.4 24.2901L135.2 23.6101L136.53 23.0901C136.87 22.9601 137.26 23.0801 137.45 23.3801C137.68 23.7401 137.99 24.0501 138.41 24.3101H138.42C139.07 24.6701 139.77 24.8701 140.54 24.8701C141.37 24.8701 142.02 24.8101 142.49 24.6901C142.99 24.5701 143.23 24.3901 143.23 24.2201C143.23 23.7501 142.96 23.3601 142.43 23.0101C141.9 22.6301 141.1 22.3601 140.04 22.2101C138.12 21.9101 136.7 21.3201 135.7 20.3801C134.73 19.4101 134.22 18.2501 134.22 16.9501C134.22 16.3001 134.37 15.7101 134.66 15.1801C134.98 14.6201 135.43 14.1801 135.96 13.7901C136.52 13.3801 137.17 13.1101 137.94 12.9001C138.74 12.6601 139.59 12.5801 140.54 12.5801C141.84 12.5801 143.05 12.8801 144.17 13.5501C145.29 14.2001 146.15 15.1201 146.71 16.2401V16.2701C146.71 16.2701 146.77 16.3201 146.77 16.3601C146.77 16.3801 146.77 16.4001 146.79 16.4201C146.83 16.5001 146.79 16.6001 146.71 16.6301L143.45 18.0701C143.37 18.1001 143.28 18.0701 143.25 17.9901C142.94 17.3401 142.57 16.8001 142.07 16.4201C141.57 15.9801 141.07 15.7701 140.53 15.7701C139.79 15.7701 139.23 15.8001 138.76 15.9801C138.32 16.1301 138.08 16.3301 138.08 16.6001C138.08 17.0701 138.35 17.4901 138.82 17.8401C139.32 18.1901 140.06 18.4301 141.01 18.6101C143.11 18.9101 144.67 19.5001 145.71 20.4701C146.77 21.4101 147.28 22.5701 147.28 23.8701C147.28 24.5201 147.16 25.0801 146.81 25.6401L146.82 25.6501Z" fill="white"/>
<path d="M74.1098 272.24C74.1098 272.24 73.7898 269.29 74.0098 268.33L74.2198 266.56L74.7398 264.14L75.4198 261.66L75.8398 260L76.0498 259.08C76.0498 259.08 75.4498 258.44 75.4898 256.71C75.5298 254.98 76.4998 253.78 76.4998 253.78C76.4998 253.78 76.8498 253.38 76.9798 253.31C77.1098 253.25 77.5198 252.85 78.4098 252.88C79.2998 252.91 79.7798 253.41 79.7798 253.41C79.7798 253.41 80.5998 254.09 80.2198 255.64C79.8398 257.19 79.3798 258.64 79.3798 258.64L79.0298 260.02C79.0298 260.02 78.7798 261.38 79.2198 262.01C79.2198 262.01 79.3998 262.63 80.4798 262.84C81.5598 263.05 82.2298 262.8 82.2298 262.8C82.2298 262.8 82.9198 262.61 83.4398 262.12C83.9598 261.63 84.0298 261.57 84.0898 261.46C84.1498 261.35 84.7998 260.53 84.9798 260.03C85.1598 259.53 85.3798 259 85.3798 258.96C85.3798 258.92 85.6998 257.82 85.6798 257.71L85.7398 257.32L85.8398 256.51C85.8398 256.51 85.8798 254.41 85.6198 253.8C85.3598 253.19 85.5198 252.83 84.5498 251.55C84.5498 251.55 83.2198 250.14 81.7098 249.86C80.1998 249.58 80.2598 249.66 80.2598 249.66C80.2598 249.66 79.3698 249.6 78.2198 249.91C77.0698 250.22 76.4598 250.62 76.4598 250.62C76.4598 250.62 75.1198 251.33 74.3298 252.36C73.5398 253.39 73.5498 253.51 73.5498 253.51C73.5498 253.51 73.1198 254.27 72.8998 255.3C72.6798 256.33 72.7898 257.17 72.7898 257.17C72.7898 257.17 72.7498 257.85 73.1498 258.5C73.5498 259.15 73.7798 259.51 73.7998 259.72C73.8198 259.93 74.1998 260.5 73.4698 261.72C73.4698 261.72 72.7298 261.78 71.3098 260.62C69.8898 259.46 69.9898 256.16 69.9898 256.16C69.9898 256.16 70.0598 254.08 70.5498 253.42C70.5498 253.42 71.1298 251.83 72.1898 250.65C73.2498 249.47 74.6198 248.72 74.6198 248.72C74.6198 248.72 75.7398 248.06 77.3998 247.63C79.0598 247.2 81.1298 247.45 81.1298 247.45C81.1298 247.45 83.2098 247.74 83.8798 248.07C84.5598 248.4 85.5198 248.6 86.8898 249.88C88.2498 251.16 88.7098 252.51 88.7098 252.51C88.7098 252.51 89.2898 253.68 89.2898 255.63C89.2898 257.58 88.9898 258.76 88.9898 258.76C88.9898 258.76 88.5298 260.63 87.7598 261.86C86.9898 263.09 86.3498 263.61 86.3498 263.61C86.3498 263.61 85.5998 264.33 84.7898 264.68C83.9798 265.03 83.8598 265.31 81.8398 265.4C79.8198 265.5 77.9298 263.77 77.9298 263.77C77.9298 263.77 77.4298 266.19 77.3998 266.28C77.3698 266.37 76.9198 268.32 76.5698 268.86C76.2198 269.4 76.2298 270.4 74.1298 272.19L74.1098 272.24Z" fill="black"/>
<path d="M141.35 319.34H133.6V322.2H137.83C137.09 323.76 135.52 324.84 133.71 324.84C131.19 324.84 129.13 322.74 129.13 320.17C129.13 318.92 129.61 317.74 130.48 316.86C131.34 315.98 132.49 315.5 133.71 315.5C134.78 315.5 135.78 315.87 136.61 316.56L138.57 314.22C137.21 313.08 135.48 312.45 133.7 312.45C131.66 312.45 129.74 313.26 128.29 314.72C126.85 316.18 126.06 318.12 126.06 320.18C126.06 324.44 129.49 327.91 133.7 327.91C137.91 327.91 141.33 324.44 141.33 320.18C141.33 320.06 141.33 319.93 141.33 319.81C141.34 319.71 141.35 319.62 141.35 319.52V319.35V319.34Z" fill="black"/>
<path d="M150.13 319.16V315.88H148.63V319.16H145.35V320.66H148.63V323.95H150.13V320.66H153.42V319.16H150.13Z" fill="black"/>
<path d="M20.3602 434.81L24.5702 434.84L24.6002 438.68H20.3602V445.04C20.3602 445.04 20.2702 446.2 20.6502 446.73C21.0302 447.26 21.4502 447.49 21.9502 447.58C22.4502 447.67 23.7502 447.58 24.3002 447.23L25.4302 450.37C25.4302 450.37 24.5402 451.53 21.9502 451.71C19.3502 451.89 18.0602 451.03 18.0602 451.03C18.0602 451.03 16.5702 450.46 15.5302 448.19C15.5302 448.19 15.1402 447.29 15.0602 446.01C14.9802 444.73 15.0302 438.65 15.0302 438.65H12.4102V435.36C12.4102 435.36 14.4602 434.71 15.4802 433.12C16.5002 431.53 16.7702 430.41 16.9202 429.05H20.3502V434.81H20.3602Z" fill="black"/>
<path d="M74.4303 316.02H70.0303V330.26H74.4303V316.02Z" fill="black"/>
<path d="M74.662 312.523C75.2115 311.196 74.5815 309.675 73.2548 309.126C71.9282 308.576 70.4073 309.206 69.8578 310.533C69.3083 311.86 69.9382 313.381 71.2649 313.93C72.5915 314.48 74.1124 313.85 74.662 312.523Z" fill="black"/>
<path d="M86.35 315.65C86.35 315.65 83.5 315.16 81.64 317.64V316.03H77.25V330.27H81.64V321.66C81.94 320.38 82.81 319.09 85.23 319.73C85.23 319.73 86.58 319.87 86.56 323.12C86.54 326.37 86.54 330.28 86.54 330.28L90.98 330.26L91.02 322.43C91.02 322.43 91.42 315.7 86.35 315.66V315.65Z" fill="black"/>
<path d="M128.21 378.28L129.66 377.33C129.66 377.33 130.06 377.04 130.32 377.04C130.58 377.04 130.77 377.18 130.77 377.18C130.77 377.18 131.35 377.49 131.92 378.69C132.48 379.89 133.43 383.46 133.43 383.46L134.85 388.6C134.85 388.6 135.47 390.81 136.17 391.57C136.87 392.33 137.4 393.5 138.95 393.41C140.5 393.33 141.87 392.46 141.87 392.46C141.87 392.46 145.07 390.19 145.94 388.94C145.94 388.94 149.14 385.17 149.39 384.64C149.64 384.12 151.25 381.9 151.61 381.06C151.61 381.04 151.63 381.02 151.63 381C151.93 380.22 153.83 377.65 153.32 374.54C153.32 374.54 153.45 370.32 149.13 370.58C144.81 370.83 143.22 373.36 142.12 376.74C142.12 376.74 146.82 374.9 145.66 379.28C145.66 379.28 144.11 383.37 141.99 385.06C141.99 385.06 140.32 386.42 139.38 380.15L138.53 375.36C138.53 375.36 138.51 371.97 135.97 370.95C135.97 370.95 134.15 370.1 130.65 373.39L126.94 376.72L128.2 378.28H128.21Z" fill="black"/>
<rect width="40" height="40" transform="translate(0 120)" fill="#FFE812"/>
<path d="M19.9999 125.625C11.0252 125.625 3.75 131.361 3.75 138.437C3.75 143.012 6.7916 147.027 11.3668 149.293C11.1178 150.152 9.76728 154.816 9.71352 155.182C9.71352 155.182 9.6812 155.458 9.85944 155.563C10.0377 155.668 10.2474 155.586 10.2474 155.586C10.7586 155.515 16.1761 151.709 17.1137 151.049C18.0503 151.181 19.015 151.25 19.9999 151.25C28.9746 151.25 36.2498 145.514 36.2498 138.438C36.2498 131.361 28.9745 125.625 19.9999 125.625V125.625Z" fill="black"/>
<path d="M11.0156 142.91C10.4987 142.91 10.0782 142.509 10.0782 142.015V136.445H8.61531C8.10795 136.445 7.69531 136.033 7.69531 135.527C7.69531 135.021 8.10811 134.609 8.61531 134.609H13.416C13.9233 134.609 14.336 135.021 14.336 135.527C14.336 136.033 13.9232 136.445 13.416 136.445H11.9531V142.015C11.9531 142.509 11.5326 142.91 11.0156 142.91ZM19.2363 142.898C18.8454 142.898 18.5462 142.739 18.4561 142.484L17.992 141.269H15.1332L14.6688 142.485C14.5788 142.739 14.28 142.898 13.8891 142.898C13.6835 142.898 13.4801 142.854 13.2931 142.769C13.0347 142.649 12.7862 142.322 13.0708 141.437L15.3134 135.535C15.4713 135.086 15.9512 134.623 16.5619 134.61C17.1742 134.623 17.654 135.086 17.8123 135.536L20.0539 141.436C20.3392 142.322 20.0907 142.65 19.8323 142.769C19.6452 142.854 19.4419 142.898 19.2363 142.898ZM17.499 139.608L16.5625 136.948L15.626 139.608H17.4988H17.499ZM21.5625 142.774C21.067 142.774 20.6641 142.388 20.6641 141.914V135.547C20.6641 135.03 21.0936 134.61 21.6211 134.61C22.1486 134.61 22.578 135.03 22.578 135.547V141.055H24.5702C25.0657 141.055 25.4686 141.44 25.4686 141.914C25.4686 142.388 25.0656 142.774 24.5702 142.774H21.5624H21.5625ZM26.771 142.898C26.254 142.898 25.8336 142.478 25.8336 141.961V135.547C25.8336 135.03 26.254 134.61 26.771 134.61C27.288 134.61 27.7084 135.03 27.7084 135.547V137.562L30.3241 134.946C30.4587 134.812 30.6435 134.738 30.8441 134.738C31.0782 134.738 31.3132 134.839 31.4892 135.014C31.6534 135.178 31.7515 135.39 31.7649 135.609C31.7785 135.83 31.7049 136.033 31.558 136.18L29.4216 138.316L31.7292 141.373C31.8798 141.571 31.9446 141.821 31.9092 142.067C31.8755 142.314 31.7444 142.537 31.5456 142.686C31.3835 142.809 31.1852 142.875 30.9817 142.875C30.6872 142.876 30.4094 142.738 30.2328 142.502L28.0342 139.589L27.7089 139.914V141.96C27.7083 142.478 27.2888 142.897 26.7712 142.898L26.771 142.898Z" fill="#FFE812"/>
<path fill-rule="evenodd" clip-rule="evenodd" d="M3.75 378.437C3.75 371.361 11.0252 365.625 19.9999 365.625V365.625C28.9745 365.625 36.2498 371.361 36.2498 378.438C36.2498 385.514 28.9746 391.25 19.9999 391.25C19.015 391.25 18.0503 391.181 17.1137 391.049C16.1761 391.709 10.7586 395.515 10.2474 395.586C10.2474 395.586 10.0377 395.668 9.85944 395.563C9.6812 395.458 9.71352 395.182 9.71352 395.182C9.76728 394.816 11.1178 390.152 11.3668 389.293C6.7916 387.027 3.75 383.012 3.75 378.437ZM10.0781 382.015C10.0781 382.509 10.4986 382.91 11.0155 382.91C11.5325 382.91 11.953 382.509 11.953 382.015V376.445H13.4158C13.923 376.445 14.3358 376.033 14.3358 375.527C14.3358 375.021 13.9232 374.609 13.4158 374.609H8.61519C8.10799 374.609 7.69519 375.021 7.69519 375.527C7.69519 376.033 8.10783 376.445 8.61519 376.445H10.0781V382.015ZM18.456 382.484C18.5461 382.739 18.8453 382.898 19.2362 382.898C19.4418 382.898 19.6451 382.854 19.8322 382.769C20.0906 382.65 20.339 382.322 20.0538 381.436L17.8122 375.536C17.6539 375.086 17.1741 374.623 16.5618 374.609C15.951 374.623 15.4712 375.086 15.3133 375.535L13.0707 381.437C12.7861 382.321 13.0346 382.649 13.293 382.769C13.48 382.854 13.6834 382.898 13.889 382.898C14.2798 382.898 14.5787 382.739 14.6686 382.485L15.1331 381.269H17.9918L18.456 382.484ZM16.5624 376.948L17.4989 379.608H17.4987H15.6259L16.5624 376.948ZM20.664 381.914C20.664 382.388 21.0669 382.773 21.5624 382.773H24.5701C25.0654 382.773 25.4685 382.388 25.4685 381.914C25.4685 381.44 25.0656 381.055 24.5701 381.055H22.5779V375.547C22.5779 375.03 22.1485 374.609 21.621 374.609C21.0934 374.609 20.664 375.03 20.664 375.547V381.914ZM25.8334 381.961C25.8334 382.477 26.2539 382.898 26.7709 382.898L26.771 382.898C27.2886 382.897 27.7082 382.478 27.7088 381.96V379.914L28.0341 379.589L30.2326 382.502C30.4093 382.738 30.687 382.876 30.9816 382.875C31.1851 382.875 31.3834 382.809 31.5454 382.686C31.7443 382.537 31.8754 382.314 31.9091 382.067C31.9445 381.821 31.8797 381.571 31.7291 381.373L29.4214 378.316L31.5579 376.18C31.7048 376.033 31.7784 375.83 31.7648 375.609C31.7514 375.39 31.6533 375.178 31.4891 375.014C31.3131 374.839 31.0781 374.738 30.844 374.738C30.6434 374.738 30.4586 374.812 30.324 374.946L27.7083 377.562V375.547C27.7083 375.03 27.2878 374.609 26.7709 374.609C26.2539 374.609 25.8334 375.03 25.8334 375.547V381.961Z" fill="black"/>
<rect width="40" height="40" fill="#3A5A9B"/>
<path d="M25.7803 7.68989C25.7803 7.68989 21.7403 7.22989 20.3703 7.85989C20.2203 7.92989 20.0603 7.99989 19.9003 8.05989C19.4403 8.24989 18.4603 8.79989 17.6903 10.2599C17.6903 10.2599 17.1303 11.4099 17.1703 13.1999L17.1503 16.1499H13.5303V20.3499H17.1403L17.1603 31.0899L21.4403 31.1199L21.4703 20.3599H25.1003L25.6503 16.1299L21.4703 16.1599L21.4903 13.0299C21.4903 13.0299 21.5103 11.3799 23.6803 11.4199L25.7503 11.4399L25.7703 7.68989H25.7803Z" fill="white"/>
<rect width="40" height="40" transform="translate(60 180)" fill="url(#paint0_linear_3508_47556)"/>
<path d="M84.7698 188.94H74.9198C71.5498 188.94 68.7998 191.68 68.7998 195.06V205.16C68.7998 208.53 71.5398 211.28 74.9198 211.28H84.7698C88.1398 211.28 90.8898 208.54 90.8898 205.16V195.06C90.8898 191.69 88.1498 188.94 84.7698 188.94ZM89.0498 205.16C89.0498 207.52 87.1298 209.44 84.7698 209.44H74.9198C72.5598 209.44 70.6398 207.52 70.6398 205.16V195.06C70.6398 192.7 72.5598 190.78 74.9198 190.78H84.7698C87.1298 190.78 89.0498 192.7 89.0498 195.06V205.16Z" fill="white"/>
<path d="M79.9396 194.62C76.8396 194.62 74.3296 197.14 74.3296 200.23C74.3296 203.32 76.8496 205.84 79.9396 205.84C83.0296 205.84 85.5496 203.32 85.5496 200.23C85.5496 197.14 83.0296 194.62 79.9396 194.62ZM79.9396 203.92C77.9096 203.92 76.2496 202.27 76.2496 200.23C76.2496 198.19 77.8996 196.54 79.9396 196.54C81.9796 196.54 83.6296 198.19 83.6296 200.23C83.6296 202.27 81.9796 203.92 79.9396 203.92Z" fill="white"/>
<path d="M85.8997 192.58C85.0897 192.58 84.4297 193.24 84.4297 194.05C84.4297 194.86 85.0897 195.52 85.8997 195.52C86.7097 195.52 87.3697 194.86 87.3697 194.05C87.3697 193.24 86.7097 192.58 85.8997 192.58Z" fill="white"/>
<rect width="40" height="40" transform="translate(0 60)" fill="#26ADE3"/>
<path d="M9.64014 86.5699C9.64014 86.5699 15.8201 90.9699 22.9901 86.3399C22.9901 86.3399 28.3101 83.2599 28.0901 75.8799C28.0901 75.8799 29.7401 74.6999 30.2701 73.6399C30.2701 73.6399 28.7901 74.2999 27.8401 74.2499C27.8401 74.2499 28.8801 73.9899 29.7001 72.0099C29.7001 72.0099 27.5801 73.0399 26.9901 73.0099C26.9901 73.0099 24.6901 70.3999 21.5601 72.3599C21.5601 72.3599 18.8601 74.2399 19.7401 76.8799C19.7401 76.8799 14.7401 76.9699 11.0201 72.4499C11.0201 72.4499 9.09014 75.6599 12.2601 78.0799C12.2601 78.0799 11.5201 78.1699 10.4101 77.5799C10.4101 77.5799 10.3501 80.9899 13.7401 81.7599C13.7401 81.7599 13.1101 82.0899 11.9801 81.8599C11.9801 81.8599 12.2901 84.5699 15.8301 84.7999C15.8301 84.7999 13.7701 86.8299 9.65014 86.5799L9.64014 86.5699Z" fill="white"/>
<rect width="40" height="40" transform="translate(120 180)" fill="#F7F400"/>
<path d="M133.58 197.87C133.58 197.87 131.72 188.91 139.8 188.86C146.47 188.81 146.41 194.99 146.18 197.14C146.12 197.7 146.62 198.16 147.17 198.06C147.37 198.02 147.62 197.95 147.9 197.85C147.9 197.85 148.44 197.67 149.04 198.03C149.53 198.33 149.19 198.77 148.91 199.08C148.81 199.19 148.69 199.27 148.55 199.31C148.09 199.46 147.01 199.83 146.66 200.1C146.22 200.44 145.65 201.19 147.72 203.59C149.79 205.99 151.43 205.68 151.57 205.81C151.75 205.99 152.66 206.4 149.1 207.3C148.82 207.37 148.59 207.58 148.5 207.86C148.38 208.23 148.22 208.71 148.18 208.78C148.11 208.9 146.06 208.56 144.91 208.79C144.81 208.81 144.71 208.85 144.62 208.91C144.01 209.32 141.25 211.09 139.8 211C138.18 210.9 138.3 210.9 135.37 208.98C135.34 208.96 135.3 208.94 135.27 208.92C135.01 208.8 133.93 208.4 132.02 208.92C132 208.92 131.98 208.93 131.96 208.95C131.89 209 131.62 209.09 131.39 208.09C131.31 207.76 131.06 207.51 130.73 207.45C130.47 207.4 130.15 207.32 129.78 207.18C128.99 206.88 128.94 205.78 129.69 205.4C130.97 204.76 132.61 203.5 133.41 201.11C133.41 201.08 133.43 201.06 133.44 201.03C133.51 200.88 133.83 199.97 131.44 199.48C131.16 199.42 130.89 199.3 130.66 199.12C130.37 198.89 130.15 198.56 130.58 198.16C130.58 198.16 131.02 197.67 131.82 197.88C132.62 198.09 133.72 198.58 133.57 197.88L133.58 197.87Z" fill="white"/>
<path fill-rule="evenodd" clip-rule="evenodd" d="M133.247 200.243C133.033 200.024 132.646 199.795 131.963 199.605C131.963 199.605 131.963 199.605 131.962 199.605C131.962 199.605 131.962 199.605 131.962 199.605C131.945 199.6 131.928 199.595 131.911 199.591C131.767 199.552 131.61 199.515 131.44 199.48C131.427 199.477 131.415 199.474 131.402 199.471C131.136 199.409 130.88 199.292 130.66 199.12C130.37 198.89 130.15 198.56 130.58 198.16C130.58 198.16 130.909 197.794 131.514 197.83C131.524 197.831 131.535 197.831 131.545 197.832C131.561 197.834 131.576 197.835 131.592 197.837C131.613 197.839 131.635 197.842 131.657 197.846C131.661 197.846 131.665 197.847 131.669 197.848C131.702 197.853 131.736 197.86 131.771 197.868C131.775 197.869 131.78 197.87 131.785 197.871C131.796 197.874 131.808 197.877 131.82 197.88C131.946 197.913 132.079 197.953 132.214 197.994C132.241 198.002 132.268 198.011 132.295 198.019C132.372 198.043 132.449 198.066 132.525 198.089C132.535 198.092 132.545 198.095 132.554 198.098C133.058 198.246 133.507 198.342 133.575 198.074C133.588 198.023 133.587 197.959 133.57 197.88L133.58 197.87C133.58 197.87 131.72 188.91 139.8 188.86C146.47 188.81 146.41 194.99 146.18 197.14C146.146 197.462 146.296 197.75 146.534 197.919C146.711 198.044 146.936 198.102 147.17 198.06C147.222 198.05 147.277 198.037 147.336 198.023C147.431 197.999 147.534 197.97 147.644 197.936C147.646 197.935 147.648 197.935 147.65 197.934C147.73 197.909 147.814 197.881 147.9 197.85C147.9 197.85 147.96 197.83 148.063 197.817C148.081 197.814 148.101 197.812 148.122 197.81C148.334 197.792 148.676 197.812 149.04 198.03C149.53 198.33 149.19 198.77 148.91 199.08C148.81 199.19 148.69 199.27 148.55 199.31C148.515 199.321 148.477 199.334 148.435 199.348C148.424 199.351 148.414 199.355 148.403 199.359C148.341 199.379 148.274 199.402 148.202 199.427C148.195 199.429 148.188 199.432 148.18 199.434C148.058 199.477 147.924 199.524 147.787 199.575C147.69 199.611 147.592 199.648 147.495 199.687C147.486 199.691 147.477 199.694 147.468 199.698C147.169 199.818 146.889 199.945 146.718 200.059C146.697 200.073 146.678 200.086 146.66 200.1C146.22 200.44 145.65 201.19 147.72 203.59C148.356 204.327 148.951 204.809 149.475 205.126C149.645 205.229 149.809 205.315 149.963 205.387C150.589 205.677 151.073 205.732 151.342 205.763C151.465 205.777 151.544 205.786 151.57 205.81C151.585 205.825 151.605 205.841 151.626 205.859C151.823 206.022 152.187 206.324 150.584 206.872C150.547 206.884 150.509 206.897 150.47 206.91C150.344 206.952 150.207 206.995 150.058 207.039C149.821 207.109 149.554 207.183 149.254 207.261C149.204 207.274 149.152 207.287 149.1 207.3C148.82 207.37 148.59 207.58 148.5 207.86C148.38 208.23 148.22 208.71 148.18 208.78C148.153 208.827 147.827 208.804 147.372 208.772C146.654 208.722 145.614 208.649 144.91 208.79C144.81 208.81 144.71 208.85 144.62 208.91C144.01 209.32 141.25 211.09 139.8 211C138.303 210.907 138.292 210.9 135.984 209.383C135.796 209.259 135.592 209.125 135.37 208.98C135.355 208.97 135.338 208.96 135.32 208.95C135.303 208.94 135.285 208.93 135.27 208.92C135.01 208.8 133.93 208.4 132.02 208.92C132 208.92 131.98 208.93 131.96 208.95C131.901 208.992 131.702 209.062 131.503 208.493C131.473 208.406 131.442 208.303 131.412 208.183C131.405 208.153 131.397 208.122 131.39 208.09C131.328 207.833 131.162 207.624 130.936 207.516C130.872 207.486 130.803 207.463 130.73 207.45C130.705 207.445 130.68 207.44 130.654 207.435C130.409 207.384 130.115 207.307 129.78 207.18C128.99 206.88 128.94 205.78 129.69 205.4C130.97 204.76 132.61 203.5 133.41 201.11C133.41 201.091 133.418 201.076 133.426 201.061C133.431 201.051 133.436 201.041 133.44 201.03C133.48 200.944 133.603 200.607 133.247 200.243ZM131.655 200.131L131.654 200.133ZM131.086 201.449C131.07 201.446 131.054 201.442 131.038 201.439L131.03 201.437L131.021 201.436C130.469 201.317 129.915 201.076 129.427 200.695L129.417 200.687L129.417 200.687C129.177 200.496 128.598 199.998 128.402 199.157C128.16 198.117 128.631 197.264 129.173 196.738C129.187 196.724 129.203 196.709 129.219 196.693C129.273 196.642 129.339 196.583 129.418 196.52C129.575 196.396 129.791 196.249 130.067 196.123C130.434 195.955 130.885 195.833 131.395 195.828C131.391 194.979 131.463 193.959 131.716 192.912C132.052 191.528 132.736 189.987 134.098 188.788C135.485 187.566 137.377 186.875 139.786 186.86C141.769 186.845 143.419 187.296 144.736 188.155C146.052 189.014 146.891 190.186 147.41 191.374C148.081 192.909 148.25 194.541 148.251 195.805C148.75 195.806 149.404 195.916 150.069 196.315L150.077 196.32L150.084 196.324C150.48 196.567 150.914 196.968 151.142 197.583C151.369 198.197 151.294 198.763 151.171 199.153C150.972 199.784 150.543 200.256 150.409 200.404C150.404 200.41 150.399 200.416 150.394 200.42L150.39 200.425C150.083 200.763 149.668 201.06 149.147 201.219C148.994 201.269 148.783 201.34 148.562 201.421C148.717 201.65 148.934 201.935 149.235 202.284C150.058 203.239 150.698 203.548 151.026 203.662C151.199 203.723 151.338 203.747 151.458 203.762C151.492 203.767 151.524 203.771 151.567 203.775L151.574 203.776C151.609 203.78 151.668 203.787 151.725 203.795C151.776 203.802 151.903 203.82 152.048 203.859L152.052 203.86C152.146 203.885 152.531 203.989 152.897 204.313C152.909 204.324 152.93 204.342 152.965 204.372C153.032 204.43 153.221 204.593 153.394 204.838C153.577 205.097 153.812 205.545 153.806 206.142C153.8 206.755 153.545 207.235 153.283 207.554C152.846 208.087 152.218 208.382 151.767 208.565C151.356 208.732 150.842 208.901 150.203 209.077C150.203 209.079 150.202 209.08 150.202 209.081C150.17 209.175 150.136 209.271 150.105 209.355C150.105 209.355 150.105 209.356 150.104 209.357C150.094 209.385 150.02 209.591 149.917 209.772L149.912 209.78L149.908 209.788C149.621 210.279 149.215 210.505 149.038 210.591C148.837 210.688 148.661 210.732 148.569 210.752C148.381 210.792 148.22 210.801 148.148 210.804C147.984 210.81 147.815 210.803 147.698 210.797C147.57 210.79 147.382 210.777 147.196 210.765C147.065 210.756 146.935 210.747 146.826 210.74C146.27 210.705 145.809 210.697 145.502 210.724C145.065 211.008 144.293 211.487 143.433 211.925C142.91 212.191 142.316 212.462 141.72 212.664C141.16 212.853 140.425 213.042 139.677 212.996M147.322 196.113C147.321 196.112 147.321 196.112 147.321 196.112L147.718 197.304L147.718 197.305L147.77 197.461C147.752 197.407 147.735 197.355 147.718 197.305C147.718 197.305 147.718 197.305 147.718 197.304C147.489 196.617 147.377 196.279 147.322 196.113ZM148.169 197.348C148.169 197.35 148.169 197.351 148.169 197.353L148.169 197.353C148.169 197.351 148.169 197.35 148.169 197.348ZM133.389 196.25C133.394 196.251 133.395 196.251 133.39 196.25ZM131.086 201.449C130.453 202.581 129.552 203.233 128.796 203.611L128.796 203.611L128.786 203.616C126.513 204.768 126.628 208.122 129.07 209.05L129.072 209.05C129.275 209.127 129.467 209.191 129.648 209.243C129.797 209.643 130.023 210.058 130.384 210.388C130.742 210.717 131.253 210.975 131.866 210.977C132.197 210.979 132.483 210.905 132.714 210.806C133.645 210.579 134.19 210.671 134.378 210.721C134.548 210.833 134.711 210.94 134.867 211.042C135.902 211.724 136.628 212.203 137.228 212.483C138.119 212.901 138.834 212.945 139.586 212.991C139.616 212.992 139.646 212.994 139.676 212.996M134.453 210.745C134.453 210.745 134.449 210.744 134.442 210.741C134.449 210.743 134.453 210.745 134.453 210.745ZM131.892 201.706C131.892 201.706 131.892 201.706 131.891 201.706Z" fill="black"/>
<rect width="40" height="40" transform="translate(60 120)" fill="#ED1F24"/>
<path d="M89.19 120H70.81C64.8398 120 60 124.84 60 130.81V149.19C60 155.16 64.8398 160 70.81 160H89.19C95.1602 160 100 155.16 100 149.19V130.81C100 124.84 95.1602 120 89.19 120Z" fill="#ED1F24"/>
<path d="M88.7699 132.3H71.8899C70.1299 132.3 68.6899 133.74 68.6899 135.5V145.14C68.6899 146.9 70.1299 148.34 71.8899 148.34H88.7699C90.5299 148.34 91.9699 146.9 91.9699 145.14V135.5C91.9699 133.74 90.5299 132.3 88.7699 132.3ZM78.0099 143.82V136.86L84.0399 140.34L78.0099 143.81V143.82Z" fill="white" stroke="white" stroke-width="0.16" stroke-miterlimit="10"/>
<rect width="40" height="40" transform="translate(60)" fill="#CD212A"/>
<path d="M74.1098 32.24C74.1098 32.24 73.7898 29.29 74.0098 28.33L74.2198 26.5599L74.7398 24.14L75.4198 21.6599L75.8398 19.9999L76.0498 19.08C76.0498 19.08 75.4498 18.44 75.4898 16.71C75.5298 14.98 76.4998 13.7799 76.4998 13.7799C76.4998 13.7799 76.8498 13.3799 76.9798 13.3099C77.1098 13.2499 77.5198 12.8499 78.4098 12.8799C79.2998 12.9099 79.7798 13.4099 79.7798 13.4099C79.7798 13.4099 80.5998 14.09 80.2198 15.64C79.8398 17.19 79.3798 18.64 79.3798 18.64L79.0298 20.02C79.0298 20.02 78.7798 21.3799 79.2198 22.0099C79.2198 22.0099 79.3998 22.6299 80.4798 22.8399C81.5598 23.0499 82.2298 22.8 82.2298 22.8C82.2298 22.8 82.9198 22.6099 83.4398 22.1199C83.9598 21.6299 84.0298 21.57 84.0898 21.46C84.1498 21.35 84.7998 20.5299 84.9798 20.0299C85.1598 19.5299 85.3798 19 85.3798 18.96C85.3798 18.92 85.6998 17.82 85.6798 17.71L85.7398 17.3199L85.8398 16.5099C85.8398 16.5099 85.8798 14.41 85.6198 13.8C85.3598 13.19 85.5198 12.83 84.5498 11.55C84.5498 11.55 83.2198 10.14 81.7098 9.85996C80.1998 9.57996 80.2598 9.65994 80.2598 9.65994C80.2598 9.65994 79.3698 9.59994 78.2198 9.90994C77.0698 10.2199 76.4598 10.6199 76.4598 10.6199C76.4598 10.6199 75.1198 11.33 74.3298 12.36C73.5398 13.39 73.5498 13.5099 73.5498 13.5099C73.5498 13.5099 73.1198 14.27 72.8998 15.3C72.6798 16.33 72.7898 17.17 72.7898 17.17C72.7898 17.17 72.7498 17.8499 73.1498 18.4999C73.5498 19.1499 73.7798 19.5099 73.7998 19.7199C73.8198 19.9299 74.1998 20.4999 73.4698 21.7199C73.4698 21.7199 72.7298 21.7799 71.3098 20.6199C69.8898 19.4599 69.9898 16.1599 69.9898 16.1599C69.9898 16.1599 70.0598 14.08 70.5498 13.42C70.5498 13.42 71.1298 11.8299 72.1898 10.6499C73.2498 9.46993 74.6198 8.71994 74.6198 8.71994C74.6198 8.71994 75.7398 8.05994 77.3998 7.62994C79.0598 7.19994 81.1298 7.44995 81.1298 7.44995C81.1298 7.44995 83.2098 7.73995 83.8798 8.06995C84.5598 8.39995 85.5198 8.59995 86.8898 9.87995C88.2498 11.1599 88.7098 12.5099 88.7098 12.5099C88.7098 12.5099 89.2898 13.6799 89.2898 15.6299C89.2898 17.5799 88.9898 18.7599 88.9898 18.7599C88.9898 18.7599 88.5298 20.63 87.7598 21.86C86.9898 23.09 86.3498 23.61 86.3498 23.61C86.3498 23.61 85.5998 24.33 84.7898 24.68C83.9798 25.03 83.8598 25.3099 81.8398 25.3999C79.8198 25.4999 77.9298 23.77 77.9298 23.77C77.9298 23.77 77.4298 26.1899 77.3998 26.2799C77.3698 26.3699 76.9198 28.32 76.5698 28.86C76.2198 29.4 76.2298 30.3999 74.1298 32.1899L74.1098 32.24Z" fill="white"/>
<rect width="40" height="40" transform="translate(120 60)" fill="#CD212A"/>
<path d="M141.35 79.34H133.6V82.2H137.83C137.09 83.76 135.52 84.84 133.71 84.84C131.19 84.84 129.13 82.7399 129.13 80.1699C129.13 78.9199 129.61 77.7399 130.48 76.8599C131.34 75.9799 132.49 75.4999 133.71 75.4999C134.78 75.4999 135.78 75.8699 136.61 76.5599L138.57 74.2199C137.21 73.0799 135.48 72.45 133.7 72.45C131.66 72.45 129.74 73.2599 128.29 74.7199C126.85 76.1799 126.06 78.1199 126.06 80.1799C126.06 84.4399 129.49 87.9099 133.7 87.9099C137.91 87.9099 141.33 84.4399 141.33 80.1799C141.33 80.0599 141.33 79.9299 141.33 79.8099C141.34 79.7099 141.35 79.62 141.35 79.52V79.3499V79.34Z" fill="white"/>
<path d="M150.13 79.1599V75.8799H148.63V79.1599H145.35V80.6599H148.63V83.9499H150.13V80.6599H153.42V79.1599H150.13Z" fill="white"/>
<rect width="40" height="40" transform="translate(0 180)" fill="#001935"/>
<path d="M20.3602 194.81L24.5702 194.84L24.6002 198.68H20.3602V205.04C20.3602 205.04 20.2702 206.2 20.6502 206.73C21.0302 207.26 21.4502 207.49 21.9502 207.58C22.4502 207.67 23.7502 207.58 24.3002 207.23L25.4302 210.37C25.4302 210.37 24.5402 211.53 21.9502 211.71C19.3502 211.89 18.0602 211.03 18.0602 211.03C18.0602 211.03 16.5702 210.46 15.5302 208.19C15.5302 208.19 15.1402 207.29 15.0602 206.01C14.9802 204.73 15.0302 198.65 15.0302 198.65H12.4102V195.36C12.4102 195.36 14.4602 194.71 15.4802 193.12C16.5002 191.53 16.7702 190.41 16.9202 189.05H20.3502V194.81H20.3602Z" fill="white"/>
<rect width="40" height="40" transform="translate(60 60)" fill="#146EB7"/>
<path d="M74.4303 76.0203H70.0303V90.2603H74.4303V76.0203Z" fill="white"/>
<path d="M74.662 72.5229C75.2115 71.1963 74.5815 69.6754 73.2548 69.1259C71.9282 68.5764 70.4073 69.2063 69.8578 70.533C69.3083 71.8596 69.9382 73.3805 71.2649 73.93C72.5915 74.4795 74.1124 73.8496 74.662 72.5229Z" fill="white"/>
<path d="M86.35 75.6501C86.35 75.6501 83.5 75.1602 81.64 77.6402V76.0302H77.25V90.2702H81.64V81.6602C81.94 80.3802 82.81 79.0902 85.23 79.7302C85.23 79.7302 86.58 79.8701 86.56 83.1201C86.54 86.3701 86.54 90.2802 86.54 90.2802L90.98 90.2602L91.02 82.4301C91.02 82.4301 91.42 75.7002 86.35 75.6602V75.6501Z" fill="white"/>
<rect width="40" height="40" transform="translate(120 120)" fill="#4AA9CE"/>
<path d="M128.21 138.28L129.66 137.33C129.66 137.33 130.06 137.04 130.32 137.04C130.58 137.04 130.77 137.18 130.77 137.18C130.77 137.18 131.35 137.49 131.92 138.69C132.48 139.89 133.43 143.46 133.43 143.46L134.85 148.6C134.85 148.6 135.47 150.81 136.17 151.57C136.87 152.33 137.4 153.5 138.95 153.41C140.5 153.33 141.87 152.46 141.87 152.46C141.87 152.46 145.07 150.19 145.94 148.94C145.94 148.94 149.14 145.17 149.39 144.64C149.64 144.12 151.25 141.9 151.61 141.06C151.61 141.04 151.63 141.02 151.63 141C151.93 140.22 153.83 137.65 153.32 134.54C153.32 134.54 153.45 130.32 149.13 130.58C144.81 130.83 143.22 133.36 142.12 136.74C142.12 136.74 146.82 134.9 145.66 139.28C145.66 139.28 144.11 143.37 141.99 145.06C141.99 145.06 140.32 146.42 139.38 140.15L138.53 135.36C138.53 135.36 138.51 131.97 135.97 130.95C135.97 130.95 134.15 130.1 130.65 133.39L126.94 136.72L128.2 138.28H128.21Z" fill="white"/>
</g>
<defs>
<linearGradient id="paint0_linear_3508_47556" x1="40" y1="0" x2="4.76837e-06" y2="40" gradientUnits="userSpaceOnUse">
<stop stop-color="#5C54A1"/>
<stop offset="0.505208" stop-color="#D5205B"/>
<stop offset="1" stop-color="#FBA921"/>
</linearGradient>
<clipPath id="clip0_3508_47556">
<rect width="160" height="460" rx="5" fill="white"/>
</clipPath>
</defs>
</svg>
