<svg width="160" height="460" viewBox="0 0 160 460" fill="none" xmlns="http://www.w3.org/2000/svg">
<path d="M25.78 247.69C25.78 247.69 21.74 247.23 20.37 247.86C20.22 247.93 20.06 248 19.9 248.06C19.44 248.25 18.46 248.8 17.69 250.26C17.69 250.26 17.13 251.41 17.17 253.2L17.15 256.15H13.53V260.35H17.14L17.16 271.09L21.44 271.12L21.47 260.36H25.1L25.65 256.13L21.47 256.16L21.49 253.03C21.49 253.03 21.51 251.38 23.68 251.42L25.75 251.44L25.77 247.69H25.78Z" fill="black"/>
<path d="M84.77 428.94H74.92C71.55 428.94 68.8 431.68 68.8 435.06V445.16C68.8 448.53 71.54 451.28 74.92 451.28H84.77C88.14 451.28 90.89 448.54 90.89 445.16V435.06C90.89 431.69 88.15 428.94 84.77 428.94V428.94ZM89.05 445.16C89.05 447.52 87.13 449.44 84.77 449.44H74.92C72.56 449.44 70.64 447.52 70.64 445.16V435.06C70.64 432.7 72.56 430.78 74.92 430.78H84.77C87.13 430.78 89.05 432.7 89.05 435.06V445.16V445.16Z" fill="black"/>
<path d="M79.9401 434.62C76.8401 434.62 74.3301 437.14 74.3301 440.23C74.3301 443.32 76.8501 445.84 79.9401 445.84C83.0301 445.84 85.5501 443.32 85.5501 440.23C85.5501 437.14 83.0301 434.62 79.9401 434.62ZM79.9401 443.92C77.9101 443.92 76.2501 442.27 76.2501 440.23C76.2501 438.19 77.9001 436.54 79.9401 436.54C81.9801 436.54 83.6301 438.19 83.6301 440.23C83.6301 442.27 81.9801 443.92 79.9401 443.92Z" fill="black"/>
<path d="M85.9001 432.58C85.0901 432.58 84.4301 433.24 84.4301 434.05C84.4301 434.86 85.0901 435.52 85.9001 435.52C86.7101 435.52 87.3701 434.86 87.3701 434.05C87.3701 433.24 86.7101 432.58 85.9001 432.58Z" fill="black"/>
<path d="M9.64001 326.57C9.64001 326.57 15.82 330.97 22.99 326.34C22.99 326.34 28.31 323.26 28.09 315.88C28.09 315.88 29.74 314.7 30.27 313.64C30.27 313.64 28.79 314.3 27.84 314.25C27.84 314.25 28.88 313.99 29.7 312.01C29.7 312.01 27.58 313.04 26.99 313.01C26.99 313.01 24.69 310.4 21.56 312.36C21.56 312.36 18.86 314.24 19.74 316.88C19.74 316.88 14.74 316.97 11.02 312.45C11.02 312.45 9.09001 315.66 12.26 318.08C12.26 318.08 11.52 318.17 10.41 317.58C10.41 317.58 10.35 320.99 13.74 321.76C13.74 321.76 13.11 322.09 11.98 321.86C11.98 321.86 12.29 324.57 15.83 324.8C15.83 324.8 13.77 326.83 9.65001 326.58L9.64001 326.57Z" fill="black"/>
<path d="M133.58 437.87C133.58 437.87 131.72 428.91 139.8 428.86C146.47 428.81 146.41 434.99 146.18 437.14C146.12 437.7 146.62 438.16 147.17 438.06C147.37 438.02 147.62 437.95 147.9 437.85C147.9 437.85 148.44 437.67 149.04 438.03C149.53 438.33 149.19 438.77 148.91 439.08C148.81 439.19 148.69 439.27 148.55 439.31C148.09 439.46 147.01 439.83 146.66 440.1C146.22 440.44 145.65 441.19 147.72 443.59C149.79 445.99 151.43 445.68 151.57 445.81C151.75 445.99 152.66 446.4 149.1 447.3C148.82 447.37 148.59 447.58 148.5 447.86C148.38 448.23 148.22 448.71 148.18 448.78C148.11 448.9 146.06 448.56 144.91 448.79C144.81 448.81 144.71 448.85 144.62 448.91C144.01 449.32 141.25 451.09 139.8 451C138.18 450.9 138.3 450.9 135.37 448.98C135.34 448.96 135.3 448.94 135.27 448.92C135.01 448.8 133.93 448.4 132.02 448.92C132 448.92 131.98 448.93 131.96 448.95C131.89 449 131.62 449.09 131.39 448.09C131.31 447.76 131.06 447.51 130.73 447.45C130.47 447.4 130.15 447.32 129.78 447.18C128.99 446.88 128.94 445.78 129.69 445.4C130.97 444.76 132.61 443.5 133.41 441.11C133.41 441.08 133.43 441.06 133.44 441.03C133.51 440.88 133.83 439.97 131.44 439.48C131.16 439.42 130.89 439.3 130.66 439.12C130.37 438.89 130.15 438.56 130.58 438.16C130.58 438.16 131.02 437.67 131.82 437.88C132.62 438.09 133.72 438.58 133.57 437.88L133.58 437.87Z" fill="black"/>
<path d="M88.7699 372.3H71.8899C70.1299 372.3 68.6899 373.74 68.6899 375.5V385.14C68.6899 386.9 70.1299 388.34 71.8899 388.34H88.7699C90.5299 388.34 91.9699 386.9 91.9699 385.14V375.5C91.9699 373.74 90.5299 372.3 88.7699 372.3ZM78.0099 383.82V376.86L84.0399 380.34L78.0099 383.81V383.82Z" fill="black" stroke="black" stroke-width="0.16" stroke-miterlimit="10"/>
<path d="M152.04 262.38C152.15 261.73 152.2 261.07 152.2 260.39C152.2 253.78 146.84 248.42 140.23 248.42C139.55 248.42 138.88 248.48 138.22 248.59C137.16 247.97 135.92 247.61 134.59 247.61C130.62 247.61 127.4 250.83 127.4 254.8C127.4 256.14 127.77 257.39 128.41 258.47C128.31 259.1 128.26 259.74 128.26 260.4C128.26 267.01 133.62 272.37 140.23 272.37C140.88 272.37 141.51 272.32 142.13 272.22C143.22 272.88 144.49 273.26 145.86 273.26C149.83 273.26 153.05 270.04 153.05 266.07C153.05 264.72 152.68 263.46 152.03 262.38H152.04ZM146.82 265.65C146.5 266.18 146.02 266.62 145.43 267.04C144.84 267.42 144.13 267.69 143.3 267.93C142.47 268.14 141.56 268.25 140.55 268.25C139.69 268.25 138.87 268.16 138.07 267.98C137.3 267.77 136.59 267.54 135.94 267.18C135.32 266.83 134.79 266.41 134.32 265.94C133.89 265.51 133.56 265.03 133.32 264.5C133.28 264.42 133.32 264.32 133.4 264.29L135.2 263.61L136.53 263.09C136.87 262.96 137.26 263.08 137.45 263.38C137.68 263.74 137.99 264.05 138.41 264.31H138.42C139.07 264.67 139.77 264.87 140.54 264.87C141.37 264.87 142.02 264.81 142.49 264.69C142.99 264.57 143.23 264.39 143.23 264.22C143.23 263.75 142.96 263.36 142.43 263.01C141.9 262.63 141.1 262.36 140.04 262.21C138.12 261.91 136.7 261.32 135.7 260.38C134.73 259.41 134.22 258.25 134.22 256.95C134.22 256.3 134.37 255.71 134.66 255.18C134.98 254.62 135.43 254.18 135.96 253.79C136.52 253.38 137.17 253.11 137.94 252.9C138.74 252.66 139.59 252.58 140.54 252.58C141.84 252.58 143.05 252.88 144.17 253.55C145.29 254.2 146.15 255.12 146.71 256.24V256.27C146.71 256.27 146.77 256.32 146.77 256.36C146.77 256.38 146.77 256.4 146.79 256.42C146.83 256.5 146.79 256.6 146.71 256.63L143.45 258.07C143.37 258.1 143.28 258.07 143.25 257.99C142.94 257.34 142.57 256.8 142.07 256.42C141.57 255.98 141.07 255.77 140.53 255.77C139.79 255.77 139.23 255.8 138.76 255.98C138.32 256.13 138.08 256.33 138.08 256.6C138.08 257.07 138.35 257.49 138.82 257.84C139.32 258.19 140.06 258.43 141.01 258.61C143.11 258.91 144.67 259.5 145.71 260.47C146.77 261.41 147.28 262.57 147.28 263.87C147.28 264.52 147.16 265.08 146.81 265.64L146.82 265.65Z" fill="black"/>
<rect width="40" height="40" transform="translate(120)" fill="#26ADE3"/>
<path d="M152.04 22.38C152.15 21.73 152.2 21.07 152.2 20.39C152.2 13.78 146.84 8.42 140.23 8.42C139.55 8.42 138.88 8.48 138.22 8.59C137.16 7.97 135.92 7.61 134.59 7.61C130.62 7.61 127.4 10.83 127.4 14.8C127.4 16.14 127.77 17.39 128.41 18.47C128.31 19.1 128.26 19.74 128.26 20.4C128.26 27.01 133.62 32.37 140.23 32.37C140.88 32.37 141.51 32.32 142.13 32.22C143.22 32.88 144.49 33.26 145.86 33.26C149.83 33.26 153.05 30.04 153.05 26.07C153.05 24.72 152.68 23.46 152.03 22.38H152.04ZM146.82 25.65C146.5 26.18 146.02 26.62 145.43 27.04C144.84 27.42 144.13 27.69 143.3 27.93C142.47 28.14 141.56 28.25 140.55 28.25C139.69 28.25 138.87 28.16 138.07 27.98C137.3 27.77 136.59 27.54 135.94 27.18C135.32 26.83 134.79 26.41 134.32 25.94C133.89 25.51 133.56 25.03 133.32 24.5C133.28 24.42 133.32 24.32 133.4 24.29L135.2 23.61L136.53 23.09C136.87 22.96 137.26 23.08 137.45 23.38C137.68 23.74 137.99 24.05 138.41 24.31H138.42C139.07 24.67 139.77 24.87 140.54 24.87C141.37 24.87 142.02 24.81 142.49 24.69C142.99 24.57 143.23 24.39 143.23 24.22C143.23 23.75 142.96 23.36 142.43 23.01C141.9 22.63 141.1 22.36 140.04 22.21C138.12 21.91 136.7 21.32 135.7 20.38C134.73 19.41 134.22 18.25 134.22 16.95C134.22 16.3 134.37 15.71 134.66 15.18C134.98 14.62 135.43 14.18 135.96 13.79C136.52 13.38 137.17 13.11 137.94 12.9C138.74 12.66 139.59 12.58 140.54 12.58C141.84 12.58 143.05 12.88 144.17 13.55C145.29 14.2 146.15 15.12 146.71 16.24V16.27C146.71 16.27 146.77 16.32 146.77 16.36C146.77 16.38 146.77 16.4 146.79 16.42C146.83 16.5 146.79 16.6 146.71 16.63L143.45 18.07C143.37 18.1 143.28 18.07 143.25 17.99C142.94 17.34 142.57 16.8 142.07 16.42C141.57 15.98 141.07 15.77 140.53 15.77C139.79 15.77 139.23 15.8 138.76 15.98C138.32 16.13 138.08 16.33 138.08 16.6C138.08 17.07 138.35 17.49 138.82 17.84C139.32 18.19 140.06 18.43 141.01 18.61C143.11 18.91 144.67 19.5 145.71 20.47C146.77 21.41 147.28 22.57 147.28 23.87C147.28 24.52 147.16 25.08 146.81 25.64L146.82 25.65Z" fill="white"/>
<path d="M74.11 272.24C74.11 272.24 73.79 269.29 74.01 268.33L74.22 266.56L74.74 264.14L75.42 261.66L75.84 260L76.05 259.08C76.05 259.08 75.45 258.44 75.49 256.71C75.53 254.98 76.5 253.78 76.5 253.78C76.5 253.78 76.85 253.38 76.98 253.31C77.11 253.25 77.52 252.85 78.41 252.88C79.3 252.91 79.7801 253.41 79.7801 253.41C79.7801 253.41 80.6 254.09 80.22 255.64C79.84 257.19 79.38 258.64 79.38 258.64L79.0301 260.02C79.0301 260.02 78.78 261.38 79.22 262.01C79.22 262.01 79.4 262.63 80.48 262.84C81.56 263.05 82.23 262.8 82.23 262.8C82.23 262.8 82.9201 262.61 83.4401 262.12C83.9601 261.63 84.03 261.57 84.09 261.46C84.15 261.35 84.8 260.53 84.98 260.03C85.16 259.53 85.38 259 85.38 258.96C85.38 258.92 85.7 257.82 85.68 257.71L85.74 257.32L85.84 256.51C85.84 256.51 85.8801 254.41 85.6201 253.8C85.3601 253.19 85.52 252.83 84.55 251.55C84.55 251.55 83.22 250.14 81.71 249.86C80.2 249.58 80.26 249.66 80.26 249.66C80.26 249.66 79.37 249.6 78.22 249.91C77.07 250.22 76.46 250.62 76.46 250.62C76.46 250.62 75.12 251.33 74.33 252.36C73.54 253.39 73.5501 253.51 73.5501 253.51C73.5501 253.51 73.12 254.27 72.9 255.3C72.68 256.33 72.79 257.17 72.79 257.17C72.79 257.17 72.75 257.85 73.15 258.5C73.55 259.15 73.7801 259.51 73.8001 259.72C73.8201 259.93 74.2001 260.5 73.4701 261.72C73.4701 261.72 72.7301 261.78 71.3101 260.62C69.8901 259.46 69.99 256.16 69.99 256.16C69.99 256.16 70.06 254.08 70.55 253.42C70.55 253.42 71.13 251.83 72.19 250.65C73.25 249.47 74.62 248.72 74.62 248.72C74.62 248.72 75.74 248.06 77.4 247.63C79.06 247.2 81.13 247.45 81.13 247.45C81.13 247.45 83.21 247.74 83.88 248.07C84.56 248.4 85.52 248.6 86.89 249.88C88.25 251.16 88.71 252.51 88.71 252.51C88.71 252.51 89.2901 253.68 89.2901 255.63C89.2901 257.58 88.99 258.76 88.99 258.76C88.99 258.76 88.53 260.63 87.76 261.86C86.99 263.09 86.35 263.61 86.35 263.61C86.35 263.61 85.6001 264.33 84.7901 264.68C83.9801 265.03 83.86 265.31 81.84 265.4C79.82 265.5 77.93 263.77 77.93 263.77C77.93 263.77 77.43 266.19 77.4 266.28C77.37 266.37 76.92 268.32 76.57 268.86C76.22 269.4 76.23 270.4 74.13 272.19L74.11 272.24Z" fill="black"/>
<path d="M141.35 319.34H133.6V322.2H137.83C137.09 323.76 135.52 324.84 133.71 324.84C131.19 324.84 129.13 322.74 129.13 320.17C129.13 318.92 129.61 317.74 130.48 316.86C131.34 315.98 132.49 315.5 133.71 315.5C134.78 315.5 135.78 315.87 136.61 316.56L138.57 314.22C137.21 313.08 135.48 312.45 133.7 312.45C131.66 312.45 129.74 313.26 128.29 314.72C126.85 316.18 126.06 318.12 126.06 320.18C126.06 324.44 129.49 327.91 133.7 327.91C137.91 327.91 141.33 324.44 141.33 320.18C141.33 320.06 141.33 319.93 141.33 319.81C141.34 319.71 141.35 319.62 141.35 319.52V319.35V319.34Z" fill="black"/>
<path d="M150.13 319.16V315.88H148.63V319.16H145.35V320.66H148.63V323.95H150.13V320.66H153.42V319.16H150.13Z" fill="black"/>
<path d="M20.36 434.81L24.57 434.84L24.6 438.68H20.36V445.04C20.36 445.04 20.27 446.2 20.65 446.73C21.03 447.26 21.45 447.49 21.95 447.58C22.45 447.67 23.75 447.58 24.3 447.23L25.43 450.37C25.43 450.37 24.54 451.53 21.95 451.71C19.35 451.89 18.06 451.03 18.06 451.03C18.06 451.03 16.57 450.46 15.53 448.19C15.53 448.19 15.14 447.29 15.06 446.01C14.98 444.73 15.03 438.65 15.03 438.65H12.41V435.36C12.41 435.36 14.46 434.71 15.48 433.12C16.5 431.53 16.77 430.41 16.92 429.05H20.35V434.81H20.36Z" fill="black"/>
<path d="M74.43 316.02H70.03V330.26H74.43V316.02Z" fill="black"/>
<path d="M74.6618 312.523C75.2113 311.196 74.5814 309.675 73.2547 309.126C71.9281 308.576 70.4072 309.206 69.8576 310.533C69.3081 311.859 69.9381 313.38 71.2648 313.93C72.5914 314.479 74.1123 313.849 74.6618 312.523Z" fill="black"/>
<path d="M86.35 315.65C86.35 315.65 83.5 315.16 81.64 317.64V316.03H77.25V330.27H81.64V321.66C81.94 320.38 82.81 319.09 85.23 319.73C85.23 319.73 86.58 319.87 86.56 323.12C86.54 326.37 86.54 330.28 86.54 330.28L90.98 330.26L91.02 322.43C91.02 322.43 91.42 315.7 86.35 315.66V315.65Z" fill="black"/>
<path d="M128.21 378.28L129.66 377.33C129.66 377.33 130.06 377.04 130.32 377.04C130.58 377.04 130.77 377.18 130.77 377.18C130.77 377.18 131.35 377.49 131.92 378.69C132.48 379.89 133.43 383.46 133.43 383.46L134.85 388.6C134.85 388.6 135.47 390.81 136.17 391.57C136.87 392.33 137.4 393.5 138.95 393.41C140.5 393.33 141.87 392.46 141.87 392.46C141.87 392.46 145.07 390.19 145.94 388.94C145.94 388.94 149.14 385.17 149.39 384.64C149.64 384.12 151.25 381.9 151.61 381.06C151.61 381.04 151.63 381.02 151.63 381C151.93 380.22 153.83 377.65 153.32 374.54C153.32 374.54 153.45 370.32 149.13 370.58C144.81 370.83 143.22 373.36 142.12 376.74C142.12 376.74 146.82 374.9 145.66 379.28C145.66 379.28 144.11 383.37 141.99 385.06C141.99 385.06 140.32 386.42 139.38 380.15L138.53 375.36C138.53 375.36 138.51 371.97 135.97 370.95C135.97 370.95 134.15 370.1 130.65 373.39L126.94 376.72L128.2 378.28H128.21Z" fill="black"/>
<rect width="40" height="40" transform="translate(0 120)" fill="#FFE812"/>
<path d="M20 125.625C11.0253 125.625 3.75012 131.361 3.75012 138.437C3.75012 143.012 6.79172 147.027 11.3669 149.293C11.118 150.152 9.7674 154.816 9.71364 155.182C9.71364 155.182 9.68132 155.458 9.85956 155.563C10.0378 155.668 10.2476 155.586 10.2476 155.586C10.7588 155.515 16.1762 151.709 17.1138 151.048C18.0504 151.181 19.0151 151.25 20 151.25C28.9748 151.25 36.25 145.514 36.25 138.438C36.25 131.361 28.9746 125.625 20 125.625V125.625Z" fill="black"/>
<path d="M11.0156 142.91C10.4987 142.91 10.0782 142.508 10.0782 142.015V136.445H8.61531C8.10795 136.445 7.69531 136.033 7.69531 135.527C7.69531 135.021 8.10811 134.609 8.61531 134.609H13.416C13.9233 134.609 14.336 135.021 14.336 135.527C14.336 136.033 13.9232 136.445 13.416 136.445H11.9531V142.015C11.9531 142.508 11.5326 142.91 11.0156 142.91V142.91ZM19.2363 142.898C18.8454 142.898 18.5462 142.739 18.4561 142.484L17.992 141.268H15.1332L14.6688 142.484C14.5788 142.739 14.28 142.898 13.8891 142.898C13.6835 142.898 13.4801 142.854 13.2931 142.768C13.0347 142.649 12.7862 142.321 13.0708 141.437L15.3134 135.535C15.4713 135.086 15.9512 134.623 16.5619 134.609C17.1742 134.623 17.654 135.086 17.8123 135.536L20.0539 141.436C20.3392 142.322 20.0907 142.65 19.8323 142.769C19.6452 142.854 19.4419 142.898 19.2363 142.898V142.898ZM17.499 139.608L16.5625 136.948L15.626 139.608H17.4988H17.499ZM21.5625 142.773C21.067 142.773 20.6641 142.388 20.6641 141.914V135.547C20.6641 135.03 21.0936 134.609 21.6211 134.609C22.1486 134.609 22.578 135.03 22.578 135.547V141.055H24.5702C25.0657 141.055 25.4686 141.44 25.4686 141.914C25.4686 142.388 25.0656 142.773 24.5702 142.773H21.5624H21.5625ZM26.771 142.898C26.254 142.898 25.8336 142.477 25.8336 141.96V135.547C25.8336 135.03 26.254 134.609 26.771 134.609C27.288 134.609 27.7084 135.03 27.7084 135.547V137.562L30.3241 134.946C30.4587 134.812 30.6435 134.738 30.8441 134.738C31.0782 134.738 31.3132 134.839 31.4892 135.014C31.6534 135.178 31.7515 135.39 31.7649 135.609C31.7785 135.83 31.7049 136.032 31.558 136.18L29.4216 138.316L31.7292 141.373C31.8798 141.571 31.9446 141.821 31.9092 142.067C31.8755 142.314 31.7444 142.536 31.5456 142.686C31.3835 142.809 31.1852 142.875 30.9817 142.875C30.6872 142.876 30.4094 142.738 30.2328 142.502L28.0342 139.589L27.7089 139.914V141.96C27.7083 142.478 27.2888 142.897 26.7712 142.898L26.771 142.898Z" fill="#FFE812"/>
<path fill-rule="evenodd" clip-rule="evenodd" d="M3.75012 380.437C3.75012 373.361 11.0253 367.625 20 367.625V367.625C28.9746 367.625 36.25 373.361 36.25 380.438C36.25 387.514 28.9748 393.25 20 393.25C19.0151 393.25 18.0504 393.181 17.1138 393.048C16.1762 393.709 10.7588 397.515 10.2476 397.586C10.2476 397.586 10.0378 397.668 9.85956 397.563C9.68132 397.458 9.71364 397.182 9.71364 397.182C9.7674 396.816 11.118 392.152 11.3669 391.293C6.79172 389.027 3.75012 385.012 3.75012 380.437ZM10.0782 384.015C10.0782 384.508 10.4987 384.91 11.0156 384.91C11.5326 384.91 11.9531 384.508 11.9531 384.015V378.445H13.416C13.9232 378.445 14.336 378.033 14.336 377.527C14.336 377.021 13.9233 376.609 13.416 376.609H8.61531C8.10811 376.609 7.69531 377.021 7.69531 377.527C7.69531 378.033 8.10795 378.445 8.61531 378.445H10.0782V384.015ZM18.4561 384.484C18.5462 384.739 18.8454 384.898 19.2363 384.898C19.4419 384.898 19.6452 384.854 19.8323 384.769C20.0907 384.65 20.3392 384.322 20.0539 383.436L17.8123 377.536C17.654 377.086 17.1742 376.623 16.5619 376.609C15.9512 376.623 15.4713 377.086 15.3134 377.535L13.0708 383.437C12.7862 384.321 13.0347 384.649 13.2931 384.768C13.4801 384.854 13.6835 384.898 13.8891 384.898C14.28 384.898 14.5788 384.739 14.6688 384.484L15.1332 383.268H17.992L18.4561 384.484ZM16.5625 378.948L17.499 381.608H17.4988H15.626L16.5625 378.948ZM20.6641 383.914C20.6641 384.388 21.067 384.773 21.5625 384.773H24.5702C25.0656 384.773 25.4686 384.388 25.4686 383.914C25.4686 383.44 25.0657 383.055 24.5702 383.055H22.578V377.547C22.578 377.03 22.1486 376.609 21.6211 376.609C21.0936 376.609 20.6641 377.03 20.6641 377.547V383.914ZM25.8336 383.96C25.8336 384.477 26.254 384.898 26.771 384.898L26.7712 384.898C27.2888 384.897 27.7083 384.478 27.7089 383.96V381.914L28.0342 381.589L30.2328 384.502C30.4094 384.738 30.6872 384.876 30.9817 384.875C31.1852 384.875 31.3835 384.809 31.5456 384.686C31.7444 384.536 31.8755 384.314 31.9092 384.067C31.9446 383.821 31.8798 383.571 31.7292 383.373L29.4216 380.316L31.558 378.18C31.7049 378.032 31.7785 377.83 31.7649 377.609C31.7515 377.39 31.6534 377.178 31.4892 377.014C31.3132 376.839 31.0782 376.738 30.8441 376.738C30.6435 376.738 30.4587 376.812 30.3241 376.946L27.7084 379.562V377.547C27.7084 377.03 27.288 376.609 26.771 376.609C26.254 376.609 25.8336 377.03 25.8336 377.547V383.96Z" fill="black"/>
<rect width="40" height="40" fill="#3A5A9B"/>
<path d="M25.78 7.69C25.78 7.69 21.74 7.23 20.37 7.86C20.22 7.93 20.06 8 19.9 8.06C19.44 8.25 18.46 8.8 17.69 10.26C17.69 10.26 17.13 11.41 17.17 13.2L17.15 16.15H13.53V20.35H17.14L17.16 31.09L21.44 31.12L21.47 20.36H25.1L25.65 16.13L21.47 16.16L21.49 13.03C21.49 13.03 21.51 11.38 23.68 11.42L25.75 11.44L25.77 7.69H25.78Z" fill="white"/>
<rect width="40" height="40" transform="translate(60 180)" fill="url(#paint0_linear_3209_26230)"/>
<path d="M84.77 188.94H74.92C71.55 188.94 68.8 191.68 68.8 195.06V205.16C68.8 208.53 71.54 211.28 74.92 211.28H84.77C88.14 211.28 90.89 208.54 90.89 205.16V195.06C90.89 191.69 88.15 188.94 84.77 188.94V188.94ZM89.05 205.16C89.05 207.52 87.13 209.44 84.77 209.44H74.92C72.56 209.44 70.64 207.52 70.64 205.16V195.06C70.64 192.7 72.56 190.78 74.92 190.78H84.77C87.13 190.78 89.05 192.7 89.05 195.06V205.16V205.16Z" fill="white"/>
<path d="M79.9401 194.62C76.8401 194.62 74.3301 197.14 74.3301 200.23C74.3301 203.32 76.8501 205.84 79.9401 205.84C83.0301 205.84 85.5501 203.32 85.5501 200.23C85.5501 197.14 83.0301 194.62 79.9401 194.62ZM79.9401 203.92C77.9101 203.92 76.2501 202.27 76.2501 200.23C76.2501 198.19 77.9001 196.54 79.9401 196.54C81.9801 196.54 83.6301 198.19 83.6301 200.23C83.6301 202.27 81.9801 203.92 79.9401 203.92Z" fill="white"/>
<path d="M85.9001 192.58C85.0901 192.58 84.4301 193.24 84.4301 194.05C84.4301 194.86 85.0901 195.52 85.9001 195.52C86.7101 195.52 87.3701 194.86 87.3701 194.05C87.3701 193.24 86.7101 192.58 85.9001 192.58Z" fill="white"/>
<rect width="40" height="40" transform="translate(0 60)" fill="#26ADE3"/>
<path d="M9.64001 86.57C9.64001 86.57 15.82 90.97 22.99 86.34C22.99 86.34 28.31 83.26 28.09 75.88C28.09 75.88 29.74 74.7 30.27 73.64C30.27 73.64 28.79 74.3 27.84 74.25C27.84 74.25 28.88 73.99 29.7 72.01C29.7 72.01 27.58 73.04 26.99 73.01C26.99 73.01 24.69 70.4 21.56 72.36C21.56 72.36 18.86 74.24 19.74 76.88C19.74 76.88 14.74 76.97 11.02 72.45C11.02 72.45 9.09001 75.66 12.26 78.08C12.26 78.08 11.52 78.17 10.41 77.58C10.41 77.58 10.35 80.99 13.74 81.76C13.74 81.76 13.11 82.09 11.98 81.86C11.98 81.86 12.29 84.57 15.83 84.8C15.83 84.8 13.77 86.83 9.65001 86.58L9.64001 86.57Z" fill="white"/>
<rect width="40" height="40" transform="translate(120 180)" fill="#F7F400"/>
<path d="M129.876 197.449C129.5 197.81 129.236 198.328 129.376 198.93C129.493 199.431 129.846 199.751 130.039 199.903L130.039 199.904L130.044 199.907C130.402 200.188 130.814 200.369 131.23 200.458L131.23 200.458L131.239 200.46C131.952 200.606 132.289 200.772 132.436 200.868C131.734 202.89 130.345 203.954 129.243 204.506L129.243 204.506L129.238 204.508C127.726 205.274 127.809 207.501 129.425 208.115L129.426 208.115C129.811 208.261 130.152 208.352 130.439 208.411C130.559 208.901 130.735 209.354 131.059 209.651C131.265 209.839 131.544 209.976 131.87 209.977C132.077 209.978 132.25 209.924 132.383 209.858C133.83 209.485 134.628 209.739 134.812 209.812C134.817 209.814 134.821 209.817 134.824 209.818L134.83 209.822C135.043 209.961 135.241 210.092 135.427 210.214C136.473 210.902 137.124 211.331 137.652 211.578C138.368 211.914 138.916 211.947 139.685 211.995L139.738 211.998C139.738 211.998 139.738 211.998 139.738 211.998C139.738 211.998 139.738 211.998 139.738 211.998C140.294 212.032 140.884 211.891 141.399 211.716C141.934 211.536 142.481 211.287 142.979 211.034C143.941 210.543 144.794 209.996 145.142 209.764C145.572 209.686 146.227 209.701 146.888 209.742C147.016 209.75 147.153 209.759 147.285 209.768C147.459 209.781 147.625 209.792 147.749 209.799C147.863 209.804 147.993 209.809 148.107 209.805C148.16 209.802 148.253 209.797 148.357 209.775C148.408 209.763 148.499 209.74 148.603 209.69C148.694 209.646 148.899 209.532 149.044 209.284L149.044 209.284L149.048 209.276C149.104 209.178 149.149 209.056 149.165 209.014C149.166 209.011 149.167 209.009 149.168 209.007C149.194 208.935 149.225 208.847 149.256 208.757C149.31 208.6 149.37 208.416 149.425 208.249C150.295 208.027 150.93 207.826 151.39 207.639C151.822 207.463 152.243 207.246 152.51 206.92C152.666 206.73 152.803 206.463 152.806 206.133C152.809 205.81 152.683 205.564 152.577 205.415C152.477 205.273 152.364 205.174 152.313 205.13C152.268 205.092 152.254 205.079 152.252 205.079L152.25 205.077C152.057 204.897 151.844 204.84 151.788 204.825L151.787 204.825C151.704 204.802 151.628 204.791 151.587 204.785C151.567 204.782 151.476 204.772 151.407 204.763C151.368 204.759 151.336 204.755 151.329 204.754C151.167 204.733 150.956 204.697 150.697 204.607C150.19 204.43 149.407 204.015 148.477 202.937C147.472 201.771 147.267 201.177 147.242 200.958C147.24 200.94 147.239 200.927 147.239 200.918L129.876 197.449ZM129.876 197.449C129.886 197.439 129.897 197.428 129.91 197.416C129.943 197.384 129.987 197.345 130.04 197.303C130.145 197.22 130.293 197.119 130.483 197.032C130.877 196.852 131.424 196.742 132.074 196.913C132.197 196.945 132.329 196.984 132.455 197.022C132.44 196.87 132.427 196.704 132.417 196.526C132.366 195.628 132.384 194.4 132.688 193.148C132.992 191.894 133.597 190.561 134.758 189.538C135.933 188.504 137.579 187.874 139.793 187.86C141.618 187.846 143.067 188.26 144.19 188.993C145.312 189.725 146.037 190.729 146.494 191.774C147.335 193.699 147.303 195.839 147.196 197.026C147.303 196.996 147.427 196.957 147.564 196.908L147.574 196.905L147.584 196.901L147.9 197.85C147.584 196.901 147.584 196.901 147.585 196.901L147.586 196.901L147.587 196.9L147.591 196.899L147.599 196.896L147.619 196.89C147.633 196.886 147.65 196.881 147.668 196.876C147.706 196.866 147.754 196.855 147.809 196.845C147.921 196.824 148.069 196.805 148.245 196.805C148.6 196.805 149.071 196.882 149.555 197.173L149.562 197.177L149.562 197.177C149.821 197.336 150.073 197.578 150.204 197.93C150.334 198.281 150.294 198.611 150.217 198.852C150.085 199.271 149.784 199.605 149.655 199.747L149.652 199.75L149.65 199.753C149.446 199.977 149.178 200.166 148.846 200.265C148.623 200.338 148.266 200.459 147.928 200.591C147.754 200.659 147.596 200.726 147.468 200.787C147.404 200.817 147.354 200.843 147.316 200.865C147.284 200.883 147.27 200.893 147.269 200.893L129.876 197.449ZM133.41 201.11C132.61 203.5 130.97 204.76 129.69 205.4C128.94 205.78 128.99 206.88 129.78 207.18C130.15 207.32 130.47 207.4 130.73 207.45C131.06 207.51 131.31 207.76 131.39 208.09C131.392 208.1 131.395 208.111 131.397 208.121C131.338 208.163 131.29 208.206 131.253 208.243L131.503 208.493C131.702 209.062 131.901 208.992 131.96 208.95C131.98 208.93 132 208.92 132.02 208.92C133.93 208.4 135.01 208.8 135.27 208.92C135.285 208.93 135.303 208.94 135.32 208.95C135.338 208.96 135.355 208.97 135.37 208.98C135.591 209.125 135.796 209.259 135.984 209.383C138.292 210.901 138.302 210.908 139.8 211C141.25 211.09 144.01 209.32 144.62 208.91C144.71 208.85 144.81 208.81 144.91 208.79C145.614 208.649 146.654 208.722 147.372 208.772C147.827 208.804 148.153 208.827 148.18 208.78C148.22 208.71 148.38 208.23 148.5 207.86L133.44 201.03C133.436 201.041 133.431 201.051 133.426 201.061C133.418 201.076 133.41 201.091 133.41 201.11ZM133.41 201.11H132.41C132.41 201.02 132.422 200.938 132.438 200.869L132.442 200.85C132.468 200.747 132.503 200.672 132.522 200.633L132.534 200.607C132.532 200.612 132.53 200.617 132.527 200.622C132.53 200.616 132.532 200.612 132.535 200.607C132.538 200.601 132.54 200.597 132.541 200.596C132.543 200.592 132.54 200.597 132.537 200.604C132.536 200.605 132.535 200.606 132.535 200.608C132.532 200.613 132.528 200.622 132.523 200.632C132.513 200.657 132.505 200.686 132.5 200.717C132.495 200.745 132.492 200.774 132.493 200.803L133.41 201.11ZM147.241 200.897C147.241 200.897 147.241 200.898 147.24 200.9C147.24 200.898 147.241 200.897 147.241 200.897ZM131.379 208.136C131.385 208.132 131.391 208.128 131.398 208.123C131.403 208.144 131.407 208.164 131.412 208.183L131.379 208.136Z" fill="white" stroke="black" stroke-width="2"/>
<rect width="40" height="40" transform="translate(60 120)" fill="#ED1F24"/>
<path d="M89.19 120H70.81C64.8398 120 60 124.84 60 130.81V149.19C60 155.16 64.8398 160 70.81 160H89.19C95.1602 160 100 155.16 100 149.19V130.81C100 124.84 95.1602 120 89.19 120Z" fill="#ED1F24"/>
<path d="M88.7699 132.3H71.8899C70.1299 132.3 68.6899 133.74 68.6899 135.5V145.14C68.6899 146.9 70.1299 148.34 71.8899 148.34H88.7699C90.5299 148.34 91.9699 146.9 91.9699 145.14V135.5C91.9699 133.74 90.5299 132.3 88.7699 132.3ZM78.0099 143.82V136.86L84.0399 140.34L78.0099 143.81V143.82Z" fill="white" stroke="white" stroke-width="0.16" stroke-miterlimit="10"/>
<rect width="40" height="40" transform="translate(60)" fill="#CD212A"/>
<path d="M74.11 32.24C74.11 32.24 73.79 29.29 74.01 28.33L74.22 26.56L74.74 24.14L75.42 21.66L75.84 20L76.05 19.08C76.05 19.08 75.45 18.44 75.49 16.71C75.53 14.98 76.5 13.78 76.5 13.78C76.5 13.78 76.85 13.38 76.98 13.31C77.11 13.25 77.52 12.85 78.41 12.88C79.3 12.91 79.7801 13.41 79.7801 13.41C79.7801 13.41 80.6 14.09 80.22 15.64C79.84 17.19 79.38 18.64 79.38 18.64L79.0301 20.02C79.0301 20.02 78.78 21.38 79.22 22.01C79.22 22.01 79.4 22.63 80.48 22.84C81.56 23.05 82.23 22.8 82.23 22.8C82.23 22.8 82.9201 22.61 83.4401 22.12C83.9601 21.63 84.03 21.57 84.09 21.46C84.15 21.35 84.8 20.53 84.98 20.03C85.16 19.53 85.38 19 85.38 18.96C85.38 18.92 85.7 17.82 85.68 17.71L85.74 17.32L85.84 16.51C85.84 16.51 85.8801 14.41 85.6201 13.8C85.3601 13.19 85.52 12.83 84.55 11.55C84.55 11.55 83.22 10.14 81.71 9.86002C80.2 9.58002 80.26 9.66 80.26 9.66C80.26 9.66 79.37 9.6 78.22 9.91C77.07 10.22 76.46 10.62 76.46 10.62C76.46 10.62 75.12 11.33 74.33 12.36C73.54 13.39 73.5501 13.51 73.5501 13.51C73.5501 13.51 73.12 14.27 72.9 15.3C72.68 16.33 72.79 17.17 72.79 17.17C72.79 17.17 72.75 17.85 73.15 18.5C73.55 19.15 73.7801 19.51 73.8001 19.72C73.8201 19.93 74.2001 20.5 73.4701 21.72C73.4701 21.72 72.7301 21.78 71.3101 20.62C69.8901 19.46 69.99 16.16 69.99 16.16C69.99 16.16 70.06 14.08 70.55 13.42C70.55 13.42 71.13 11.83 72.19 10.65C73.25 9.47 74.62 8.72 74.62 8.72C74.62 8.72 75.74 8.06001 77.4 7.63001C79.06 7.20001 81.13 7.45001 81.13 7.45001C81.13 7.45001 83.21 7.74001 83.88 8.07001C84.56 8.40001 85.52 8.60001 86.89 9.88001C88.25 11.16 88.71 12.51 88.71 12.51C88.71 12.51 89.2901 13.68 89.2901 15.63C89.2901 17.58 88.99 18.76 88.99 18.76C88.99 18.76 88.53 20.63 87.76 21.86C86.99 23.09 86.35 23.61 86.35 23.61C86.35 23.61 85.6001 24.33 84.7901 24.68C83.9801 25.03 83.86 25.31 81.84 25.4C79.82 25.5 77.93 23.77 77.93 23.77C77.93 23.77 77.43 26.19 77.4 26.28C77.37 26.37 76.92 28.32 76.57 28.86C76.22 29.4 76.23 30.4 74.13 32.19L74.11 32.24Z" fill="white"/>
<rect width="40" height="40" transform="translate(120 60)" fill="#CD212A"/>
<path d="M141.35 79.34H133.6V82.2H137.83C137.09 83.76 135.52 84.84 133.71 84.84C131.19 84.84 129.13 82.74 129.13 80.17C129.13 78.92 129.61 77.74 130.48 76.86C131.34 75.98 132.49 75.5 133.71 75.5C134.78 75.5 135.78 75.87 136.61 76.56L138.57 74.22C137.21 73.08 135.48 72.45 133.7 72.45C131.66 72.45 129.74 73.26 128.29 74.72C126.85 76.18 126.06 78.12 126.06 80.18C126.06 84.44 129.49 87.91 133.7 87.91C137.91 87.91 141.33 84.44 141.33 80.18C141.33 80.06 141.33 79.93 141.33 79.81C141.34 79.71 141.35 79.62 141.35 79.52V79.35V79.34Z" fill="white"/>
<path d="M150.13 79.16V75.88H148.63V79.16H145.35V80.66H148.63V83.95H150.13V80.66H153.42V79.16H150.13Z" fill="white"/>
<rect width="40" height="40" transform="translate(0 180)" fill="#001935"/>
<path d="M20.36 194.81L24.57 194.84L24.6 198.68H20.36V205.04C20.36 205.04 20.27 206.2 20.65 206.73C21.03 207.26 21.45 207.49 21.95 207.58C22.45 207.67 23.75 207.58 24.3 207.23L25.43 210.37C25.43 210.37 24.54 211.53 21.95 211.71C19.35 211.89 18.06 211.03 18.06 211.03C18.06 211.03 16.57 210.46 15.53 208.19C15.53 208.19 15.14 207.29 15.06 206.01C14.98 204.73 15.03 198.65 15.03 198.65H12.41V195.36C12.41 195.36 14.46 194.71 15.48 193.12C16.5 191.53 16.77 190.41 16.92 189.05H20.35V194.81H20.36Z" fill="white"/>
<rect width="40" height="40" transform="translate(60 60)" fill="#146EB7"/>
<path d="M74.43 76.02H70.03V90.26H74.43V76.02Z" fill="white"/>
<path d="M74.6618 72.5228C75.2113 71.1961 74.5814 69.6752 73.2547 69.1257C71.9281 68.5762 70.4072 69.2062 69.8576 70.5328C69.3081 71.8595 69.9381 73.3804 71.2648 73.9299C72.5914 74.4794 74.1123 73.8494 74.6618 72.5228Z" fill="white"/>
<path d="M86.35 75.65C86.35 75.65 83.5 75.16 81.64 77.64V76.03H77.25V90.27H81.64V81.66C81.94 80.38 82.81 79.09 85.23 79.73C85.23 79.73 86.58 79.87 86.56 83.12C86.54 86.37 86.54 90.28 86.54 90.28L90.98 90.26L91.02 82.43C91.02 82.43 91.42 75.7 86.35 75.66V75.65Z" fill="white"/>
<rect width="40" height="40" transform="translate(120 120)" fill="#4AA9CE"/>
<path d="M128.21 138.28L129.66 137.33C129.66 137.33 130.06 137.04 130.32 137.04C130.58 137.04 130.77 137.18 130.77 137.18C130.77 137.18 131.35 137.49 131.92 138.69C132.48 139.89 133.43 143.46 133.43 143.46L134.85 148.6C134.85 148.6 135.47 150.81 136.17 151.57C136.87 152.33 137.4 153.5 138.95 153.41C140.5 153.33 141.87 152.46 141.87 152.46C141.87 152.46 145.07 150.19 145.94 148.94C145.94 148.94 149.14 145.17 149.39 144.64C149.64 144.12 151.25 141.9 151.61 141.06C151.61 141.04 151.63 141.02 151.63 141C151.93 140.22 153.83 137.65 153.32 134.54C153.32 134.54 153.45 130.32 149.13 130.58C144.81 130.83 143.22 133.36 142.12 136.74C142.12 136.74 146.82 134.9 145.66 139.28C145.66 139.28 144.11 143.37 141.99 145.06C141.99 145.06 140.32 146.42 139.38 140.15L138.53 135.36C138.53 135.36 138.51 131.97 135.97 130.95C135.97 130.95 134.15 130.1 130.65 133.39L126.94 136.72L128.2 138.28H128.21Z" fill="white"/>
<defs>
<linearGradient id="paint0_linear_3209_26230" x1="40" y1="0" x2="4.76837e-06" y2="40" gradientUnits="userSpaceOnUse">
<stop stop-color="#5C54A1"/>
<stop offset="0.505208" stop-color="#D5205B"/>
<stop offset="1" stop-color="#FBA921"/>
</linearGradient>
</defs>
</svg>
