<svg width="220" height="580" viewBox="0 0 220 580" fill="none" xmlns="http://www.w3.org/2000/svg">
<path fill-rule="evenodd" clip-rule="evenodd" d="M27.7057 5.62763C28.5426 6.46447 28.5426 7.82125 27.7057 8.65809L16.3638 20L27.7057 31.3419C28.5426 32.1787 28.5426 33.5355 27.7057 34.3724C26.8689 35.2092 25.5121 35.2092 24.6753 34.3724L11.8181 21.5152C10.9813 20.6784 10.9813 19.3216 11.8181 18.4848L24.6753 5.62763C25.5121 4.79079 26.8689 4.79079 27.7057 5.62763Z" fill="black"/>
<path fill-rule="evenodd" clip-rule="evenodd" d="M146.999 6.33474C147.445 6.78105 147.445 7.50467 146.999 7.95098L135.657 19.2929C135.266 19.6834 135.266 20.3166 135.657 20.7071L146.999 32.049C147.445 32.4953 147.445 33.219 146.999 33.6653C146.552 34.1116 145.829 34.1116 145.382 33.6653L132.525 20.8081C132.079 20.3618 132.079 19.6382 132.525 19.1919L145.382 6.33474C145.829 5.88842 146.552 5.88842 146.999 6.33474Z" fill="black"/>
<path fill-rule="evenodd" clip-rule="evenodd" d="M35 260.25C35 259.215 34.1605 258.375 33.125 258.375H6.87502C5.83949 258.375 5.00002 259.215 5.00002 260.25C5.00002 261.286 5.83949 262.125 6.87502 262.125H33.125C34.1605 262.125 35 261.286 35 260.25Z" fill="black"/>
<path fill-rule="evenodd" clip-rule="evenodd" d="M15.7008 249.641C14.9686 248.786 13.7814 248.786 13.0492 249.641L5.54918 258.391C4.81695 259.245 4.81695 260.63 5.54918 261.484C6.28141 262.339 7.4686 262.339 8.20083 261.484L15.7008 252.734C16.4331 251.88 16.4331 250.495 15.7008 249.641Z" fill="black"/>
<path fill-rule="evenodd" clip-rule="evenodd" d="M5.54918 259.016C4.81695 259.87 4.81695 261.255 5.54918 262.109L13.0492 270.859C13.7814 271.714 14.9686 271.714 15.7008 270.859C16.4331 270.005 16.4331 268.62 15.7008 267.766L8.20083 259.016C7.4686 258.162 6.28141 258.162 5.54918 259.016Z" fill="black"/>
<path fill-rule="evenodd" clip-rule="evenodd" d="M133.808 250.291C134.142 249.903 134.608 249.903 134.942 250.291C135.353 250.771 135.353 251.604 134.942 252.084L128.692 259.375H153.125C153.608 259.375 154 259.767 154 260.25C154 260.733 153.608 261.125 153.125 261.125H128.692L134.942 268.417C135.353 268.896 135.353 269.729 134.942 270.209C134.608 270.597 134.142 270.597 133.808 270.209L126.308 261.459C126.096 261.21 125.978 260.846 126.003 260.46L126.008 260.389L126.003 260.319C126.001 260.296 126 260.273 126 260.25C126 260.227 126.001 260.204 126.003 260.182L126.008 260.111L126.003 260.04C125.978 259.654 126.096 259.29 126.308 259.041L133.808 250.291Z" fill="black"/>
<path fill-rule="evenodd" clip-rule="evenodd" d="M5 320.75C5 321.785 5.83947 322.625 6.875 322.625H33.125C34.1605 322.625 35 321.785 35 320.75C35 319.714 34.1605 318.875 33.125 318.875H6.875C5.83947 318.875 5 319.714 5 320.75Z" fill="black"/>
<path fill-rule="evenodd" clip-rule="evenodd" d="M24.2992 331.359C25.0314 332.214 26.2186 332.214 26.9508 331.359L34.4508 322.609C35.183 321.755 35.183 320.37 34.4508 319.516C33.7186 318.661 32.5314 318.661 31.7992 319.516L24.2992 328.266C23.5669 329.12 23.5669 330.505 24.2992 331.359Z" fill="black"/>
<path fill-rule="evenodd" clip-rule="evenodd" d="M34.4508 321.984C35.183 321.13 35.183 319.745 34.4508 318.891L26.9508 310.141C26.2186 309.286 25.0314 309.286 24.2992 310.141C23.5669 310.995 23.5669 312.38 24.2992 313.234L31.7992 321.984C32.5314 322.838 33.7186 322.838 34.4508 321.984Z" fill="black"/>
<path fill-rule="evenodd" clip-rule="evenodd" d="M146.192 330.709C145.858 331.097 145.392 331.097 145.058 330.709C144.647 330.229 144.647 329.396 145.058 328.916L151.308 321.625H126.875C126.392 321.625 126 321.233 126 320.75C126 320.267 126.392 319.875 126.875 319.875H151.308L145.058 312.583C144.647 312.104 144.647 311.271 145.058 310.791C145.392 310.403 145.858 310.403 146.192 310.791L153.692 319.541C153.904 319.79 154.022 320.154 153.997 320.54L153.992 320.611L153.997 320.681C153.999 320.704 154 320.727 154 320.75C154 320.773 153.999 320.796 153.997 320.818L153.992 320.889L153.997 320.96C154.022 321.346 153.904 321.71 153.692 321.959L146.192 330.709Z" fill="black"/>
<path fill-rule="evenodd" clip-rule="evenodd" d="M80.2502 245C79.2147 245 78.3752 245.839 78.3752 246.875L78.3752 273.125C78.3752 274.161 79.2147 275 80.2502 275C81.2858 275 82.1252 274.161 82.1252 273.125L82.1252 246.875C82.1252 245.839 81.2858 245 80.2502 245Z" fill="black"/>
<path fill-rule="evenodd" clip-rule="evenodd" d="M69.6407 264.299C68.7864 265.031 68.7864 266.219 69.6407 266.951L78.3907 274.451C79.245 275.183 80.63 275.183 81.4843 274.451C82.3386 273.719 82.3386 272.531 81.4843 271.799L72.7343 264.299C71.88 263.567 70.495 263.567 69.6407 264.299Z" fill="black"/>
<path fill-rule="evenodd" clip-rule="evenodd" d="M79.0159 274.451C79.8702 275.183 81.2553 275.183 82.1095 274.451L90.8595 266.951C91.7138 266.219 91.7138 265.031 90.8595 264.299C90.0053 263.567 88.6202 263.567 87.7659 264.299L79.0159 271.799C78.1617 272.531 78.1617 273.719 79.0159 274.451Z" fill="black"/>
<path fill-rule="evenodd" clip-rule="evenodd" d="M190.291 266.192C189.903 265.858 189.903 265.392 190.291 265.058C190.771 264.647 191.604 264.647 192.084 265.058L199.375 271.308L199.375 246.875C199.375 246.392 199.767 246 200.25 246C200.733 246 201.125 246.392 201.125 246.875L201.125 271.308L208.417 265.058C208.897 264.647 209.729 264.647 210.209 265.058C210.597 265.392 210.597 265.858 210.209 266.192L201.459 273.692C201.21 273.904 200.846 274.022 200.46 273.997L200.389 273.992L200.319 273.997C200.296 273.999 200.273 274 200.25 274C200.227 274 200.204 273.999 200.182 273.997L200.111 273.992L200.04 273.997C199.654 274.022 199.29 273.904 199.041 273.692L190.291 266.192Z" fill="black"/>
<path fill-rule="evenodd" clip-rule="evenodd" d="M95 320.75C95 319.714 94.1605 318.875 93.125 318.875L66.875 318.875C65.8395 318.875 65 319.714 65 320.75C65 321.786 65.8395 322.625 66.875 322.625L93.125 322.625C94.1605 322.625 95 321.786 95 320.75Z" fill="black"/>
<path fill-rule="evenodd" clip-rule="evenodd" d="M75.7008 310.141C74.9686 309.286 73.7814 309.286 73.0492 310.141L65.5492 318.891C64.817 319.745 64.817 321.13 65.5492 321.984C66.2814 322.838 67.4686 322.838 68.2008 321.984L75.7008 313.234C76.4331 312.38 76.4331 310.995 75.7008 310.141Z" fill="black"/>
<path fill-rule="evenodd" clip-rule="evenodd" d="M65.5492 319.516C64.8169 320.37 64.817 321.755 65.5492 322.609L73.0492 331.359C73.7814 332.214 74.9686 332.214 75.7008 331.359C76.4331 330.505 76.4331 329.12 75.7008 328.266L68.2008 319.516C67.4686 318.661 66.2814 318.661 65.5492 319.516Z" fill="black"/>
<path fill-rule="evenodd" clip-rule="evenodd" d="M84.4538 331.589C83.6452 330.942 83.5141 329.762 84.161 328.953L90.7239 320.75L84.161 312.546C83.5141 311.737 83.6452 310.558 84.4538 309.911C85.2624 309.264 86.4423 309.395 87.0892 310.203L94.5892 319.578L94.5892 321.921L87.0892 331.296C86.4423 332.105 85.2624 332.236 84.4538 331.589Z" fill="black"/>
<path fill-rule="evenodd" clip-rule="evenodd" d="M194.942 330.708C194.608 331.097 194.142 331.097 193.808 330.708L186.308 321.959C186.096 321.71 185.978 321.346 186.003 320.96L186.003 320.819C186.001 320.796 186 320.773 186 320.75C186 320.727 186.001 320.704 186.003 320.681L186.003 320.54C185.978 320.154 186.096 319.79 186.308 319.541L193.808 310.791C194.142 310.403 194.608 310.403 194.942 310.791C195.353 311.271 195.353 312.104 194.942 312.583L190.107 318.224L190.866 319.875L209.224 319.875L210.005 318.25L204.942 311.921C204.64 311.544 204.701 310.993 205.079 310.692C205.456 310.39 206.006 310.451 206.308 310.828L213.809 320.204C213.929 320.354 214 320.542 214 320.75C214 320.961 213.926 321.153 213.802 321.304L206.308 330.671C206.006 331.049 205.456 331.11 205.079 330.808C204.701 330.506 204.64 329.955 204.942 329.578L210.005 323.25L209.224 321.625L190.866 321.625L190.107 323.276L194.942 328.916C195.353 329.396 195.353 330.229 194.942 330.708Z" fill="black"/>
<path fill-rule="evenodd" clip-rule="evenodd" d="M80.25 395C81.2855 395 82.125 394.161 82.125 393.125L82.125 366.875C82.125 365.839 81.2855 365 80.25 365C79.2145 365 78.375 365.839 78.375 366.875L78.375 393.125C78.375 394.161 79.2145 395 80.25 395Z" fill="black"/>
<path fill-rule="evenodd" clip-rule="evenodd" d="M90.8594 375.701C91.7137 374.969 91.7137 373.781 90.8594 373.049L82.1094 365.549C81.2552 364.817 79.8701 364.817 79.0158 365.549C78.1616 366.281 78.1616 367.469 79.0158 368.201L87.7658 375.701C88.6201 376.433 90.0051 376.433 90.8594 375.701Z" fill="black"/>
<path fill-rule="evenodd" clip-rule="evenodd" d="M81.4843 365.549C80.63 364.817 79.245 364.817 78.3907 365.549L69.6407 373.049C68.7864 373.781 68.7864 374.969 69.6407 375.701C70.495 376.433 71.88 376.433 72.7343 375.701L81.4843 368.201C82.3386 367.469 82.3386 366.281 81.4843 365.549Z" fill="black"/>
<path fill-rule="evenodd" clip-rule="evenodd" d="M69.4111 384.454C70.058 383.645 71.2379 383.514 72.0465 384.161L80.2502 390.724L88.4539 384.161C89.2625 383.514 90.4424 383.645 91.0893 384.454C91.7362 385.262 91.6051 386.442 90.7965 387.089L81.4215 394.589L79.0789 394.589L69.7039 387.089C68.8953 386.442 68.7642 385.262 69.4111 384.454Z" fill="black"/>
<path fill-rule="evenodd" clip-rule="evenodd" d="M190.292 374.942C189.903 374.608 189.903 374.142 190.292 373.808L199.042 366.308C199.29 366.096 199.654 365.978 200.04 366.003L200.181 366.003C200.204 366.001 200.227 366 200.25 366C200.273 366 200.296 366.001 200.319 366.003L200.46 366.003C200.846 365.978 201.21 366.096 201.459 366.308L210.209 373.808C210.597 374.142 210.597 374.608 210.209 374.942C209.729 375.353 208.896 375.353 208.417 374.942L202.776 370.107L201.125 370.866L201.125 389.224L202.75 390.005L209.079 384.942C209.456 384.64 210.007 384.701 210.308 385.078C210.61 385.456 210.549 386.006 210.172 386.308L200.796 393.809C200.646 393.929 200.458 394 200.25 394C200.039 394 199.848 393.926 199.696 393.803L190.329 386.308C189.951 386.006 189.89 385.456 190.192 385.078C190.494 384.701 191.044 384.64 191.422 384.942L197.75 390.005L199.375 389.224L199.375 370.866L197.724 370.107L192.084 374.942C191.604 375.353 190.771 375.353 190.292 374.942Z" fill="black"/>
<path fill-rule="evenodd" clip-rule="evenodd" d="M20.7498 395C21.7853 395 22.6248 394.161 22.6248 393.125L22.6248 366.875C22.6248 365.839 21.7853 365 20.7498 365C19.7142 365 18.8748 365.839 18.8748 366.875L18.8748 393.125C18.8748 394.161 19.7142 395 20.7498 395Z" fill="black"/>
<path fill-rule="evenodd" clip-rule="evenodd" d="M31.3593 375.701C32.2136 374.969 32.2136 373.781 31.3593 373.049L22.6093 365.549C21.755 364.817 20.37 364.817 19.5157 365.549C18.6614 366.281 18.6614 367.469 19.5157 368.201L28.2657 375.701C29.12 376.433 30.505 376.433 31.3593 375.701Z" fill="black"/>
<path fill-rule="evenodd" clip-rule="evenodd" d="M21.9841 365.549C21.1298 364.817 19.7447 364.817 18.8905 365.549L10.1405 373.049C9.2862 373.781 9.2862 374.969 10.1405 375.701C10.9947 376.433 12.3798 376.433 13.2341 375.701L21.9841 368.201C22.8383 367.469 22.8383 366.281 21.9841 365.549Z" fill="black"/>
<path fill-rule="evenodd" clip-rule="evenodd" d="M150.709 373.808C151.097 374.142 151.097 374.608 150.709 374.942C150.229 375.353 149.396 375.353 148.916 374.942L141.625 368.692L141.625 393.125C141.625 393.608 141.233 394 140.75 394C140.267 394 139.875 393.608 139.875 393.125L139.875 368.692L132.583 374.942C132.103 375.353 131.271 375.353 130.791 374.942C130.403 374.608 130.403 374.142 130.791 373.808L139.541 366.308C139.79 366.096 140.154 365.978 140.54 366.003L140.611 366.008L140.681 366.003C140.704 366.001 140.727 366 140.75 366C140.773 366 140.796 366.001 140.818 366.003L140.889 366.008L140.96 366.003C141.346 365.978 141.71 366.096 141.959 366.308L150.709 373.808Z" fill="black"/>
<path fill-rule="evenodd" clip-rule="evenodd" d="M30 440C30 439.31 29.4404 438.75 28.75 438.75L11.25 438.75C10.5596 438.75 10 439.31 10 440C10 440.69 10.5596 441.25 11.25 441.25L28.75 441.25C29.4404 441.25 30 440.69 30 440Z" fill="black"/>
<path fill-rule="evenodd" clip-rule="evenodd" d="M17.1339 432.927C16.6457 432.358 15.8543 432.358 15.3661 432.927L10.3661 438.76C9.87796 439.33 9.87796 440.253 10.3661 440.823C10.8543 441.392 11.6457 441.392 12.1339 440.823L17.1339 434.99C17.622 434.42 17.622 433.497 17.1339 432.927Z" fill="black"/>
<path fill-rule="evenodd" clip-rule="evenodd" d="M10.3661 439.177C9.87796 439.747 9.87796 440.67 10.3661 441.24L15.3661 447.073C15.8543 447.642 16.6457 447.642 17.1339 447.073C17.622 446.503 17.622 445.58 17.1339 445.011L12.1339 439.177C11.6457 438.608 10.8543 438.608 10.3661 439.177Z" fill="black"/>
<path fill-rule="evenodd" clip-rule="evenodd" d="M20 452.5C26.9036 452.5 32.5 446.904 32.5 440C32.5 433.096 26.9036 427.5 20 427.5C13.0964 427.5 7.5 433.096 7.5 440C7.5 446.904 13.0964 452.5 20 452.5ZM20 455C28.2843 455 35 448.284 35 440C35 431.716 28.2843 425 20 425C11.7157 425 5 431.716 5 440C5 448.284 11.7157 455 20 455Z" fill="black"/>
<path fill-rule="evenodd" clip-rule="evenodd" d="M80.0001 430C79.3098 430 78.7501 430.56 78.7501 431.25L78.7501 448.75C78.7501 449.44 79.3098 450 80.0001 450C80.6905 450 81.2501 449.44 81.2501 448.75L81.2501 431.25C81.2501 430.56 80.6905 430 80.0001 430Z" fill="black"/>
<path fill-rule="evenodd" clip-rule="evenodd" d="M72.9271 442.866C72.3576 443.354 72.3576 444.146 72.9271 444.634L78.7605 449.634C79.33 450.122 80.2533 450.122 80.8229 449.634C81.3924 449.146 81.3924 448.354 80.8229 447.866L74.9895 442.866C74.42 442.378 73.4967 442.378 72.9271 442.866Z" fill="black"/>
<path fill-rule="evenodd" clip-rule="evenodd" d="M79.1773 449.634C79.7468 450.122 80.6701 450.122 81.2397 449.634L87.073 444.634C87.6425 444.146 87.6425 443.354 87.073 442.866C86.5035 442.378 85.5801 442.378 85.0106 442.866L79.1773 447.866C78.6077 448.354 78.6077 449.146 79.1773 449.634Z" fill="black"/>
<path fill-rule="evenodd" clip-rule="evenodd" d="M92.5 440C92.5 433.096 86.9036 427.5 80 427.5C73.0964 427.5 67.5 433.096 67.5 440C67.5 446.904 73.0964 452.5 80 452.5C86.9036 452.5 92.5 446.904 92.5 440ZM95 440C95 431.716 88.2843 425 80 425C71.7157 425 65 431.716 65 440C65 448.284 71.7157 455 80 455C88.2843 455 95 448.284 95 440Z" fill="black"/>
<path fill-rule="evenodd" clip-rule="evenodd" d="M92.5 500C92.5 493.096 86.9036 487.5 80 487.5C73.0964 487.5 67.5 493.096 67.5 500C67.5 506.904 73.0964 512.5 80 512.5C86.9036 512.5 92.5 506.904 92.5 500ZM95 500C95 491.716 88.2843 485 80 485C71.7157 485 65 491.716 65 500C65 508.284 71.7157 515 80 515C88.2843 515 95 508.284 95 500Z" fill="black"/>
<path fill-rule="evenodd" clip-rule="evenodd" d="M70.625 499.531C70.625 500.178 71.1497 500.703 71.7969 500.703H88.2031C88.8503 500.703 89.375 500.178 89.375 499.531C89.375 498.884 88.8503 498.359 88.2031 498.359H71.7969C71.1497 498.359 70.625 498.884 70.625 499.531Z" fill="black"/>
<path fill-rule="evenodd" clip-rule="evenodd" d="M82.687 506.162C83.1446 506.696 83.8866 506.696 84.3443 506.162L89.0318 500.693C89.4894 500.159 89.4894 499.294 89.0318 498.76C88.5741 498.226 87.8321 498.226 87.3745 498.76L82.687 504.229C82.2293 504.762 82.2293 505.628 82.687 506.162Z" fill="black"/>
<path fill-rule="evenodd" clip-rule="evenodd" d="M89.0318 500.303C89.4894 499.769 89.4894 498.903 89.0318 498.369L84.3443 492.9C83.8866 492.366 83.1446 492.366 82.687 492.9C82.2293 493.434 82.2293 494.3 82.687 494.834L87.3745 500.303C87.8321 500.837 88.5741 500.837 89.0318 500.303Z" fill="black"/>
<path fill-rule="evenodd" clip-rule="evenodd" d="M77.2165 492.757C77.7219 493.161 77.8038 493.899 77.3995 494.404L73.2976 499.531L77.3995 504.659C77.8038 505.164 77.7219 505.901 77.2165 506.306C76.7111 506.71 75.9736 506.628 75.5693 506.123L70.8818 500.263V498.799L75.5693 492.94C75.9736 492.434 76.7111 492.353 77.2165 492.757Z" fill="black"/>
<path fill-rule="evenodd" clip-rule="evenodd" d="M80 572.5C86.9036 572.5 92.5 566.904 92.5 560C92.5 553.096 86.9036 547.5 80 547.5C73.0964 547.5 67.5 553.096 67.5 560C67.5 566.904 73.0964 572.5 80 572.5ZM80 575C88.2843 575 95 568.284 95 560C95 551.716 88.2843 545 80 545C71.7157 545 65 551.716 65 560C65 568.284 71.7157 575 80 575Z" fill="black"/>
<path fill-rule="evenodd" clip-rule="evenodd" d="M80.4689 550.625C79.8217 550.625 79.297 551.15 79.297 551.797L79.297 568.203C79.297 568.85 79.8217 569.375 80.4689 569.375C81.1161 569.375 81.6407 568.85 81.6407 568.203L81.6407 551.797C81.6407 551.15 81.1161 550.625 80.4689 550.625Z" fill="black"/>
<path fill-rule="evenodd" clip-rule="evenodd" d="M73.8379 562.687C73.304 563.145 73.304 563.887 73.8379 564.344L79.3067 569.032C79.8406 569.489 80.7063 569.489 81.2402 569.032C81.7741 568.574 81.7741 567.832 81.2402 567.374L75.7714 562.687C75.2375 562.229 74.3719 562.229 73.8379 562.687Z" fill="black"/>
<path fill-rule="evenodd" clip-rule="evenodd" d="M79.6974 569.032C80.2314 569.489 81.097 569.489 81.6309 569.032L87.0997 564.344C87.6336 563.887 87.6336 563.145 87.0997 562.687C86.5658 562.229 85.7001 562.229 85.1662 562.687L79.6974 567.374C79.1635 567.832 79.1635 568.574 79.6974 569.032Z" fill="black"/>
<path fill-rule="evenodd" clip-rule="evenodd" d="M87.2432 557.216C86.8389 557.722 86.1014 557.804 85.596 557.399L80.4687 553.298L75.3414 557.399C74.836 557.804 74.0986 557.722 73.6943 557.216C73.29 556.711 73.3719 555.974 73.8773 555.569L79.7366 550.882L81.2008 550.882L87.0601 555.569C87.5655 555.974 87.6475 556.711 87.2432 557.216Z" fill="black"/>
<path fill-rule="evenodd" clip-rule="evenodd" d="M19.9999 570C20.6902 570 21.2499 569.44 21.2499 568.75L21.2499 551.25C21.2499 550.56 20.6902 550 19.9999 550C19.3095 550 18.7499 550.56 18.7499 551.25L18.7499 568.75C18.7499 569.44 19.3095 570 19.9999 570Z" fill="black"/>
<path fill-rule="evenodd" clip-rule="evenodd" d="M27.0729 557.134C27.6424 556.646 27.6424 555.854 27.0729 555.366L21.2395 550.366C20.67 549.878 19.7467 549.878 19.1771 550.366C18.6076 550.854 18.6076 551.646 19.1771 552.134L25.0105 557.134C25.58 557.622 26.5033 557.622 27.0729 557.134Z" fill="black"/>
<path fill-rule="evenodd" clip-rule="evenodd" d="M20.8227 550.366C20.2532 549.878 19.3299 549.878 18.7603 550.366L12.927 555.366C12.3575 555.854 12.3575 556.646 12.927 557.134C13.4965 557.622 14.4199 557.622 14.9894 557.134L20.8227 552.134C21.3923 551.646 21.3923 550.854 20.8227 550.366Z" fill="black"/>
<path fill-rule="evenodd" clip-rule="evenodd" d="M7.5 560C7.5 566.904 13.0964 572.5 20 572.5C26.9036 572.5 32.5 566.904 32.5 560C32.5 553.096 26.9036 547.5 20 547.5C13.0964 547.5 7.5 553.096 7.5 560ZM5 560C5 568.284 11.7157 575 20 575C28.2843 575 35 568.284 35 560C35 551.716 28.2843 545 20 545C11.7157 545 5 551.716 5 560Z" fill="black"/>
<path fill-rule="evenodd" clip-rule="evenodd" d="M10 500C10 500.69 10.5596 501.25 11.25 501.25H28.75C29.4404 501.25 30 500.69 30 500C30 499.31 29.4404 498.75 28.75 498.75H11.25C10.5596 498.75 10 499.31 10 500Z" fill="black"/>
<path fill-rule="evenodd" clip-rule="evenodd" d="M22.8661 507.073C23.3543 507.642 24.1457 507.642 24.6339 507.073L29.6339 501.24C30.122 500.67 30.122 499.747 29.6339 499.177C29.1457 498.608 28.3543 498.608 27.8661 499.177L22.8661 505.01C22.378 505.58 22.378 506.503 22.8661 507.073Z" fill="black"/>
<path fill-rule="evenodd" clip-rule="evenodd" d="M29.6339 500.823C30.122 500.253 30.122 499.33 29.6339 498.76L24.6339 492.927C24.1457 492.358 23.3543 492.358 22.8661 492.927C22.378 493.497 22.378 494.42 22.8661 494.989L27.8661 500.823C28.3543 501.392 29.1457 501.392 29.6339 500.823Z" fill="black"/>
<path fill-rule="evenodd" clip-rule="evenodd" d="M20 487.5C13.0964 487.5 7.5 493.096 7.5 500C7.5 506.904 13.0964 512.5 20 512.5C26.9036 512.5 32.5 506.904 32.5 500C32.5 493.096 26.9036 487.5 20 487.5ZM20 485C11.7157 485 5 491.716 5 500C5 508.284 11.7157 515 20 515C28.2843 515 35 508.284 35 500C35 491.716 28.2843 485 20 485Z" fill="black"/>
<path fill-rule="evenodd" clip-rule="evenodd" d="M11.8181 65.6276C10.9812 66.4645 10.9812 67.8212 11.8181 68.6581L23.16 80L11.8181 91.3419C10.9812 92.1788 10.9812 93.5355 11.8181 94.3724C12.6549 95.2092 14.0117 95.2092 14.8485 94.3724L27.7057 81.5152C28.5425 80.6784 28.5425 79.3216 27.7057 78.4848L14.8485 65.6276C14.0117 64.7908 12.6549 64.7908 11.8181 65.6276Z" fill="black"/>
<path fill-rule="evenodd" clip-rule="evenodd" d="M132.525 66.3347C132.079 66.781 132.079 67.5047 132.525 67.951L143.867 79.2929C144.258 79.6834 144.258 80.3166 143.867 80.7071L132.525 92.049C132.079 92.4953 132.079 93.219 132.525 93.6653L131.818 94.3724L132.525 93.6653C132.971 94.1116 133.695 94.1116 134.141 93.6653L134.849 94.3724L134.141 93.6653L146.999 80.8081C147.445 80.3618 147.445 79.6382 146.999 79.1919L134.141 66.3347C133.695 65.8884 132.971 65.8884 132.525 66.3347Z" fill="black"/>
<path fill-rule="evenodd" clip-rule="evenodd" d="M34.1343 147.944C33.2975 148.781 31.9407 148.781 31.1039 147.944L19.762 136.602L8.42005 147.944C7.58321 148.781 6.22643 148.781 5.38959 147.944C4.55275 147.107 4.55275 145.75 5.38959 144.913L18.2467 132.056C19.0836 131.219 20.4404 131.219 21.2772 132.056L34.1343 144.913C34.9712 145.75 34.9712 147.107 34.1343 147.944Z" fill="black"/>
<path fill-rule="evenodd" clip-rule="evenodd" d="M153.427 147.237C152.981 147.683 152.257 147.683 151.811 147.237L140.469 135.895C140.079 135.504 139.445 135.504 139.055 135.895L127.713 147.237C127.267 147.683 126.543 147.683 126.097 147.237C125.65 146.79 125.65 146.067 126.097 145.62L138.954 132.763C139.4 132.317 140.124 132.317 140.57 132.763L153.427 145.62C153.874 146.067 153.874 146.79 153.427 147.237Z" fill="black"/>
<path fill-rule="evenodd" clip-rule="evenodd" d="M5.38959 192.056C6.22643 191.219 7.58321 191.219 8.42005 192.056L19.762 203.398L31.1039 192.056C31.9407 191.219 33.2975 191.219 34.1343 192.056C34.9712 192.893 34.9712 194.25 34.1343 195.087L21.2772 207.944C20.4404 208.781 19.0836 208.781 18.2467 207.944L5.38959 195.087C4.55275 194.25 4.55275 192.893 5.38959 192.056Z" fill="black"/>
<path fill-rule="evenodd" clip-rule="evenodd" d="M126.097 192.763C126.543 192.317 127.267 192.317 127.713 192.763L139.055 204.105C139.445 204.496 140.079 204.496 140.469 204.105L151.811 192.763C152.257 192.317 152.981 192.317 153.427 192.763C153.874 193.21 153.874 193.933 153.427 194.38L140.57 207.237C140.124 207.683 139.4 207.683 138.954 207.237L126.097 194.38C125.65 193.933 125.65 193.21 126.097 192.763Z" fill="black"/>
<path fill-rule="evenodd" clip-rule="evenodd" d="M81.039 5.62763C81.8758 6.46447 81.8758 7.82125 81.039 8.65809L69.6971 20L81.039 31.3419C81.8758 32.1788 81.8758 33.5355 81.039 34.3724C80.2022 35.2092 78.8454 35.2092 78.0085 34.3724L65.1514 21.5152C64.3146 20.6784 64.3146 19.3216 65.1514 18.4848L78.0085 5.62763C78.8454 4.79079 80.2022 4.79079 81.039 5.62763Z" fill="black"/>
<path fill-rule="evenodd" clip-rule="evenodd" d="M94.3724 5.62763C95.2092 6.46447 95.2092 7.82125 94.3724 8.65809L83.0305 20L94.3724 31.3419C95.2092 32.1788 95.2092 33.5355 94.3724 34.3724C93.5355 35.2092 92.1788 35.2092 91.3419 34.3724L78.4848 21.5152C77.6479 20.6784 77.6479 19.3216 78.4848 18.4848L91.3419 5.62763C92.1788 4.79079 93.5355 4.79079 94.3724 5.62763Z" fill="black"/>
<path fill-rule="evenodd" clip-rule="evenodd" d="M200.332 6.33474C200.778 6.78105 200.778 7.50467 200.332 7.95098L188.99 19.2929C188.599 19.6834 188.599 20.3166 188.99 20.7071L200.332 32.049C200.778 32.4953 200.778 33.219 200.332 33.6653C199.885 34.1116 199.162 34.1116 198.716 33.6653L185.858 20.8081C185.412 20.3618 185.412 19.6382 185.858 19.1919L198.716 6.33473C199.162 5.88842 199.885 5.88842 200.332 6.33474Z" fill="black"/>
<path fill-rule="evenodd" clip-rule="evenodd" d="M213.665 6.33474C214.111 6.78105 214.111 7.50467 213.665 7.95098L202.323 19.2929C201.933 19.6834 201.933 20.3166 202.323 20.7071L213.665 32.049C214.111 32.4953 214.111 33.219 213.665 33.6653C213.219 34.1116 212.495 34.1116 212.049 33.6653L199.192 20.8081C198.745 20.3618 198.745 19.6382 199.192 19.1919L212.049 6.33473C212.495 5.88842 213.219 5.88842 213.665 6.33474Z" fill="black"/>
<path fill-rule="evenodd" clip-rule="evenodd" d="M78.4848 65.6276C77.648 66.4645 77.648 67.8212 78.4848 68.6581L89.8267 80L78.4848 91.3419C77.648 92.1788 77.648 93.5355 78.4848 94.3724C79.3216 95.2092 80.6784 95.2092 81.5153 94.3724L94.3724 81.5152C95.2092 80.6784 95.2092 79.3216 94.3724 78.4848L81.5153 65.6276C80.6784 64.7908 79.3216 64.7908 78.4848 65.6276Z" fill="black"/>
<path fill-rule="evenodd" clip-rule="evenodd" d="M65.1514 65.6276C64.3146 66.4645 64.3146 67.8212 65.1514 68.6581L76.4933 80L65.1514 91.3419C64.3146 92.1788 64.3146 93.5355 65.1514 94.3724C65.9883 95.2092 67.345 95.2092 68.1819 94.3724L81.039 81.5152C81.8759 80.6784 81.8759 79.3216 81.039 78.4848L68.1819 65.6276C67.3451 64.7908 65.9883 64.7908 65.1514 65.6276Z" fill="black"/>
<path fill-rule="evenodd" clip-rule="evenodd" d="M199.192 66.3347C198.746 66.781 198.746 67.5047 199.192 67.951L210.534 79.2929C210.924 79.6834 210.924 80.3166 210.534 80.7071L199.192 92.049C198.746 92.4953 198.746 93.219 199.192 93.6653C199.638 94.1116 200.362 94.1116 200.808 93.6653L213.665 80.8081C214.112 80.3618 214.112 79.6382 213.665 79.1919L200.808 66.3347C200.362 65.8884 199.638 65.8884 199.192 66.3347Z" fill="black"/>
<path fill-rule="evenodd" clip-rule="evenodd" d="M185.859 66.3347C185.412 66.781 185.412 67.5047 185.859 67.951L197.2 79.2929C197.591 79.6834 197.591 80.3166 197.2 80.7071L185.859 92.049C185.412 92.4953 185.412 93.219 185.859 93.6653C186.305 94.1116 187.028 94.1116 187.475 93.6653L200.332 80.8081C200.778 80.3618 200.778 79.6382 200.332 79.1919L187.475 66.3347C187.028 65.8884 186.305 65.8884 185.859 66.3347Z" fill="black"/>
<path fill-rule="evenodd" clip-rule="evenodd" d="M94.1343 141.277C93.2975 142.114 91.9407 142.114 91.1039 141.277L79.762 129.935L68.42 141.277C67.5832 142.114 66.2264 142.114 65.3896 141.277C64.5528 140.44 64.5528 139.084 65.3896 138.247L78.2467 125.39C79.0836 124.553 80.4404 124.553 81.2772 125.39L94.1343 138.247C94.9712 139.084 94.9712 140.44 94.1343 141.277Z" fill="black"/>
<path fill-rule="evenodd" clip-rule="evenodd" d="M94.1343 154.61C93.2975 155.447 91.9407 155.447 91.1039 154.61L79.762 143.269L68.42 154.61C67.5832 155.447 66.2264 155.447 65.3896 154.61C64.5528 153.774 64.5528 152.417 65.3896 151.58L78.2467 138.723C79.0836 137.886 80.4404 137.886 81.2772 138.723L94.1343 151.58C94.9712 152.417 94.9712 153.774 94.1343 154.61Z" fill="black"/>
<path fill-rule="evenodd" clip-rule="evenodd" d="M213.427 140.57C212.981 141.016 212.257 141.016 211.811 140.57L200.469 129.228C200.079 128.838 199.445 128.838 199.055 129.228L187.713 140.57C187.267 141.016 186.543 141.016 186.097 140.57C185.65 140.124 185.65 139.4 186.097 138.954L198.954 126.097C199.4 125.65 200.124 125.65 200.57 126.097L213.427 138.954C213.874 139.4 213.874 140.124 213.427 140.57Z" fill="black"/>
<path fill-rule="evenodd" clip-rule="evenodd" d="M213.427 153.903C212.981 154.35 212.257 154.35 211.811 153.903L200.469 142.561C200.079 142.171 199.445 142.171 199.055 142.561L187.713 153.903C187.267 154.35 186.543 154.35 186.097 153.903C185.65 153.457 185.65 152.733 186.097 152.287L198.954 139.43C199.4 138.984 200.124 138.984 200.57 139.43L213.427 152.287C213.874 152.733 213.874 153.457 213.427 153.903Z" fill="black"/>
<path fill-rule="evenodd" clip-rule="evenodd" d="M65.3896 198.723C66.2264 197.886 67.5832 197.886 68.42 198.723L79.762 210.065L91.1039 198.723C91.9407 197.886 93.2975 197.886 94.1343 198.723C94.9712 199.56 94.9712 200.916 94.1343 201.753L81.2772 214.61C80.4404 215.447 79.0836 215.447 78.2467 214.61L65.3896 201.753C64.5528 200.916 64.5528 199.56 65.3896 198.723Z" fill="black"/>
<path fill-rule="evenodd" clip-rule="evenodd" d="M65.3896 185.39C66.2264 184.553 67.5832 184.553 68.42 185.39L79.762 196.731L91.1039 185.39C91.9407 184.553 93.2975 184.553 94.1343 185.39C94.9712 186.226 94.9712 187.583 94.1343 188.42L81.2772 201.277C80.4404 202.114 79.0836 202.114 78.2467 201.277L65.3896 188.42C64.5528 187.583 64.5528 186.226 65.3896 185.39Z" fill="black"/>
<path fill-rule="evenodd" clip-rule="evenodd" d="M186.097 199.43C186.543 198.984 187.267 198.984 187.713 199.43L199.055 210.772C199.445 211.162 200.079 211.162 200.469 210.772L211.811 199.43C212.257 198.984 212.981 198.984 213.427 199.43C213.874 199.876 213.874 200.6 213.427 201.046L200.57 213.903C200.124 214.35 199.4 214.35 198.954 213.903L186.097 201.046C185.65 200.6 185.65 199.876 186.097 199.43Z" fill="black"/>
<path fill-rule="evenodd" clip-rule="evenodd" d="M186.097 186.097C186.543 185.65 187.267 185.65 187.713 186.097L199.055 197.439C199.445 197.829 200.079 197.829 200.469 197.439L211.811 186.097C212.257 185.65 212.981 185.65 213.427 186.097C213.874 186.543 213.874 187.267 213.427 187.713L200.57 200.57C200.124 201.016 199.4 201.016 198.954 200.57L186.097 187.713C185.65 187.267 185.65 186.543 186.097 186.097Z" fill="black"/>
</svg>
