<svg width="22" height="317" viewBox="0 0 22 317" fill="none" xmlns="http://www.w3.org/2000/svg">
<path d="M12.8341 10.3389C12.8341 11.3111 12.0387 12.1065 11.0665 12.1065C10.0943 12.1065 9.29889 11.3111 9.29889 10.3389C9.29889 9.36672 10.0943 8.57129 11.0665 8.57129C12.0387 8.57129 12.8341 9.36672 12.8341 10.3389Z" stroke="black" stroke-miterlimit="10" stroke-linejoin="round"/>
<path d="M17.7853 13.7064C16.6982 15.9424 14.5063 17.5863 11.846 17.8603C7.75398 18.2757 4.09499 15.2973 3.6796 11.2052C3.62657 10.6926 3.63541 10.1888 3.6796 9.70271C3.6796 9.70271 3.73263 9.13706 3.76798 8.98682" stroke="black" stroke-miterlimit="10" stroke-linejoin="round"/>
<path d="M1 11.6646L3.76634 8.97778L6.45314 11.7441" stroke="black" stroke-miterlimit="10" stroke-linejoin="round"/>
<path d="M4.39429 7.1926C5.49022 4.94771 7.67324 3.31265 10.3335 3.03867C14.4256 2.62328 18.0757 5.60173 18.5 9.69379C18.553 10.2064 18.553 10.7102 18.5 11.2051" stroke="black" stroke-miterlimit="10" stroke-linejoin="round"/>
<path d="M21.0005 9.17227L18.4816 11.6204L16.0423 9.10156" stroke="black" stroke-miterlimit="10" stroke-linejoin="round"/>
<path fill-rule="evenodd" clip-rule="evenodd" d="M16.9427 42.9825C16.9427 42.7088 16.9162 42.435 16.8809 42.1701L18.5674 40.8545L16.6601 37.5873L14.6734 38.3644C14.2319 38.02 13.7462 37.7375 13.2164 37.5255L12.9074 35.4417H9.0928L8.78375 37.5255C8.25395 37.7375 7.7683 38.02 7.3268 38.3644L5.34887 37.5873L3.44159 40.8545L5.12812 42.1701C5.0928 42.435 5.06631 42.7088 5.06631 42.9825C5.06631 43.265 5.0928 43.5476 5.12812 43.8213L3.44159 45.1458L5.34887 48.413L7.36212 47.6271C7.79479 47.9626 8.27161 48.2364 8.78375 48.4483L9.10163 50.5675H12.9074L13.2253 48.4483C13.7462 48.2452 14.223 47.9626 14.6557 47.6271L16.6601 48.413L18.5674 45.1458L16.8809 43.8213C16.9074 43.5476 16.9427 43.2739 16.9427 42.9825Z" stroke="black" stroke-linejoin="round"/>
<path fill-rule="evenodd" clip-rule="evenodd" d="M11.0002 45.1545C9.80818 45.1545 8.8457 44.192 8.8457 43C8.8457 41.8079 9.80818 40.8455 11.0002 40.8455C12.1923 40.8455 13.1548 41.8079 13.1548 43C13.1548 44.192 12.1923 45.1545 11.0002 45.1545Z" stroke="black" stroke-linejoin="round"/>
<rect x="9.33325" y="69" width="4.33333" height="4.30769" fill="black"/>
<rect x="5" y="80.8462" width="2.16667" height="2.15385" fill="black"/>
<rect x="15.8336" y="80.8462" width="2.16667" height="2.15385" fill="black"/>
<rect x="10.4168" y="80.8462" width="2.16667" height="2.15385" fill="black"/>
<path d="M11.5004 71.6924V81.9232" stroke="black"/>
<path d="M6.08356 81.9232L6.08356 76.5386L16.9169 76.5386L16.9169 81.9232" stroke="black"/>
<path d="M7.5 108.55H14.5" stroke="black" stroke-miterlimit="10" stroke-linejoin="round"/>
<path d="M7.5 111.232H12.715" stroke="black" stroke-miterlimit="10" stroke-linejoin="round"/>
<path d="M7.5 113.923H14.5" stroke="black" stroke-miterlimit="10" stroke-linejoin="round"/>
<path d="M14.9637 101.35H16.6875C17.1688 101.35 17.5625 101.755 17.5625 102.259V116.641C17.5625 117.145 17.1688 117.55 16.6875 117.55H5.3125C4.83125 117.55 4.4375 117.145 4.4375 116.641V102.259C4.4375 101.755 4.83125 101.35 5.3125 101.35H7.01875" stroke="black" stroke-miterlimit="10" stroke-linejoin="round"/>
<path d="M14.9375 103.15C14.9375 103.645 14.5525 104.05 14.0713 104.05H7.92875C7.4475 104.05 7.0625 103.645 7.0625 103.15V101.35C7.0625 100.855 7.4475 100.45 7.92875 100.45H14.0713C14.5525 100.45 14.9375 100.855 14.9375 101.35V103.15Z" stroke="black" stroke-miterlimit="10"/>
<path d="M4 137.333H18" stroke="black" stroke-miterlimit="10"/>
<path d="M9.05554 140.056V145.5" stroke="black" stroke-miterlimit="10" stroke-linejoin="round"/>
<path d="M12.9133 140.071V145.515" stroke="black" stroke-miterlimit="10" stroke-linejoin="round"/>
<path d="M7.5 137.1V135.778C7.5 135.35 7.88889 135 8.37111 135H13.6211C14.1033 135 14.4922 135.35 14.4922 135.778V137.1" stroke="black" stroke-miterlimit="10"/>
<path d="M16.1099 137.38V147.429C16.1099 147.857 15.7365 148.207 15.2699 148.207H6.76877C6.30211 148.207 5.92877 147.857 5.92877 147.429V137.38" stroke="black" stroke-miterlimit="10" stroke-linejoin="round"/>
<path d="M6 170L10.2 180L11.8 175.8L16 174.2L6 170Z" stroke="black" stroke-linecap="round" stroke-linejoin="round"/>
<path d="M12 176L16 180" stroke="black" stroke-linecap="round" stroke-linejoin="round"/>
<path d="M13.7457 204.135H13.7077V202.613C13.7071 202.185 13.5342 201.774 13.2271 201.472C12.9199 201.169 12.5035 201 12.0695 201H10.2951C9.86163 201.001 9.44609 201.171 9.1396 201.473C8.83311 201.775 8.66067 202.185 8.66011 202.613V204.135H8.25322C7.65589 204.136 7.08326 204.37 6.66088 204.787C6.2385 205.204 6.00084 205.769 6 206.358V213.483C6 213.621 6.05567 213.754 6.15477 213.851C6.25387 213.949 6.38828 214.004 6.52843 214.004H8.4498C8.52953 214.004 8.60821 213.986 8.67996 213.952C8.75171 213.918 8.81465 213.868 8.86409 213.806L10.1387 212.214V213.483C10.1387 213.621 10.1943 213.754 10.2934 213.851C10.3925 213.949 10.5269 214.004 10.6671 214.004H15.4705C15.6107 214.004 15.7451 213.949 15.8442 213.851C15.9433 213.754 15.9989 213.621 15.9989 213.483V206.362C15.9992 205.772 15.7621 205.206 15.3396 204.788C14.9171 204.371 14.3438 204.136 13.7457 204.135ZM14.9421 212.962H11.1955V210.709C11.1957 210.6 11.1616 210.494 11.098 210.406C11.0343 210.317 10.9443 210.251 10.8404 210.215C10.7365 210.18 10.624 210.177 10.5185 210.207C10.413 210.238 10.3197 210.3 10.2517 210.385L8.19404 212.962H7.05686V207.839H14.9421V212.962ZM14.9421 206.801H7.05686V206.362C7.05742 206.049 7.18364 205.749 7.40789 205.528C7.63213 205.307 7.9361 205.182 8.25322 205.182H9.18854C9.32869 205.182 9.4631 205.127 9.5622 205.029C9.6613 204.931 9.71697 204.799 9.71697 204.661V202.617C9.71725 202.466 9.77825 202.321 9.8866 202.214C9.99496 202.107 10.1418 202.047 10.2951 202.047H12.0695C12.2228 202.047 12.3697 202.107 12.478 202.214C12.5864 202.321 12.6474 202.466 12.6476 202.617V204.661C12.6476 204.799 12.7033 204.931 12.8024 205.029C12.9015 205.127 13.0359 205.182 13.1761 205.182H13.7425C14.0597 205.182 14.3636 205.307 14.5879 205.528C14.8121 205.749 14.9384 206.049 14.9389 206.362L14.9421 206.801Z" fill="black"/>
<circle cx="10.5" cy="240.5" r="6" stroke="black"/>
<line x1="10.5" y1="237" x2="10.5" y2="238" stroke="black"/>
<line x1="10.5" y1="239" x2="10.5" y2="244" stroke="black"/>
<path d="M6.23763 265.667H3.6662C3.11391 265.667 2.6662 266.114 2.6662 266.667V269.238" stroke="black" stroke-linecap="round"/>
<path d="M6.23763 282.333H3.6662C3.11391 282.333 2.6662 281.886 2.6662 281.333V278.762" stroke="black" stroke-linecap="round"/>
<path d="M15.7612 265.667H18.3326C18.8849 265.667 19.3326 266.114 19.3326 266.667V269.238" stroke="black" stroke-linecap="round"/>
<path d="M15.7612 282.333H18.3326C18.8849 282.333 19.3326 281.886 19.3326 281.333V278.762" stroke="black" stroke-linecap="round"/>
<rect x="4.83331" y="271.167" width="12.3333" height="5.9697" rx="0.5" stroke="black"/>
<path d="M9.01486 275.285L8.75445 274.615H7.89626L7.6388 275.285H7.36359L8.20846 273.113H8.45408L9.29748 275.285H9.01486ZM8.67307 274.374L8.43041 273.718L8.32683 273.394C8.29724 273.513 8.26617 273.621 8.23361 273.718L7.98799 274.374H8.67307Z" fill="black"/>
<path d="M9.59636 273.122H10.2134C10.5034 273.122 10.7125 273.166 10.8407 273.252C10.97 273.338 11.0346 273.473 11.0346 273.658C11.0346 273.786 10.9996 273.892 10.9295 273.976C10.8595 274.059 10.7574 274.113 10.6232 274.137V274.152C10.7899 274.181 10.9123 274.238 10.9902 274.325C11.0691 274.412 11.1086 274.527 11.1086 274.67C11.1086 274.863 11.0425 275.014 10.9103 275.123C10.7781 275.231 10.5936 275.285 10.3569 275.285H9.59636V273.122ZM9.86862 274.042H10.2681C10.4378 274.042 10.5611 274.015 10.638 273.961C10.715 273.907 10.7534 273.816 10.7534 273.689C10.7534 273.57 10.711 273.485 10.6262 273.433C10.5423 273.381 10.4092 273.354 10.2267 273.354H9.86862V274.042ZM9.86862 274.27V275.055H10.3051C10.4787 275.055 10.6075 275.021 10.6913 274.954C10.7751 274.887 10.8171 274.785 10.8171 274.649C10.8171 274.52 10.7727 274.425 10.6839 274.364C10.5951 274.301 10.462 274.27 10.2844 274.27H9.86862Z" fill="black"/>
<path d="M12.3248 275.285H12.0644V273.934C12.0644 273.892 12.0644 273.847 12.0644 273.798C12.0654 273.75 12.0664 273.702 12.0674 273.655C12.0693 273.606 12.0708 273.561 12.0718 273.517C12.0738 273.473 12.0753 273.434 12.0762 273.4C12.0595 273.418 12.0447 273.433 12.0319 273.446C12.019 273.459 12.0057 273.471 11.9919 273.483C11.9791 273.495 11.9653 273.508 11.9505 273.522C11.9357 273.534 11.9179 273.55 11.8972 273.568L11.6782 273.747L11.5362 273.565L12.1029 273.122H12.3248V275.285Z" fill="black"/>
<path d="M14.4333 275.285H13.0839V275.055L13.6017 274.491C13.6757 274.411 13.7418 274.338 13.8 274.272C13.8582 274.206 13.9075 274.141 13.948 274.078C13.9894 274.015 14.021 273.952 14.0427 273.889C14.0644 273.824 14.0752 273.755 14.0752 273.68C14.0752 273.622 14.0668 273.57 14.0501 273.526C14.0333 273.482 14.0091 273.444 13.9776 273.414C13.947 273.382 13.9105 273.358 13.8681 273.343C13.8257 273.327 13.7783 273.319 13.726 273.319C13.6323 273.319 13.5475 273.338 13.4715 273.377C13.3966 273.414 13.3251 273.462 13.257 273.522L13.1061 273.346C13.1455 273.31 13.1879 273.277 13.2333 273.246C13.2787 273.215 13.3275 273.188 13.3798 273.165C13.4321 273.142 13.4873 273.125 13.5455 273.112C13.6037 273.098 13.6649 273.091 13.729 273.091C13.8237 273.091 13.909 273.104 13.985 273.131C14.0619 273.158 14.127 273.196 14.1803 273.246C14.2336 273.296 14.2745 273.356 14.3031 273.428C14.3327 273.499 14.3475 273.58 14.3475 273.67C14.3475 273.753 14.3342 273.833 14.3075 273.909C14.2819 273.985 14.2459 274.06 14.1995 274.134C14.1541 274.207 14.0994 274.281 14.0353 274.355C13.9722 274.429 13.9036 274.506 13.8296 274.586L13.4138 275.028V275.04H14.4333V275.285Z" fill="black"/>
<path d="M9.01486 275.285L8.75445 274.615H7.89626L7.6388 275.285H7.36359L8.20846 273.113H8.45408L9.29748 275.285H9.01486ZM8.67307 274.374L8.43041 273.718L8.32683 273.394C8.29724 273.513 8.26617 273.621 8.23361 273.718L7.98799 274.374H8.67307Z" stroke="black" stroke-width="0.5"/>
<path d="M9.59636 273.122H10.2134C10.5034 273.122 10.7125 273.166 10.8407 273.252C10.97 273.338 11.0346 273.473 11.0346 273.658C11.0346 273.786 10.9996 273.892 10.9295 273.976C10.8595 274.059 10.7574 274.113 10.6232 274.137V274.152C10.7899 274.181 10.9123 274.238 10.9902 274.325C11.0691 274.412 11.1086 274.527 11.1086 274.67C11.1086 274.863 11.0425 275.014 10.9103 275.123C10.7781 275.231 10.5936 275.285 10.3569 275.285H9.59636V273.122ZM9.86862 274.042H10.2681C10.4378 274.042 10.5611 274.015 10.638 273.961C10.715 273.907 10.7534 273.816 10.7534 273.689C10.7534 273.57 10.711 273.485 10.6262 273.433C10.5423 273.381 10.4092 273.354 10.2267 273.354H9.86862V274.042ZM9.86862 274.27V275.055H10.3051C10.4787 275.055 10.6075 275.021 10.6913 274.954C10.7751 274.887 10.8171 274.785 10.8171 274.649C10.8171 274.52 10.7727 274.425 10.6839 274.364C10.5951 274.301 10.462 274.27 10.2844 274.27H9.86862Z" stroke="black" stroke-width="0.5"/>
<path d="M12.3248 275.285H12.0644V273.934C12.0644 273.892 12.0644 273.847 12.0644 273.798C12.0654 273.75 12.0664 273.702 12.0674 273.655C12.0693 273.606 12.0708 273.561 12.0718 273.517C12.0738 273.473 12.0753 273.434 12.0762 273.4C12.0595 273.418 12.0447 273.433 12.0319 273.446C12.019 273.459 12.0057 273.471 11.9919 273.483C11.9791 273.495 11.9653 273.508 11.9505 273.522C11.9357 273.534 11.9179 273.55 11.8972 273.568L11.6782 273.747L11.5362 273.565L12.1029 273.122H12.3248V275.285Z" stroke="black" stroke-width="0.5"/>
<path d="M14.4333 275.285H13.0839V275.055L13.6017 274.491C13.6757 274.411 13.7418 274.338 13.8 274.272C13.8582 274.206 13.9075 274.141 13.948 274.078C13.9894 274.015 14.021 273.952 14.0427 273.889C14.0644 273.824 14.0752 273.755 14.0752 273.68C14.0752 273.622 14.0668 273.57 14.0501 273.526C14.0333 273.482 14.0091 273.444 13.9776 273.414C13.947 273.382 13.9105 273.358 13.8681 273.343C13.8257 273.327 13.7783 273.319 13.726 273.319C13.6323 273.319 13.5475 273.338 13.4715 273.377C13.3966 273.414 13.3251 273.462 13.257 273.522L13.1061 273.346C13.1455 273.31 13.1879 273.277 13.2333 273.246C13.2787 273.215 13.3275 273.188 13.3798 273.165C13.4321 273.142 13.4873 273.125 13.5455 273.112C13.6037 273.098 13.6649 273.091 13.729 273.091C13.8237 273.091 13.909 273.104 13.985 273.131C14.0619 273.158 14.127 273.196 14.1803 273.246C14.2336 273.296 14.2745 273.356 14.3031 273.428C14.3327 273.499 14.3475 273.58 14.3475 273.67C14.3475 273.753 14.3342 273.833 14.3075 273.909C14.2819 273.985 14.2459 274.06 14.1995 274.134C14.1541 274.207 14.0994 274.281 14.0353 274.355C13.9722 274.429 13.9036 274.506 13.8296 274.586L13.4138 275.028V275.04H14.4333V275.285Z" stroke="black" stroke-width="0.5"/>
<circle cx="5.84844" cy="271.879" r="0.30303" fill="black"/>
<circle cx="16.1515" cy="271.879" r="0.30303" fill="black"/>
<circle cx="5.84844" cy="276.424" r="0.30303" fill="black"/>
<circle cx="16.1515" cy="276.424" r="0.30303" fill="black"/>
<path fill-rule="evenodd" clip-rule="evenodd" d="M18 303C18 302.735 17.8946 302.48 17.7071 302.293C17.5196 302.105 17.2652 302 17 302H5C4.73478 302 4.48043 302.105 4.29289 302.293C4.10536 302.48 4 302.735 4 303V311C4 311.265 4.10536 311.52 4.29289 311.707C4.48043 311.895 4.73478 312 5 312H17C17.2652 312 17.5196 311.895 17.7071 311.707C17.8946 311.52 18 311.265 18 311V303ZM3 303C3 302.47 3.21071 301.961 3.58579 301.586C3.96086 301.211 4.46957 301 5 301H17C17.5304 301 18.0391 301.211 18.4142 301.586C18.7893 301.961 19 302.47 19 303V311C19 311.53 18.7893 312.039 18.4142 312.414C18.0391 312.789 17.5304 313 17 313H5C4.46957 313 3.96086 312.789 3.58579 312.414C3.21071 312.039 3 311.53 3 311V303ZM8.077 310.114C6.553 310.114 5.814 309.314 5.762 308.365H6.909C6.988 308.831 7.436 309.174 8.143 309.174C8.882 309.174 9.273 308.835 9.273 308.344C9.273 307.926 8.973 307.71 8.35 307.565L7.423 307.35C6.491 307.14 5.903 306.603 5.903 305.693C5.903 304.595 6.821 303.878 8.143 303.878C9.514 303.878 10.305 304.648 10.363 305.57H9.238C9.163 305.14 8.772 304.81 8.135 304.81C7.48 304.81 7.089 305.148 7.089 305.614C7.089 305.974 7.383 306.212 7.91 306.326L8.842 306.542C9.813 306.762 10.455 307.227 10.455 308.233C10.455 309.35 9.598 310.114 8.077 310.114ZM11.307 310V304.001H13.497C15.32 304.001 16.181 305.091 16.181 306.985C16.181 308.893 15.307 310 13.496 310H11.308H11.307ZM13.338 304.968H12.494V309.028H13.338C14.454 309.028 14.96 308.361 14.96 307.008C14.96 305.654 14.45 304.968 13.338 304.968V304.968Z" fill="black"/>
</svg>
