<svg width="22" height="251" viewBox="0 0 22 251" fill="none" xmlns="http://www.w3.org/2000/svg">
<path d="M12.8342 10.3389C12.8342 11.3111 12.0388 12.1065 11.0666 12.1065C10.0944 12.1065 9.29895 11.3111 9.29895 10.3389C9.29895 9.36672 10.0944 8.57129 11.0666 8.57129C12.0388 8.57129 12.8342 9.36672 12.8342 10.3389Z" stroke="black" stroke-miterlimit="10" stroke-linejoin="round"/>
<path d="M17.7853 13.7064C16.6982 15.9424 14.5063 17.5863 11.846 17.8603C7.75398 18.2757 4.09499 15.2973 3.6796 11.2052C3.62657 10.6926 3.63541 10.1888 3.6796 9.70271C3.6796 9.70271 3.73263 9.13706 3.76798 8.98682" stroke="black" stroke-miterlimit="10" stroke-linejoin="round"/>
<path d="M1 11.6646L3.76634 8.97778L6.45314 11.7441" stroke="black" stroke-miterlimit="10" stroke-linejoin="round"/>
<path d="M4.39429 7.1926C5.49022 4.94771 7.67324 3.31265 10.3335 3.03867C14.4256 2.62328 18.0757 5.60173 18.5 9.69379C18.553 10.2064 18.553 10.7102 18.5 11.2051" stroke="black" stroke-miterlimit="10" stroke-linejoin="round"/>
<path d="M21.0004 9.17227L18.4816 11.6204L16.0422 9.10156" stroke="black" stroke-miterlimit="10" stroke-linejoin="round"/>
<path fill-rule="evenodd" clip-rule="evenodd" d="M16.9426 42.9825C16.9426 42.7088 16.9161 42.435 16.8808 42.1701L18.5674 40.8545L16.6601 37.5873L14.6733 38.3644C14.2318 38.02 13.7462 37.7375 13.2164 37.5255L12.9073 35.4417H9.09274L8.78369 37.5255C8.25389 37.7375 7.76824 38.02 7.32674 38.3644L5.34881 37.5873L3.44153 40.8545L5.12806 42.1701C5.09274 42.435 5.06625 42.7088 5.06625 42.9825C5.06625 43.265 5.09274 43.5476 5.12806 43.8213L3.44153 45.1458L5.34881 48.413L7.36206 47.6271C7.79473 47.9626 8.27155 48.2364 8.78369 48.4483L9.10157 50.5675H12.9073L13.2252 48.4483C13.7462 48.2452 14.223 47.9626 14.6557 47.6271L16.6601 48.413L18.5674 45.1458L16.8808 43.8213C16.9073 43.5476 16.9426 43.2739 16.9426 42.9825Z" stroke="black" stroke-linejoin="round"/>
<path fill-rule="evenodd" clip-rule="evenodd" d="M11.0002 45.1545C9.80818 45.1545 8.8457 44.192 8.8457 43C8.8457 41.8079 9.80818 40.8455 11.0002 40.8455C12.1923 40.8455 13.1548 41.8079 13.1548 43C13.1548 44.192 12.1923 45.1545 11.0002 45.1545Z" stroke="black" stroke-linejoin="round"/>
<rect x="9.33325" y="69" width="4.33333" height="4.30769" fill="black"/>
<rect x="5" y="80.8462" width="2.16667" height="2.15385" fill="black"/>
<rect x="15.8336" y="80.8462" width="2.16667" height="2.15385" fill="black"/>
<rect x="10.4169" y="80.8462" width="2.16667" height="2.15385" fill="black"/>
<path d="M11.5004 71.6924V81.9232" stroke="black"/>
<path d="M6.08362 81.9232L6.08362 76.5386L16.917 76.5386L16.917 81.9232" stroke="black"/>
<path d="M7.5 108.55H14.5" stroke="black" stroke-miterlimit="10" stroke-linejoin="round"/>
<path d="M7.5 111.232H12.715" stroke="black" stroke-miterlimit="10" stroke-linejoin="round"/>
<path d="M7.5 113.923H14.5" stroke="black" stroke-miterlimit="10" stroke-linejoin="round"/>
<path d="M14.9637 101.35H16.6875C17.1688 101.35 17.5625 101.755 17.5625 102.259V116.641C17.5625 117.145 17.1688 117.55 16.6875 117.55H5.3125C4.83125 117.55 4.4375 117.145 4.4375 116.641V102.259C4.4375 101.755 4.83125 101.35 5.3125 101.35H7.01875" stroke="black" stroke-miterlimit="10" stroke-linejoin="round"/>
<path d="M14.9375 103.15C14.9375 103.645 14.5525 104.05 14.0713 104.05H7.92875C7.4475 104.05 7.0625 103.645 7.0625 103.15V101.35C7.0625 100.855 7.4475 100.45 7.92875 100.45H14.0713C14.5525 100.45 14.9375 100.855 14.9375 101.35V103.15Z" stroke="black" stroke-miterlimit="10"/>
<path d="M4 137.333H18" stroke="black" stroke-miterlimit="10"/>
<path d="M9.05554 140.056V145.5" stroke="black" stroke-miterlimit="10" stroke-linejoin="round"/>
<path d="M12.9133 140.071V145.515" stroke="black" stroke-miterlimit="10" stroke-linejoin="round"/>
<path d="M7.5 137.1V135.778C7.5 135.35 7.88889 135 8.37111 135H13.6211C14.1033 135 14.4922 135.35 14.4922 135.778V137.1" stroke="black" stroke-miterlimit="10"/>
<path d="M16.1099 137.38V147.429C16.1099 147.857 15.7366 148.207 15.2699 148.207H6.76883C6.30217 148.207 5.92883 147.857 5.92883 147.429V137.38" stroke="black" stroke-miterlimit="10" stroke-linejoin="round"/>
<path d="M6 170L10.2 180L11.8 175.8L16 174.2L6 170Z" stroke="black" stroke-linecap="round" stroke-linejoin="round"/>
<path d="M12 176L16 180" stroke="black" stroke-linecap="round" stroke-linejoin="round"/>
<path d="M13.7457 204.135H13.7077V202.613C13.7071 202.185 13.5342 201.774 13.2271 201.472C12.9199 201.169 12.5035 201 12.0695 201H10.2951C9.86163 201.001 9.44609 201.171 9.1396 201.473C8.83311 201.775 8.66067 202.185 8.66011 202.613V204.135H8.25322C7.65589 204.136 7.08326 204.37 6.66088 204.787C6.2385 205.204 6.00084 205.769 6 206.358V213.483C6 213.621 6.05567 213.754 6.15477 213.851C6.25387 213.949 6.38828 214.004 6.52843 214.004H8.4498C8.52953 214.004 8.60821 213.986 8.67996 213.952C8.75171 213.918 8.81465 213.868 8.86409 213.806L10.1387 212.214V213.483C10.1387 213.621 10.1943 213.754 10.2934 213.851C10.3925 213.949 10.5269 214.004 10.6671 214.004H15.4705C15.6107 214.004 15.7451 213.949 15.8442 213.851C15.9433 213.754 15.9989 213.621 15.9989 213.483V206.362C15.9992 205.772 15.7621 205.206 15.3396 204.788C14.9171 204.371 14.3438 204.136 13.7457 204.135ZM14.9421 212.962H11.1955V210.709C11.1957 210.6 11.1616 210.494 11.098 210.406C11.0343 210.317 10.9443 210.251 10.8404 210.215C10.7365 210.18 10.624 210.177 10.5185 210.207C10.413 210.238 10.3197 210.3 10.2517 210.385L8.19404 212.962H7.05686V207.839H14.9421V212.962ZM14.9421 206.801H7.05686V206.362C7.05742 206.049 7.18364 205.749 7.40789 205.528C7.63213 205.307 7.9361 205.182 8.25322 205.182H9.18854C9.32869 205.182 9.4631 205.127 9.5622 205.029C9.6613 204.931 9.71697 204.799 9.71697 204.661V202.617C9.71725 202.466 9.77825 202.321 9.8866 202.214C9.99496 202.107 10.1418 202.047 10.2951 202.047H12.0695C12.2228 202.047 12.3697 202.107 12.478 202.214C12.5864 202.321 12.6474 202.466 12.6476 202.617V204.661C12.6476 204.799 12.7033 204.931 12.8024 205.029C12.9015 205.127 13.0359 205.182 13.1761 205.182H13.7425C14.0597 205.182 14.3636 205.307 14.5879 205.528C14.8121 205.749 14.9384 206.049 14.9389 206.362L14.9421 206.801Z" fill="black"/>
<circle cx="10.5" cy="240.5" r="6" stroke="black"/>
<line x1="10.5" y1="237" x2="10.5" y2="238" stroke="black"/>
<line x1="10.5" y1="239" x2="10.5" y2="244" stroke="black"/>
</svg>
