<svg width="54" height="183" viewBox="0 0 54 183" fill="none" xmlns="http://www.w3.org/2000/svg">
<path d="M12.8341 10.3389C12.8341 11.3111 12.0387 12.1065 11.0665 12.1065C10.0943 12.1065 9.29889 11.3111 9.29889 10.3389C9.29889 9.36672 10.0943 8.57129 11.0665 8.57129C12.0387 8.57129 12.8341 9.36672 12.8341 10.3389Z" stroke="black" stroke-miterlimit="10" stroke-linejoin="round"/>
<path d="M17.7853 13.7064C16.6982 15.9424 14.5063 17.5863 11.846 17.8603C7.75398 18.2757 4.09499 15.2973 3.6796 11.2052C3.62657 10.6926 3.63541 10.1888 3.6796 9.70271C3.6796 9.70271 3.73263 9.13706 3.76798 8.98682" stroke="black" stroke-miterlimit="10" stroke-linejoin="round"/>
<path d="M1 11.6648L3.76634 8.97803L6.45314 11.7444" stroke="black" stroke-miterlimit="10" stroke-linejoin="round"/>
<path d="M4.39429 7.1926C5.49022 4.94771 7.67324 3.31265 10.3335 3.03867C14.4256 2.62328 18.0757 5.60173 18.5 9.69379C18.553 10.2064 18.553 10.7102 18.5 11.2051" stroke="black" stroke-miterlimit="10" stroke-linejoin="round"/>
<path d="M21.0005 9.17227L18.4816 11.6204L16.0423 9.10156" stroke="black" stroke-miterlimit="10" stroke-linejoin="round"/>
<path fill-rule="evenodd" clip-rule="evenodd" d="M16.9427 42.4822C16.9427 42.2085 16.9162 41.9348 16.8809 41.6699L18.5674 40.3542L16.6601 37.0871L14.6734 37.8641C14.2319 37.5198 13.7462 37.2372 13.2164 37.0253L12.9074 34.9414H9.0928L8.78375 37.0253C8.25395 37.2372 7.7683 37.5198 7.3268 37.8641L5.34887 37.0871L3.44159 40.3542L5.12812 41.6699C5.0928 41.9348 5.06631 42.2085 5.06631 42.4822C5.06631 42.7648 5.0928 43.0474 5.12812 43.3211L3.44159 44.6456L5.34887 47.9127L7.36212 47.1268C7.79479 47.4624 8.27161 47.7361 8.78375 47.948L9.10163 50.0672H12.9074L13.2253 47.948C13.7462 47.7449 14.223 47.4624 14.6557 47.1268L16.6601 47.9127L18.5674 44.6456L16.8809 43.3211C16.9074 43.0474 16.9427 42.7736 16.9427 42.4822Z" stroke="black" stroke-linejoin="round"/>
<path fill-rule="evenodd" clip-rule="evenodd" d="M11.0002 44.6548C9.80818 44.6548 8.8457 43.6923 8.8457 42.5002C8.8457 41.3082 9.80818 40.3457 11.0002 40.3457C12.1923 40.3457 13.1548 41.3082 13.1548 42.5002C13.1548 43.6923 12.1923 44.6548 11.0002 44.6548Z" stroke="black" stroke-linejoin="round"/>
<rect x="9.33325" y="68" width="4.33333" height="4.30769" fill="black"/>
<rect x="5" y="79.8462" width="2.16667" height="2.15385" fill="black"/>
<rect x="15.8336" y="79.8462" width="2.16667" height="2.15385" fill="black"/>
<rect x="10.4168" y="79.8462" width="2.16667" height="2.15385" fill="black"/>
<path d="M11.5004 70.6924V80.9232" stroke="black"/>
<path d="M6.08356 80.9232L6.08356 75.5386L16.9169 75.5386L16.9169 80.9232" stroke="black"/>
<path d="M7.5 107.05H14.5" stroke="black" stroke-miterlimit="10" stroke-linejoin="round"/>
<path d="M7.5 109.732H12.715" stroke="black" stroke-miterlimit="10" stroke-linejoin="round"/>
<path d="M7.5 112.423H14.5" stroke="black" stroke-miterlimit="10" stroke-linejoin="round"/>
<path d="M14.9637 99.8501H16.6875C17.1688 99.8501 17.5625 100.255 17.5625 100.759V115.141C17.5625 115.645 17.1688 116.05 16.6875 116.05H5.3125C4.83125 116.05 4.4375 115.645 4.4375 115.141V100.759C4.4375 100.255 4.83125 99.8501 5.3125 99.8501H7.01875" stroke="black" stroke-miterlimit="10" stroke-linejoin="round"/>
<path d="M14.9375 101.65C14.9375 102.145 14.5525 102.55 14.0713 102.55H7.92875C7.4475 102.55 7.0625 102.145 7.0625 101.65V99.8502C7.0625 99.3552 7.4475 98.9502 7.92875 98.9502H14.0713C14.5525 98.9502 14.9375 99.3552 14.9375 99.8502V101.65Z" stroke="black" stroke-miterlimit="10"/>
<path d="M6.23763 131.667H3.6662C3.11391 131.667 2.6662 132.114 2.6662 132.667V135.238" stroke="black" stroke-linecap="round"/>
<path d="M6.23763 148.333H3.6662C3.11391 148.333 2.6662 147.886 2.6662 147.333V144.762" stroke="black" stroke-linecap="round"/>
<path d="M15.7612 131.667H18.3326C18.8849 131.667 19.3326 132.114 19.3326 132.667V135.238" stroke="black" stroke-linecap="round"/>
<path d="M15.7612 148.333H18.3326C18.8849 148.333 19.3326 147.886 19.3326 147.333V144.762" stroke="black" stroke-linecap="round"/>
<rect x="4.83331" y="137.167" width="12.3333" height="5.9697" rx="0.5" stroke="black"/>
<path d="M9.01486 141.285L8.75445 140.615H7.89626L7.6388 141.285H7.36359L8.20846 139.113H8.45408L9.29748 141.285H9.01486ZM8.67307 140.374L8.43041 139.718L8.32683 139.394C8.29724 139.513 8.26617 139.621 8.23361 139.718L7.98799 140.374H8.67307Z" fill="black"/>
<path d="M9.59636 139.122H10.2134C10.5034 139.122 10.7125 139.165 10.8407 139.252C10.97 139.338 11.0346 139.473 11.0346 139.658C11.0346 139.786 10.9996 139.892 10.9295 139.976C10.8595 140.059 10.7574 140.112 10.6232 140.137V140.152C10.7899 140.18 10.9123 140.238 10.9902 140.325C11.0691 140.412 11.1086 140.527 11.1086 140.67C11.1086 140.863 11.0425 141.014 10.9103 141.122C10.7781 141.231 10.5936 141.285 10.3569 141.285H9.59636V139.122ZM9.86862 140.042H10.2681C10.4378 140.042 10.5611 140.015 10.638 139.961C10.715 139.907 10.7534 139.816 10.7534 139.689C10.7534 139.57 10.711 139.485 10.6262 139.433C10.5423 139.38 10.4092 139.354 10.2267 139.354H9.86862V140.042ZM9.86862 140.27V141.054H10.3051C10.4787 141.054 10.6075 141.021 10.6913 140.954C10.7751 140.887 10.8171 140.785 10.8171 140.649C10.8171 140.52 10.7727 140.424 10.6839 140.363C10.5951 140.301 10.462 140.27 10.2844 140.27H9.86862Z" fill="black"/>
<path d="M12.3248 141.285H12.0644V139.934C12.0644 139.892 12.0644 139.846 12.0644 139.798C12.0654 139.75 12.0664 139.702 12.0674 139.655C12.0693 139.606 12.0708 139.56 12.0718 139.517C12.0738 139.473 12.0753 139.434 12.0762 139.4C12.0595 139.418 12.0447 139.433 12.0319 139.446C12.019 139.459 12.0057 139.471 11.9919 139.483C11.9791 139.495 11.9653 139.508 11.9505 139.521C11.9357 139.534 11.9179 139.55 11.8972 139.567L11.6782 139.746L11.5362 139.564L12.1029 139.122H12.3248V141.285Z" fill="black"/>
<path d="M14.4333 141.285H13.0839V141.054L13.6017 140.491C13.6757 140.411 13.7418 140.338 13.8 140.272C13.8582 140.205 13.9075 140.141 13.948 140.078C13.9894 140.015 14.021 139.951 14.0427 139.888C14.0644 139.824 14.0752 139.755 14.0752 139.68C14.0752 139.622 14.0668 139.57 14.0501 139.526C14.0333 139.481 14.0091 139.444 13.9776 139.413C13.947 139.382 13.9105 139.358 13.8681 139.342C13.8257 139.327 13.7783 139.319 13.726 139.319C13.6323 139.319 13.5475 139.338 13.4715 139.376C13.3966 139.414 13.3251 139.462 13.257 139.521L13.1061 139.345C13.1455 139.31 13.1879 139.277 13.2333 139.246C13.2787 139.215 13.3275 139.187 13.3798 139.165C13.4321 139.142 13.4873 139.124 13.5455 139.112C13.6037 139.098 13.6649 139.091 13.729 139.091C13.8237 139.091 13.909 139.104 13.985 139.131C14.0619 139.157 14.127 139.196 14.1803 139.246C14.2336 139.296 14.2745 139.356 14.3031 139.428C14.3327 139.499 14.3475 139.58 14.3475 139.669C14.3475 139.753 14.3342 139.833 14.3075 139.909C14.2819 139.985 14.2459 140.06 14.1995 140.134C14.1541 140.207 14.0994 140.28 14.0353 140.354C13.9722 140.428 13.9036 140.505 13.8296 140.585L13.4138 141.028V141.04H14.4333V141.285Z" fill="black"/>
<path d="M9.01486 141.285L8.75445 140.615H7.89626L7.6388 141.285H7.36359L8.20846 139.113H8.45408L9.29748 141.285H9.01486ZM8.67307 140.374L8.43041 139.718L8.32683 139.394C8.29724 139.513 8.26617 139.621 8.23361 139.718L7.98799 140.374H8.67307Z" stroke="black" stroke-width="0.5"/>
<path d="M9.59636 139.122H10.2134C10.5034 139.122 10.7125 139.165 10.8407 139.252C10.97 139.338 11.0346 139.473 11.0346 139.658C11.0346 139.786 10.9996 139.892 10.9295 139.976C10.8595 140.059 10.7574 140.112 10.6232 140.137V140.152C10.7899 140.18 10.9123 140.238 10.9902 140.325C11.0691 140.412 11.1086 140.527 11.1086 140.67C11.1086 140.863 11.0425 141.014 10.9103 141.122C10.7781 141.231 10.5936 141.285 10.3569 141.285H9.59636V139.122ZM9.86862 140.042H10.2681C10.4378 140.042 10.5611 140.015 10.638 139.961C10.715 139.907 10.7534 139.816 10.7534 139.689C10.7534 139.57 10.711 139.485 10.6262 139.433C10.5423 139.38 10.4092 139.354 10.2267 139.354H9.86862V140.042ZM9.86862 140.27V141.054H10.3051C10.4787 141.054 10.6075 141.021 10.6913 140.954C10.7751 140.887 10.8171 140.785 10.8171 140.649C10.8171 140.52 10.7727 140.424 10.6839 140.363C10.5951 140.301 10.462 140.27 10.2844 140.27H9.86862Z" stroke="black" stroke-width="0.5"/>
<path d="M12.3248 141.285H12.0644V139.934C12.0644 139.892 12.0644 139.846 12.0644 139.798C12.0654 139.75 12.0664 139.702 12.0674 139.655C12.0693 139.606 12.0708 139.56 12.0718 139.517C12.0738 139.473 12.0753 139.434 12.0762 139.4C12.0595 139.418 12.0447 139.433 12.0319 139.446C12.019 139.459 12.0057 139.471 11.9919 139.483C11.9791 139.495 11.9653 139.508 11.9505 139.521C11.9357 139.534 11.9179 139.55 11.8972 139.567L11.6782 139.746L11.5362 139.564L12.1029 139.122H12.3248V141.285Z" stroke="black" stroke-width="0.5"/>
<path d="M14.4333 141.285H13.0839V141.054L13.6017 140.491C13.6757 140.411 13.7418 140.338 13.8 140.272C13.8582 140.205 13.9075 140.141 13.948 140.078C13.9894 140.015 14.021 139.951 14.0427 139.888C14.0644 139.824 14.0752 139.755 14.0752 139.68C14.0752 139.622 14.0668 139.57 14.0501 139.526C14.0333 139.481 14.0091 139.444 13.9776 139.413C13.947 139.382 13.9105 139.358 13.8681 139.342C13.8257 139.327 13.7783 139.319 13.726 139.319C13.6323 139.319 13.5475 139.338 13.4715 139.376C13.3966 139.414 13.3251 139.462 13.257 139.521L13.1061 139.345C13.1455 139.31 13.1879 139.277 13.2333 139.246C13.2787 139.215 13.3275 139.187 13.3798 139.165C13.4321 139.142 13.4873 139.124 13.5455 139.112C13.6037 139.098 13.6649 139.091 13.729 139.091C13.8237 139.091 13.909 139.104 13.985 139.131C14.0619 139.157 14.127 139.196 14.1803 139.246C14.2336 139.296 14.2745 139.356 14.3031 139.428C14.3327 139.499 14.3475 139.58 14.3475 139.669C14.3475 139.753 14.3342 139.833 14.3075 139.909C14.2819 139.985 14.2459 140.06 14.1995 140.134C14.1541 140.207 14.0994 140.28 14.0353 140.354C13.9722 140.428 13.9036 140.505 13.8296 140.585L13.4138 141.028V141.04H14.4333V141.285Z" stroke="black" stroke-width="0.5"/>
<circle cx="5.84844" cy="137.879" r="0.30303" fill="black"/>
<circle cx="16.1515" cy="137.879" r="0.30303" fill="black"/>
<circle cx="5.84844" cy="142.424" r="0.30303" fill="black"/>
<circle cx="16.1515" cy="142.424" r="0.30303" fill="black"/>
<path fill-rule="evenodd" clip-rule="evenodd" d="M18 168.5C18 168.235 17.8946 167.98 17.7071 167.793C17.5196 167.605 17.2652 167.5 17 167.5H5C4.73478 167.5 4.48043 167.605 4.29289 167.793C4.10536 167.98 4 168.235 4 168.5V176.5C4 176.765 4.10536 177.02 4.29289 177.207C4.48043 177.395 4.73478 177.5 5 177.5H17C17.2652 177.5 17.5196 177.395 17.7071 177.207C17.8946 177.02 18 176.765 18 176.5V168.5ZM3 168.5C3 167.97 3.21071 167.461 3.58579 167.086C3.96086 166.711 4.46957 166.5 5 166.5H17C17.5304 166.5 18.0391 166.711 18.4142 167.086C18.7893 167.461 19 167.97 19 168.5V176.5C19 177.03 18.7893 177.539 18.4142 177.914C18.0391 178.289 17.5304 178.5 17 178.5H5C4.46957 178.5 3.96086 178.289 3.58579 177.914C3.21071 177.539 3 177.03 3 176.5V168.5ZM8.077 175.614C6.553 175.614 5.814 174.814 5.762 173.865H6.909C6.988 174.331 7.436 174.674 8.143 174.674C8.882 174.674 9.273 174.335 9.273 173.844C9.273 173.426 8.973 173.21 8.35 173.065L7.423 172.85C6.491 172.64 5.903 172.103 5.903 171.193C5.903 170.095 6.821 169.378 8.143 169.378C9.514 169.378 10.305 170.148 10.363 171.07H9.238C9.163 170.64 8.772 170.31 8.135 170.31C7.48 170.31 7.089 170.648 7.089 171.114C7.089 171.474 7.383 171.712 7.91 171.826L8.842 172.042C9.813 172.262 10.455 172.727 10.455 173.733C10.455 174.85 9.598 175.614 8.077 175.614ZM11.307 175.5V169.501H13.497C15.32 169.501 16.181 170.591 16.181 172.485C16.181 174.393 15.307 175.5 13.496 175.5H11.308H11.307ZM13.338 170.468H12.494V174.528H13.338C14.454 174.528 14.96 173.861 14.96 172.508C14.96 171.154 14.45 170.468 13.338 170.468V170.468Z" fill="black"/>
<path d="M36.0084 11.6667L36 2.5L42.6667 9.03609L38.6516 8.87471L36.0084 11.6667Z" stroke="black" stroke-linejoin="round"/>
<path d="M41.4167 12.9165H50.5834" stroke="black" stroke-linejoin="round"/>
<path d="M46 8.3335V17.5002" stroke="black" stroke-linejoin="round"/>
<path d="M44.3333 10.0002L46 8.3335L47.6666 10.0002" stroke="black" stroke-linejoin="round"/>
<path d="M42.6667 14.5835L41 12.9168L42.6667 11.2502" stroke="black" stroke-linejoin="round"/>
<path d="M49.3333 11.25L51 12.9167L49.3333 14.5833" stroke="black" stroke-linejoin="round"/>
<path d="M47.6667 15.8333L46 17.5L44.3334 15.8333" stroke="black" stroke-linejoin="round"/>
<path d="M45.1816 38.4756L48.507 41.8356" stroke="black" stroke-miterlimit="10"/>
<path d="M49.8168 37.2056C48.8944 36.2765 47.3984 36.261 46.4605 37.1823L38.2286 45.389L37.5 49.5L41.6004 48.7103L49.7936 40.5579C50.7237 39.6366 50.7392 38.1424 49.8168 37.2056Z" stroke="black" stroke-miterlimit="10"/>
<path d="M36.5 70.3335H50.5" stroke="black" stroke-miterlimit="10"/>
<path d="M41.5555 73.0557V78.5001" stroke="black" stroke-miterlimit="10" stroke-linejoin="round"/>
<path d="M45.4133 73.0713V78.5157" stroke="black" stroke-miterlimit="10" stroke-linejoin="round"/>
<path d="M40 70.1V68.7778C40 68.35 40.3889 68 40.8711 68H46.1211C46.6033 68 46.9922 68.35 46.9922 68.7778V70.1" stroke="black" stroke-miterlimit="10"/>
<path d="M48.6099 70.3799V80.4288C48.6099 80.8565 48.2365 81.2065 47.7699 81.2065H39.2688C38.8021 81.2065 38.4288 80.8565 38.4288 80.4288V70.3799" stroke="black" stroke-miterlimit="10" stroke-linejoin="round"/>
<circle cx="43" cy="107" r="6" stroke="black"/>
<line x1="43" y1="103.5" x2="43" y2="104.5" stroke="black"/>
<line x1="43" y1="105.5" x2="43" y2="110.5" stroke="black"/>
<path d="M37.5769 134.077V145.923H49.4231V134.077H37.5769ZM37.0385 133H49.9615C50.1043 133 50.2413 133.057 50.3423 133.158C50.4433 133.259 50.5 133.396 50.5 133.538V146.462C50.5 146.604 50.4433 146.741 50.3423 146.842C50.2413 146.943 50.1043 147 49.9615 147H37.0385C36.8957 147 36.7587 146.943 36.6577 146.842C36.5567 146.741 36.5 146.604 36.5 146.462V133.538C36.5 133.396 36.5567 133.259 36.6577 133.158C36.7587 133.057 36.8957 133 37.0385 133V133Z" fill="black"/>
<path d="M41.3461 136.231C42.0641 136.231 42.423 136.59 42.423 137.308C42.423 138.026 42.0641 138.385 41.3461 138.385C40.6282 138.385 40.2692 138.026 40.2692 137.308C40.2692 136.59 40.6282 136.231 41.3461 136.231ZM38.0044 146.142L37.1494 145.487L40.7861 140.741C40.9151 140.573 41.076 140.431 41.2596 140.325C41.4432 140.219 41.646 140.15 41.8563 140.122C42.0666 140.094 42.2803 140.108 42.4853 140.162C42.6903 140.217 42.8825 140.312 43.0509 140.441L43.0821 140.465L45.1498 142.134C45.2611 142.223 45.4033 142.265 45.5453 142.249C45.6873 142.234 45.8173 142.163 45.9069 142.052L49.5415 137.51L50.3815 138.182L46.7501 142.723L46.7458 142.728C46.6126 142.893 46.4482 143.031 46.2619 143.132C46.0756 143.234 45.8711 143.298 45.6601 143.321C45.4491 143.343 45.2357 143.324 45.0321 143.264C44.8285 143.204 44.6387 143.105 44.4735 142.971L42.4058 141.304L42.395 141.296C42.2817 141.209 42.1387 141.171 41.9974 141.19C41.8561 141.209 41.728 141.283 41.6412 141.396L38.0044 146.142Z" fill="black"/>
<path fill-rule="evenodd" clip-rule="evenodd" d="M43.5 181.944C48.716 181.944 52.9444 177.716 52.9444 172.5C52.9444 167.284 48.716 163.056 43.5 163.056C38.284 163.056 34.0556 167.284 34.0556 172.5C34.0556 177.716 38.284 181.944 43.5 181.944ZM43.5 182.5C49.0228 182.5 53.5 178.023 53.5 172.5C53.5 166.977 49.0228 162.5 43.5 162.5C37.9772 162.5 33.5 166.977 33.5 172.5C33.5 178.023 37.9772 182.5 43.5 182.5Z" fill="black" fill-opacity="0.3"/>
<path fill-rule="evenodd" clip-rule="evenodd" d="M44.4481 168.571L47.9836 172.107C48.2006 172.324 48.2006 172.676 47.9836 172.893L44.4481 176.428C44.2312 176.645 43.8794 176.645 43.6624 176.428C43.4455 176.211 43.4455 175.859 43.6624 175.642L46.2496 173.055H39.8635C39.5567 173.055 39.308 172.807 39.308 172.5C39.308 172.193 39.5567 171.944 39.8635 171.944H46.2496L43.6624 169.357C43.4455 169.14 43.4455 168.788 43.6624 168.571C43.8794 168.354 44.2312 168.354 44.4481 168.571Z" fill="black"/>
</svg>
