<svg width="60" height="380" viewBox="0 0 60 380" fill="none" xmlns="http://www.w3.org/2000/svg">
<path d="M24.8265 336V345.261" stroke="black" stroke-miterlimit="10" stroke-linecap="round" stroke-linejoin="round"/>
<path d="M13.9018 336.736L11.2052 345.261" stroke="black" stroke-miterlimit="10" stroke-linecap="round" stroke-linejoin="round"/>
<path d="M23.1077 336H28.5554C30.5165 336 32.4232 336.626 34.0575 337.825L43.591 344.744C44.0813 345.098 44.6261 345.316 45.1708 345.425" stroke="black" stroke-miterlimit="10" stroke-linecap="round" stroke-linejoin="round"/>
<path d="M16.9802 336H23.1089" stroke="black" stroke-miterlimit="10" stroke-linecap="round" stroke-linejoin="round"/>
<path d="M45.172 345.425L51.1645 346.46C53.1529 346.786 55.0596 347.849 56.2308 349.647C56.8846 350.654 57.2387 351.717 57.2387 352.888V353.623C57.2387 355.939 55.5226 357.818 53.398 357.818H49.394M38 357.818H22M10.9333 357.818H6.60234C4.47774 357.791 2.76172 355.911 2.76172 353.596V351.063" stroke="black" stroke-miterlimit="10" stroke-linecap="round" stroke-linejoin="round"/>
<path d="M2.76172 351.063C2.76172 351.063 3.30649 336 16.9802 336" stroke="black" stroke-miterlimit="10" stroke-linecap="round" stroke-linejoin="round"/>
<path d="M4.01648 345.261L45.1738 345.424" stroke="black" stroke-miterlimit="10" stroke-linecap="round" stroke-linejoin="round"/>
<path d="M16.3821 363.238C19.3908 363.238 21.8298 360.799 21.8298 357.791C21.8298 354.782 19.3908 352.343 16.3821 352.343C13.3735 352.343 10.9344 354.782 10.9344 357.791C10.9344 360.799 13.3735 363.238 16.3821 363.238Z" stroke="black" stroke-miterlimit="10" stroke-linecap="round" stroke-linejoin="round"/>
<path d="M43.6204 363.238C46.6291 363.238 49.0681 360.799 49.0681 357.791C49.0681 354.782 46.6291 352.343 43.6204 352.343C40.6117 352.343 38.1727 354.782 38.1727 357.791C38.1727 360.799 40.6117 363.238 43.6204 363.238Z" stroke="black" stroke-miterlimit="10" stroke-linecap="round" stroke-linejoin="round"/>
<path d="M12.1607 279.625L9.00913 278.224C8.28688 277.903 7.82141 277.187 7.82141 276.397V261.304V261.304C7.82141 258.374 10.1959 256 13.125 256H16.7244H35.2328C38.0278 256 40.6951 257.17 42.5886 259.226L44.5627 261.369C44.813 261.641 45.1373 261.834 45.4957 261.924L55.4881 264.439C56.3769 264.662 57 265.462 57 266.378V278.107C57 279.212 56.1046 280.107 55 280.107H50.6407" stroke="black"/>
<path d="M22.2858 280.107L40.6072 280.107" stroke="black" stroke-miterlimit="10" stroke-linecap="round" stroke-linejoin="round"/>
<path d="M17.3091 283.18C20.2381 283.18 22.6126 280.805 22.6126 277.876C22.6126 274.947 20.2381 272.573 17.3091 272.573C14.38 272.573 12.0055 274.947 12.0055 277.876C12.0055 280.805 14.38 283.18 17.3091 283.18Z" stroke="black" stroke-miterlimit="10" stroke-linecap="round" stroke-linejoin="round"/>
<path d="M45.9107 283.18C48.8398 283.18 51.2143 280.805 51.2143 277.876C51.2143 274.947 48.8398 272.573 45.9107 272.573C42.9817 272.573 40.6072 274.947 40.6072 277.876C40.6072 280.805 42.9817 283.18 45.9107 283.18Z" stroke="black" stroke-miterlimit="10" stroke-linecap="round" stroke-linejoin="round"/>
<path d="M7.82141 261.786H16.1745H22.7678H44.9464" stroke="black" stroke-linecap="round"/>
<path d="M31.9286 256V261.786" stroke="black" stroke-linecap="round"/>
<path d="M16.5 256V261.786" stroke="black" stroke-linecap="round"/>
<path d="M7.80508 262.75H4.8983C3.8499 262.75 3 263.6 3 264.648V271.835C3 272.883 3.8499 273.733 4.89831 273.733H7.80508" stroke="black" stroke-linecap="round"/>
<path d="M17.835 175.839V186.419" stroke="black" stroke-miterlimit="10" stroke-linecap="round" stroke-linejoin="round"/>
<path d="M28.569 175.839V186.419" stroke="black" stroke-miterlimit="10" stroke-linecap="round" stroke-linejoin="round"/>
<path d="M39.2771 175.839V186.419" stroke="black" stroke-miterlimit="10" stroke-linecap="round" stroke-linejoin="round"/>
<path d="M46.5532 200.526H50.8518C52.0274 200.526 52.9986 199.581 52.9986 198.405V188.004C52.9986 186.956 52.9219 185.908 52.743 184.886C51.8741 179.672 47.2995 175.839 41.9582 175.839H11.1114C8.8369 175.839 6.99683 177.653 6.99683 179.902V197.025L14.0007 200" stroke="black" stroke-miterlimit="10" stroke-linecap="round" stroke-linejoin="round"/>
<path d="M22.0013 200.527H38.5013" stroke="black" stroke-miterlimit="10" stroke-linecap="round" stroke-linejoin="round"/>
<path d="M18.1896 203.951C20.3067 203.951 22.023 202.235 22.023 200.118C22.023 198 20.3067 196.284 18.1896 196.284C16.0724 196.284 14.3561 198 14.3561 200.118C14.3561 202.235 16.0724 203.951 18.1896 203.951Z" stroke="black" stroke-miterlimit="10" stroke-linecap="round" stroke-linejoin="round"/>
<path d="M42.2915 203.951C44.4087 203.951 46.125 202.235 46.125 200.118C46.125 198 44.4087 196.284 42.2915 196.284C40.1743 196.284 38.458 198 38.458 200.118C38.458 202.235 40.1743 203.951 42.2915 203.951Z" stroke="black" stroke-miterlimit="10" stroke-linecap="round" stroke-linejoin="round"/>
<path d="M39.2754 186.419H6.99744" stroke="black" stroke-miterlimit="10" stroke-linecap="round" stroke-linejoin="round"/>
<path d="M39.2771 186.419C39.2771 186.419 41.7305 193.192 53.001 193.192" stroke="black" stroke-miterlimit="10" stroke-linecap="round" stroke-linejoin="round"/>
<path d="M40.248 98.7788V109.232H52.6249" stroke="black" stroke-miterlimit="10" stroke-linecap="round" stroke-linejoin="round"/>
<path d="M45.205 119.276H53V108.848L48.0419 100.159H40.2469V93.7185H6.9967V119.276H12.1849" stroke="black" stroke-miterlimit="10" stroke-linecap="round" stroke-linejoin="round"/>
<path d="M20.1588 119.915H37.4612" stroke="black" stroke-miterlimit="10" stroke-linecap="round" stroke-linejoin="round"/>
<path d="M15.9437 124.387C18.061 124.387 19.7773 122.671 19.7773 120.554C19.7773 118.436 18.061 116.72 15.9437 116.72C13.8265 116.72 12.1101 118.436 12.1101 120.554C12.1101 122.671 13.8265 124.387 15.9437 124.387Z" stroke="black" stroke-miterlimit="10" stroke-linecap="round" stroke-linejoin="round"/>
<path d="M41.4994 124.387C43.6166 124.387 45.333 122.671 45.333 120.554C45.333 118.436 43.6166 116.72 41.4994 116.72C39.3821 116.72 37.6658 118.436 37.6658 120.554C37.6658 122.671 39.3821 124.387 41.4994 124.387Z" stroke="black" stroke-miterlimit="10" stroke-linecap="round" stroke-linejoin="round"/>
<path d="M18 40L42 40" stroke="black" stroke-miterlimit="10" stroke-linecap="round" stroke-linejoin="round"/>
<path d="M13.8065 44.2C15.9328 44.2 17.6565 42.4763 17.6565 40.35C17.6565 38.2237 15.9328 36.5 13.8065 36.5C11.6802 36.5 9.95654 38.2237 9.95654 40.35C9.95654 42.4763 11.6802 44.2 13.8065 44.2Z" stroke="black" stroke-miterlimit="10" stroke-linecap="round" stroke-linejoin="round"/>
<path d="M45.85 44.2C47.9763 44.2 49.7 42.4763 49.7 40.35C49.7 38.2237 47.9763 36.5 45.85 36.5C43.7237 36.5 42 38.2237 42 40.35C42 42.4763 43.7237 44.2 45.85 44.2Z" stroke="black" stroke-miterlimit="10" stroke-linecap="round" stroke-linejoin="round"/>
<path d="M10.2 39.6316H5C3.89543 39.6316 3 38.7361 3 37.6316V24.7231C3 24.5575 3.02057 24.3925 3.06125 24.2319L5.01776 16.5088C5.24256 15.6215 6.04111 15 6.95651 15H43.2345C43.9548 15 44.6195 15.3873 44.9746 16.014L49.2753 23.6035C49.4232 23.8645 49.6279 24.0889 49.8743 24.26L56.1411 28.6138C56.6792 28.9876 57 29.6012 57 30.2563V37.6316C57 38.7361 56.1046 39.6316 55 39.6316H50" stroke="black"/>
<path d="M49.5 24H41C39.8954 24 39 23.1046 39 22V15" stroke="black"/>
</svg>
