<?xml version="1.0" encoding="UTF-8"?><svg id="_이어_1" xmlns="http://www.w3.org/2000/svg" viewBox="0 0 283.57 231.43"><path d="M0,188.88V0H283.57V188.88c-2.09,0-4.03,0-5.97,0-55.5,0-111,.06-166.5-.1-5.51-.02-9.86,1.51-14.19,4.81-15.63,11.92-31.49,23.55-47.26,35.28-.92,.68-1.89,1.3-3.73,2.56,1.9-10.22,3.63-19.55,5.37-28.89,.15-.82,.36-1.63,.49-2.45,1.37-8.34-.97-11.19-9.33-11.21-12.17-.04-24.33,0-36.5-.01-1.81,0-3.63,0-5.95,0Zm143.94-46.12c2.59-.25,7.25-.5,11.85-1.17,18.75-2.71,35.34-10.37,50.02-22.25,3.3-2.67,4.28-5.94,1.9-9.66-2.17-3.38-6.29-4.02-10.15-1.68-1.56,.95-2.94,2.18-4.43,3.25-21.09,15.17-44.22,21.01-69.88,15.24-13.42-3.01-25.21-9.25-35.99-17.68-4.09-3.2-8.47-2.63-11.02,.86-2.45,3.36-1.54,7.08,2.49,10.32,18.43,14.85,39.5,22.34,65.21,22.76Zm-46.84-73.32c-.38-12.54-11.13-23.02-24.07-23.47-12.45-.43-24.34,10.13-25.16,22.34-.37,5.5,1.76,8.86,5.92,9.37,4.25,.52,6.89-2.19,8.19-7.47,.64-2.61,1.71-5.62,3.61-7.32,6.1-5.45,16.75-2.02,17.48,7.14,.43,5.43,3.79,8.16,7.96,7.67,4.03-.47,6.23-3.47,6.08-8.28Zm89.49,.05c-.14,4.71,2.19,7.83,6.14,8.23,3.88,.39,6.65-2.2,7.91-6.72,.77-2.78,1.52-6.63,3.53-7.75,3.16-1.76,7.53-2.6,11.1-2.02,4.23,.69,5.99,4.73,6.61,9.02,.78,5.39,3.83,8.04,8.1,7.44,4.11-.58,6.15-3.67,5.89-8.93-.61-12.33-12.02-22.85-24.74-22.81-12.92,.04-24.16,10.83-24.53,23.54Z"/></svg>