<?xml version="1.0" encoding="UTF-8"?><svg id="_이어_1" xmlns="http://www.w3.org/2000/svg" viewBox="0 0 283.57 231.43"><path d="M281.26,0H2.32C1.04,0,0,1.04,0,2.32V184.13c0,1.28,1.04,2.32,2.32,2.32H51.99l2.33-2.33v-36.06c0-1.05,0-2.1-.17-3.15,0-.52-.52-.87-1.05-1.05-.87,0-1.75-.17-2.62-.17h-8.92c-1.4,.17-2.62-.35-3.5-1.4-7.87-8.05-15.74-15.92-23.62-23.97-.18-.17-.35-.35-.52-.52-.17-.35,0-.7,.18-.87h.17c1.05-.17,2.1-.17,3.15-.17h29.7c3.89,0,7.04-3.15,7.04-7.04v-17.98c0-7.7,1.57-15.39,4.9-22.39,8.05-16.27,20.99-26.42,38.84-29.21,28.34-4.55,54.93,14.69,59.3,43.03s-14.52,54.93-42.86,59.48c-6.43,1.04-13.02,.88-19.45-.49-.09-.02-.19-.05-.28-.08-.48-.16-.94-.3-1.26-.3-.87-.17-1.4-.87-1.4-1.57v-24.35c0-1.71,1.82-2.79,3.34-1.99,.14,.07,.28,.15,.42,.23,.06,.04,.13,.07,.2,.1,12.57,5.7,27.2,.1,32.96-12.29,5.77-12.6,.17-27.29-12.25-33.06-12.42-5.77-27.29-.17-33.06,12.25-1.57,3.5-2.27,7.17-2.27,10.85,0,30.67,.1,61.44,.15,92.24,0,1.28,1.04,2.31,2.31,2.31h91.47c7.54,0,14.8,2.88,20.3,8.04l39.33,36.96-.13-30.64c-.03-7.92,6.38-14.36,14.3-14.36h32.27c1.28,0,2.32-1.04,2.32-2.32V2.32C283.57,1.04,282.54,0,281.26,0Z"/></svg>