<?xml version="1.0" encoding="utf-8"?>
<!-- Generator: Adobe Illustrator 26.0.1, SVG Export Plug-In . SVG Version: 6.00 Build 0)  -->
<svg version="1.1" id="레이어_1" xmlns="http://www.w3.org/2000/svg" xmlns:xlink="http://www.w3.org/1999/xlink" x="0px"
	 y="0px" viewBox="0 0 60 381" style="enable-background:new 0 0 60 381;" xml:space="preserve">
<style type="text/css">
	.st0{fill:#050505;}
	.st1{opacity:0.5;fill:#FFFFFF;fill-opacity:0.6;enable-background:new    ;}
	.st2{fill:none;stroke:#000000;stroke-width:2;stroke-miterlimit:10;}
	.st3{opacity:0.3;enable-background:new    ;}
</style>
<rect x="12" y="-27.1" width="15" height="15.5"/>
<rect x="-32.3" y="22" width="15.5" height="15"/>
<rect x="-32.3" y="62" width="15.5" height="15"/>
<rect x="-32.3" y="102" width="15.5" height="15"/>
<rect x="-32.3" y="142" width="15.5" height="15"/>
<rect x="-32.3" y="182" width="15.5" height="15"/>
<rect x="-32.3" y="222" width="15.5" height="15"/>
<rect x="-32.3" y="262" width="15.5" height="15"/>
<rect x="-32.3" y="302" width="15.5" height="15"/>
<rect x="-32.3" y="342" width="15.5" height="15"/>
<g>
	<path class="st0" d="M18.5,39.5h-7.1c-1,0-1.9-0.9-1.9-1.9V21.4c0-1,0.9-1.9,1.9-1.9h7.1V39.5z"/>
	<path class="st0" d="M29.4,27.2h-9v-7.7h7.2c1,0,1.9,0.9,1.9,1.9L29.4,27.2C29.5,27.2,29.4,27.2,29.4,27.2z"/>
	<path class="st0" d="M27.5,39.5h-7.1V29.1h9v8.5C29.4,38.6,28.5,39.5,27.5,39.5z"/>
	<path class="st1" d="M27.5,39.5h-7.1V29.1h9v8.5C29.4,38.6,28.5,39.5,27.5,39.5z"/>
</g>
<g>
	<path class="st0" d="M22.6,75.3c-1.2,0.9-2.8,1.2-4.5,0.9c-2.2-0.4-3.9-2.4-4.3-4.6c-0.8-4,2.9-7.5,7-6.4c1.9,0.4,3.4,1.9,3.9,3.8
		c0.4,1.7,0.2,3.3-0.6,4.5l4.4,4.4V65.5l-6.8-7h-9.5c-0.9,0-1.7,0.8-1.7,1.7v18.6c0,0.9,0.8,1.7,1.7,1.7h15.6L22.6,75.3z"/>
	<path class="st0" d="M19.4,73.8c1.7,0,3.1-1.4,3.1-3.1c0-1.7-1.4-3.1-3.1-3.1s-3.1,1.4-3.1,3.1C16.2,72.4,17.6,73.8,19.4,73.8z"/>
	<path class="st1" d="M19.4,73.8c1.7,0,3.1-1.4,3.1-3.1c0-1.7-1.4-3.1-3.1-3.1s-3.1,1.4-3.1,3.1C16.2,72.4,17.6,73.8,19.4,73.8z"/>
</g>
<path class="st0" d="M9.4,262.9v16.7l3.9-3.8h13.8c1.4,0,2.4-1,2.4-2.3v-10.7c0-1.3-1.1-2.3-2.4-2.3H11.8
	C10.5,260.6,9.4,261.7,9.4,262.9z M20.6,273h-2.1v-2h2.1C20.6,271.1,20.6,273,20.6,273z M20.6,269.3h-2.1v-5.7h2.1
	C20.6,263.5,20.6,269.3,20.6,269.3z"/>
<path d="M27,159.1c-1.6,0.9-3.9,0.4-5.3-1.1c-1.3-1.4-1.6-3-1-4.8c0.1-0.2,0-0.5-0.1-0.5c-1.4-1.4-2.7-2.8-4.2-4.2
	c-0.2,0-0.5-0.1-0.6,0c-1.7,0.5-3.4,0.3-4.7-1c-1.4-1.2-1.8-2.7-1.5-4.5c0.1-0.3,0.2-0.5,0.3-0.9c0.5,0.5,1,1.1,1.5,1.5
	c0.4,0.4,0.8,0.8,1.2,1.2c0.3,0.3,0.5,0.4,0.8,0c0.5-0.5,1-1,1.5-1.5c0.3-0.3,0.3-0.5,0-0.8c-0.8-0.8-1.6-1.7-2.5-2.6
	c1.3-0.5,2.4-0.4,3.5,0.1c2.2,0.9,3.4,3.3,2.7,5.5c-0.1,0.3-0.1,0.5,0.2,0.7c1.5,1.4,2.8,2.8,4.2,4.2c0.1,0.1,0.5,0.3,0.5,0.2
	c1.8-0.5,3.5-0.1,4.7,1.3c1.3,1.3,1.6,2.9,1.1,4.6c0,0.1,0,0.1-0.2,0.3c-0.4-0.4-0.6-0.8-1-1.2c-0.5-0.5-1-1-1.5-1.5
	c-0.4-0.4-0.5-0.3-0.9,0c-0.5,0.5-0.9,1-1.5,1.5c-0.4,0.3-0.3,0.5,0,0.8c0.7,0.7,1.5,1.5,2.3,2.3C26.7,158.8,26.8,158.9,27,159.1z"
	/>
<g>
	<path class="st0" d="M21.2,116.2H18v4.2h3.2V116.2z"/>
	<path class="st0" d="M26.3,108v3.2h4.2V108H26.3z"/>
	<path class="st0" d="M17.8,102.8H21v-4.2h-3.2V102.8z"/>
	<path class="st0" d="M12.7,111.2V108H8.5v3.2H12.7z"/>
	<g>
		<path class="st1" d="M21.2,116.2H18v4.2h3.2V116.2z"/>
		<path class="st1" d="M26.3,108v3.2h4.2V108H26.3z"/>
		<path class="st1" d="M17.8,102.8H21v-4.2h-3.2V102.8z"/>
		<path class="st1" d="M12.7,111.2V108H8.5v3.2H12.7z"/>
	</g>
	<path class="st0" d="M19.5,117.8c-4.5,0-8.2-3.7-8.2-8.2s3.7-8.2,8.2-8.2s8.2,3.7,8.2,8.2S24,117.8,19.5,117.8z M19.5,104.6
		c-2.7,0-5,2.2-5,5s2.2,5,5,5s5-2.2,5-5C24.5,106.7,22.2,104.6,19.5,104.6z"/>
	<g>
		<path class="st0" d="M16,115.4l-2.3-2.3l-3,3l2.3,2.3L16,115.4z"/>
		<path class="st0" d="M25.4,113.2l-2.3,2.3l3,3l2.3-2.3L25.4,113.2z"/>
		<path class="st0" d="M23.1,103.6l2.3,2.3l3-3l-2.3-2.3L23.1,103.6z"/>
		<path class="st0" d="M13.5,105.9l2.3-2.3l-3-3l-2.3,2.3L13.5,105.9z"/>
	</g>
</g>
<g>
	<path d="M22.4,237.6c1.4,0,2.7,0,4.1,0c0-0.1,0-0.2,0-0.3c0-3.2,0-6.4,0-9.7c-0.1-2.8-2.1-5.3-4.7-6.1c-2.8-0.9-5.8,0-7.5,2.3
		c-1,1.3-1.5,2.8-1.5,4.5c0,1.9,0,3.9,0,5.8c0,0.8-0.1,0.9-0.9,0.9c-0.9,0-1.7,0-2.6,0c-0.4,0-0.7-0.2-0.7-0.6c0-1.9,0-3.8,0-5.7
		c0-0.4,0.2-0.6,0.6-0.6c0.7,0,1.4,0,2.1,0c0.1-2.8,1.2-5,3.4-6.7c1.6-1.2,3.5-1.7,5.5-1.5c3.8,0.3,7.4,3.3,7.6,8.2
		c0.6,0,1.3,0,1.9,0c0.7,0,0.8,0.1,0.8,0.8c0,1.8,0,3.6,0,5.3c0,0.6-0.1,0.7-0.8,0.7c-0.6,0-1.3,0-2,0c0,1.1,0,2.2,0,3.3
		c0,0.8-0.1,0.9-0.9,0.9c-3.1,0-6.2,0-9.3,0c-0.8,0-0.8-0.1-0.8-0.8c0-0.4,0-0.9,0-1.3c0-0.4,0.2-0.6,0.6-0.6c1.4,0,2.9,0,4.3,0
		c0.4,0,0.7,0.2,0.6,0.6C22.4,237.1,22.4,237.3,22.4,237.6z"/>
	<path class="st2" d="M22.2,236.9c0,0.2,0,0.4,0,0.7c1.4,0,2.7,0,4.1,0c0-0.1,0-0.2,0-0.3c0-3.2,0-6.4,0-9.7
		c-0.1-2.8-2.1-5.3-4.7-6.1c-2.8-0.9-5.8,0-7.5,2.3c-1,1.3-1.5,2.8-1.5,4.5c0,1.9,0,3.9,0,5.8c0,0.8-0.1,0.9-0.9,0.9
		c-0.9,0-0.7,0-1.5,0c-0.4,0-0.7-0.2-0.7-0.6"/>
</g>
<g>
	<path d="M9.8,189.6c0-3.2,0-6.3,0-9.5c0-0.7,0.1-0.8,0.8-0.8c3.8,0,7.6,0,11.3,0c0.6,0,1.1,0.2,1.5,0.6c1.7,1.6,3.4,3.2,5.1,4.7
		c0.4,0.4,0.6,0.7,0.6,1.2c0,4.4,0,8.8,0,13.3c0,0.6-0.1,0.7-0.8,0.7c-5.9,0-11.8,0-17.7,0c-0.7,0-0.8-0.1-0.8-0.8
		C9.8,195.9,9.8,192.8,9.8,189.6z M21.5,188.2c-1.4,0-2.7,0-4.1,0c-0.5,0-0.7,0.2-0.7,0.6c0,0.4,0,0.9,0,1.3c0,0.4,0.2,0.6,0.6,0.6
		c2.8,0,5.6,0,8.3,0c0.5,0,0.7-0.2,0.7-0.6c0-0.4,0-0.8,0-1.2c0-0.6-0.1-0.7-0.7-0.7C24.2,188.2,22.8,188.2,21.5,188.2z M20.8,194.6
		c1.1,0,2.3,0,3.4,0c0.6,0,0.7-0.1,0.7-0.7c0-0.4,0-0.9,0-1.3c0-0.4-0.2-0.6-0.6-0.6c-0.1,0-0.3,0-0.4,0c-2.1,0-4.1,0-6.2,0
		c-1,0-1,0-1,1c0,0.3,0,0.6,0,0.9c0,0.6,0.1,0.7,0.7,0.7C18.5,194.6,19.6,194.6,20.8,194.6z M18.8,184.4c-0.5,0-1,0-1.5,0
		c-0.4,0-0.6,0.2-0.6,0.5c0,0.5,0,1,0,1.4c0,0.4,0.2,0.6,0.6,0.6c0.9,0,1.9,0,2.8,0c0.4,0,0.7-0.2,0.7-0.6c0-0.5,0-0.9,0-1.4
		c0-0.4-0.2-0.6-0.7-0.6C19.8,184.4,19.2,184.4,18.8,184.4z M15.3,185.8c0-1.4,0.1-1.3-1.4-1.3s-1.4-0.1-1.4,1.3
		c0,1.3,0,1.3,1.4,1.3C15.4,187.1,15.3,187.1,15.3,185.8z M15.3,189.6c0-1.3,0-1.3-1.3-1.3c-1.6,0-1.4,0-1.5,1.3
		c0,1.2,0,1.2,1.3,1.2C15.4,190.9,15.3,190.9,15.3,189.6z M15.3,193.4c0-1.2,0.2-1.3-1.3-1.3s-1.4-0.1-1.4,1.3
		c0,1.3-0.1,1.3,1.4,1.3C15.3,194.6,15.3,194.8,15.3,193.4z"/>
	<path class="st3" d="M21.5,188.2c1.4,0,2.7,0,4.1,0c0.6,0,0.7,0.1,0.7,0.7c0,0.4,0,0.8,0,1.2c0,0.4-0.2,0.6-0.7,0.6
		c-2.8,0-5.6,0-8.3,0c-0.4,0-0.6-0.2-0.6-0.6c0-0.4,0-0.9,0-1.3c0-0.5,0.2-0.6,0.7-0.6C18.8,188.2,20.1,188.2,21.5,188.2z"/>
	<path class="st3" d="M20.8,194.6c-1.1,0-2.3,0-3.4,0c-0.6,0-0.7-0.1-0.7-0.7c0-0.3,0-0.6,0-0.9c0-1,0-1,1-1c2.1,0,4.1,0,6.2,0
		c0.1,0,0.3,0,0.4,0c0.4,0,0.6,0.2,0.6,0.6c0,0.4,0,0.9,0,1.3c0,0.6-0.1,0.7-0.7,0.7C23,194.6,21.9,194.6,20.8,194.6z"/>
</g>
<g>
	<path d="M11.4,359.5H23c0.5,0,0.9-0.2,1.4-0.6c0.5-0.5,0.5-0.7,0.5-1.4v-11.6c0-0.5-0.2-0.9-0.5-1.4c-0.5-0.5-0.7-0.5-1.4-0.5H11.4
		c-0.6,0-0.9,0.2-1.4,0.5c-0.5,0.5-0.5,0.7-0.5,1.4v11.6c0,0.6,0.2,0.9,0.5,1.4C10.4,359.3,11,359.5,11.4,359.5z M13.3,350.7h3v-2.8
		h1.9v2.8H21v1.9h-2.8v2.8h-1.9v-2.8h-2.8C13.3,352.6,13.3,350.7,13.3,350.7z"/>
	<path d="M27.6,339.5H16v1.9h11.6V353h1.9v-11.6C29.5,340.2,28.8,339.5,27.6,339.5z"/>
</g>
<path d="M28.8,301.7H10.2c-0.4,0-0.7,0.2-0.7,0.7v14.2c0,0.4,0.2,0.7,0.7,0.7h18.5c0.4,0,0.7-0.2,0.7-0.7v-14.2
	C29.5,302,29.1,301.7,28.8,301.7z M26.9,304l-7,5.6c-0.2,0.1-0.4,0.1-0.6,0l-7-5.6c0,0,0-0.1-0.1-0.1v-0.1c0,0,0-0.1,0.1-0.1h0.1
	h14.4h0.1c0,0,0.1,0,0.1,0.1C27,304,27,304,26.9,304C27,304,27,304,26.9,304z"/>
</svg>
