<svg width="496" height="600" viewBox="0 0 496 600" fill="none" xmlns="http://www.w3.org/2000/svg">
<rect width="496" height="600" fill="white"/>
<path d="M34.5511 155.099H42.0055V156.192H38.9019V165H37.6644V156.192H34.5511V155.099ZM47.1739 157.575H48.3438V165H47.1739V163.743H47.0966C46.9774 164.004 46.8146 164.236 46.6083 164.439C46.4053 164.639 46.1588 164.799 45.8687 164.918C45.5786 165.037 45.2531 165.097 44.8922 165.097C44.4152 165.097 43.9962 164.992 43.6353 164.782C43.2743 164.573 42.9923 164.259 42.7893 163.84C42.5862 163.421 42.4847 162.905 42.4847 162.293V157.575H43.6643V162.206C43.6643 162.557 43.7336 162.866 43.8722 163.134C44.0107 163.398 44.2009 163.603 44.4426 163.748C44.6843 163.893 44.9631 163.965 45.2789 163.965C45.5786 163.965 45.8735 163.89 46.1636 163.738C46.4569 163.587 46.6986 163.361 46.8887 163.061C47.0789 162.759 47.1739 162.39 47.1739 161.954V157.575ZM50.3777 155.099H51.5573V158.754H51.6443C51.6539 158.738 51.6636 158.724 51.6733 158.711C51.6829 158.695 51.6926 158.677 51.7023 158.657C51.8409 158.442 51.9827 158.255 52.1277 158.097C52.2759 157.936 52.4887 157.792 52.7658 157.666C53.043 157.541 53.3846 157.478 53.7907 157.478C54.4095 157.478 54.959 157.634 55.4392 157.947C55.9194 158.259 56.2932 158.706 56.5607 159.286C56.8282 159.863 56.962 160.536 56.962 161.307C56.962 162.08 56.8282 162.757 56.5607 163.337C56.2932 163.917 55.921 164.365 55.444 164.681C54.967 164.997 54.4224 165.155 53.81 165.155C53.3943 165.155 53.0446 165.087 52.761 164.952C52.4806 164.816 52.2631 164.665 52.1084 164.497C51.9537 164.326 51.8119 164.133 51.6829 163.917C51.6733 163.904 51.6668 163.895 51.6636 163.888C51.6604 163.882 51.6539 163.872 51.6443 163.859H51.5186V165H50.3777V155.099ZM51.5283 161.287C51.5283 161.845 51.6104 162.336 51.7748 162.762C51.9392 163.184 52.1793 163.513 52.4951 163.748C52.8142 163.983 53.1945 164.101 53.636 164.101C54.0936 164.101 54.4836 163.978 54.8059 163.733C55.1282 163.488 55.3699 163.153 55.531 162.728C55.6922 162.302 55.7727 161.822 55.7727 161.287C55.7727 160.759 55.6938 160.287 55.5358 159.871C55.3779 159.455 55.1378 159.128 54.8155 158.89C54.4933 158.651 54.1001 158.532 53.636 158.532C53.188 158.532 52.8045 158.645 52.4854 158.87C52.1696 159.096 51.9311 159.416 51.77 159.832C51.6088 160.248 51.5283 160.733 51.5283 161.287ZM61.6174 165.155C60.9116 165.155 60.2961 164.997 59.7707 164.681C59.2486 164.365 58.8474 163.92 58.567 163.347C58.2866 162.77 58.1464 162.103 58.1464 161.345C58.1464 160.591 58.2866 159.921 58.567 159.334C58.8474 158.748 59.2406 158.292 59.7466 157.966C60.2558 157.641 60.8407 157.478 61.5014 157.478C62.0654 157.478 62.5891 157.602 63.0725 157.85C63.5592 158.098 63.954 158.5 64.2569 159.054C64.5599 159.608 64.7113 160.32 64.7113 161.191V161.684H58.9586V160.678H63.5124C63.5124 160.266 63.4303 159.895 63.2659 159.566C63.1015 159.238 62.8679 158.981 62.5649 158.798C62.262 158.614 61.9107 158.522 61.5111 158.522C61.076 158.522 60.6925 158.63 60.3605 158.846C60.0318 159.062 59.7772 159.349 59.5967 159.706C59.4162 160.061 59.326 160.443 59.326 160.852V161.529C59.326 162.074 59.4211 162.539 59.6112 162.926C59.8013 163.31 60.0688 163.603 60.4137 163.806C60.7585 164.009 61.1598 164.11 61.6174 164.11C61.901 164.11 62.1572 164.073 62.3861 163.999C62.6149 163.925 62.8066 163.824 62.9613 163.695C63.1193 163.566 63.2449 163.421 63.3384 163.26H64.5953C64.4793 163.637 64.2843 163.969 64.0104 164.256C63.7364 164.539 63.3932 164.76 62.9807 164.918C62.5714 165.076 62.117 165.155 61.6174 165.155ZM66.2328 157.575H67.3737V158.706H67.451C67.5412 158.461 67.6814 158.243 67.8716 158.053C68.0617 157.863 68.2873 157.716 68.5484 157.613C68.8094 157.51 69.085 157.459 69.375 157.459C69.6006 157.459 69.8037 157.465 69.9841 157.478V158.667C69.91 158.651 69.8053 158.635 69.6699 158.619C69.5378 158.599 69.4073 158.59 69.2783 158.59C68.9238 158.59 68.6048 158.664 68.3212 158.812C68.0376 158.96 67.8152 159.167 67.654 159.431C67.4929 159.695 67.4123 159.992 67.4123 160.32V165H66.2328V157.575ZM73.9308 165.155C73.2443 165.155 72.6449 164.992 72.1324 164.666C71.6232 164.341 71.2317 163.888 70.9577 163.308C70.6838 162.728 70.5468 162.067 70.5468 161.326C70.5468 160.578 70.687 159.913 70.9674 159.329C71.2478 158.746 71.6426 158.292 72.1518 157.966C72.661 157.641 73.2475 157.478 73.9115 157.478C74.4303 157.478 74.9025 157.575 75.3279 157.768C75.7565 157.961 76.103 158.237 76.3673 158.595C76.6347 158.949 76.7991 159.357 76.8603 159.818H75.6905C75.6292 159.582 75.5213 159.366 75.3666 159.17C75.2151 158.97 75.0169 158.812 74.7719 158.696C74.5302 158.58 74.2498 158.522 73.9308 158.522C73.4925 158.522 73.1074 158.637 72.7754 158.865C72.4434 159.094 72.1856 159.418 72.0019 159.837C71.8182 160.253 71.7264 160.736 71.7264 161.287C71.7264 161.851 71.8166 162.346 71.9971 162.771C72.1776 163.194 72.4338 163.521 72.7657 163.753C73.0977 163.985 73.486 164.101 73.9308 164.101C74.2241 164.101 74.49 164.049 74.7284 163.946C74.9702 163.843 75.1732 163.696 75.3376 163.506C75.5019 163.313 75.6196 163.082 75.6905 162.815H76.8603C76.7991 163.26 76.6396 163.659 76.3818 164.014C76.1272 164.368 75.7888 164.647 75.3666 164.85C74.9476 165.053 74.469 165.155 73.9308 165.155ZM82.9943 157.575H84.1641V165H82.9943V163.743H82.9169C82.7977 164.004 82.6349 164.236 82.4287 164.439C82.2256 164.639 81.9791 164.799 81.689 164.918C81.399 165.037 81.0734 165.097 80.7125 165.097C80.2355 165.097 79.8165 164.992 79.4556 164.782C79.0946 164.573 78.8126 164.259 78.6096 163.84C78.4066 163.421 78.305 162.905 78.305 162.293V157.575H79.4846V162.206C79.4846 162.557 79.5539 162.866 79.6925 163.134C79.831 163.398 80.0212 163.603 80.2629 163.748C80.5046 163.893 80.7834 163.965 81.0992 163.965C81.399 163.965 81.6938 163.89 81.9839 163.738C82.2772 163.587 82.5189 163.361 82.709 163.061C82.8992 162.759 82.9943 162.39 82.9943 161.954V157.575ZM87.2229 165H86.0433V155.099H87.2229V165ZM92.1281 165.155C91.4609 165.155 90.8711 164.995 90.3587 164.676C89.8495 164.357 89.4531 163.909 89.1695 163.332C88.8859 162.752 88.7441 162.083 88.7441 161.326C88.7441 160.562 88.8859 159.89 89.1695 159.31C89.4531 158.727 89.8495 158.276 90.3587 157.956C90.8711 157.637 91.4609 157.478 92.1281 157.478C92.7952 157.478 93.3833 157.637 93.8926 157.956C94.405 158.276 94.8014 158.727 95.0818 159.31C95.3622 159.89 95.5024 160.562 95.5024 161.326C95.5024 162.083 95.3622 162.752 95.0818 163.332C94.8014 163.909 94.405 164.357 93.8926 164.676C93.3833 164.995 92.7952 165.155 92.1281 165.155ZM92.1281 164.11C92.6083 164.11 93.0127 163.985 93.3415 163.733C93.6734 163.482 93.92 163.145 94.0811 162.723C94.2422 162.301 94.3228 161.835 94.3228 161.326C94.3228 160.814 94.2422 160.346 94.0811 159.924C93.92 159.499 93.6734 159.159 93.3415 158.904C93.0127 158.649 92.6083 158.522 92.1281 158.522C91.6446 158.522 91.2386 158.649 90.9098 158.904C90.5811 159.159 90.3345 159.499 90.1702 159.924C90.0058 160.346 89.9236 160.814 89.9236 161.326C89.9236 161.835 90.0058 162.301 90.1702 162.723C90.3345 163.145 90.5811 163.482 90.9098 163.733C91.2386 163.985 91.6446 164.11 92.1281 164.11ZM101.164 159.508C101.083 159.186 100.919 158.935 100.671 158.754C100.423 158.574 100.088 158.483 99.6653 158.483C99.3656 158.483 99.0965 158.532 98.858 158.628C98.6227 158.725 98.4374 158.859 98.3021 159.03C98.1667 159.201 98.099 159.389 98.099 159.595C98.099 159.843 98.2022 160.053 98.4084 160.224C98.6147 160.395 98.9338 160.533 99.3656 160.64L100.477 160.91C101.141 161.071 101.636 161.318 101.962 161.65C102.287 161.982 102.45 162.406 102.45 162.921C102.45 163.353 102.335 163.737 102.107 164.072C101.878 164.407 101.544 164.671 101.106 164.865C100.671 165.058 100.149 165.155 99.5396 165.155C98.9885 165.155 98.5099 165.074 98.1039 164.913C97.701 164.752 97.3803 164.515 97.1419 164.202C96.9034 163.89 96.7519 163.508 96.6874 163.057H97.9153C97.983 163.418 98.149 163.687 98.4133 163.864C98.6808 164.041 99.0498 164.13 99.5203 164.13C99.8684 164.13 100.173 164.083 100.434 163.99C100.695 163.896 100.895 163.764 101.033 163.593C101.172 163.419 101.241 163.218 101.241 162.989C101.241 162.725 101.141 162.506 100.942 162.331C100.745 162.157 100.439 162.022 100.023 161.925L98.9015 161.664C98.257 161.516 97.7655 161.271 97.4271 160.93C97.0887 160.585 96.9195 160.163 96.9195 159.663C96.9195 159.244 97.0355 158.869 97.2675 158.537C97.4996 158.205 97.8235 157.945 98.2392 157.758C98.655 157.571 99.1303 157.478 99.6653 157.478C100.168 157.478 100.611 157.562 100.995 157.729C101.378 157.897 101.683 158.134 101.908 158.44C102.134 158.746 102.273 159.102 102.324 159.508H101.164ZM103.981 157.575H105.16V165H103.981V157.575ZM104.58 156.347C104.432 156.347 104.295 156.311 104.169 156.24C104.044 156.169 103.942 156.074 103.865 155.955C103.787 155.836 103.749 155.705 103.749 155.564C103.749 155.422 103.787 155.29 103.865 155.167C103.942 155.045 104.044 154.95 104.169 154.882C104.295 154.814 104.432 154.78 104.58 154.78C104.725 154.78 104.861 154.814 104.986 154.882C105.115 154.95 105.217 155.045 105.291 155.167C105.365 155.29 105.402 155.422 105.402 155.564C105.402 155.705 105.365 155.836 105.291 155.955C105.217 156.074 105.115 156.169 104.986 156.24C104.861 156.311 104.725 156.347 104.58 156.347ZM111.158 159.508C111.078 159.186 110.913 158.935 110.665 158.754C110.417 158.574 110.082 158.483 109.659 158.483C109.36 158.483 109.091 158.532 108.852 158.628C108.617 158.725 108.432 158.859 108.296 159.03C108.161 159.201 108.093 159.389 108.093 159.595C108.093 159.843 108.196 160.053 108.403 160.224C108.609 160.395 108.928 160.533 109.36 160.64L110.472 160.91C111.136 161.071 111.63 161.318 111.956 161.65C112.281 161.982 112.444 162.406 112.444 162.921C112.444 163.353 112.33 163.737 112.101 164.072C111.872 164.407 111.538 164.671 111.1 164.865C110.665 165.058 110.143 165.155 109.534 165.155C108.983 165.155 108.504 165.074 108.098 164.913C107.695 164.752 107.374 164.515 107.136 164.202C106.898 163.89 106.746 163.508 106.682 163.057H107.909C107.977 163.418 108.143 163.687 108.407 163.864C108.675 164.041 109.044 164.13 109.514 164.13C109.863 164.13 110.167 164.083 110.428 163.99C110.689 163.896 110.889 163.764 111.028 163.593C111.166 163.419 111.235 163.218 111.235 162.989C111.235 162.725 111.136 162.506 110.936 162.331C110.739 162.157 110.433 162.022 110.017 161.925L108.896 161.664C108.251 161.516 107.76 161.271 107.421 160.93C107.083 160.585 106.914 160.163 106.914 159.663C106.914 159.244 107.03 158.869 107.262 158.537C107.494 158.205 107.818 157.945 108.233 157.758C108.649 157.571 109.124 157.478 109.659 157.478C110.162 157.478 110.605 157.562 110.989 157.729C111.372 157.897 111.677 158.134 111.903 158.44C112.128 158.746 112.267 159.102 112.318 159.508H111.158Z" fill="#0E303C"/>
<path d="M143 145V175H145V145H143Z" fill="#D4B9D7" mask="url(#path-1-inside-1_71_3919)"/>
<rect x="154" y="145" width="1" height="30" rx="0.5" fill="#D4B9D7"/>
<path d="M173.8 165.635C172.975 165.635 172.265 165.436 171.668 165.036C171.075 164.636 170.619 164.056 170.3 163.296C169.984 162.535 169.827 161.62 169.827 160.55C169.827 159.48 169.984 158.564 170.3 157.804C170.619 157.04 171.077 156.46 171.673 156.064C172.269 155.664 172.978 155.464 173.8 155.464C174.622 155.464 175.331 155.664 175.927 156.064C176.524 156.46 176.98 157.04 177.295 157.804C177.614 158.568 177.774 159.483 177.774 160.55C177.774 161.623 177.616 162.54 177.3 163.3C176.984 164.061 176.528 164.641 175.932 165.041C175.336 165.437 174.625 165.635 173.8 165.635ZM173.8 163.939C174.187 163.939 174.521 163.814 174.801 163.566C175.085 163.315 175.302 162.936 175.454 162.43C175.605 161.924 175.681 161.297 175.681 160.55C175.681 159.808 175.605 159.185 175.454 158.679C175.302 158.17 175.085 157.788 174.801 157.533C174.517 157.279 174.184 157.151 173.8 157.151C173.417 157.151 173.085 157.279 172.804 157.533C172.524 157.788 172.306 158.17 172.152 158.679C172 159.185 171.923 159.808 171.92 160.55C171.92 161.297 171.995 161.924 172.147 162.43C172.298 162.936 172.514 163.315 172.795 163.566C173.078 163.814 173.414 163.939 173.8 163.939ZM180.002 165.621C179.792 165.621 179.599 165.569 179.422 165.466C179.244 165.36 179.104 165.22 179.001 165.046C178.898 164.872 178.848 164.681 178.851 164.475C178.848 164.269 178.898 164.079 179.001 163.905C179.104 163.727 179.244 163.589 179.422 163.489C179.599 163.386 179.792 163.334 180.002 163.334C180.201 163.334 180.39 163.386 180.567 163.489C180.744 163.589 180.885 163.727 180.988 163.905C181.094 164.079 181.147 164.269 181.147 164.475C181.147 164.681 181.094 164.872 180.988 165.046C180.885 165.22 180.744 165.36 180.567 165.466C180.39 165.569 180.201 165.621 180.002 165.621ZM186.201 165.635C185.376 165.635 184.665 165.436 184.069 165.036C183.476 164.636 183.02 164.056 182.701 163.296C182.385 162.535 182.227 161.62 182.227 160.55C182.227 159.48 182.385 158.564 182.701 157.804C183.02 157.04 183.477 156.46 184.074 156.064C184.67 155.664 185.379 155.464 186.201 155.464C187.022 155.464 187.731 155.664 188.328 156.064C188.924 156.46 189.38 157.04 189.696 157.804C190.015 158.568 190.174 159.483 190.174 160.55C190.174 161.623 190.016 162.54 189.701 163.3C189.385 164.061 188.929 164.641 188.333 165.041C187.736 165.437 187.026 165.635 186.201 165.635ZM186.201 163.939C186.587 163.939 186.921 163.814 187.201 163.566C187.485 163.315 187.702 162.936 187.854 162.43C188.005 161.924 188.081 161.297 188.081 160.55C188.081 159.808 188.005 159.185 187.854 158.679C187.702 158.17 187.485 157.788 187.201 157.533C186.918 157.279 186.584 157.151 186.201 157.151C185.817 157.151 185.485 157.279 185.205 157.533C184.924 157.788 184.707 158.17 184.552 158.679C184.401 159.185 184.323 159.808 184.32 160.55C184.32 161.297 184.396 161.924 184.547 162.43C184.699 162.936 184.915 163.315 185.195 163.566C185.479 163.814 185.814 163.939 186.201 163.939Z" fill="#0E303C"/>
<path d="M35.0925 195.099H38.4572C39.2049 195.099 39.8317 195.235 40.3377 195.506C40.8437 195.776 41.2192 196.15 41.4641 196.627C41.709 197.101 41.8315 197.639 41.8315 198.242C41.8315 198.844 41.709 199.384 41.4641 199.861C41.2192 200.335 40.8453 200.71 40.3425 200.988C39.8398 201.265 39.2178 201.403 38.4765 201.403H36.0691V200.311H38.4185C38.9245 200.311 39.3402 200.222 39.6657 200.045C39.9945 199.868 40.2346 199.626 40.386 199.32C40.5375 199.01 40.6133 198.651 40.6133 198.242C40.6133 197.832 40.5375 197.476 40.386 197.173C40.2346 196.867 39.9945 196.627 39.6657 196.453C39.3402 196.279 38.9213 196.192 38.4088 196.192H36.3204V205H35.0925V195.099ZM43.4007 197.575H44.5416V198.706H44.619C44.7092 198.461 44.8494 198.243 45.0395 198.053C45.2297 197.863 45.4553 197.716 45.7163 197.613C45.9774 197.51 46.2529 197.459 46.543 197.459C46.7686 197.459 46.9716 197.465 47.1521 197.478V198.667C47.078 198.651 46.9732 198.635 46.8379 198.619C46.7058 198.599 46.5752 198.59 46.4463 198.59C46.0918 198.59 45.7727 198.664 45.4891 198.812C45.2055 198.96 44.9831 199.167 44.822 199.431C44.6609 199.695 44.5803 199.992 44.5803 200.32V205H43.4007V197.575ZM51.1858 205.155C50.48 205.155 49.8644 204.997 49.3391 204.681C48.817 204.365 48.4157 203.92 48.1354 203.347C47.855 202.77 47.7148 202.103 47.7148 201.345C47.7148 200.591 47.855 199.921 48.1354 199.334C48.4157 198.748 48.8089 198.292 49.3149 197.966C49.8241 197.641 50.4091 197.478 51.0698 197.478C51.6337 197.478 52.1575 197.602 52.6409 197.85C53.1275 198.098 53.5223 198.5 53.8253 199.054C54.1282 199.608 54.2797 200.32 54.2797 201.191V201.684H48.5269V200.678H53.0808C53.0808 200.266 52.9986 199.895 52.8343 199.566C52.6699 199.238 52.4362 198.981 52.1333 198.798C51.8303 198.614 51.4791 198.522 51.0794 198.522C50.6443 198.522 50.2608 198.63 49.9289 198.846C49.6001 199.062 49.3455 199.349 49.1651 199.706C48.9846 200.061 48.8943 200.443 48.8943 200.852V201.529C48.8943 202.074 48.9894 202.539 49.1796 202.926C49.3697 203.31 49.6372 203.603 49.982 203.806C50.3269 204.009 50.7281 204.11 51.1858 204.11C51.4694 204.11 51.7256 204.073 51.9544 203.999C52.1832 203.925 52.375 203.824 52.5297 203.695C52.6876 203.566 52.8133 203.421 52.9068 203.26H54.1637C54.0477 203.637 53.8527 203.969 53.5787 204.256C53.3048 204.539 52.9616 204.76 52.549 204.918C52.1397 205.076 51.6853 205.155 51.1858 205.155ZM60.4904 197.575H61.6602V205H60.4904V203.743H60.413C60.2938 204.004 60.131 204.236 59.9247 204.439C59.7217 204.639 59.4752 204.799 59.1851 204.918C58.895 205.037 58.5695 205.097 58.2086 205.097C57.7316 205.097 57.3126 204.992 56.9517 204.782C56.5907 204.573 56.3087 204.259 56.1057 203.84C55.9026 203.421 55.8011 202.905 55.8011 202.293V197.575H56.9807V202.206C56.9807 202.557 57.05 202.866 57.1886 203.134C57.3271 203.398 57.5173 203.603 57.759 203.748C58.0007 203.893 58.2795 203.965 58.5953 203.965C58.895 203.965 59.1899 203.89 59.48 203.738C59.7733 203.587 60.015 203.361 60.2051 203.061C60.3953 202.759 60.4904 202.39 60.4904 201.954V197.575ZM63.5394 197.575H64.6803V198.744H64.777C64.9317 198.342 65.1814 198.031 65.5263 197.811C65.8744 197.589 66.2885 197.478 66.7687 197.478C67.091 197.478 67.3794 197.526 67.634 197.623C67.8886 197.72 68.1094 197.863 68.2963 198.053C68.4865 198.243 68.6412 198.474 68.7604 198.744H68.8378C68.9634 198.483 69.1326 198.259 69.3453 198.073C69.5613 197.882 69.8143 197.736 70.1043 197.633C70.3944 197.529 70.7134 197.478 71.0615 197.478C71.5127 197.478 71.9091 197.571 72.2507 197.758C72.5924 197.945 72.8582 198.23 73.0484 198.614C73.2385 198.994 73.3336 199.466 73.3336 200.03V205H72.154V200.05C72.154 199.534 72.0139 199.152 71.7335 198.904C71.4563 198.656 71.097 198.532 70.6554 198.532C70.317 198.532 70.0254 198.601 69.7804 198.74C69.5387 198.878 69.3534 199.073 69.2245 199.325C69.0956 199.573 69.0311 199.856 69.0311 200.175V205H67.8419V199.934C67.8419 199.657 67.7807 199.412 67.6582 199.199C67.5357 198.986 67.3633 198.822 67.1409 198.706C66.9186 198.59 66.6656 198.532 66.3819 198.532C66.0887 198.532 65.8147 198.609 65.5601 198.764C65.3087 198.919 65.1057 199.138 64.951 199.421C64.7963 199.702 64.719 200.017 64.719 200.369V205H63.5394V197.575ZM78.2511 205.155C77.584 205.155 76.9942 204.995 76.4818 204.676C75.9726 204.357 75.5761 203.909 75.2925 203.332C75.0089 202.752 74.8671 202.083 74.8671 201.326C74.8671 200.562 75.0089 199.89 75.2925 199.31C75.5761 198.727 75.9726 198.276 76.4818 197.956C76.9942 197.637 77.584 197.478 78.2511 197.478C78.9182 197.478 79.5064 197.637 80.0156 197.956C80.528 198.276 80.9244 198.727 81.2048 199.31C81.4852 199.89 81.6254 200.562 81.6254 201.326C81.6254 202.083 81.4852 202.752 81.2048 203.332C80.9244 203.909 80.528 204.357 80.0156 204.676C79.5064 204.995 78.9182 205.155 78.2511 205.155ZM78.2511 204.11C78.7313 204.11 79.1358 203.985 79.4645 203.733C79.7965 203.482 80.043 203.145 80.2041 202.723C80.3653 202.301 80.4459 201.835 80.4459 201.326C80.4459 200.814 80.3653 200.346 80.2041 199.924C80.043 199.499 79.7965 199.159 79.4645 198.904C79.1358 198.649 78.7313 198.522 78.2511 198.522C77.7677 198.522 77.3616 198.649 77.0329 198.904C76.7041 199.159 76.4576 199.499 76.2932 199.924C76.1289 200.346 76.0467 200.814 76.0467 201.326C76.0467 201.835 76.1289 202.301 76.2932 202.723C76.4576 203.145 76.7041 203.482 77.0329 203.733C77.3616 203.985 77.7677 204.11 78.2511 204.11ZM84.3381 205H83.1585V197.575H84.2994V198.744H84.3961C84.5154 198.483 84.6733 198.259 84.8699 198.073C85.0697 197.882 85.3098 197.736 85.5902 197.633C85.8738 197.529 86.1977 197.478 86.5619 197.478C87.0711 197.478 87.5142 197.581 87.8913 197.787C88.2684 197.994 88.56 198.308 88.7663 198.73C88.9725 199.149 89.0757 199.666 89.0757 200.282V205H87.8961V200.369C87.8961 199.988 87.83 199.66 87.6979 199.383C87.5658 199.105 87.3724 198.894 87.1178 198.749C86.8632 198.604 86.5619 198.532 86.2138 198.532C85.8496 198.532 85.5257 198.611 85.2421 198.769C84.9617 198.927 84.741 199.157 84.5798 199.46C84.4187 199.763 84.3381 200.124 84.3381 200.543V205ZM90.9515 197.575H92.1311V205H90.9515V197.575ZM91.551 196.347C91.4027 196.347 91.2657 196.311 91.1401 196.24C91.0144 196.169 90.9128 196.074 90.8355 195.955C90.7581 195.836 90.7195 195.705 90.7195 195.564C90.7195 195.422 90.7581 195.29 90.8355 195.167C90.9128 195.045 91.0144 194.95 91.1401 194.882C91.2657 194.814 91.4027 194.78 91.551 194.78C91.696 194.78 91.8314 194.814 91.957 194.882C92.086 194.95 92.1875 195.045 92.2616 195.167C92.3357 195.29 92.3728 195.422 92.3728 195.564C92.3728 195.705 92.3357 195.836 92.2616 195.955C92.1875 196.074 92.086 196.169 91.957 196.24C91.8314 196.311 91.696 196.347 91.551 196.347ZM98.5445 201.558C98.3576 201.568 98.0611 201.587 97.655 201.616C97.2522 201.645 96.8945 201.671 96.5818 201.693C96.0243 201.729 95.5924 201.85 95.2863 202.056C94.9833 202.259 94.8318 202.557 94.8318 202.95C94.8318 203.205 94.8979 203.421 95.03 203.598C95.1622 203.772 95.3443 203.904 95.5763 203.994C95.8084 204.085 96.0759 204.13 96.3788 204.13C96.8074 204.13 97.1781 204.044 97.4907 203.874C97.8065 203.703 98.045 203.479 98.2061 203.202C98.3673 202.924 98.4479 202.628 98.4479 202.312V199.992C98.4479 199.676 98.385 199.407 98.2593 199.184C98.1336 198.962 97.9451 198.793 97.6937 198.677C97.4456 198.561 97.1362 198.503 96.7655 198.503C96.4626 198.503 96.1967 198.546 95.9679 198.633C95.7391 198.72 95.5505 198.84 95.4023 198.991C95.254 199.139 95.1509 199.312 95.0929 199.508H93.8747C93.923 199.112 94.0761 198.761 94.3339 198.454C94.595 198.145 94.9398 197.905 95.3684 197.734C95.7971 197.563 96.2821 197.478 96.8235 197.478C97.249 197.478 97.6679 197.542 98.0805 197.671C98.493 197.8 98.8523 198.06 99.1585 198.45C99.4647 198.84 99.6177 199.392 99.6177 200.108V205H98.4479V203.994H98.3898C98.2964 204.185 98.1562 204.368 97.9693 204.546C97.7856 204.72 97.5422 204.868 97.2393 204.99C96.9363 205.113 96.5851 205.174 96.1854 205.174C95.7117 205.174 95.2814 205.084 94.8947 204.903C94.5112 204.723 94.2082 204.46 93.9858 204.115C93.7635 203.77 93.6523 203.363 93.6523 202.892C93.6523 202.128 93.9149 201.589 94.4403 201.273C94.9656 200.957 95.6311 200.768 96.4368 200.707C96.6721 200.691 96.9412 200.675 97.2441 200.659C97.5503 200.64 97.842 200.623 98.1191 200.61C98.3125 200.598 98.4479 200.591 98.5252 200.591L98.5445 201.558Z" fill="#0E303C"/>
<path d="M143 185V215H145V185H143Z" fill="#D4B9D7" mask="url(#path-7-inside-2_71_3919)"/>
<rect x="154" y="185" width="65" height="30" rx="5" fill="#D4B9D7"/>
<path d="M231.966 205.5H229.907V197.557H229.849L227.576 198.983V197.156L230.027 195.599H231.966V205.5ZM238.528 205.5H236.469V197.557H236.411L234.139 198.983V197.156L236.59 195.599H238.528V205.5ZM241.507 205.621C241.297 205.621 241.104 205.569 240.926 205.466C240.749 205.36 240.609 205.22 240.506 205.046C240.403 204.872 240.353 204.681 240.356 204.475C240.353 204.269 240.403 204.079 240.506 203.905C240.609 203.727 240.749 203.589 240.926 203.489C241.104 203.386 241.297 203.334 241.507 203.334C241.706 203.334 241.895 203.386 242.072 203.489C242.249 203.589 242.39 203.727 242.493 203.905C242.599 204.079 242.652 204.269 242.652 204.475C242.652 204.681 242.599 204.872 242.493 205.046C242.39 205.22 242.249 205.36 242.072 205.466C241.895 205.569 241.706 205.621 241.507 205.621ZM247.697 195.464C248.429 195.467 249.093 195.628 249.689 195.948C250.288 196.267 250.77 196.785 251.134 197.504C251.502 198.22 251.687 199.148 251.69 200.289C251.69 201.397 251.523 202.353 251.187 203.155C250.855 203.958 250.383 204.572 249.771 204.997C249.159 205.423 248.44 205.635 247.615 205.635C246.964 205.635 246.381 205.51 245.865 205.258C245.352 205.007 244.938 204.66 244.622 204.219C244.31 203.774 244.12 203.273 244.052 202.715H246.078C246.136 202.957 246.234 203.165 246.372 203.339C246.514 203.51 246.69 203.642 246.899 203.735C247.109 203.826 247.347 203.871 247.615 203.871C248.056 203.871 248.432 203.744 248.741 203.489C249.051 203.234 249.283 202.87 249.437 202.396C249.595 201.919 249.676 201.351 249.679 200.69H249.587C249.436 200.977 249.231 201.225 248.973 201.434C248.719 201.641 248.425 201.8 248.093 201.913C247.765 202.026 247.418 202.082 247.054 202.082C246.468 202.082 245.939 201.945 245.468 201.671C245.001 201.394 244.632 201.014 244.361 200.53C244.091 200.047 243.954 199.502 243.951 198.896C243.951 198.239 244.107 197.649 244.419 197.127C244.732 196.602 245.172 196.192 245.739 195.899C246.31 195.606 246.962 195.461 247.697 195.464ZM247.707 197.084C247.375 197.084 247.073 197.161 246.803 197.316C246.535 197.47 246.326 197.681 246.174 197.949C246.023 198.216 245.949 198.513 245.952 198.838C245.952 199.161 246.026 199.456 246.174 199.723C246.326 199.987 246.534 200.197 246.798 200.352C247.062 200.503 247.36 200.579 247.692 200.579C248.021 200.579 248.321 200.5 248.591 200.342C248.865 200.181 249.08 199.966 249.234 199.699C249.389 199.431 249.465 199.141 249.462 198.829C249.462 198.516 249.386 198.226 249.234 197.959C249.083 197.688 248.872 197.475 248.601 197.32C248.334 197.163 248.035 197.084 247.707 197.084ZM256.717 205.635C256.037 205.635 255.425 205.511 254.88 205.263C254.336 205.012 253.905 204.665 253.59 204.224C253.277 203.779 253.114 203.276 253.101 202.715H255.098C255.114 202.967 255.196 203.191 255.344 203.387C255.493 203.584 255.686 203.739 255.925 203.852C256.166 203.961 256.431 204.016 256.717 204.016C257.056 204.016 257.357 203.942 257.621 203.794C257.889 203.642 258.097 203.434 258.245 203.17C258.393 202.902 258.467 202.598 258.467 202.256C258.467 201.915 258.392 201.608 258.24 201.338C258.089 201.064 257.876 200.853 257.602 200.704C257.331 200.553 257.025 200.476 256.683 200.472C256.313 200.472 255.997 200.542 255.736 200.68C255.478 200.819 255.278 201.025 255.137 201.299H253.266L253.807 195.599H259.898V197.287H255.499L255.228 199.786H255.306C255.428 199.622 255.589 199.477 255.789 199.351C255.992 199.222 256.221 199.122 256.476 199.051C256.733 198.98 257.006 198.945 257.293 198.945C257.892 198.945 258.432 199.085 258.912 199.365C259.396 199.642 259.773 200.029 260.043 200.526C260.317 201.022 260.454 201.581 260.454 202.203C260.454 202.864 260.298 203.455 259.985 203.977C259.673 204.496 259.233 204.902 258.666 205.195C258.098 205.489 257.449 205.635 256.717 205.635Z" fill="#0E303C"/>
<path d="M34.2417 245L37.8674 235.099H39.163L42.7887 245H41.4931L38.5539 236.695H38.4765L35.5373 245H34.2417ZM41.058 241.133V242.215H35.982V241.133H41.058ZM46.7587 238.561H42.8913V237.575H46.7587V238.561ZM45.1924 235.796V242.863C45.1924 243.163 45.2376 243.395 45.3278 243.559C45.418 243.721 45.5324 243.83 45.671 243.888C45.8096 243.946 45.9756 243.975 46.169 243.975C46.285 243.975 46.517 243.965 46.8651 243.946V245.039C46.6201 245.077 46.3462 245.097 46.0433 245.097C45.6984 245.097 45.3713 245.024 45.0619 244.879C44.7557 244.734 44.5044 244.517 44.3078 244.227C44.1112 243.936 44.0129 243.585 44.0129 243.173V235.796H45.1924ZM51.3088 245.155C50.603 245.155 49.9875 244.997 49.4621 244.681C48.94 244.365 48.5388 243.92 48.2584 243.347C47.978 242.77 47.8378 242.103 47.8378 241.345C47.8378 240.591 47.978 239.921 48.2584 239.334C48.5388 238.748 48.932 238.292 49.438 237.966C49.9472 237.641 50.5321 237.478 51.1928 237.478C51.7568 237.478 52.2805 237.602 52.7639 237.85C53.2506 238.098 53.6454 238.5 53.9483 239.054C54.2513 239.608 54.4027 240.32 54.4027 241.191V241.684H48.65V240.678H53.2038C53.2038 240.266 53.1217 239.895 52.9573 239.566C52.7929 239.238 52.5593 238.981 52.2563 238.798C51.9534 238.614 51.6021 238.522 51.2025 238.522C50.7674 238.522 50.3839 238.63 50.0519 238.846C49.7232 239.062 49.4686 239.349 49.2881 239.706C49.1076 240.061 49.0174 240.443 49.0174 240.852V241.529C49.0174 242.074 49.1125 242.539 49.3026 242.926C49.4928 243.31 49.7602 243.603 50.1051 243.806C50.4499 244.009 50.8512 244.11 51.3088 244.11C51.5924 244.11 51.8486 244.073 52.0775 243.999C52.3063 243.925 52.498 243.824 52.6527 243.695C52.8107 243.566 52.9364 243.421 53.0298 243.26H54.2867C54.1707 243.637 53.9757 243.969 53.7018 244.256C53.4278 244.539 53.0846 244.76 52.6721 244.918C52.2628 245.076 51.8084 245.155 51.3088 245.155ZM57.1037 245H55.9242V235.099H57.1037V245ZM62.0959 245.155C61.3901 245.155 60.7746 244.997 60.2492 244.681C59.7271 244.365 59.3259 243.92 59.0455 243.347C58.7651 242.77 58.6249 242.103 58.6249 241.345C58.6249 240.591 58.7651 239.921 59.0455 239.334C59.3259 238.748 59.7191 238.292 60.2251 237.966C60.7343 237.641 61.3192 237.478 61.9799 237.478C62.5439 237.478 63.0676 237.602 63.551 237.85C64.0377 238.098 64.4325 238.5 64.7354 239.054C65.0384 239.608 65.1899 240.32 65.1899 241.191V241.684H59.4371V240.678H63.991C63.991 240.266 63.9088 239.895 63.7444 239.566C63.58 239.238 63.3464 238.981 63.0434 238.798C62.7405 238.614 62.3892 238.522 61.9896 238.522C61.5545 238.522 61.171 238.63 60.839 238.846C60.5103 239.062 60.2557 239.349 60.0752 239.706C59.8947 240.061 59.8045 240.443 59.8045 240.852V241.529C59.8045 242.074 59.8996 242.539 60.0897 242.926C60.2799 243.31 60.5474 243.603 60.8922 243.806C61.237 244.009 61.6383 244.11 62.0959 244.11C62.3795 244.11 62.6358 244.073 62.8646 243.999C63.0934 243.925 63.2852 243.824 63.4399 243.695C63.5978 243.566 63.7235 243.421 63.8169 243.26H65.0738C64.9578 243.637 64.7628 243.969 64.4889 244.256C64.2149 244.539 63.8717 244.76 63.4592 244.918C63.0499 245.076 62.5955 245.155 62.0959 245.155ZM69.7472 245.155C69.0607 245.155 68.4613 244.992 67.9489 244.666C67.4396 244.341 67.0481 243.888 66.7741 243.308C66.5002 242.728 66.3632 242.067 66.3632 241.326C66.3632 240.578 66.5034 239.913 66.7838 239.329C67.0642 238.746 67.459 238.292 67.9682 237.966C68.4774 237.641 69.064 237.478 69.7279 237.478C70.2467 237.478 70.7189 237.575 71.1443 237.768C71.5729 237.961 71.9194 238.237 72.1837 238.595C72.4512 238.949 72.6155 239.357 72.6768 239.818H71.5069C71.4456 239.582 71.3377 239.366 71.183 239.17C71.0315 238.97 70.8333 238.812 70.5884 238.696C70.3466 238.58 70.0663 238.522 69.7472 238.522C69.3089 238.522 68.9238 238.637 68.5918 238.865C68.2599 239.094 68.002 239.418 67.8183 239.837C67.6346 240.253 67.5428 240.736 67.5428 241.287C67.5428 241.851 67.633 242.346 67.8135 242.771C67.994 243.194 68.2502 243.521 68.5821 243.753C68.9141 243.985 69.3024 244.101 69.7472 244.101C70.0405 244.101 70.3064 244.049 70.5448 243.946C70.7866 243.843 70.9896 243.696 71.154 243.506C71.3183 243.313 71.436 243.082 71.5069 242.815H72.6768C72.6155 243.26 72.456 243.659 72.1982 244.014C71.9436 244.368 71.6052 244.647 71.183 244.85C70.764 245.053 70.2854 245.155 69.7472 245.155ZM77.3701 238.561H73.5027V237.575H77.3701V238.561ZM75.8038 235.796V242.863C75.8038 243.163 75.8489 243.395 75.9391 243.559C76.0294 243.721 76.1438 243.83 76.2824 243.888C76.4209 243.946 76.5869 243.975 76.7803 243.975C76.8963 243.975 77.1283 243.965 77.4764 243.946V245.039C77.2315 245.077 76.9575 245.097 76.6546 245.097C76.3097 245.097 75.9826 245.024 75.6732 244.879C75.3671 244.734 75.1157 244.517 74.9191 244.227C74.7225 243.936 74.6242 243.585 74.6242 243.173V235.796H75.8038ZM83.4235 241.558C83.2365 241.568 82.94 241.587 82.5339 241.616C82.1311 241.645 81.7734 241.671 81.4607 241.693C80.9032 241.729 80.4713 241.85 80.1652 242.056C79.8622 242.259 79.7107 242.557 79.7107 242.95C79.7107 243.205 79.7768 243.421 79.9089 243.598C80.0411 243.772 80.2232 243.904 80.4552 243.994C80.6873 244.085 80.9548 244.13 81.2577 244.13C81.6863 244.13 82.057 244.044 82.3696 243.874C82.6854 243.703 82.9239 243.479 83.0851 243.202C83.2462 242.924 83.3268 242.628 83.3268 242.312V239.992C83.3268 239.676 83.2639 239.407 83.1382 239.184C83.0125 238.962 82.824 238.793 82.5726 238.677C82.3245 238.561 82.0151 238.503 81.6444 238.503C81.3415 238.503 81.0756 238.546 80.8468 238.633C80.618 238.72 80.4294 238.84 80.2812 238.991C80.1329 239.139 80.0298 239.312 79.9718 239.508H78.7536C78.8019 239.112 78.955 238.761 79.2128 238.454C79.4739 238.145 79.8187 237.905 80.2473 237.734C80.676 237.563 81.161 237.478 81.7025 237.478C82.1279 237.478 82.5468 237.542 82.9594 237.671C83.3719 237.8 83.7312 238.06 84.0374 238.45C84.3436 238.84 84.4967 239.392 84.4967 240.108V245H83.3268V243.994H83.2688C83.1753 244.185 83.0351 244.368 82.8482 244.546C82.6645 244.72 82.4211 244.868 82.1182 244.99C81.8153 245.113 81.464 245.174 81.0643 245.174C80.5906 245.174 80.1603 245.084 79.7736 244.903C79.3901 244.723 79.0871 244.46 78.8647 244.115C78.6424 243.77 78.5312 243.363 78.5312 242.892C78.5312 242.128 78.7938 241.589 79.3192 241.273C79.8445 240.957 80.51 240.768 81.3157 240.707C81.551 240.691 81.8201 240.675 82.123 240.659C82.4292 240.64 82.7209 240.623 82.998 240.61C83.1914 240.598 83.3268 240.591 83.4041 240.591L83.4235 241.558ZM90.4999 239.508C90.4193 239.186 90.255 238.935 90.0068 238.754C89.7586 238.574 89.4235 238.483 89.0013 238.483C88.7015 238.483 88.4324 238.532 88.194 238.628C87.9587 238.725 87.7734 238.859 87.638 239.03C87.5027 239.201 87.435 239.389 87.435 239.595C87.435 239.843 87.5381 240.053 87.7444 240.224C87.9506 240.395 88.2697 240.533 88.7015 240.64L89.8134 240.91C90.4773 241.071 90.972 241.318 91.2975 241.65C91.6231 241.982 91.7858 242.406 91.7858 242.921C91.7858 243.353 91.6714 243.737 91.4426 244.072C91.2138 244.407 90.8802 244.671 90.4419 244.865C90.0068 245.058 89.4847 245.155 88.8756 245.155C88.3245 245.155 87.8459 245.074 87.4398 244.913C87.037 244.752 86.7163 244.515 86.4778 244.202C86.2393 243.89 86.0878 243.508 86.0234 243.057H87.2513C87.319 243.418 87.4849 243.687 87.7492 243.864C88.0167 244.041 88.3857 244.13 88.8562 244.13C89.2043 244.13 89.5089 244.083 89.7699 243.99C90.031 243.896 90.2308 243.764 90.3694 243.593C90.5079 243.419 90.5772 243.218 90.5772 242.989C90.5772 242.725 90.4773 242.506 90.2775 242.331C90.0809 242.157 89.7748 242.022 89.359 241.925L88.2375 241.664C87.5929 241.516 87.1014 241.271 86.763 240.93C86.4246 240.585 86.2554 240.163 86.2554 239.663C86.2554 239.244 86.3714 238.869 86.6035 238.537C86.8355 238.205 87.1594 237.945 87.5752 237.758C87.9909 237.571 88.4663 237.478 89.0013 237.478C89.504 237.478 89.9472 237.562 90.3307 237.729C90.7142 237.897 91.0188 238.134 91.2444 238.44C91.47 238.746 91.6085 239.102 91.6601 239.508H90.4999ZM93.3168 237.575H94.4963V245H93.3168V237.575ZM93.9162 236.347C93.7679 236.347 93.631 236.311 93.5053 236.24C93.3796 236.169 93.2781 236.074 93.2007 235.955C93.1234 235.836 93.0847 235.705 93.0847 235.564C93.0847 235.422 93.1234 235.29 93.2007 235.167C93.2781 235.045 93.3796 234.95 93.5053 234.882C93.631 234.814 93.7679 234.78 93.9162 234.78C94.0612 234.78 94.1966 234.814 94.3223 234.882C94.4512 234.95 94.5527 235.045 94.6268 235.167C94.701 235.29 94.738 235.422 94.738 235.564C94.738 235.705 94.701 235.836 94.6268 235.955C94.5527 236.074 94.4512 236.169 94.3223 236.24C94.1966 236.311 94.0612 236.347 93.9162 236.347ZM100.494 239.508C100.413 239.186 100.249 238.935 100.001 238.754C99.7528 238.574 99.4176 238.483 98.9954 238.483C98.6957 238.483 98.4266 238.532 98.1881 238.628C97.9528 238.725 97.7675 238.859 97.6322 239.03C97.4968 239.201 97.4291 239.389 97.4291 239.595C97.4291 239.843 97.5322 240.053 97.7385 240.224C97.9448 240.395 98.2638 240.533 98.6957 240.64L99.8076 240.91C100.471 241.071 100.966 241.318 101.292 241.65C101.617 241.982 101.78 242.406 101.78 242.921C101.78 243.353 101.666 243.737 101.437 244.072C101.208 244.407 100.874 244.671 100.436 244.865C100.001 245.058 99.4788 245.155 98.8697 245.155C98.3186 245.155 97.84 245.074 97.4339 244.913C97.0311 244.752 96.7104 244.515 96.4719 244.202C96.2334 243.89 96.082 243.508 96.0175 243.057H97.2454C97.3131 243.418 97.4791 243.687 97.7433 243.864C98.0108 244.041 98.3799 244.13 98.8504 244.13C99.1985 244.13 99.503 244.083 99.7641 243.99C100.025 243.896 100.225 243.764 100.364 243.593C100.502 243.419 100.571 243.218 100.571 242.989C100.571 242.725 100.471 242.506 100.272 242.331C100.075 242.157 99.7689 242.022 99.3531 241.925L98.2316 241.664C97.587 241.516 97.0956 241.271 96.7572 240.93C96.4188 240.585 96.2496 240.163 96.2496 239.663C96.2496 239.244 96.3656 238.869 96.5976 238.537C96.8297 238.205 97.1536 237.945 97.5693 237.758C97.9851 237.571 98.4604 237.478 98.9954 237.478C99.4982 237.478 99.9413 237.562 100.325 237.729C100.708 237.897 101.013 238.134 101.239 238.44C101.464 238.746 101.603 239.102 101.654 239.508H100.494Z" fill="#0E303C"/>
<path d="M143 225V255H145V225H143Z" fill="#D4B9D7" mask="url(#path-13-inside-3_71_3919)"/>
<rect x="154" y="225" width="13" height="30" rx="5" fill="#D4B9D7"/>
<path d="M181.418 245.635C180.593 245.635 179.883 245.436 179.287 245.036C178.694 244.636 178.237 244.056 177.918 243.296C177.603 242.535 177.445 241.62 177.445 240.55C177.445 239.48 177.603 238.564 177.918 237.804C178.237 237.04 178.695 236.46 179.291 236.064C179.888 235.664 180.597 235.464 181.418 235.464C182.24 235.464 182.949 235.664 183.545 236.064C184.142 236.46 184.598 237.04 184.914 237.804C185.233 238.568 185.392 239.483 185.392 240.55C185.392 241.623 185.234 242.54 184.918 243.3C184.603 244.061 184.147 244.641 183.55 245.041C182.954 245.437 182.243 245.635 181.418 245.635ZM181.418 243.939C181.805 243.939 182.139 243.814 182.419 243.566C182.703 243.315 182.92 242.936 183.072 242.43C183.223 241.924 183.299 241.297 183.299 240.55C183.299 239.808 183.223 239.185 183.072 238.679C182.92 238.17 182.703 237.788 182.419 237.533C182.136 237.279 181.802 237.151 181.418 237.151C181.035 237.151 180.703 237.279 180.423 237.533C180.142 237.788 179.925 238.17 179.77 238.679C179.618 239.185 179.541 239.808 179.538 240.55C179.538 241.297 179.614 241.924 179.765 242.43C179.917 242.936 180.133 243.315 180.413 243.566C180.697 243.814 181.032 243.939 181.418 243.939ZM187.62 245.621C187.41 245.621 187.217 245.569 187.04 245.466C186.862 245.36 186.722 245.22 186.619 245.046C186.516 244.872 186.466 244.681 186.469 244.475C186.466 244.269 186.516 244.079 186.619 243.905C186.722 243.727 186.862 243.589 187.04 243.489C187.217 243.386 187.41 243.334 187.62 243.334C187.82 243.334 188.008 243.386 188.185 243.489C188.363 243.589 188.503 243.727 188.606 243.905C188.712 244.079 188.766 244.269 188.766 244.475C188.766 244.681 188.712 244.872 188.606 245.046C188.503 245.22 188.363 245.36 188.185 245.466C188.008 245.569 187.82 245.621 187.62 245.621ZM193.809 245.635C193.074 245.632 192.407 245.471 191.808 245.152C191.208 244.83 190.725 244.308 190.357 243.586C189.993 242.864 189.811 241.927 189.811 240.777C189.814 239.678 189.982 238.729 190.314 237.93C190.649 237.13 191.123 236.52 191.735 236.097C192.348 235.675 193.065 235.464 193.886 235.464C194.534 235.464 195.116 235.59 195.632 235.841C196.147 236.089 196.561 236.434 196.874 236.876C197.187 237.314 197.377 237.805 197.445 238.35H195.419C195.364 238.121 195.266 237.922 195.124 237.751C194.985 237.58 194.81 237.451 194.597 237.364C194.388 237.274 194.151 237.229 193.886 237.229C193.445 237.229 193.071 237.356 192.765 237.61C192.459 237.862 192.227 238.224 192.069 238.698C191.911 239.169 191.83 239.73 191.827 240.381H191.914C192.066 240.094 192.27 239.846 192.528 239.636C192.786 239.427 193.079 239.267 193.408 239.157C193.737 239.045 194.085 238.988 194.452 238.988C195.039 238.988 195.569 239.125 196.043 239.399C196.516 239.673 196.885 240.053 197.15 240.54C197.417 241.027 197.551 241.575 197.551 242.184C197.551 242.851 197.395 243.447 197.082 243.972C196.769 244.498 196.328 244.907 195.757 245.2C195.19 245.494 194.541 245.639 193.809 245.635ZM193.799 244.016C194.128 244.016 194.426 243.939 194.694 243.784C194.965 243.626 195.176 243.413 195.327 243.146C195.482 242.875 195.558 242.574 195.554 242.242C195.558 241.919 195.483 241.623 195.332 241.352C195.184 241.081 194.976 240.87 194.708 240.719C194.444 240.564 194.146 240.487 193.814 240.487C193.485 240.487 193.186 240.566 192.915 240.724C192.644 240.882 192.43 241.096 192.272 241.367C192.117 241.637 192.038 241.932 192.035 242.251C192.035 242.57 192.112 242.865 192.267 243.136C192.422 243.404 192.633 243.618 192.9 243.779C193.168 243.937 193.468 244.016 193.799 244.016ZM202.694 245.635C201.953 245.635 201.287 245.515 200.698 245.273C200.108 245.028 199.645 244.694 199.31 244.272C198.978 243.847 198.812 243.368 198.812 242.836C198.812 242.43 198.909 242.052 199.102 241.7C199.296 241.349 199.557 241.059 199.885 240.83C200.217 240.598 200.585 240.451 200.988 240.39V240.323C200.639 240.255 200.328 240.116 200.055 239.907C199.781 239.697 199.566 239.438 199.412 239.128C199.26 238.819 199.184 238.485 199.184 238.128C199.184 237.622 199.336 237.166 199.639 236.76C199.945 236.354 200.364 236.036 200.896 235.807C201.431 235.578 202.03 235.464 202.694 235.464C203.358 235.464 203.957 235.578 204.492 235.807C205.027 236.036 205.445 236.354 205.744 236.76C206.047 237.166 206.199 237.622 206.199 238.128C206.199 238.485 206.122 238.819 205.967 239.128C205.812 239.438 205.598 239.697 205.324 239.907C205.053 240.116 204.744 240.255 204.396 240.323V240.39C204.795 240.451 205.161 240.598 205.493 240.83C205.828 241.059 206.091 241.349 206.281 241.7C206.474 242.052 206.573 242.43 206.576 242.836C206.573 243.368 206.405 243.847 206.073 244.272C205.744 244.694 205.284 245.028 204.691 245.273C204.098 245.515 203.432 245.635 202.694 245.635ZM202.694 244.069C203.036 244.069 203.339 244.008 203.603 243.885C203.867 243.763 204.072 243.594 204.217 243.378C204.362 243.162 204.434 242.914 204.434 242.633C204.434 242.35 204.359 242.095 204.207 241.869C204.059 241.641 203.851 241.463 203.584 241.338C203.319 241.209 203.023 241.144 202.694 241.144C202.362 241.144 202.062 241.209 201.795 241.338C201.531 241.463 201.324 241.641 201.176 241.869C201.028 242.095 200.955 242.35 200.959 242.633C200.955 242.91 201.025 243.157 201.166 243.373C201.311 243.589 201.516 243.76 201.78 243.885C202.045 244.008 202.349 244.069 202.694 244.069ZM202.694 239.684C202.981 239.684 203.237 239.628 203.463 239.515C203.692 239.399 203.87 239.24 203.999 239.037C204.128 238.83 204.193 238.598 204.193 238.34C204.193 238.083 204.128 237.854 203.999 237.654C203.874 237.454 203.696 237.299 203.468 237.19C203.242 237.077 202.984 237.021 202.694 237.021C202.401 237.021 202.14 237.077 201.911 237.19C201.685 237.299 201.51 237.454 201.384 237.654C201.258 237.854 201.195 238.083 201.195 238.34C201.195 238.598 201.258 238.83 201.384 239.037C201.513 239.24 201.692 239.399 201.921 239.515C202.149 239.628 202.407 239.684 202.694 239.684Z" fill="#0E303C"/>
<path d="M35.0925 275.099H41.0967V276.192H36.3204V279.499H40.7776V280.581H36.3204V283.907H41.1644V285H35.0925V275.099ZM46.2072 278.561H42.1851V277.575H46.2072V278.561ZM43.384 276.569C43.384 276.169 43.4694 275.825 43.6402 275.535C43.811 275.244 44.0543 275.022 44.3702 274.867C44.686 274.713 45.0598 274.635 45.4917 274.635C45.6303 274.635 45.7801 274.643 45.9413 274.66C46.1024 274.676 46.2458 274.697 46.3715 274.722V275.767C46.1621 275.734 45.959 275.718 45.7624 275.718C45.3467 275.718 45.0421 275.807 44.8487 275.984C44.6586 276.161 44.5635 276.443 44.5635 276.83V285H43.384V276.569ZM50.924 278.561H46.9019V277.575H50.924V278.561ZM48.1008 276.569C48.1008 276.169 48.1862 275.825 48.357 275.535C48.5278 275.244 48.7711 275.022 49.087 274.867C49.4028 274.713 49.7766 274.635 50.2085 274.635C50.3471 274.635 50.4969 274.643 50.6581 274.66C50.8192 274.676 50.9626 274.697 51.0883 274.722V275.767C50.8788 275.734 50.6758 275.718 50.4792 275.718C50.0635 275.718 49.7589 275.807 49.5655 275.984C49.3754 276.161 49.2803 276.443 49.2803 276.83V285H48.1008V276.569ZM57.004 277.575H58.1739V285H57.004V283.743H56.9267C56.8074 284.004 56.6447 284.236 56.4384 284.439C56.2354 284.639 55.9888 284.799 55.6988 284.918C55.4087 285.037 55.0832 285.097 54.7223 285.097C54.2453 285.097 53.8263 284.992 53.4654 284.782C53.1044 284.573 52.8224 284.259 52.6194 283.84C52.4163 283.421 52.3148 282.905 52.3148 282.293V277.575H53.4944V282.206C53.4944 282.557 53.5636 282.866 53.7022 283.134C53.8408 283.398 54.031 283.603 54.2727 283.748C54.5144 283.893 54.7932 283.965 55.109 283.965C55.4087 283.965 55.7036 283.89 55.9937 283.738C56.2869 283.587 56.5287 283.361 56.7188 283.061C56.909 282.759 57.004 282.39 57.004 281.954V277.575ZM64.1815 279.508C64.101 279.186 63.9366 278.935 63.6884 278.754C63.4403 278.574 63.1051 278.483 62.6829 278.483C62.3832 278.483 62.1141 278.532 61.8756 278.628C61.6403 278.725 61.455 278.859 61.3197 279.03C61.1843 279.201 61.1166 279.389 61.1166 279.595C61.1166 279.843 61.2197 280.053 61.426 280.224C61.6323 280.395 61.9513 280.533 62.3832 280.64L63.4951 280.91C64.159 281.071 64.6537 281.318 64.9792 281.65C65.3047 281.982 65.4674 282.406 65.4674 282.921C65.4674 283.353 65.353 283.737 65.1242 284.072C64.8954 284.407 64.5618 284.671 64.1235 284.865C63.6884 285.058 63.1663 285.155 62.5572 285.155C62.0061 285.155 61.5275 285.074 61.1214 284.913C60.7186 284.752 60.3979 284.515 60.1594 284.202C59.9209 283.89 59.7695 283.508 59.705 283.057H60.9329C61.0006 283.418 61.1666 283.687 61.4308 283.864C61.6983 284.041 62.0674 284.13 62.5379 284.13C62.886 284.13 63.1905 284.083 63.4516 283.99C63.7126 283.896 63.9124 283.764 64.051 283.593C64.1896 283.419 64.2589 283.218 64.2589 282.989C64.2589 282.725 64.159 282.506 63.9592 282.331C63.7626 282.157 63.4564 282.022 63.0406 281.925L61.9191 281.664C61.2745 281.516 60.7831 281.271 60.4447 280.93C60.1063 280.585 59.9371 280.163 59.9371 279.663C59.9371 279.244 60.0531 278.869 60.2851 278.537C60.5172 278.205 60.8411 277.945 61.2568 277.758C61.6726 277.571 62.1479 277.478 62.6829 277.478C63.1857 277.478 63.6288 277.562 64.0123 277.729C64.3959 277.897 64.7004 278.134 64.926 278.44C65.1516 278.746 65.2902 279.102 65.3418 279.508H64.1815ZM66.9984 277.575H68.178V285H66.9984V277.575ZM67.5978 276.347C67.4496 276.347 67.3126 276.311 67.1869 276.24C67.0612 276.169 66.9597 276.074 66.8824 275.955C66.805 275.836 66.7663 275.705 66.7663 275.564C66.7663 275.422 66.805 275.29 66.8824 275.167C66.9597 275.045 67.0612 274.95 67.1869 274.882C67.3126 274.814 67.4496 274.78 67.5978 274.78C67.7429 274.78 67.8782 274.814 68.0039 274.882C68.1328 274.95 68.2343 275.045 68.3085 275.167C68.3826 275.29 68.4197 275.422 68.4197 275.564C68.4197 275.705 68.3826 275.836 68.3085 275.955C68.2343 276.074 68.1328 276.169 68.0039 276.24C67.8782 276.311 67.7429 276.347 67.5978 276.347ZM73.0831 285.155C72.416 285.155 71.8262 284.995 71.3138 284.676C70.8046 284.357 70.4082 283.909 70.1246 283.332C69.841 282.752 69.6992 282.083 69.6992 281.326C69.6992 280.562 69.841 279.89 70.1246 279.31C70.4082 278.727 70.8046 278.276 71.3138 277.956C71.8262 277.637 72.416 277.478 73.0831 277.478C73.7503 277.478 74.3384 277.637 74.8476 277.956C75.3601 278.276 75.7565 278.727 76.0369 279.31C76.3172 279.89 76.4574 280.562 76.4574 281.326C76.4574 282.083 76.3172 282.752 76.0369 283.332C75.7565 283.909 75.3601 284.357 74.8476 284.676C74.3384 284.995 73.7503 285.155 73.0831 285.155ZM73.0831 284.11C73.5633 284.11 73.9678 283.985 74.2965 283.733C74.6285 283.482 74.875 283.145 75.0362 282.723C75.1973 282.301 75.2779 281.835 75.2779 281.326C75.2779 280.814 75.1973 280.346 75.0362 279.924C74.875 279.499 74.6285 279.159 74.2965 278.904C73.9678 278.649 73.5633 278.522 73.0831 278.522C72.5997 278.522 72.1936 278.649 71.8649 278.904C71.5362 279.159 71.2896 279.499 71.1253 279.924C70.9609 280.346 70.8787 280.814 70.8787 281.326C70.8787 281.835 70.9609 282.301 71.1253 282.723C71.2896 283.145 71.5362 283.482 71.8649 283.733C72.1936 283.985 72.5997 284.11 73.0831 284.11ZM79.1701 285H77.9906V277.575H79.1315V278.744H79.2281C79.3474 278.483 79.5053 278.259 79.7019 278.073C79.9017 277.882 80.1418 277.736 80.4222 277.633C80.7058 277.529 81.0297 277.478 81.3939 277.478C81.9031 277.478 82.3462 277.581 82.7233 277.787C83.1004 277.994 83.3921 278.308 83.5983 278.73C83.8046 279.149 83.9077 279.666 83.9077 280.282V285H82.7281V280.369C82.7281 279.988 82.6621 279.66 82.5299 279.383C82.3978 279.105 82.2044 278.894 81.9498 278.749C81.6952 278.604 81.3939 278.532 81.0458 278.532C80.6816 278.532 80.3578 278.611 80.0741 278.769C79.7938 278.927 79.573 279.157 79.4119 279.46C79.2507 279.763 79.1701 280.124 79.1701 280.543V285Z" fill="#0E303C"/>
<path d="M143 265V295H145V265H143Z" fill="#D4B9D7" mask="url(#path-19-inside-4_71_3919)"/>
<rect x="154" y="265" width="13" height="30" rx="5" fill="#D4B9D7"/>
<path d="M186.374 285.635C185.549 285.635 184.839 285.436 184.243 285.036C183.65 284.636 183.194 284.056 182.874 283.296C182.559 282.535 182.401 281.62 182.401 280.55C182.401 279.48 182.559 278.564 182.874 277.804C183.194 277.04 183.651 276.46 184.247 276.064C184.844 275.664 185.553 275.464 186.374 275.464C187.196 275.464 187.905 275.664 188.502 276.064C189.098 276.46 189.554 277.04 189.87 277.804C190.189 278.568 190.348 279.483 190.348 280.55C190.348 281.623 190.19 282.54 189.874 283.3C189.559 284.061 189.103 284.641 188.506 285.041C187.91 285.437 187.2 285.635 186.374 285.635ZM186.374 283.939C186.761 283.939 187.095 283.814 187.375 283.566C187.659 283.315 187.876 282.936 188.028 282.43C188.179 281.924 188.255 281.297 188.255 280.55C188.255 279.808 188.179 279.185 188.028 278.679C187.876 278.17 187.659 277.788 187.375 277.533C187.092 277.279 186.758 277.151 186.374 277.151C185.991 277.151 185.659 277.279 185.379 277.533C185.098 277.788 184.881 278.17 184.726 278.679C184.575 279.185 184.497 279.808 184.494 280.55C184.494 281.297 184.57 281.924 184.721 282.43C184.873 282.936 185.089 283.315 185.369 283.566C185.653 283.814 185.988 283.939 186.374 283.939ZM192.576 285.621C192.366 285.621 192.173 285.569 191.996 285.466C191.818 285.36 191.678 285.22 191.575 285.046C191.472 284.872 191.422 284.681 191.425 284.475C191.422 284.269 191.472 284.079 191.575 283.905C191.678 283.727 191.818 283.589 191.996 283.489C192.173 283.386 192.366 283.334 192.576 283.334C192.776 283.334 192.964 283.386 193.141 283.489C193.319 283.589 193.459 283.727 193.562 283.905C193.668 284.079 193.722 284.269 193.722 284.475C193.722 284.681 193.668 284.872 193.562 285.046C193.459 285.22 193.319 285.36 193.141 285.466C192.964 285.569 192.776 285.621 192.576 285.621ZM199.527 277.354V277.287H194.673V275.599H201.658V277.316L197.482 285.5H195.355L199.527 277.354Z" fill="#0E303C"/>
<path d="M36.5718 315.099L39.9075 323.25H40.0235L43.3591 315.099H44.8384V325H43.6782V317.526H43.5815L40.5069 325H39.4144L36.3398 317.517H36.2528V325H35.0925V315.099H36.5718ZM51.4176 321.558C51.2307 321.568 50.9342 321.587 50.5281 321.616C50.1252 321.645 49.7675 321.671 49.4549 321.693C48.8973 321.729 48.4655 321.85 48.1593 322.056C47.8564 322.259 47.7049 322.557 47.7049 322.95C47.7049 323.205 47.771 323.421 47.9031 323.598C48.0352 323.772 48.2173 323.904 48.4494 323.994C48.6814 324.085 48.9489 324.13 49.2518 324.13C49.6805 324.13 50.0511 324.044 50.3637 323.874C50.6796 323.703 50.9181 323.479 51.0792 323.202C51.2403 322.924 51.3209 322.628 51.3209 322.312V319.992C51.3209 319.676 51.2581 319.407 51.1324 319.184C51.0067 318.962 50.8181 318.793 50.5668 318.677C50.3186 318.561 50.0092 318.503 49.6386 318.503C49.3356 318.503 49.0698 318.546 48.8409 318.633C48.6121 318.72 48.4236 318.84 48.2753 318.991C48.1271 319.139 48.0239 319.312 47.9659 319.508H46.7477C46.796 319.112 46.9491 318.761 47.207 318.454C47.468 318.145 47.8128 317.905 48.2415 317.734C48.6701 317.563 49.1552 317.478 49.6966 317.478C50.122 317.478 50.541 317.542 50.9535 317.671C51.366 317.8 51.7254 318.06 52.0315 318.45C52.3377 318.84 52.4908 319.392 52.4908 320.108V325H51.3209V323.994H51.2629C51.1694 324.185 51.0292 324.368 50.8423 324.546C50.6586 324.72 50.4153 324.868 50.1123 324.99C49.8094 325.113 49.4581 325.174 49.0585 325.174C48.5847 325.174 48.1545 325.084 47.7677 324.903C47.3842 324.723 47.0813 324.46 46.8589 324.115C46.6365 323.77 46.5253 323.363 46.5253 322.892C46.5253 322.128 46.788 321.589 47.3133 321.273C47.8386 320.957 48.5041 320.768 49.3099 320.707C49.5451 320.691 49.8142 320.675 50.1172 320.659C50.4233 320.64 50.715 320.623 50.9922 320.61C51.1855 320.598 51.3209 320.591 51.3983 320.591L51.4176 321.558ZM58.494 319.508C58.4135 319.186 58.2491 318.935 58.0009 318.754C57.7528 318.574 57.4176 318.483 56.9954 318.483C56.6957 318.483 56.4266 318.532 56.1881 318.628C55.9528 318.725 55.7675 318.859 55.6322 319.03C55.4968 319.201 55.4291 319.389 55.4291 319.595C55.4291 319.843 55.5322 320.053 55.7385 320.224C55.9448 320.395 56.2638 320.533 56.6957 320.64L57.8076 320.91C58.4715 321.071 58.9662 321.318 59.2917 321.65C59.6172 321.982 59.7799 322.406 59.7799 322.921C59.7799 323.353 59.6655 323.737 59.4367 324.072C59.2079 324.407 58.8743 324.671 58.436 324.865C58.0009 325.058 57.4788 325.155 56.8697 325.155C56.3186 325.155 55.84 325.074 55.4339 324.913C55.0311 324.752 54.7104 324.515 54.4719 324.202C54.2334 323.89 54.082 323.508 54.0175 323.057H55.2454C55.3131 323.418 55.4791 323.687 55.7433 323.864C56.0108 324.041 56.3799 324.13 56.8504 324.13C57.1985 324.13 57.503 324.083 57.7641 323.99C58.0251 323.896 58.2249 323.764 58.3635 323.593C58.5021 323.419 58.5714 323.218 58.5714 322.989C58.5714 322.725 58.4715 322.506 58.2717 322.331C58.0751 322.157 57.7689 322.022 57.3531 321.925L56.2316 321.664C55.587 321.516 55.0956 321.271 54.7572 320.93C54.4188 320.585 54.2496 320.163 54.2496 319.663C54.2496 319.244 54.3656 318.869 54.5976 318.537C54.8297 318.205 55.1536 317.945 55.5693 317.758C55.9851 317.571 56.4604 317.478 56.9954 317.478C57.4982 317.478 57.9413 317.562 58.3248 317.729C58.7084 317.897 59.0129 318.134 59.2385 318.44C59.4641 318.746 59.6027 319.102 59.6543 319.508H58.494ZM65.4393 319.508C65.3588 319.186 65.1944 318.935 64.9463 318.754C64.6981 318.574 64.3629 318.483 63.9407 318.483C63.641 318.483 63.3719 318.532 63.1334 318.628C62.8981 318.725 62.7128 318.859 62.5775 319.03C62.4421 319.201 62.3744 319.389 62.3744 319.595C62.3744 319.843 62.4776 320.053 62.6838 320.224C62.8901 320.395 63.2091 320.533 63.641 320.64L64.7529 320.91C65.4168 321.071 65.9115 321.318 66.237 321.65C66.5625 321.982 66.7253 322.406 66.7253 322.921C66.7253 323.353 66.6108 323.737 66.382 324.072C66.1532 324.407 65.8196 324.671 65.3813 324.865C64.9463 325.058 64.4242 325.155 63.815 325.155C63.2639 325.155 62.7853 325.074 62.3793 324.913C61.9764 324.752 61.6557 324.515 61.4172 324.202C61.1788 323.89 61.0273 323.508 60.9628 323.057H62.1907C62.2584 323.418 62.4244 323.687 62.6887 323.864C62.9562 324.041 63.3252 324.13 63.7957 324.13C64.1438 324.13 64.4483 324.083 64.7094 323.99C64.9704 323.896 65.1702 323.764 65.3088 323.593C65.4474 323.419 65.5167 323.218 65.5167 322.989C65.5167 322.725 65.4168 322.506 65.217 322.331C65.0204 322.157 64.7142 322.022 64.2985 321.925L63.1769 321.664C62.5323 321.516 62.0409 321.271 61.7025 320.93C61.3641 320.585 61.1949 320.163 61.1949 319.663C61.1949 319.244 61.3109 318.869 61.5429 318.537C61.775 318.205 62.0989 317.945 62.5146 317.758C62.9304 317.571 63.4057 317.478 63.9407 317.478C64.4435 317.478 64.8866 317.562 65.2701 317.729C65.6537 317.897 65.9582 318.134 66.1838 318.44C66.4094 318.746 66.548 319.102 66.5996 319.508H65.4393Z" fill="#0E303C"/>
<path d="M143 305V335H145V305H143Z" fill="#D4B9D7" mask="url(#path-25-inside-5_71_3919)"/>
<rect x="154" y="305" width="110" height="30" rx="5" fill="#D4B9D7"/>
<path d="M271.626 324.016L275.184 320.743C275.532 320.408 275.803 320.129 275.996 319.907C276.193 319.684 276.343 319.462 276.446 319.24C276.552 319.014 276.605 318.774 276.605 318.519C276.605 318.236 276.538 317.986 276.402 317.77C276.267 317.554 276.08 317.39 275.842 317.277C275.603 317.161 275.334 317.103 275.034 317.103C274.725 317.103 274.454 317.164 274.222 317.287C273.99 317.409 273.81 317.588 273.681 317.823C273.555 318.055 273.492 318.328 273.492 318.64H271.539C271.539 318.002 271.686 317.443 271.979 316.963C272.275 316.483 272.688 316.113 273.217 315.856C273.748 315.595 274.359 315.464 275.049 315.464C275.748 315.464 276.365 315.588 276.9 315.836C277.438 316.081 277.854 316.426 278.147 316.871C278.441 317.316 278.587 317.822 278.587 318.389C278.587 318.779 278.512 319.154 278.36 319.515C278.209 319.873 277.946 320.271 277.572 320.709C277.202 321.148 276.676 321.674 275.996 322.29L274.488 323.745V323.813H278.723V325.5H271.631L271.626 324.016ZM284.444 325.5H282.385V317.557H282.327L280.055 318.983V317.156L282.506 315.599H284.444V325.5ZM287.423 325.621C287.213 325.621 287.02 325.569 286.842 325.466C286.665 325.36 286.525 325.22 286.422 325.046C286.319 324.872 286.269 324.681 286.272 324.475C286.269 324.269 286.319 324.079 286.422 323.905C286.525 323.727 286.665 323.589 286.842 323.489C287.02 323.386 287.213 323.334 287.423 323.334C287.622 323.334 287.811 323.386 287.988 323.489C288.165 323.589 288.306 323.727 288.409 323.905C288.515 324.079 288.568 324.269 288.568 324.475C288.568 324.681 288.515 324.872 288.409 325.046C288.306 325.22 288.165 325.36 287.988 325.466C287.811 325.569 287.622 325.621 287.423 325.621ZM290.01 322.126L294.202 315.599H295.594V317.852H294.758L292.084 322.019V322.097H298.03V323.745H290.01V322.126ZM294.821 323.252L294.85 322.532V315.599H296.783V325.5H294.821V323.252ZM299.366 324.016L302.924 320.743C303.272 320.408 303.543 320.129 303.736 319.907C303.933 319.684 304.083 319.462 304.186 319.24C304.292 319.014 304.346 318.774 304.346 318.519C304.346 318.236 304.278 317.986 304.143 317.77C304.007 317.554 303.82 317.39 303.582 317.277C303.343 317.161 303.074 317.103 302.774 317.103C302.465 317.103 302.194 317.164 301.962 317.287C301.73 317.409 301.55 317.588 301.421 317.823C301.295 318.055 301.232 318.328 301.232 318.64H299.279C299.279 318.002 299.426 317.443 299.719 316.963C300.016 316.483 300.428 316.113 300.957 315.856C301.489 315.595 302.099 315.464 302.789 315.464C303.488 315.464 304.105 315.588 304.64 315.836C305.179 316.081 305.594 316.426 305.888 316.871C306.181 317.316 306.328 317.822 306.328 318.389C306.328 318.779 306.252 319.154 306.1 319.515C305.949 319.873 305.686 320.271 305.312 320.709C304.942 321.148 304.416 321.674 303.736 322.29L302.228 323.745V323.813H306.463V325.5H299.371L299.366 324.016Z" fill="#0E303C"/>
<path d="M42.953 365H41.7735L36.4171 357.294H36.3204V365H35.0925V355.099H36.2818L41.6478 362.825H41.7445V355.099H42.953V365ZM48.0226 365.155C47.3555 365.155 46.7657 364.995 46.2532 364.676C45.744 364.357 45.3476 363.909 45.064 363.332C44.7804 362.752 44.6386 362.083 44.6386 361.326C44.6386 360.562 44.7804 359.89 45.064 359.31C45.3476 358.727 45.744 358.276 46.2532 357.956C46.7657 357.637 47.3555 357.478 48.0226 357.478C48.6897 357.478 49.2779 357.637 49.7871 357.956C50.2995 358.276 50.6959 358.727 50.9763 359.31C51.2567 359.89 51.3969 360.562 51.3969 361.326C51.3969 362.083 51.2567 362.752 50.9763 363.332C50.6959 363.909 50.2995 364.357 49.7871 364.676C49.2779 364.995 48.6897 365.155 48.0226 365.155ZM48.0226 364.11C48.5028 364.11 48.9073 363.985 49.236 363.733C49.5679 363.482 49.8145 363.145 49.9756 362.723C50.1368 362.301 50.2173 361.835 50.2173 361.326C50.2173 360.814 50.1368 360.346 49.9756 359.924C49.8145 359.499 49.5679 359.159 49.236 358.904C48.9073 358.649 48.5028 358.522 48.0226 358.522C47.5392 358.522 47.1331 358.649 46.8044 358.904C46.4756 359.159 46.2291 359.499 46.0647 359.924C45.9003 360.346 45.8182 360.814 45.8182 361.326C45.8182 361.835 45.9003 362.301 46.0647 362.723C46.2291 363.145 46.4756 363.482 46.8044 363.733C47.1331 363.985 47.5392 364.11 48.0226 364.11ZM55.7339 365.155C55.1216 365.155 54.5769 364.997 54.0999 364.681C53.6229 364.365 53.2507 363.917 52.9832 363.337C52.7157 362.757 52.582 362.08 52.582 361.307C52.582 360.536 52.7157 359.863 52.9832 359.286C53.2507 358.706 53.6246 358.259 54.1048 357.947C54.585 357.634 55.1345 357.478 55.7532 357.478C56.1658 357.478 56.5122 357.542 56.7926 357.671C57.073 357.8 57.2857 357.947 57.4307 358.111C57.5758 358.276 57.7159 358.464 57.8513 358.677C57.861 358.693 57.869 358.706 57.8755 358.715C57.8819 358.725 57.89 358.738 57.8996 358.754H57.9867V355.099H59.1662V365H58.0253V363.859H57.8996C57.8868 363.885 57.8739 363.904 57.861 363.917C57.7256 364.136 57.5838 364.33 57.4356 364.497C57.2873 364.665 57.0698 364.816 56.7829 364.952C56.4993 365.087 56.1496 365.155 55.7339 365.155ZM55.9079 364.101C56.3495 364.101 56.7281 363.983 57.044 363.748C57.363 363.513 57.6048 363.184 57.7691 362.762C57.9335 362.336 58.0157 361.845 58.0157 361.287C58.0157 360.733 57.9351 360.248 57.774 359.832C57.6128 359.416 57.3727 359.096 57.0537 358.87C56.7378 358.645 56.3559 358.532 55.9079 358.532C55.4438 358.532 55.0523 358.651 54.7332 358.89C54.4141 359.128 54.174 359.455 54.0129 359.871C53.8518 360.287 53.7712 360.759 53.7712 361.287C53.7712 361.822 53.8534 362.302 54.0177 362.728C54.1821 363.153 54.4238 363.488 54.7429 363.733C55.0619 363.978 55.4503 364.101 55.9079 364.101ZM65.8907 357.575H67.0606V365H65.8907V363.743H65.8134C65.6942 364.004 65.5314 364.236 65.3251 364.439C65.1221 364.639 64.8756 364.799 64.5855 364.918C64.2954 365.037 63.9699 365.097 63.609 365.097C63.132 365.097 62.713 364.992 62.3521 364.782C61.9911 364.573 61.7091 364.259 61.5061 363.84C61.303 363.421 61.2015 362.905 61.2015 362.293V357.575H62.3811V362.206C62.3811 362.557 62.4504 362.866 62.5889 363.134C62.7275 363.398 62.9177 363.603 63.1594 363.748C63.4011 363.893 63.6799 363.965 63.9957 363.965C64.2954 363.965 64.5903 363.89 64.8804 363.738C65.1737 363.587 65.4154 363.361 65.6055 363.061C65.7957 362.759 65.8907 362.39 65.8907 361.954V357.575ZM70.1194 365H68.9398V355.099H70.1194V365ZM75.1116 365.155C74.4058 365.155 73.7902 364.997 73.2649 364.681C72.7428 364.365 72.3415 363.92 72.0611 363.347C71.7808 362.77 71.6406 362.103 71.6406 361.345C71.6406 360.591 71.7808 359.921 72.0611 359.334C72.3415 358.748 72.7347 358.292 73.2407 357.966C73.7499 357.641 74.3349 357.478 74.9955 357.478C75.5595 357.478 76.0832 357.602 76.5667 357.85C77.0533 358.098 77.4481 358.5 77.7511 359.054C78.054 359.608 78.2055 360.32 78.2055 361.191V361.684H72.4527V360.678H77.0066C77.0066 360.266 76.9244 359.895 76.76 359.566C76.5957 359.238 76.362 358.981 76.0591 358.798C75.7561 358.614 75.4048 358.522 75.0052 358.522C74.5701 358.522 74.1866 358.63 73.8546 358.846C73.5259 359.062 73.2713 359.349 73.0908 359.706C72.9104 360.061 72.8201 360.443 72.8201 360.852V361.529C72.8201 362.074 72.9152 362.539 73.1053 362.926C73.2955 363.31 73.563 363.603 73.9078 363.806C74.2527 364.009 74.6539 364.11 75.1116 364.11C75.3952 364.11 75.6514 364.073 75.8802 363.999C76.109 363.925 76.3008 363.824 76.4555 363.695C76.6134 363.566 76.7391 363.421 76.8325 363.26H78.0895C77.9734 363.637 77.7785 363.969 77.5045 364.256C77.2306 364.539 76.8873 364.76 76.4748 364.918C76.0655 365.076 75.6111 365.155 75.1116 365.155Z" fill="#0E303C"/>
<path d="M143 345V375H145V345H143Z" fill="#D4B9D7" mask="url(#path-31-inside-6_71_3919)"/>
<rect x="154" y="345" width="110" height="30" rx="5" fill="#D4B9D7"/>
<path d="M271.626 364.016L275.184 360.743C275.532 360.408 275.803 360.129 275.996 359.907C276.193 359.684 276.343 359.462 276.446 359.24C276.552 359.014 276.605 358.774 276.605 358.519C276.605 358.236 276.538 357.986 276.402 357.77C276.267 357.554 276.08 357.39 275.842 357.277C275.603 357.161 275.334 357.103 275.034 357.103C274.725 357.103 274.454 357.164 274.222 357.287C273.99 357.409 273.81 357.588 273.681 357.823C273.555 358.055 273.492 358.328 273.492 358.64H271.539C271.539 358.002 271.686 357.443 271.979 356.963C272.275 356.483 272.688 356.113 273.217 355.856C273.748 355.595 274.359 355.464 275.049 355.464C275.748 355.464 276.365 355.588 276.9 355.836C277.438 356.081 277.854 356.426 278.147 356.871C278.441 357.316 278.587 357.822 278.587 358.389C278.587 358.779 278.512 359.154 278.36 359.515C278.209 359.873 277.946 360.271 277.572 360.709C277.202 361.148 276.676 361.674 275.996 362.29L274.488 363.745V363.813H278.723V365.5H271.631L271.626 364.016ZM284.444 365.5H282.385V357.557H282.327L280.055 358.983V357.156L282.506 355.599H284.444V365.5ZM287.423 365.621C287.213 365.621 287.02 365.569 286.842 365.466C286.665 365.36 286.525 365.22 286.422 365.046C286.319 364.872 286.269 364.681 286.272 364.475C286.269 364.269 286.319 364.079 286.422 363.905C286.525 363.727 286.665 363.589 286.842 363.489C287.02 363.386 287.213 363.334 287.423 363.334C287.622 363.334 287.811 363.386 287.988 363.489C288.165 363.589 288.306 363.727 288.409 363.905C288.515 364.079 288.568 364.269 288.568 364.475C288.568 364.681 288.515 364.872 288.409 365.046C288.306 365.22 288.165 365.36 287.988 365.466C287.811 365.569 287.622 365.621 287.423 365.621ZM290.01 362.126L294.202 355.599H295.594V357.852H294.758L292.084 362.019V362.097H298.03V363.745H290.01V362.126ZM294.821 363.252L294.85 362.532V355.599H296.783V365.5H294.821V363.252ZM299.366 364.016L302.924 360.743C303.272 360.408 303.543 360.129 303.736 359.907C303.933 359.684 304.083 359.462 304.186 359.24C304.292 359.014 304.346 358.774 304.346 358.519C304.346 358.236 304.278 357.986 304.143 357.77C304.007 357.554 303.82 357.39 303.582 357.277C303.343 357.161 303.074 357.103 302.774 357.103C302.465 357.103 302.194 357.164 301.962 357.287C301.73 357.409 301.55 357.588 301.421 357.823C301.295 358.055 301.232 358.328 301.232 358.64H299.279C299.279 358.002 299.426 357.443 299.719 356.963C300.016 356.483 300.428 356.113 300.957 355.856C301.489 355.595 302.099 355.464 302.789 355.464C303.488 355.464 304.105 355.588 304.64 355.836C305.179 356.081 305.594 356.426 305.888 356.871C306.181 357.316 306.328 357.822 306.328 358.389C306.328 358.779 306.252 359.154 306.1 359.515C305.949 359.873 305.686 360.271 305.312 360.709C304.942 361.148 304.416 361.674 303.736 362.29L302.228 363.745V363.813H306.463V365.5H299.371L299.366 364.016Z" fill="#0E303C"/>
<path d="M34.8363 395.099H38.7134C39.4482 395.099 40.0831 395.241 40.6181 395.525C41.1531 395.805 41.5592 396.198 41.8363 396.704C42.1167 397.207 42.2569 397.787 42.2569 398.445C42.2569 399.102 42.1151 399.682 41.8315 400.185C41.5511 400.688 41.1402 401.079 40.5988 401.36C40.0573 401.637 39.4144 401.776 38.6699 401.776H36.1802V400.117H38.3363C38.7327 400.117 39.0663 400.048 39.337 399.91C39.6077 399.768 39.8092 399.573 39.9413 399.325C40.0767 399.073 40.1443 398.78 40.1443 398.445C40.1443 398.11 40.0767 397.818 39.9413 397.57C39.8092 397.322 39.6077 397.13 39.337 396.994C39.0663 396.856 38.7311 396.787 38.3315 396.787H36.8909V405H34.8363V395.099ZM45.5362 405H43.5106V397.575H45.4395V398.88H45.5265C45.6393 398.593 45.8005 398.345 46.0099 398.135C46.2227 397.923 46.4756 397.76 46.7689 397.647C47.0654 397.534 47.3958 397.478 47.7599 397.478C48.2724 397.478 48.722 397.591 49.1087 397.816C49.4954 398.039 49.7936 398.361 50.003 398.783C50.2125 399.205 50.3173 399.702 50.3173 400.272V405H48.2917V400.625C48.2917 400.322 48.2385 400.061 48.1322 399.842C48.0291 399.619 47.8776 399.45 47.6778 399.334C47.478 399.218 47.2395 399.16 46.9623 399.16C46.6787 399.16 46.4305 399.221 46.2178 399.344C46.0051 399.466 45.8375 399.644 45.7151 399.876C45.5958 400.108 45.5362 400.383 45.5362 400.702V405ZM55.2473 405.145C54.4964 405.145 53.8438 404.99 53.2894 404.681C52.7383 404.368 52.3145 403.925 52.018 403.352C51.7215 402.778 51.5733 402.101 51.5733 401.321C51.5733 400.564 51.7215 399.895 52.018 399.315C52.3177 398.732 52.7383 398.28 53.2798 397.961C53.8212 397.639 54.4497 397.478 55.1651 397.478C55.8322 397.478 56.4285 397.618 56.9538 397.898C57.4791 398.179 57.8933 398.603 58.1962 399.17C58.4991 399.734 58.6506 400.425 58.6506 401.244V401.809H52.3999V400.543H56.7411C56.7379 400.243 56.6702 399.976 56.538 399.74C56.4091 399.505 56.2287 399.321 55.9966 399.189C55.7646 399.057 55.5003 398.991 55.2038 398.991C54.8912 398.991 54.6108 399.064 54.3626 399.209C54.1177 399.354 53.9259 399.55 53.7874 399.798C53.6488 400.047 53.5779 400.319 53.5747 400.615V401.809C53.5747 402.18 53.6439 402.502 53.7825 402.776C53.9243 403.047 54.1225 403.256 54.3771 403.405C54.635 403.553 54.9363 403.627 55.2811 403.627C55.51 403.627 55.7162 403.596 55.8999 403.535C56.0869 403.474 56.2448 403.389 56.3737 403.279C56.5058 403.166 56.6057 403.036 56.6734 402.887H58.5974C58.5008 403.342 58.3042 403.74 58.0077 404.081C57.7112 404.42 57.3276 404.683 56.8571 404.869C56.3866 405.053 55.85 405.145 55.2473 405.145ZM64.6786 397.575H66.6993V405H64.756V403.656H64.6786C64.5658 403.946 64.4031 404.199 64.1904 404.415C63.9809 404.631 63.7263 404.799 63.4266 404.918C63.1268 405.037 62.7949 405.097 62.4307 405.097C61.9344 405.097 61.4961 404.984 61.1158 404.758C60.7387 404.533 60.4438 404.21 60.2311 403.791C60.0216 403.369 59.9169 402.873 59.9169 402.302V397.575H61.9424V401.95C61.9424 402.24 61.9972 402.493 62.1068 402.709C62.2164 402.924 62.3679 403.09 62.5612 403.206C62.7546 403.323 62.9818 403.381 63.2429 403.381C63.4975 403.381 63.7343 403.321 63.9535 403.202C64.1726 403.079 64.3483 402.904 64.4804 402.675C64.6126 402.443 64.6786 402.164 64.6786 401.838V397.575ZM68.2704 397.575H70.1993V398.88H70.2863C70.441 398.442 70.6988 398.098 71.0598 397.85C71.424 397.602 71.8558 397.478 72.3554 397.478C72.6905 397.478 72.9951 397.534 73.269 397.647C73.5462 397.76 73.7782 397.923 73.9652 398.135C74.1521 398.345 74.2874 398.593 74.3712 398.88H74.4486C74.5485 398.599 74.7064 398.353 74.9223 398.14C75.1383 397.927 75.3961 397.765 75.6958 397.652C75.9955 397.536 76.3243 397.478 76.682 397.478C77.1429 397.478 77.5506 397.578 77.9051 397.778C78.2596 397.974 78.5351 398.264 78.7317 398.648C78.9283 399.028 79.0266 399.481 79.0266 400.006V405H77.0011V400.398C77.0011 399.992 76.8931 399.682 76.6772 399.47C76.4645 399.257 76.1841 399.151 75.836 399.151C75.5846 399.151 75.3687 399.205 75.1882 399.315C75.0077 399.421 74.8692 399.573 74.7725 399.769C74.6758 399.966 74.6274 400.195 74.6274 400.456V405H72.6696V400.349C72.6696 400.108 72.6212 399.897 72.5245 399.716C72.4311 399.536 72.2973 399.397 72.1233 399.3C71.9493 399.201 71.7478 399.151 71.519 399.151C71.287 399.151 71.0775 399.209 70.8906 399.325C70.7069 399.437 70.5618 399.6 70.4555 399.813C70.3491 400.022 70.296 400.264 70.296 400.538V405H68.2704V397.575ZM83.9204 405.145C83.1824 405.145 82.5378 404.985 81.9867 404.666C81.4356 404.347 81.0118 403.899 80.7153 403.323C80.4188 402.742 80.2705 402.074 80.2705 401.316C80.2705 400.552 80.4188 399.882 80.7153 399.305C81.0118 398.725 81.4356 398.276 81.9867 397.956C82.5378 397.637 83.1824 397.478 83.9204 397.478C84.6584 397.478 85.3014 397.637 85.8493 397.956C86.4004 398.276 86.8226 398.725 87.1158 399.305C87.4123 399.882 87.5606 400.552 87.5606 401.316C87.5606 402.074 87.4123 402.742 87.1158 403.323C86.8226 403.899 86.4004 404.347 85.8493 404.666C85.3014 404.985 84.6584 405.145 83.9204 405.145ZM83.9301 403.574C84.2652 403.574 84.5505 403.477 84.7857 403.284C85.0242 403.087 85.2031 402.818 85.3223 402.477C85.4448 402.132 85.506 401.74 85.506 401.302C85.506 400.863 85.4448 400.474 85.3223 400.132C85.2031 399.787 85.0242 399.516 84.7857 399.32C84.5505 399.123 84.2652 399.025 83.9301 399.025C83.5884 399.025 83.2968 399.123 83.0551 399.32C82.8166 399.513 82.6361 399.782 82.5136 400.127C82.3912 400.472 82.3299 400.863 82.3299 401.302C82.3299 401.743 82.3912 402.135 82.5136 402.477C82.6361 402.818 82.8166 403.087 83.0551 403.284C83.2968 403.477 83.5884 403.574 83.9301 403.574ZM92.7535 399.097H88.306V397.575H92.7535V399.097ZM91.3516 395.796V402.723C91.3516 402.91 91.3806 403.058 91.4386 403.168C91.4966 403.274 91.5772 403.35 91.6803 403.395C91.7834 403.44 91.9091 403.464 92.0574 403.468C92.2024 403.471 92.4667 403.459 92.8502 403.434V405.029C92.5408 405.077 92.1847 405.102 91.7818 405.102C91.2823 405.102 90.8488 405.024 90.4814 404.869C90.1172 404.715 89.832 404.483 89.6257 404.173C89.4227 403.861 89.3228 403.469 89.326 402.999V395.796H91.3516ZM96.1905 405H94.1649V395.099H96.1325V398.88H96.2195C96.3323 398.587 96.4918 398.335 96.6981 398.126C96.9043 397.916 97.1525 397.757 97.4426 397.647C97.7358 397.534 98.0678 397.478 98.4384 397.478C98.9541 397.478 99.4053 397.589 99.792 397.811C100.182 398.034 100.482 398.356 100.691 398.778C100.901 399.197 101.005 399.695 101.005 400.272V405H98.9799V400.625C98.9799 400.319 98.9283 400.056 98.8252 399.837C98.722 399.615 98.5689 399.447 98.3659 399.334C98.1661 399.218 97.9244 399.16 97.6408 399.16C97.3572 399.16 97.1058 399.221 96.8866 399.344C96.6707 399.466 96.4999 399.644 96.3742 399.876C96.2517 400.108 96.1905 400.383 96.1905 400.702V405ZM105.905 405.145C105.167 405.145 104.522 404.985 103.971 404.666C103.42 404.347 102.996 403.899 102.7 403.323C102.403 402.742 102.255 402.074 102.255 401.316C102.255 400.552 102.403 399.882 102.7 399.305C102.996 398.725 103.42 398.276 103.971 397.956C104.522 397.637 105.167 397.478 105.905 397.478C106.643 397.478 107.286 397.637 107.834 397.956C108.385 398.276 108.807 398.725 109.1 399.305C109.397 399.882 109.545 400.552 109.545 401.316C109.545 402.074 109.397 402.742 109.1 403.323C108.807 403.899 108.385 404.347 107.834 404.666C107.286 404.985 106.643 405.145 105.905 405.145ZM105.914 403.574C106.25 403.574 106.535 403.477 106.77 403.284C107.009 403.087 107.187 402.818 107.307 402.477C107.429 402.132 107.49 401.74 107.49 401.302C107.49 400.863 107.429 400.474 107.307 400.132C107.187 399.787 107.009 399.516 106.77 399.32C106.535 399.123 106.25 399.025 105.914 399.025C105.573 399.025 105.281 399.123 105.039 399.32C104.801 399.513 104.62 399.782 104.498 400.127C104.376 400.472 104.314 400.863 104.314 401.302C104.314 401.743 104.376 402.135 104.498 402.477C104.62 402.818 104.801 403.087 105.039 403.284C105.281 403.477 105.573 403.574 105.914 403.574ZM110.817 397.575H112.78V398.865H112.857C112.948 398.566 113.08 398.311 113.254 398.102C113.428 397.889 113.632 397.731 113.868 397.628C114.106 397.521 114.366 397.468 114.646 397.468C114.865 397.468 115.081 397.489 115.294 397.531V399.339C115.191 399.31 115.057 399.284 114.893 399.262C114.728 399.239 114.573 399.228 114.428 399.228C114.126 399.228 113.853 399.294 113.611 399.426C113.373 399.555 113.184 399.739 113.046 399.977C112.911 400.212 112.843 400.48 112.843 400.78V405H110.817V397.575ZM120.428 401.8C120.276 401.806 120.027 401.821 119.678 401.843C119.334 401.863 119.044 401.882 118.808 401.901C118.447 401.93 118.165 402.029 117.962 402.196C117.759 402.36 117.658 402.583 117.658 402.863C117.658 403.05 117.704 403.21 117.798 403.342C117.891 403.471 118.022 403.569 118.19 403.637C118.357 403.701 118.549 403.733 118.765 403.733C119.068 403.733 119.338 403.672 119.577 403.55C119.815 403.427 120.001 403.261 120.133 403.052C120.265 402.839 120.331 402.604 120.331 402.346L120.321 399.948C120.321 399.739 120.275 399.56 120.181 399.412C120.088 399.263 119.952 399.152 119.775 399.078C119.601 399.001 119.39 398.962 119.142 398.962C118.913 398.962 118.713 398.996 118.542 399.064C118.372 399.128 118.23 399.221 118.117 399.344C118.007 399.466 117.935 399.613 117.899 399.784H115.98C116.022 399.346 116.174 398.952 116.435 398.604C116.696 398.253 117.06 397.977 117.527 397.778C117.998 397.578 118.552 397.478 119.19 397.478C119.764 397.478 120.286 397.567 120.757 397.744C121.23 397.918 121.612 398.195 121.902 398.575C122.192 398.956 122.337 399.429 122.337 399.997V405H120.418V403.97H120.36C120.234 404.209 120.072 404.415 119.872 404.589C119.675 404.76 119.435 404.895 119.152 404.995C118.868 405.092 118.547 405.14 118.19 405.14C117.709 405.14 117.284 405.056 116.913 404.889C116.543 404.721 116.251 404.471 116.038 404.14C115.826 403.804 115.719 403.4 115.719 402.926C115.719 402.159 115.974 401.6 116.483 401.249C116.995 400.894 117.661 400.689 118.48 400.635C118.683 400.622 118.936 400.609 119.239 400.596C119.545 400.58 119.822 400.567 120.07 400.557C120.209 400.548 120.323 400.543 120.413 400.543L120.428 401.8ZM126.939 400.185L128.35 397.575H130.439L128.273 401.287L130.492 405H128.418L126.939 402.419L125.489 405H123.39L125.605 401.287L123.468 397.575H125.566L126.939 400.185Z" fill="#0E303C"/>
<path d="M143 385V415H145V385H143Z" fill="#D4B9D7" mask="url(#path-37-inside-7_71_3919)"/>
<rect x="154" y="385" width="268" height="30" rx="5" fill="#895BA6"/>
<path d="M432.37 395.464C433.102 395.467 433.765 395.628 434.362 395.948C434.961 396.267 435.443 396.785 435.807 397.504C436.174 398.22 436.36 399.148 436.363 400.289C436.363 401.397 436.195 402.353 435.86 403.155C435.528 403.958 435.056 404.572 434.444 404.997C433.831 405.423 433.113 405.635 432.288 405.635C431.637 405.635 431.053 405.51 430.538 405.258C430.025 405.007 429.611 404.66 429.295 404.219C428.983 403.774 428.793 403.273 428.725 402.715H430.75C430.808 402.957 430.907 403.165 431.045 403.339C431.187 403.51 431.363 403.642 431.572 403.735C431.782 403.826 432.02 403.871 432.288 403.871C432.729 403.871 433.105 403.744 433.414 403.489C433.724 403.234 433.956 402.87 434.11 402.396C434.268 401.919 434.349 401.351 434.352 400.69H434.26C434.109 400.977 433.904 401.225 433.646 401.434C433.392 401.641 433.098 401.8 432.766 401.913C432.438 402.026 432.091 402.082 431.727 402.082C431.14 402.082 430.612 401.945 430.141 401.671C429.674 401.394 429.305 401.014 429.034 400.53C428.764 400.047 428.627 399.502 428.623 398.896C428.623 398.239 428.78 397.649 429.092 397.127C429.405 396.602 429.845 396.192 430.412 395.899C430.982 395.606 431.635 395.461 432.37 395.464ZM432.38 397.084C432.048 397.084 431.746 397.161 431.476 397.316C431.208 397.47 430.999 397.681 430.847 397.949C430.696 398.216 430.622 398.513 430.625 398.838C430.625 399.161 430.699 399.456 430.847 399.723C430.999 399.987 431.206 400.197 431.471 400.352C431.735 400.503 432.033 400.579 432.365 400.579C432.694 400.579 432.994 400.5 433.264 400.342C433.538 400.181 433.753 399.966 433.907 399.699C434.062 399.431 434.138 399.141 434.134 398.829C434.134 398.516 434.059 398.226 433.907 397.959C433.756 397.688 433.545 397.475 433.274 397.32C433.006 397.163 432.708 397.084 432.38 397.084ZM441.584 405.635C440.849 405.632 440.182 405.471 439.582 405.152C438.983 404.83 438.499 404.308 438.132 403.586C437.768 402.864 437.586 401.927 437.586 400.777C437.589 399.678 437.756 398.729 438.088 397.93C438.424 397.13 438.897 396.52 439.51 396.097C440.122 395.675 440.839 395.464 441.661 395.464C442.309 395.464 442.89 395.59 443.406 395.841C443.922 396.089 444.336 396.434 444.648 396.876C444.961 397.314 445.151 397.805 445.219 398.35H443.193C443.139 398.121 443.04 397.922 442.898 397.751C442.76 397.58 442.584 397.451 442.372 397.364C442.162 397.274 441.925 397.229 441.661 397.229C441.219 397.229 440.846 397.356 440.539 397.61C440.233 397.862 440.001 398.224 439.843 398.698C439.685 399.169 439.605 399.73 439.602 400.381H439.689C439.84 400.094 440.045 399.846 440.302 399.636C440.56 399.427 440.854 399.267 441.182 399.157C441.511 399.045 441.859 398.988 442.227 398.988C442.813 398.988 443.343 399.125 443.817 399.399C444.291 399.673 444.66 400.053 444.924 400.54C445.192 401.027 445.325 401.575 445.325 402.184C445.325 402.851 445.169 403.447 444.856 403.972C444.544 404.498 444.102 404.907 443.532 405.2C442.965 405.494 442.315 405.639 441.584 405.635ZM441.574 404.016C441.903 404.016 442.201 403.939 442.468 403.784C442.739 403.626 442.95 403.413 443.102 403.146C443.256 402.875 443.332 402.574 443.329 402.242C443.332 401.919 443.258 401.623 443.106 401.352C442.958 401.081 442.75 400.87 442.483 400.719C442.218 400.564 441.92 400.487 441.588 400.487C441.26 400.487 440.96 400.566 440.689 400.724C440.419 400.882 440.204 401.096 440.046 401.367C439.892 401.637 439.813 401.932 439.809 402.251C439.809 402.57 439.887 402.865 440.041 403.136C440.196 403.404 440.407 403.618 440.675 403.779C440.942 403.937 441.242 404.016 441.574 404.016ZM447.535 405.621C447.325 405.621 447.132 405.569 446.955 405.466C446.777 405.36 446.637 405.22 446.534 405.046C446.431 404.872 446.381 404.681 446.384 404.475C446.381 404.269 446.431 404.079 446.534 403.905C446.637 403.727 446.777 403.589 446.955 403.489C447.132 403.386 447.325 403.334 447.535 403.334C447.735 403.334 447.923 403.386 448.1 403.489C448.278 403.589 448.418 403.727 448.521 403.905C448.627 404.079 448.681 404.269 448.681 404.475C448.681 404.681 448.627 404.872 448.521 405.046C448.418 405.22 448.278 405.36 448.1 405.466C447.923 405.569 447.735 405.621 447.535 405.621ZM454.486 397.354V397.287H449.632V395.599H456.617V397.316L452.441 405.5H450.314L454.486 397.354ZM461.515 405.635C460.774 405.635 460.109 405.515 459.519 405.273C458.929 405.028 458.467 404.694 458.131 404.272C457.799 403.847 457.633 403.368 457.633 402.836C457.633 402.43 457.73 402.052 457.923 401.7C458.117 401.349 458.378 401.059 458.707 400.83C459.039 400.598 459.406 400.451 459.809 400.39V400.323C459.461 400.255 459.15 400.116 458.876 399.907C458.602 399.697 458.388 399.438 458.233 399.128C458.081 398.819 458.006 398.485 458.006 398.128C458.006 397.622 458.157 397.166 458.46 396.76C458.766 396.354 459.185 396.036 459.717 395.807C460.252 395.578 460.851 395.464 461.515 395.464C462.179 395.464 462.779 395.578 463.314 395.807C463.849 396.036 464.266 396.354 464.566 396.76C464.869 397.166 465.02 397.622 465.02 398.128C465.02 398.485 464.943 398.819 464.788 399.128C464.633 399.438 464.419 399.697 464.145 399.907C463.874 400.116 463.565 400.255 463.217 400.323V400.39C463.617 400.451 463.982 400.598 464.314 400.83C464.65 401.059 464.912 401.349 465.102 401.7C465.296 402.052 465.394 402.43 465.397 402.836C465.394 403.368 465.226 403.847 464.894 404.272C464.566 404.694 464.105 405.028 463.512 405.273C462.919 405.515 462.253 405.635 461.515 405.635ZM461.515 404.069C461.857 404.069 462.16 404.008 462.424 403.885C462.688 403.763 462.893 403.594 463.038 403.378C463.183 403.162 463.256 402.914 463.256 402.633C463.256 402.35 463.18 402.095 463.028 401.869C462.88 401.641 462.672 401.463 462.405 401.338C462.141 401.209 461.844 401.144 461.515 401.144C461.183 401.144 460.884 401.209 460.616 401.338C460.352 401.463 460.146 401.641 459.997 401.869C459.849 402.095 459.777 402.35 459.78 402.633C459.777 402.91 459.846 403.157 459.988 403.373C460.133 403.589 460.337 403.76 460.602 403.885C460.866 404.008 461.17 404.069 461.515 404.069ZM461.515 399.684C461.802 399.684 462.058 399.628 462.284 399.515C462.513 399.399 462.692 399.24 462.821 399.037C462.95 398.83 463.014 398.598 463.014 398.34C463.014 398.083 462.95 397.854 462.821 397.654C462.695 397.454 462.518 397.299 462.289 397.19C462.063 397.077 461.805 397.021 461.515 397.021C461.222 397.021 460.961 397.077 460.732 397.19C460.507 397.299 460.331 397.454 460.205 397.654C460.08 397.854 460.017 398.083 460.017 398.34C460.017 398.598 460.08 398.83 460.205 399.037C460.334 399.24 460.513 399.399 460.742 399.515C460.971 399.628 461.229 399.684 461.515 399.684Z" fill="#0E303C"/>
<path d="M41.8412 438.213C41.7509 437.771 41.5721 437.392 41.3046 437.077C41.0371 436.758 40.7099 436.517 40.3232 436.356C39.9397 436.195 39.5272 436.115 39.0856 436.115C38.4797 436.115 37.9367 436.268 37.4565 436.574C36.9763 436.88 36.5976 437.33 36.3204 437.923C36.0433 438.512 35.9047 439.221 35.9047 440.05C35.9047 440.878 36.0433 441.589 36.3204 442.182C36.5976 442.771 36.9763 443.219 37.4565 443.526C37.9367 443.832 38.4797 443.985 39.0856 443.985C39.5272 443.985 39.9397 443.903 40.3232 443.738C40.7099 443.574 41.0355 443.335 41.2997 443.023C41.5672 442.71 41.7477 442.335 41.8412 441.896H43.0787C42.9627 442.557 42.7178 443.132 42.3439 443.622C41.9701 444.109 41.5012 444.483 40.9372 444.744C40.3732 445.005 39.756 445.135 39.0856 445.135C38.238 445.135 37.4823 444.927 36.8184 444.512C36.1577 444.096 35.6404 443.505 35.2666 442.738C34.8927 441.971 34.7058 441.075 34.7058 440.05C34.7058 439.025 34.8927 438.127 35.2666 437.357C35.6404 436.587 36.1577 435.995 36.8184 435.583C37.4823 435.17 38.238 434.964 39.0856 434.964C39.7528 434.964 40.3667 435.093 40.9275 435.351C41.4915 435.609 41.9604 435.983 42.3343 436.472C42.7113 436.962 42.9595 437.542 43.0787 438.213H41.8412ZM47.6808 445.155C47.0137 445.155 46.4239 444.995 45.9115 444.676C45.4022 444.357 45.0058 443.909 44.7222 443.332C44.4386 442.752 44.2968 442.083 44.2968 441.326C44.2968 440.562 44.4386 439.89 44.7222 439.31C45.0058 438.727 45.4022 438.276 45.9115 437.956C46.4239 437.637 47.0137 437.478 47.6808 437.478C48.3479 437.478 48.9361 437.637 49.4453 437.956C49.9577 438.276 50.3541 438.727 50.6345 439.31C50.9149 439.89 51.0551 440.562 51.0551 441.326C51.0551 442.083 50.9149 442.752 50.6345 443.332C50.3541 443.909 49.9577 444.357 49.4453 444.676C48.9361 444.995 48.3479 445.155 47.6808 445.155ZM47.6808 444.11C48.161 444.11 48.5655 443.985 48.8942 443.733C49.2261 443.482 49.4727 443.145 49.6338 442.723C49.795 442.301 49.8755 441.835 49.8755 441.326C49.8755 440.814 49.795 440.346 49.6338 439.924C49.4727 439.499 49.2261 439.159 48.8942 438.904C48.5655 438.649 48.161 438.522 47.6808 438.522C47.1974 438.522 46.7913 438.649 46.4626 438.904C46.1338 439.159 45.8873 439.499 45.7229 439.924C45.5586 440.346 45.4764 440.814 45.4764 441.326C45.4764 441.835 45.5586 442.301 45.7229 442.723C45.8873 443.145 46.1338 443.482 46.4626 443.733C46.7913 443.985 47.1974 444.11 47.6808 444.11ZM53.7678 445H52.5882V437.575H53.7291V438.744H53.8258C53.945 438.483 54.103 438.259 54.2996 438.073C54.4994 437.882 54.7395 437.736 55.0199 437.633C55.3035 437.529 55.6274 437.478 55.9916 437.478C56.5008 437.478 56.9439 437.581 57.321 437.787C57.698 437.994 57.9897 438.308 58.196 438.73C58.4022 439.149 58.5054 439.666 58.5054 440.282V445H57.3258V440.369C57.3258 439.988 57.2597 439.66 57.1276 439.383C56.9955 439.105 56.8021 438.894 56.5475 438.749C56.2929 438.604 55.9916 438.532 55.6435 438.532C55.2793 438.532 54.9554 438.611 54.6718 438.769C54.3914 438.927 54.1706 439.157 54.0095 439.46C53.8484 439.763 53.7678 440.124 53.7678 440.543V445ZM64.5097 439.508C64.4291 439.186 64.2647 438.935 64.0166 438.754C63.7684 438.574 63.4332 438.483 63.011 438.483C62.7113 438.483 62.4422 438.532 62.2037 438.628C61.9685 438.725 61.7831 438.859 61.6478 439.03C61.5124 439.201 61.4447 439.389 61.4447 439.595C61.4447 439.843 61.5479 440.053 61.7541 440.224C61.9604 440.395 62.2795 440.533 62.7113 440.64L63.8232 440.91C64.4871 441.071 64.9818 441.318 65.3073 441.65C65.6328 441.982 65.7956 442.406 65.7956 442.921C65.7956 443.353 65.6812 443.737 65.4523 444.072C65.2235 444.407 64.89 444.671 64.4516 444.865C64.0166 445.058 63.4945 445.155 62.8853 445.155C62.3342 445.155 61.8557 445.074 61.4496 444.913C61.0467 444.752 60.726 444.515 60.4876 444.202C60.2491 443.89 60.0976 443.508 60.0331 443.057H61.261C61.3287 443.418 61.4947 443.687 61.759 443.864C62.0265 444.041 62.3955 444.13 62.866 444.13C63.2141 444.13 63.5186 444.083 63.7797 443.99C64.0407 443.896 64.2406 443.764 64.3791 443.593C64.5177 443.419 64.587 443.218 64.587 442.989C64.587 442.725 64.4871 442.506 64.2873 442.331C64.0907 442.157 63.7845 442.022 63.3688 441.925L62.2472 441.664C61.6027 441.516 61.1112 441.271 60.7728 440.93C60.4344 440.585 60.2652 440.163 60.2652 439.663C60.2652 439.244 60.3812 438.869 60.6132 438.537C60.8453 438.205 61.1692 437.945 61.5849 437.758C62.0007 437.571 62.476 437.478 63.011 437.478C63.5138 437.478 63.9569 437.562 64.3405 437.729C64.724 437.897 65.0285 438.134 65.2541 438.44C65.4797 438.746 65.6183 439.102 65.6699 439.508H64.5097ZM70.3624 445.155C69.6953 445.155 69.1055 444.995 68.5931 444.676C68.0839 444.357 67.6875 443.909 67.4039 443.332C67.1203 442.752 66.9785 442.083 66.9785 441.326C66.9785 440.562 67.1203 439.89 67.4039 439.31C67.6875 438.727 68.0839 438.276 68.5931 437.956C69.1055 437.637 69.6953 437.478 70.3624 437.478C71.0296 437.478 71.6177 437.637 72.1269 437.956C72.6394 438.276 73.0358 438.727 73.3162 439.31C73.5965 439.89 73.7367 440.562 73.7367 441.326C73.7367 442.083 73.5965 442.752 73.3162 443.332C73.0358 443.909 72.6394 444.357 72.1269 444.676C71.6177 444.995 71.0296 445.155 70.3624 445.155ZM70.3624 444.11C70.8426 444.11 71.2471 443.985 71.5758 443.733C71.9078 443.482 72.1543 443.145 72.3155 442.723C72.4766 442.301 72.5572 441.835 72.5572 441.326C72.5572 440.814 72.4766 440.346 72.3155 439.924C72.1543 439.499 71.9078 439.159 71.5758 438.904C71.2471 438.649 70.8426 438.522 70.3624 438.522C69.879 438.522 69.4729 438.649 69.1442 438.904C68.8155 439.159 68.5689 439.499 68.4046 439.924C68.2402 440.346 68.158 440.814 68.158 441.326C68.158 441.835 68.2402 442.301 68.4046 442.723C68.5689 443.145 68.8155 443.482 69.1442 443.733C69.4729 443.985 69.879 444.11 70.3624 444.11ZM76.4494 445H75.2699V435.099H76.4494V445ZM78.3187 437.575H79.4983V445H78.3187V437.575ZM78.9182 436.347C78.7699 436.347 78.6329 436.311 78.5072 436.24C78.3816 436.169 78.28 436.074 78.2027 435.955C78.1253 435.836 78.0867 435.705 78.0867 435.564C78.0867 435.422 78.1253 435.29 78.2027 435.167C78.28 435.045 78.3816 434.95 78.5072 434.882C78.6329 434.814 78.7699 434.78 78.9182 434.78C79.0632 434.78 79.1985 434.814 79.3242 434.882C79.4531 434.95 79.5547 435.045 79.6288 435.167C79.7029 435.29 79.74 435.422 79.74 435.564C79.74 435.705 79.7029 435.836 79.6288 435.955C79.5547 436.074 79.4531 436.169 79.3242 436.24C79.1985 436.311 79.0632 436.347 78.9182 436.347ZM84.1714 445.155C83.5591 445.155 83.0144 444.997 82.5374 444.681C82.0604 444.365 81.6882 443.917 81.4207 443.337C81.1532 442.757 81.0195 442.08 81.0195 441.307C81.0195 440.536 81.1532 439.863 81.4207 439.286C81.6882 438.706 82.0621 438.259 82.5423 437.947C83.0225 437.634 83.572 437.478 84.1907 437.478C84.6033 437.478 84.9497 437.542 85.2301 437.671C85.5105 437.8 85.7232 437.947 85.8682 438.111C86.0133 438.276 86.1534 438.464 86.2888 438.677C86.2985 438.693 86.3065 438.706 86.313 438.715C86.3194 438.725 86.3275 438.738 86.3371 438.754H86.4242V435.099H87.6037V445H86.4628V443.859H86.3371C86.3243 443.885 86.3114 443.904 86.2985 443.917C86.1631 444.136 86.0213 444.33 85.8731 444.497C85.7248 444.665 85.5073 444.816 85.2204 444.952C84.9368 445.087 84.5871 445.155 84.1714 445.155ZM84.3454 444.101C84.787 444.101 85.1656 443.983 85.4815 443.748C85.8005 443.513 86.0423 443.184 86.2066 442.762C86.371 442.336 86.4532 441.845 86.4532 441.287C86.4532 440.733 86.3726 440.248 86.2115 439.832C86.0503 439.416 85.8102 439.096 85.4912 438.87C85.1753 438.645 84.7934 438.532 84.3454 438.532C83.8813 438.532 83.4898 438.651 83.1707 438.89C82.8516 439.128 82.6115 439.455 82.4504 439.871C82.2893 440.287 82.2087 440.759 82.2087 441.287C82.2087 441.822 82.2909 442.302 82.4552 442.728C82.6196 443.153 82.8613 443.488 83.1804 443.733C83.4994 443.978 83.8878 444.101 84.3454 444.101ZM94.1832 441.558C93.9963 441.568 93.6998 441.587 93.2937 441.616C92.8909 441.645 92.5331 441.671 92.2205 441.693C91.663 441.729 91.2311 441.85 90.9249 442.056C90.622 442.259 90.4705 442.557 90.4705 442.95C90.4705 443.205 90.5366 443.421 90.6687 443.598C90.8008 443.772 90.9829 443.904 91.215 443.994C91.447 444.085 91.7145 444.13 92.0175 444.13C92.4461 444.13 92.8167 444.044 93.1293 443.874C93.4452 443.703 93.6837 443.479 93.8448 443.202C94.006 442.924 94.0865 442.628 94.0865 442.312V439.992C94.0865 439.676 94.0237 439.407 93.898 439.184C93.7723 438.962 93.5838 438.793 93.3324 438.677C93.0842 438.561 92.7748 438.503 92.4042 438.503C92.1013 438.503 91.8354 438.546 91.6066 438.633C91.3777 438.72 91.1892 438.84 91.041 438.991C90.8927 439.139 90.7896 439.312 90.7316 439.508H89.5133C89.5617 439.112 89.7148 438.761 89.9726 438.454C90.2336 438.145 90.5785 437.905 91.0071 437.734C91.4357 437.563 91.9208 437.478 92.4622 437.478C92.8876 437.478 93.3066 437.542 93.7191 437.671C94.1317 437.8 94.491 438.06 94.7972 438.45C95.1033 438.84 95.2564 439.392 95.2564 440.108V445H94.0865V443.994H94.0285C93.9351 444.185 93.7949 444.368 93.6079 444.546C93.4242 444.72 93.1809 444.868 92.878 444.99C92.575 445.113 92.2237 445.174 91.8241 445.174C91.3503 445.174 90.9201 445.084 90.5334 444.903C90.1498 444.723 89.8469 444.46 89.6245 444.115C89.4021 443.77 89.291 443.363 89.291 442.892C89.291 442.128 89.5536 441.589 90.0789 441.273C90.6043 440.957 91.2698 440.768 92.0755 440.707C92.3107 440.691 92.5799 440.675 92.8828 440.659C93.189 440.64 93.4806 440.623 93.7578 440.61C93.9512 440.598 94.0865 440.591 94.1639 440.591L94.1832 441.558ZM100.38 438.561H96.5124V437.575H100.38V438.561ZM98.8135 435.796V442.863C98.8135 443.163 98.8586 443.395 98.9489 443.559C99.0391 443.721 99.1535 443.83 99.2921 443.888C99.4307 443.946 99.5967 443.975 99.79 443.975C99.9061 443.975 100.138 443.965 100.486 443.946V445.039C100.241 445.077 99.9673 445.097 99.6644 445.097C99.3195 445.097 98.9924 445.024 98.683 444.879C98.3768 444.734 98.1254 444.517 97.9289 444.227C97.7323 443.936 97.634 443.585 97.634 443.173V435.796H98.8135ZM101.889 437.575H103.069V445H101.889V437.575ZM102.488 436.347C102.34 436.347 102.203 436.311 102.078 436.24C101.952 436.169 101.85 436.074 101.773 435.955C101.696 435.836 101.657 435.705 101.657 435.564C101.657 435.422 101.696 435.29 101.773 435.167C101.85 435.045 101.952 434.95 102.078 434.882C102.203 434.814 102.34 434.78 102.488 434.78C102.633 434.78 102.769 434.814 102.895 434.882C103.023 434.95 103.125 435.045 103.199 435.167C103.273 435.29 103.31 435.422 103.31 435.564C103.31 435.705 103.273 435.836 103.199 435.955C103.125 436.074 103.023 436.169 102.895 436.24C102.769 436.311 102.633 436.347 102.488 436.347ZM107.974 445.155C107.307 445.155 106.717 444.995 106.204 444.676C105.695 444.357 105.299 443.909 105.015 443.332C104.732 442.752 104.59 442.083 104.59 441.326C104.59 440.562 104.732 439.89 105.015 439.31C105.299 438.727 105.695 438.276 106.204 437.956C106.717 437.637 107.307 437.478 107.974 437.478C108.641 437.478 109.229 437.637 109.738 437.956C110.251 438.276 110.647 438.727 110.927 439.31C111.208 439.89 111.348 440.562 111.348 441.326C111.348 442.083 111.208 442.752 110.927 443.332C110.647 443.909 110.251 444.357 109.738 444.676C109.229 444.995 108.641 445.155 107.974 445.155ZM107.974 444.11C108.454 444.11 108.858 443.985 109.187 443.733C109.519 443.482 109.766 443.145 109.927 442.723C110.088 442.301 110.169 441.835 110.169 441.326C110.169 440.814 110.088 440.346 109.927 439.924C109.766 439.499 109.519 439.159 109.187 438.904C108.858 438.649 108.454 438.522 107.974 438.522C107.49 438.522 107.084 438.649 106.756 438.904C106.427 439.159 106.18 439.499 106.016 439.924C105.852 440.346 105.769 440.814 105.769 441.326C105.769 441.835 105.852 442.301 106.016 442.723C106.18 443.145 106.427 443.482 106.756 443.733C107.084 443.985 107.49 444.11 107.974 444.11ZM114.061 445H112.881V437.575H114.022V438.744H114.119C114.238 438.483 114.396 438.259 114.593 438.073C114.792 437.882 115.032 437.736 115.313 437.633C115.596 437.529 115.92 437.478 116.285 437.478C116.794 437.478 117.237 437.581 117.614 437.787C117.991 437.994 118.283 438.308 118.489 438.73C118.695 439.149 118.798 439.666 118.798 440.282V445H117.619V440.369C117.619 439.988 117.553 439.66 117.421 439.383C117.288 439.105 117.095 438.894 116.84 438.749C116.586 438.604 116.285 438.532 115.936 438.532C115.572 438.532 115.248 438.611 114.965 438.769C114.684 438.927 114.464 439.157 114.302 439.46C114.141 439.763 114.061 440.124 114.061 440.543V445Z" fill="#0E303C"/>
<path d="M143 425V455H145V425H143Z" fill="#D4B9D7" mask="url(#path-43-inside-8_71_3919)"/>
<rect x="154" y="425" width="65" height="30" rx="5" fill="#D4B9D7"/>
<path d="M231.952 445.5H229.893V437.557H229.835L227.563 438.983V437.156L230.014 435.599H231.952V445.5ZM238.515 445.5H236.455V437.557H236.397L234.125 438.983V437.156L236.576 435.599H238.515V445.5ZM241.493 445.621C241.283 445.621 241.09 445.569 240.913 445.466C240.735 445.36 240.595 445.22 240.492 445.046C240.389 444.872 240.339 444.681 240.342 444.475C240.339 444.269 240.389 444.079 240.492 443.905C240.595 443.727 240.735 443.589 240.913 443.489C241.09 443.386 241.283 443.334 241.493 443.334C241.693 443.334 241.881 443.386 242.058 443.489C242.236 443.589 242.376 443.727 242.479 443.905C242.585 444.079 242.639 444.269 242.639 444.475C242.639 444.681 242.585 444.872 242.479 445.046C242.376 445.22 242.236 445.36 242.058 445.466C241.881 445.569 241.693 445.621 241.493 445.621ZM247.6 445.635C246.881 445.635 246.237 445.513 245.666 445.268C245.099 445.02 244.653 444.675 244.327 444.233C244.005 443.789 243.839 443.283 243.829 442.715H245.903C245.913 442.954 245.993 443.167 246.145 443.354C246.296 443.537 246.498 443.681 246.749 443.784C247.004 443.884 247.289 443.934 247.605 443.934C247.93 443.934 248.222 443.877 248.48 443.765C248.738 443.648 248.937 443.489 249.079 443.286C249.224 443.083 249.295 442.851 249.292 442.59C249.295 442.322 249.221 442.084 249.069 441.874C248.918 441.665 248.7 441.502 248.417 441.386C248.133 441.27 247.8 441.212 247.416 441.212H246.498V439.689H247.416C247.738 439.689 248.025 439.634 248.277 439.525C248.531 439.415 248.728 439.261 248.866 439.061C249.005 438.861 249.074 438.632 249.074 438.374C249.074 438.123 249.015 437.901 248.895 437.707C248.776 437.514 248.605 437.366 248.383 437.262C248.164 437.156 247.909 437.103 247.619 437.103C247.329 437.103 247.063 437.154 246.822 437.258C246.58 437.361 246.385 437.507 246.237 437.698C246.088 437.888 246.009 438.105 246 438.35H244.027C244.037 437.793 244.2 437.295 244.516 436.856C244.831 436.415 245.262 436.073 245.806 435.831C246.351 435.587 246.959 435.464 247.629 435.464C248.302 435.464 248.899 435.587 249.418 435.831C249.94 436.076 250.344 436.412 250.631 436.837C250.918 437.259 251.06 437.73 251.056 438.249C251.06 438.613 250.982 438.942 250.824 439.235C250.67 439.528 250.449 439.77 250.162 439.96C249.875 440.15 249.546 440.279 249.176 440.347V440.424C249.656 440.485 250.065 440.617 250.404 440.82C250.745 441.023 251.002 441.289 251.172 441.618C251.346 441.944 251.432 442.313 251.429 442.725C251.432 443.279 251.269 443.779 250.94 444.224C250.615 444.665 250.16 445.012 249.577 445.263C248.994 445.511 248.335 445.635 247.6 445.635ZM256.488 435.464C257.22 435.467 257.884 435.628 258.48 435.948C259.079 436.267 259.561 436.785 259.925 437.504C260.293 438.22 260.478 439.148 260.481 440.289C260.481 441.397 260.314 442.353 259.978 443.155C259.646 443.958 259.174 444.572 258.562 444.997C257.95 445.423 257.231 445.635 256.406 445.635C255.755 445.635 255.172 445.51 254.656 445.258C254.143 445.007 253.729 444.66 253.414 444.219C253.101 443.774 252.911 443.273 252.843 442.715H254.869C254.927 442.957 255.025 443.165 255.164 443.339C255.305 443.51 255.481 443.642 255.69 443.735C255.9 443.826 256.138 443.871 256.406 443.871C256.847 443.871 257.223 443.744 257.532 443.489C257.842 443.234 258.074 442.87 258.228 442.396C258.386 441.919 258.467 441.351 258.47 440.69H258.378C258.227 440.977 258.022 441.225 257.764 441.434C257.51 441.641 257.216 441.8 256.884 441.913C256.556 442.026 256.209 442.082 255.845 442.082C255.259 442.082 254.73 441.945 254.259 441.671C253.792 441.394 253.423 441.014 253.152 440.53C252.882 440.047 252.745 439.502 252.742 438.896C252.742 438.239 252.898 437.649 253.21 437.127C253.523 436.602 253.963 436.192 254.53 435.899C255.101 435.606 255.753 435.461 256.488 435.464ZM256.498 437.084C256.166 437.084 255.864 437.161 255.594 437.316C255.326 437.47 255.117 437.681 254.965 437.949C254.814 438.216 254.74 438.513 254.743 438.838C254.743 439.161 254.817 439.456 254.965 439.723C255.117 439.987 255.325 440.197 255.589 440.352C255.853 440.503 256.151 440.579 256.483 440.579C256.812 440.579 257.112 440.5 257.382 440.342C257.656 440.181 257.871 439.966 258.025 439.699C258.18 439.431 258.256 439.141 258.253 438.829C258.253 438.516 258.177 438.226 258.025 437.959C257.874 437.688 257.663 437.475 257.392 437.32C257.125 437.163 256.826 437.084 256.498 437.084Z" fill="#0E303C"/>
</svg>
