<svg width="1440" height="120" viewBox="0 0 1440 120" fill="none" xmlns="http://www.w3.org/2000/svg">
<g clip-path="url(#clip0_53_4081)">
<path opacity="0.3" d="M719.885 319.792C1285.36 319.792 1743.77 248.204 1743.77 159.896C1743.77 71.5881 1285.36 0 719.885 0C154.409 0 -304 71.5881 -304 159.896C-304 248.204 154.409 319.792 719.885 319.792Z" stroke="#8ACCC0" stroke-width="2" stroke-miterlimit="10"/>
<path d="M719.886 274.101C1231.15 274.101 1645.6 215.829 1645.6 143.948C1645.6 72.0664 1231.15 13.7949 719.886 13.7949C208.626 13.7949 -205.832 72.0664 -205.832 143.948C-205.832 215.829 208.626 274.101 719.886 274.101Z" fill="#8ACCC0" fill-opacity="0.5"/>
<path opacity="0.8" d="M719.885 225.434C1105.27 225.434 1417.69 181.512 1417.69 127.332C1417.69 73.1522 1105.27 29.2305 719.885 29.2305C334.498 29.2305 22.0801 73.1522 22.0801 127.332C22.0801 181.512 334.498 225.434 719.885 225.434Z" fill="#8ACCC0"/>
<g opacity="0.5">
<path d="M723.223 253.588C1164.64 253.588 1522.48 202.181 1522.48 138.768C1522.48 75.3549 1164.64 23.9485 723.223 23.9485C281.804 23.9485 -76.0361 75.3549 -76.0361 138.768C-76.0361 202.181 281.804 253.588 723.223 253.588Z" stroke="#8ACCC0" stroke-miterlimit="10"/>
</g>
</g>
<defs>
<clipPath id="clip0_53_4081">
<rect width="1440" height="120" fill="white"/>
</clipPath>
</defs>
</svg>
