<svg width="550" height="506" viewBox="0 0 550 506" fill="none" xmlns="http://www.w3.org/2000/svg">
<g clip-path="url(#clip0_4_1907)">
<g style="mix-blend-mode:hard-light" opacity="0.1">
<path d="M275.006 505.077C412.563 505.077 524.076 487.663 524.076 466.181C524.076 444.699 412.563 427.285 275.006 427.285C137.449 427.285 25.9365 444.699 25.9365 466.181C25.9365 487.663 137.449 505.077 275.006 505.077Z" stroke="#005041" stroke-width="1.35019" stroke-miterlimit="10"/>
</g>
<g style="mix-blend-mode:hard-light" opacity="0.2">
<path d="M275.006 493.962C399.375 493.962 500.195 479.787 500.195 462.301C500.195 444.815 399.375 430.64 275.006 430.64C150.638 430.64 49.8169 444.815 49.8169 462.301C49.8169 479.787 150.638 493.962 275.006 493.962Z" fill="#005041"/>
</g>
<g style="mix-blend-mode:hard-light" opacity="0.3">
<path d="M275.006 482.123C368.755 482.123 444.754 471.439 444.754 458.259C444.754 445.079 368.755 434.395 275.006 434.395C181.257 434.395 105.259 445.079 105.259 458.259C105.259 471.439 181.257 482.123 275.006 482.123Z" fill="#005041"/>
</g>
<g style="mix-blend-mode:hard-light" opacity="0.5">
<path d="M275.818 488.972C383.197 488.972 470.245 476.467 470.245 461.041C470.245 445.615 383.197 433.11 275.818 433.11C168.439 433.11 81.3906 445.615 81.3906 461.041C81.3906 476.467 168.439 488.972 275.818 488.972Z" stroke="#005041" stroke-width="0.450065" stroke-miterlimit="10"/>
</g>
<g style="mix-blend-mode:hard-light" opacity="0.5">
<path d="M275.006 476.56C355.504 476.56 420.761 468.071 420.761 457.598C420.761 447.126 355.504 438.637 275.006 438.637C194.508 438.637 129.251 447.126 129.251 457.598C129.251 468.071 194.508 476.56 275.006 476.56Z" stroke="#005041" stroke-width="0.450065" stroke-miterlimit="10"/>
</g>
<path d="M498.297 295.252H51.7026L157.565 450.063H392.434L498.297 295.252Z" fill="url(#paint0_linear_4_1907)"/>
<g style="mix-blend-mode:hard-light" opacity="0.5">
<path d="M275.006 473.167C345.688 473.167 402.988 465.973 402.988 457.099C402.988 448.225 345.688 441.032 275.006 441.032C204.323 441.032 147.024 448.225 147.024 457.099C147.024 465.973 204.323 473.167 275.006 473.167Z" fill="#005041"/>
</g>
<path d="M382.242 450.063C363.907 445.797 322.791 442.815 274.993 442.815C227.195 442.815 186.079 445.784 167.744 450.063H157.553V455.053C157.553 461.814 210.134 467.291 274.981 467.291C339.827 467.291 392.409 461.814 392.409 455.053V450.063H382.217H382.242Z" fill="#0E303C"/>
<path d="M275.006 462.301C339.86 462.301 392.434 456.822 392.434 450.063C392.434 443.305 339.86 437.826 275.006 437.826C210.152 437.826 157.578 443.305 157.578 450.063C157.578 456.822 210.152 462.301 275.006 462.301Z" fill="#4D8FA6"/>
<g style="mix-blend-mode:hard-light" opacity="0.6">
<path d="M275.006 455.74C345.392 455.74 402.451 447.719 402.451 437.826C402.451 427.932 345.392 419.912 275.006 419.912C204.62 419.912 147.561 427.932 147.561 437.826C147.561 447.719 204.62 455.74 275.006 455.74Z" stroke="#005041" stroke-width="1.80026" stroke-miterlimit="10"/>
</g>
<g style="mix-blend-mode:hard-light" opacity="0.4">
<path d="M275.006 435.368C354.304 435.368 418.587 426.331 418.587 415.184C418.587 404.037 354.304 395 275.006 395C195.708 395 131.424 404.037 131.424 415.184C131.424 426.331 195.708 435.368 275.006 435.368Z" stroke="#005041" stroke-width="1.35019" stroke-miterlimit="10"/>
</g>
<g style="mix-blend-mode:hard-light" opacity="0.2">
<path d="M275.006 411.604C363.802 411.604 435.786 401.484 435.786 389C435.786 376.516 363.802 366.396 275.006 366.396C186.21 366.396 114.226 376.516 114.226 389C114.226 401.484 186.21 411.604 275.006 411.604Z" stroke="#005041" stroke-width="0.90013" stroke-miterlimit="10"/>
</g>
<g style="mix-blend-mode:hard-light" opacity="0.1">
<path d="M275.006 387.315C374.101 387.315 454.433 376.022 454.433 362.092C454.433 348.161 374.101 336.868 275.006 336.868C175.911 336.868 95.5791 348.161 95.5791 362.092C95.5791 376.022 175.911 387.315 275.006 387.315Z" stroke="#005041" stroke-width="0.90013" stroke-miterlimit="10"/>
</g>
<path d="M352.267 216.399C352.804 202.078 350.406 178.601 346.022 168.259C341.638 157.918 345.76 142.798 341.513 127.28C337.267 111.761 340.314 109.902 335.793 93.4607C331.272 77.019 320.806 75.5594 312.837 72.2412C304.869 68.9229 299.698 64.9434 294.115 61.6376C288.545 58.3194 289.207 52.7556 289.207 52.7556C291.592 51.6953 293.053 47.5786 292.929 45.1959C292.791 42.8133 294.252 38.4346 294.252 38.4346C295.576 39.233 296.913 38.0355 297.038 36.1767C297.175 34.318 298.761 30.3385 298.636 28.7543C298.499 27.1575 296.388 27.9559 296.388 27.9559C296.388 27.9559 296.251 20.9326 296.388 16.4167C296.526 11.9134 294.665 8.71984 288.957 4.35368C283.711 0.324344 276.904 0.573839 275.843 0.636213C274.781 0.573839 267.974 0.324344 262.728 4.35368C257.021 8.73231 255.16 11.9134 255.297 16.4167C255.434 20.9201 255.297 27.9559 255.297 27.9559C255.297 27.9559 253.174 27.1575 253.049 28.7543C252.912 30.351 254.51 34.318 254.648 36.1767C254.785 38.0355 256.109 39.2206 257.433 38.4346C257.433 38.4346 258.894 42.8133 258.757 45.1959C258.619 47.5786 260.081 51.6953 262.479 52.7556C262.479 52.7556 263.141 58.3194 257.57 61.6376C252 64.9559 246.817 68.9354 238.848 72.2412C230.88 75.5594 220.413 77.019 215.892 93.4607C211.371 109.902 214.418 111.761 210.172 127.28C205.925 142.798 210.034 157.918 205.663 168.259C201.279 178.601 198.894 202.078 199.418 216.399C199.955 230.72 196.883 240.937 199.343 246.9C201.804 252.863 215.88 270.502 217.603 267.184C219.327 263.865 214.418 264.14 211.496 257.503C208.573 250.867 206.45 243.981 208.973 243.32C211.496 242.658 213.219 252.339 215.08 252.863C216.941 253.399 217.466 249.944 216.679 245.041C215.88 240.139 217.216 234.163 214.955 230.059C212.695 225.942 211.233 221.576 214.955 215.601C218.677 209.638 226.109 179.661 226.508 169.981C226.908 160.3 234.739 136.037 234.739 136.037C234.739 136.037 239.647 171.977 237.787 194.918C235.926 217.859 229.019 241.723 232.216 254.198C235.413 266.672 241.508 315.336 241.371 321.561C241.234 327.798 236.188 358.561 240.572 373.943C244.956 389.324 254.773 417.567 254.91 425.925C255.047 434.283 255.172 437.589 251.987 439.846C248.802 442.104 239.772 444.886 240.971 449.789C242.17 454.691 261.954 456.949 265.926 453.107C269.91 449.265 271.634 443.564 270.572 438.125C269.51 432.686 271.496 430.303 269.648 424.727C267.787 419.163 266.987 406.826 267.387 400.327C267.787 393.827 271.234 371.822 269.91 361.742C268.586 351.663 264.727 332.165 266.725 325.004C268.711 317.844 271.371 298.483 272.695 282.964C273.794 270.053 275.356 246.239 275.855 238.592C276.342 246.239 277.903 270.053 279.015 282.964C280.339 298.483 282.999 317.844 284.985 325.004C286.971 332.165 283.124 351.663 281.8 361.742C280.476 371.822 283.923 393.84 284.323 400.327C284.723 406.826 283.923 419.151 282.062 424.727C280.202 430.303 282.2 432.686 281.138 438.125C280.077 443.564 281.8 449.265 285.784 453.107C289.769 456.949 309.552 454.704 310.739 449.789C311.938 444.886 302.908 442.092 299.723 439.846C296.538 437.589 296.675 434.283 296.8 425.925C296.925 417.567 306.755 389.324 311.139 373.943C315.522 358.561 310.477 327.798 310.339 321.561C310.202 315.324 316.309 266.66 319.494 254.198C322.679 241.735 315.772 217.859 313.924 194.918C312.063 171.977 316.971 136.037 316.971 136.037C316.971 136.037 324.802 160.3 325.202 169.981C325.602 179.661 333.033 209.625 336.755 215.601C340.477 221.564 339.016 225.942 336.755 230.059C334.494 234.176 335.831 240.139 335.031 245.041C334.232 249.944 334.769 253.399 336.63 252.863C338.491 252.326 340.215 242.646 342.737 243.32C345.26 243.993 343.137 250.879 340.215 257.503C337.292 264.14 332.383 263.865 334.107 267.184C335.831 270.502 349.907 252.863 352.367 246.9C354.827 240.937 351.767 230.72 352.292 216.399H352.267Z" fill="#84CCA7"/>
<path d="M235.689 124.835L237.175 135.7C237.375 137.185 242.108 172.164 240.247 195.117C239.548 203.75 238.174 212.357 236.838 220.678C234.727 233.826 232.729 246.251 234.602 253.574C237.824 266.198 243.982 314.85 243.844 321.611C243.807 323.146 243.532 325.79 243.145 329.47C241.946 340.785 239.71 361.855 242.958 373.256C244.219 377.697 245.943 383.224 247.766 389.074C252.45 404.082 257.283 419.6 257.383 425.887V426.486C257.521 434.769 257.596 438.923 253.411 441.892C252.462 442.566 251.201 443.215 249.864 443.901C247.279 445.223 242.945 447.456 243.382 449.215C243.645 449.714 245.88 451.149 251.001 452.022C257.558 453.132 263.103 452.371 264.178 451.323C267.512 448.105 269.011 443.24 268.112 438.612C267.575 435.867 267.725 433.784 267.862 431.95C268.012 429.817 268.137 428.145 267.263 425.526C265.202 419.351 264.49 406.601 264.877 400.189C264.989 398.356 265.314 395.486 265.739 391.856C266.775 382.8 268.349 369.102 267.425 362.079C267.15 359.958 266.738 357.364 266.313 354.607C264.652 343.866 262.591 330.506 264.302 324.356C266.163 317.669 268.799 299.019 270.198 282.777C271.259 270.315 272.758 247.636 273.358 238.467H278.341C278.803 245.565 280.377 269.754 281.488 282.777C282.875 299.019 285.522 317.682 287.383 324.356C289.095 330.506 287.034 343.866 285.373 354.607C284.948 357.364 284.548 359.958 284.261 362.079C283.337 369.115 284.91 382.8 285.947 391.856C286.359 395.486 286.696 398.356 286.809 400.189C287.209 406.614 286.484 419.363 284.423 425.526C283.549 428.145 283.674 429.817 283.824 431.95C283.961 433.784 284.111 435.855 283.574 438.612C282.675 443.24 284.174 448.117 287.508 451.323C288.582 452.371 294.115 453.132 300.685 452.022C305.806 451.149 308.041 449.714 308.329 449.165C308.741 447.456 304.407 445.236 301.822 443.901C300.485 443.215 299.211 442.566 298.274 441.892C294.09 438.936 294.153 434.769 294.29 426.486V425.887C294.403 419.6 299.236 404.094 303.92 389.087C305.743 383.236 307.467 377.71 308.741 373.256C311.988 361.855 309.752 340.785 308.553 329.47C308.166 325.803 307.879 323.146 307.854 321.624C307.704 314.862 313.862 266.211 317.096 253.586C318.97 246.264 316.972 233.839 314.861 220.691C313.524 212.37 312.151 203.775 311.451 195.13C309.59 172.176 314.311 137.197 314.524 135.713L316.01 124.847L319.382 135.276C319.707 136.274 327.325 159.976 327.738 169.893C328.125 179.424 335.544 208.889 338.916 214.291C343.312 221.352 341.414 226.828 338.991 231.257C337.879 233.278 337.879 236.197 337.879 239.278C337.879 241.311 337.879 243.419 337.542 245.44C337.505 245.628 337.48 245.815 337.455 246.002C338.729 243.02 340.415 240.114 343.412 240.912C344.499 241.199 345.373 241.923 345.873 242.97C346.335 243.919 347.484 246.314 343.724 255.707C346.56 252.064 349.157 248.235 350.107 245.952C351.281 243.108 350.906 238.579 350.444 232.828C350.057 228.051 349.607 222.637 349.844 216.312C350.369 202.078 347.896 178.925 343.799 169.245C341.389 163.569 341.339 156.745 341.289 149.535C341.239 142.549 341.189 135.326 339.178 127.953C337.03 120.094 336.68 115.541 336.356 111.137C336.018 106.572 335.694 102.268 333.458 94.1469C329.911 81.2355 322.579 78.541 315.498 75.9338C314.286 75.4847 313.087 75.048 311.951 74.574C305.956 72.0791 301.397 69.16 297.388 66.6027C295.851 65.6172 294.403 64.694 292.916 63.8083C286.022 59.7166 286.771 52.7807 286.796 52.4813L286.959 51.0716L288.258 50.4978C289.344 50.0237 290.593 47.1296 290.493 45.3582C290.344 42.5763 291.78 38.1603 291.942 37.6613L292.929 34.7172L294.64 35.7402C294.752 34.7048 295.102 33.4573 295.477 32.135C295.577 31.7732 295.702 31.3241 295.826 30.875L294.028 31.5487L293.953 28.0183C293.953 27.7314 293.816 20.8828 293.953 16.3544C294.053 13.1484 293.041 10.5911 287.496 6.33723C282.912 2.81936 276.742 3.0938 276.055 3.13123H275.905H275.756C275.069 3.08133 268.899 2.81936 264.315 6.33723C258.757 10.5911 257.758 13.136 257.858 16.3544C257.995 20.8703 257.858 27.7189 257.858 28.0183L257.783 31.5487L255.984 30.875C256.097 31.3241 256.234 31.7732 256.334 32.135C256.709 33.4448 257.058 34.6923 257.171 35.7277L258.882 34.7048L259.869 37.6488C260.031 38.1478 261.48 42.5514 261.317 45.3457C261.218 47.1171 262.479 50.0113 263.553 50.4853L264.852 51.0591L265.014 52.4688C265.052 52.7557 265.789 59.6917 258.894 63.7958C257.408 64.6815 255.959 65.6047 254.423 66.5902C250.401 69.16 245.855 72.0666 239.86 74.5615C238.724 75.0356 237.525 75.4722 236.313 75.9213C229.231 78.5285 221.9 81.223 218.353 94.1344C216.117 102.255 215.793 106.572 215.455 111.125C215.131 115.529 214.781 120.082 212.633 127.941C210.622 135.301 210.559 142.524 210.522 149.522C210.472 156.733 210.422 163.556 208.011 169.232C203.915 178.913 201.442 202.066 201.966 216.299C202.204 222.624 201.754 228.038 201.367 232.816C200.905 238.567 200.53 243.095 201.704 245.939C202.653 248.235 205.239 252.064 208.086 255.707C204.314 246.314 205.476 243.918 205.926 242.958C206.425 241.91 207.3 241.187 208.386 240.9C211.371 240.114 213.07 243.008 214.344 245.989C214.319 245.815 214.294 245.628 214.256 245.44C213.932 243.419 213.932 241.311 213.919 239.278C213.919 236.197 213.919 233.278 212.807 231.257C210.372 226.828 208.474 221.339 212.882 214.291C216.255 208.889 223.661 179.424 224.061 169.893C224.473 159.988 232.092 136.287 232.416 135.276L235.789 124.847L235.689 124.835Z" fill="url(#paint1_linear_4_1907)"/>
<path d="M235.689 124.835L237.175 135.7C237.375 137.185 242.108 172.164 240.247 195.117C239.548 203.75 238.174 212.357 236.838 220.678C234.727 233.826 232.729 246.251 234.602 253.574C237.824 266.198 243.982 314.85 243.844 321.611C243.807 323.146 243.532 325.79 243.145 329.47C241.946 340.785 239.71 361.855 242.958 373.256C244.219 377.697 245.943 383.224 247.766 389.074C252.45 404.082 257.283 419.6 257.383 425.887V426.486C257.521 434.769 257.596 438.923 253.411 441.892C252.462 442.566 251.201 443.215 249.864 443.901C247.279 445.223 242.945 447.456 243.382 449.215C243.645 449.714 245.88 451.149 251.001 452.022C257.558 453.132 263.103 452.371 264.178 451.323C267.512 448.105 269.011 443.24 268.112 438.612C267.575 435.867 267.725 433.784 267.862 431.95C268.012 429.817 268.137 428.145 267.263 425.526C265.202 419.351 264.49 406.601 264.877 400.189C264.989 398.356 265.314 395.486 265.739 391.856C266.775 382.8 268.349 369.102 267.425 362.079C267.15 359.958 266.738 357.364 266.313 354.607C264.652 343.866 262.591 330.506 264.302 324.356C266.163 317.669 268.799 299.019 270.198 282.777C271.259 270.315 272.758 247.636 273.358 238.467H278.341C278.803 245.565 280.377 269.754 281.488 282.777C282.875 299.019 285.522 317.682 287.383 324.356C289.095 330.506 287.034 343.866 285.373 354.607C284.948 357.364 284.548 359.958 284.261 362.079C283.337 369.115 284.91 382.8 285.947 391.856C286.359 395.486 286.697 398.356 286.809 400.189C287.209 406.614 286.484 419.363 284.423 425.526C283.549 428.145 283.674 429.817 283.824 431.95C283.961 433.784 284.111 435.855 283.574 438.612C282.675 443.24 284.174 448.117 287.508 451.323C288.582 452.371 294.115 453.132 300.685 452.022C305.806 451.149 308.041 449.714 308.329 449.165C308.741 447.456 304.407 445.236 301.822 443.901C300.485 443.215 299.211 442.566 298.274 441.892C294.09 438.936 294.153 434.769 294.29 426.486V425.887C294.403 419.6 299.236 404.094 303.92 389.087C305.743 383.236 307.467 377.71 308.741 373.256C311.988 361.855 309.752 340.785 308.553 329.47C308.166 325.803 307.879 323.146 307.854 321.624C307.704 314.862 313.862 266.211 317.096 253.586C318.97 246.264 316.972 233.839 314.861 220.691C313.524 212.37 312.151 203.775 311.451 195.13C309.59 172.176 314.311 137.197 314.524 135.713L316.01 124.847L319.382 135.276C319.707 136.274 327.325 159.976 327.738 169.893C328.125 179.424 335.544 208.889 338.916 214.291C343.312 221.352 341.414 226.828 338.991 231.257C337.879 233.278 337.879 236.197 337.879 239.278C337.879 241.311 337.879 243.42 337.542 245.44C337.505 245.628 337.48 245.815 337.455 246.002C338.729 243.02 340.415 240.114 343.412 240.912C344.499 241.199 345.373 241.923 345.873 242.97C346.335 243.918 347.484 246.314 343.724 255.707C346.56 252.064 349.157 248.235 350.107 245.952C351.281 243.108 350.906 238.579 350.444 232.828C350.057 228.051 349.607 222.637 349.844 216.312C350.369 202.078 347.896 178.925 343.799 169.245C341.389 163.569 341.339 156.745 341.289 149.535C341.239 142.549 341.189 135.326 339.178 127.953C337.03 120.094 336.68 115.541 336.356 111.137C336.018 106.572 335.694 102.268 333.458 94.1469C329.911 81.2355 322.579 78.541 315.498 75.9338C314.286 75.4847 313.087 75.048 311.951 74.574C305.956 72.0791 301.397 69.16 297.388 66.6027C295.851 65.6172 294.403 64.694 292.916 63.8083C286.022 59.7166 286.771 52.7807 286.796 52.4813L286.959 51.0716L288.258 50.4978C289.344 50.0237 290.593 47.1296 290.493 45.3582C290.343 42.5763 291.78 38.1603 291.942 37.6613L292.929 34.7172L294.64 35.7402C294.752 34.7048 295.102 33.4573 295.477 32.135C295.577 31.7732 295.702 31.3241 295.826 30.875L294.028 31.5487L293.953 28.0183C293.953 27.7314 293.816 20.8828 293.953 16.3544C294.053 13.1484 293.041 10.5911 287.496 6.33723C282.912 2.81936 276.742 3.0938 276.055 3.13123H275.905H275.756C275.069 3.08133 268.899 2.81936 264.315 6.33723C258.757 10.5911 257.758 13.136 257.858 16.3544C257.995 20.8703 257.858 27.7189 257.858 28.0183L257.783 31.5487L255.984 30.875C256.097 31.3241 256.234 31.7732 256.334 32.135C256.709 33.4448 257.058 34.6923 257.171 35.7277L258.882 34.7048L259.869 37.6488C260.031 38.1478 261.48 42.5514 261.317 45.3457C261.218 47.1171 262.479 50.0113 263.553 50.4853L264.852 51.0591L265.014 52.4688C265.052 52.7557 265.789 59.6917 258.894 63.7958C257.408 64.6815 255.959 65.6047 254.423 66.5902C250.401 69.16 245.855 72.0666 239.86 74.5615C238.724 75.0356 237.525 75.4722 236.313 75.9213C229.231 78.5285 221.9 81.223 218.353 94.1344C216.117 102.255 215.793 106.572 215.455 111.125C215.131 115.529 214.781 120.082 212.633 127.941C210.622 135.301 210.559 142.524 210.522 149.522C210.472 156.733 210.422 163.556 208.011 169.232C203.915 178.913 201.442 202.066 201.966 216.299C202.204 222.624 201.754 228.038 201.367 232.816C200.905 238.567 200.53 243.095 201.704 245.939C202.653 248.235 205.239 252.064 208.086 255.707C204.314 246.314 205.476 243.918 205.926 242.958C206.425 241.91 207.3 241.187 208.386 240.9C211.371 240.114 213.07 243.008 214.344 245.989C214.319 245.815 214.294 245.628 214.256 245.44C213.932 243.42 213.932 241.311 213.919 239.278C213.919 236.197 213.919 233.278 212.807 231.257C210.372 226.828 208.474 221.339 212.882 214.291C216.255 208.889 223.661 179.424 224.061 169.893C224.473 159.988 232.092 136.287 232.416 135.276L235.789 124.847L235.689 124.835Z" fill="url(#paint2_linear_4_1907)"/>
<path d="M165.821 432.125C164.709 432.125 163.81 431.227 163.81 430.116V374.666C163.81 373.556 164.709 372.658 165.821 372.658C166.932 372.658 167.832 373.556 167.832 374.666V430.116C167.832 431.227 166.932 432.125 165.821 432.125Z" fill="url(#paint3_linear_4_1907)"/>
<path d="M379.333 449.639C378.221 449.639 377.322 448.741 377.322 447.63V392.18C377.322 391.07 378.221 390.172 379.333 390.172C380.444 390.172 381.343 391.07 381.343 392.18V447.63C381.343 448.741 380.444 449.639 379.333 449.639Z" fill="url(#paint4_linear_4_1907)"/>
<path d="M392.434 350.702C391.323 350.702 390.423 349.804 390.423 348.694V293.244C390.423 292.133 391.323 291.235 392.434 291.235C393.546 291.235 394.445 292.133 394.445 293.244V348.694C394.445 349.804 393.546 350.702 392.434 350.702Z" fill="url(#paint5_linear_4_1907)"/>
<path d="M188.715 295.701C187.603 295.701 186.704 294.803 186.704 293.692V238.242C186.704 237.132 187.603 236.234 188.715 236.234C189.827 236.234 190.726 237.132 190.726 238.242V293.692C190.726 294.803 189.827 295.701 188.715 295.701Z" fill="url(#paint6_linear_4_1907)"/>
<path opacity="0.2" d="M184.693 120.868C183.581 120.868 182.682 119.969 182.682 118.859V63.4091C182.682 62.2988 183.581 61.4006 184.693 61.4006C185.805 61.4006 186.704 62.2988 186.704 63.4091V118.859C186.704 119.969 185.805 120.868 184.693 120.868Z" fill="url(#paint7_linear_4_1907)"/>
<path opacity="0.2" d="M333.545 59.467C332.433 59.467 331.534 58.5689 331.534 57.4586V2.00843C331.534 0.898181 332.433 0 333.545 0C334.657 0 335.556 0.898181 335.556 2.00843V57.4586C335.556 58.5689 334.657 59.467 333.545 59.467Z" fill="url(#paint8_linear_4_1907)"/>
<path d="M202.84 359.946C201.729 359.946 200.83 359.048 200.83 357.937V329.383C200.83 328.272 201.729 327.374 202.84 327.374C203.952 327.374 204.851 328.272 204.851 329.383V357.937C204.851 359.048 203.952 359.946 202.84 359.946Z" fill="url(#paint9_linear_4_1907)"/>
<path opacity="0.5" d="M377.309 206.257C376.198 206.257 375.298 205.359 375.298 204.249V175.694C375.298 174.584 376.198 173.686 377.309 173.686C378.421 173.686 379.32 174.584 379.32 175.694V204.249C379.32 205.359 378.421 206.257 377.309 206.257Z" fill="url(#paint10_linear_4_1907)"/>
<path d="M344.774 382.675C343.662 382.675 342.763 381.777 342.763 380.666V352.112C342.763 351.001 343.662 350.103 344.774 350.103C345.885 350.103 346.784 351.001 346.784 352.112V380.666C346.784 381.777 345.885 382.675 344.774 382.675Z" fill="url(#paint11_linear_4_1907)"/>
<path opacity="0.5" d="M159.789 222.549C158.677 222.549 157.778 221.651 157.778 220.541V191.986C157.778 190.876 158.677 189.978 159.789 189.978C160.9 189.978 161.8 190.876 161.8 191.986V220.541C161.8 221.651 160.9 222.549 159.789 222.549Z" fill="url(#paint12_linear_4_1907)"/>
<g style="mix-blend-mode:hard-light" opacity="0.8">
<path d="M276.105 233.938L451.598 249.731" stroke="#005041" stroke-width="0.90013" stroke-miterlimit="10" stroke-dasharray="2.7 2.7"/>
</g>
<g style="mix-blend-mode:hard-light" opacity="0.15">
<path d="M269.873 249.944C260.98 246.663 256.421 236.783 259.706 227.901C262.991 219.019 272.883 214.465 281.775 217.746C290.668 221.027 295.227 230.907 291.942 239.789C288.657 248.671 278.765 253.224 269.873 249.944ZM281.451 218.62C273.045 215.526 263.69 219.83 260.58 228.225C257.483 236.621 261.792 245.964 270.197 249.07C278.603 252.177 287.958 247.86 291.068 239.465C294.178 231.069 289.856 221.726 281.451 218.62Z" fill="#005041"/>
</g>
<g style="mix-blend-mode:hard-light" opacity="0.4">
<path d="M270.885 247.224C263.491 244.505 259.694 236.271 262.429 228.899C265.164 221.526 273.383 217.734 280.776 220.453C288.17 223.173 291.955 231.394 289.232 238.779C286.509 246.164 278.278 249.956 270.885 247.224ZM280.452 221.327C273.545 218.782 265.851 222.325 263.303 229.223C260.755 236.122 264.303 243.806 271.209 246.351C278.116 248.896 285.81 245.353 288.358 238.454C290.906 231.556 287.358 223.871 280.452 221.327Z" fill="#005041"/>
</g>
<g style="mix-blend-mode:hard-light" opacity="0.8">
<path d="M271.796 244.742C265.776 242.521 262.691 235.822 264.914 229.822C267.137 223.822 273.844 220.728 279.852 222.948C285.859 225.169 288.957 231.868 286.734 237.868C284.511 243.868 277.804 246.962 271.796 244.742ZM279.527 223.822C273.994 221.776 267.824 224.62 265.788 230.146C263.753 235.673 266.588 241.835 272.121 243.868C277.654 245.902 283.824 243.07 285.859 237.544C287.895 232.017 285.06 225.867 279.527 223.822Z" fill="#005041"/>
</g>
<path d="M282.388 236.259C281.051 239.876 277.03 241.735 273.395 240.4C269.761 239.066 267.912 235.049 269.248 231.419C270.585 227.788 274.607 225.942 278.241 227.277C281.876 228.612 283.724 232.629 282.388 236.259Z" fill="url(#paint13_linear_4_1907)"/>
<path d="M278.977 225.293C274.256 223.547 269.011 225.967 267.262 230.683C265.514 235.398 267.937 240.637 272.658 242.384C277.379 244.13 282.624 241.71 284.373 236.995C286.122 232.279 283.699 227.04 278.977 225.293ZM272.97 241.548C268.698 239.976 266.525 235.248 268.099 230.982C269.673 226.716 274.406 224.545 278.678 226.117C282.949 227.689 285.122 232.416 283.549 236.683C281.975 240.949 277.241 243.12 272.97 241.548Z" fill="url(#paint14_linear_4_1907)"/>
<g style="mix-blend-mode:hard-light" opacity="0.8">
<path d="M276.13 180.821L129.826 226.741" stroke="#005041" stroke-width="0.90013" stroke-miterlimit="10" stroke-dasharray="2.7 2.7"/>
</g>
<g style="mix-blend-mode:hard-light" opacity="0.15">
<path d="M275.83 197.974C266.351 197.974 258.645 190.277 258.645 180.809C258.645 171.34 266.351 163.644 275.83 163.644C285.31 163.644 293.016 171.34 293.016 180.809C293.016 190.277 285.31 197.974 275.83 197.974ZM275.83 164.579C266.875 164.579 259.581 171.852 259.581 180.809C259.581 189.766 266.863 197.038 275.83 197.038C284.798 197.038 292.079 189.753 292.079 180.809C292.079 171.864 284.798 164.579 275.83 164.579Z" fill="#005041"/>
</g>
<g style="mix-blend-mode:hard-light" opacity="0.4">
<path d="M275.83 195.08C267.949 195.08 261.542 188.68 261.542 180.809C261.542 172.937 267.949 166.538 275.83 166.538C283.711 166.538 290.118 172.937 290.118 180.809C290.118 188.68 283.711 195.08 275.83 195.08ZM275.83 167.473C268.474 167.473 262.479 173.449 262.479 180.809C262.479 188.169 268.461 194.144 275.83 194.144C283.199 194.144 289.182 188.169 289.182 180.809C289.182 173.449 283.199 167.473 275.83 167.473Z" fill="#005041"/>
</g>
<g style="mix-blend-mode:hard-light" opacity="0.8">
<path d="M275.83 192.435C269.411 192.435 264.19 187.221 264.19 180.809C264.19 174.397 269.411 169.195 275.83 169.195C282.25 169.195 287.458 174.409 287.458 180.809C287.458 187.208 282.238 192.435 275.83 192.435ZM275.83 170.13C269.935 170.13 265.127 174.921 265.127 180.809C265.127 186.697 269.923 191.5 275.83 191.5C281.738 191.5 286.522 186.709 286.522 180.809C286.522 174.908 281.725 170.13 275.83 170.13Z" fill="#005041"/>
</g>
<path d="M282.824 180.821C282.824 184.676 279.689 187.807 275.83 187.807C271.971 187.807 268.836 184.676 268.836 180.821C268.836 176.967 271.971 173.835 275.83 173.835C279.689 173.835 282.824 176.967 282.824 180.821Z" fill="url(#paint15_linear_4_1907)"/>
<path d="M275.83 171.715C270.797 171.715 266.713 175.794 266.713 180.821C266.713 185.848 270.797 189.928 275.83 189.928C280.864 189.928 284.948 185.848 284.948 180.821C284.948 175.794 280.864 171.715 275.83 171.715ZM275.83 189.042C271.284 189.042 267.6 185.362 267.6 180.821C267.6 176.28 271.284 172.6 275.83 172.6C280.377 172.6 284.061 176.28 284.061 180.821C284.061 185.362 280.377 189.042 275.83 189.042Z" fill="url(#paint16_linear_4_1907)"/>
<g style="mix-blend-mode:hard-light" opacity="0.8">
<path d="M143.265 94.783L276.13 24.9744" stroke="#005041" stroke-width="0.90013" stroke-miterlimit="10" stroke-dasharray="2.7 2.7"/>
</g>
<g style="mix-blend-mode:hard-light" opacity="0.8">
<path d="M298.504 113.156L426.709 146.249" stroke="#005041" stroke-width="0.90013" stroke-miterlimit="10" stroke-dasharray="2.7 2.7"/>
</g>
<g style="mix-blend-mode:hard-light" opacity="0.15">
<path d="M275.83 42.1271C266.351 42.1271 258.645 34.4302 258.645 24.9619C258.645 15.4935 266.351 7.79663 275.83 7.79663C285.31 7.79663 293.016 15.4935 293.016 24.9619C293.016 34.4302 285.31 42.1271 275.83 42.1271ZM275.83 8.73224C266.875 8.73224 259.581 16.0175 259.581 24.9619C259.581 33.9062 266.863 41.1915 275.83 41.1915C284.798 41.1915 292.079 33.9062 292.079 24.9619C292.079 16.0175 284.798 8.73224 275.83 8.73224Z" fill="#005041"/>
</g>
<g style="mix-blend-mode:hard-light" opacity="0.4">
<path d="M275.83 39.2331C267.949 39.2331 261.542 32.8336 261.542 24.962C261.542 17.0905 267.949 10.6909 275.83 10.6909C283.711 10.6909 290.118 17.0905 290.118 24.962C290.118 32.8336 283.711 39.2331 275.83 39.2331ZM275.83 11.6265C268.474 11.6265 262.479 17.6019 262.479 24.962C262.479 32.3221 268.461 38.2975 275.83 38.2975C283.199 38.2975 289.182 32.3221 289.182 24.962C289.182 17.6019 283.199 11.6265 275.83 11.6265Z" fill="#005041"/>
</g>
<g style="mix-blend-mode:hard-light" opacity="0.8">
<path d="M275.83 36.5883C269.411 36.5883 264.19 31.3739 264.19 24.9619C264.19 18.5499 269.411 13.3479 275.83 13.3479C282.25 13.3479 287.458 18.5623 287.458 24.9619C287.458 31.3614 282.238 36.5883 275.83 36.5883ZM275.83 14.2835C269.935 14.2835 265.127 19.0738 265.127 24.9619C265.127 30.8499 269.923 35.6527 275.83 35.6527C281.738 35.6527 286.522 30.8624 286.522 24.9619C286.522 19.0613 281.725 14.2835 275.83 14.2835Z" fill="#005041"/>
</g>
<path d="M282.824 24.9744C282.824 28.8291 279.689 31.9602 275.83 31.9602C271.971 31.9602 268.836 28.8291 268.836 24.9744C268.836 21.1197 271.971 17.9885 275.83 17.9885C279.689 17.9885 282.824 21.1197 282.824 24.9744Z" fill="url(#paint17_linear_4_1907)"/>
<path d="M275.83 15.8679C270.797 15.8679 266.713 19.9472 266.713 24.9745C266.713 30.0018 270.797 34.081 275.83 34.081C280.864 34.081 284.948 30.0018 284.948 24.9745C284.948 19.9472 280.864 15.8679 275.83 15.8679ZM275.83 33.1953C271.284 33.1953 267.6 29.5153 267.6 24.9745C267.6 20.4337 271.284 16.7536 275.83 16.7536C280.377 16.7536 284.061 20.4337 284.061 24.9745C284.061 29.5153 280.377 33.1953 275.83 33.1953Z" fill="url(#paint18_linear_4_1907)"/>
<g style="mix-blend-mode:hard-light" opacity="0.15">
<path d="M298.636 130.411C289.157 130.411 281.451 122.714 281.451 113.246C281.451 103.777 289.157 96.0803 298.636 96.0803C308.116 96.0803 315.822 103.777 315.822 113.246C315.822 122.714 308.116 130.411 298.636 130.411ZM298.636 97.0159C289.681 97.0159 282.387 104.301 282.387 113.246C282.387 122.19 289.669 129.475 298.636 129.475C307.604 129.475 314.886 122.202 314.886 113.246C314.886 104.289 307.604 97.0159 298.636 97.0159Z" fill="#005041"/>
</g>
<g style="mix-blend-mode:hard-light" opacity="0.4">
<path d="M298.636 127.517C290.755 127.517 284.348 121.117 284.348 113.246C284.348 105.374 290.755 98.9746 298.636 98.9746C306.517 98.9746 312.925 105.374 312.925 113.246C312.925 121.117 306.517 127.517 298.636 127.517ZM298.636 99.9102C291.28 99.9102 285.285 105.898 285.285 113.246C285.285 120.593 291.267 126.581 298.636 126.581C306.005 126.581 311.988 120.606 311.988 113.246C311.988 105.886 306.005 99.9102 298.636 99.9102Z" fill="#005041"/>
</g>
<g style="mix-blend-mode:hard-light" opacity="0.8">
<path d="M298.636 124.872C292.217 124.872 286.996 119.658 286.996 113.246C286.996 106.834 292.217 101.632 298.636 101.632C305.056 101.632 310.264 106.846 310.264 113.246C310.264 119.645 305.044 124.872 298.636 124.872ZM298.636 102.567C292.741 102.567 287.933 107.357 287.933 113.246C287.933 119.134 292.729 123.936 298.636 123.936C304.544 123.936 309.328 119.146 309.328 113.246C309.328 107.345 304.532 102.567 298.636 102.567Z" fill="#005041"/>
</g>
<path d="M305.631 113.246C305.631 117.1 302.496 120.231 298.636 120.231C294.777 120.231 291.642 117.1 291.642 113.246C291.642 109.391 294.777 106.26 298.636 106.26C302.496 106.26 305.631 109.391 305.631 113.246Z" fill="url(#paint19_linear_4_1907)"/>
<path d="M298.637 104.139C293.603 104.139 289.519 108.218 289.519 113.245C289.519 118.273 293.603 122.352 298.637 122.352C303.67 122.352 307.754 118.273 307.754 113.245C307.754 108.218 303.67 104.139 298.637 104.139ZM298.637 121.466C294.09 121.466 290.406 117.786 290.406 113.245C290.406 108.705 294.09 105.025 298.637 105.025C303.183 105.025 306.867 108.705 306.867 113.245C306.867 117.786 303.183 121.466 298.637 121.466Z" fill="url(#paint20_linear_4_1907)"/>
<g style="mix-blend-mode:hard-light" opacity="0.1">
<path d="M129.239 134.902C111.379 134.902 96.853 120.394 96.853 102.555C96.853 84.7159 111.379 70.2078 129.239 70.2078C147.099 70.2078 161.625 84.7159 161.625 102.555C161.625 120.394 147.099 134.902 129.239 134.902ZM129.239 71.9792C112.353 71.9792 98.6266 85.7014 98.6266 102.555C98.6266 119.408 112.365 133.13 129.239 133.13C146.112 133.13 159.851 119.408 159.851 102.555C159.851 85.7014 146.112 71.9792 129.239 71.9792Z" fill="#005041"/>
</g>
<g style="mix-blend-mode:hard-light" opacity="0.3">
<path d="M129.239 131.085C113.489 131.085 100.688 118.285 100.688 102.567C100.688 86.8491 113.502 74.05 129.239 74.05C144.976 74.05 157.79 86.8366 157.79 102.567C157.79 118.298 144.988 131.085 129.239 131.085ZM129.239 75.9213C114.526 75.9213 102.561 87.8721 102.561 102.567C102.561 117.263 114.526 129.213 129.239 129.213C143.952 129.213 155.917 117.263 155.917 102.567C155.917 87.8721 143.952 75.9213 129.239 75.9213Z" fill="#005041"/>
</g>
<g style="mix-blend-mode:hard-light" opacity="0.5">
<path d="M129.239 126.943C115.775 126.943 104.834 116.003 104.834 102.567C104.834 89.132 115.787 78.1917 129.239 78.1917C142.69 78.1917 153.644 89.132 153.644 102.567C153.644 116.003 142.69 126.943 129.239 126.943ZM129.239 80.1502C116.862 80.1502 106.795 90.2048 106.795 102.567C106.795 114.93 116.862 124.984 129.239 124.984C141.616 124.984 151.683 114.93 151.683 102.567C151.683 90.2048 141.616 80.1502 129.239 80.1502Z" fill="#005041"/>
</g>
<path d="M129.239 118.585C138.096 118.585 145.276 111.413 145.276 102.567C145.276 93.7209 138.096 86.5496 129.239 86.5496C120.382 86.5496 113.202 93.7209 113.202 102.567C113.202 111.413 120.382 118.585 129.239 118.585Z" fill="url(#paint21_linear_4_1907)"/>
<path d="M129.239 82.5203C118.16 82.5203 109.18 91.4896 109.18 102.555C109.18 113.62 118.16 122.589 129.239 122.589C140.317 122.589 149.297 113.62 149.297 102.555C149.297 91.4896 140.317 82.5203 129.239 82.5203ZM129.239 120.656C119.234 120.656 111.116 112.547 111.116 102.555C111.116 92.5624 119.234 84.4538 129.239 84.4538C139.243 84.4538 147.361 92.5624 147.361 102.555C147.361 112.547 139.243 120.656 129.239 120.656Z" fill="url(#paint22_linear_4_1907)"/>
<g style="mix-blend-mode:hard-light" opacity="0.1">
<path d="M129.239 257.404C111.379 257.404 96.853 242.896 96.853 225.057C96.853 207.218 111.379 192.71 129.239 192.71C147.099 192.71 161.625 207.218 161.625 225.057C161.625 242.896 147.099 257.404 129.239 257.404ZM129.239 194.481C112.353 194.481 98.6266 208.203 98.6266 225.057C98.6266 241.91 112.365 255.632 129.239 255.632C146.112 255.632 159.851 241.91 159.851 225.057C159.851 208.203 146.112 194.481 129.239 194.481Z" fill="#005041"/>
</g>
<g style="mix-blend-mode:hard-light" opacity="0.3">
<path d="M129.239 253.574C113.489 253.574 100.688 240.775 100.688 225.057C100.688 209.338 113.502 196.539 129.239 196.539C144.976 196.539 157.79 209.326 157.79 225.057C157.79 240.787 144.988 253.574 129.239 253.574ZM129.239 198.411C114.526 198.411 102.561 210.361 102.561 225.057C102.561 239.752 114.526 251.703 129.239 251.703C143.952 251.703 155.917 239.752 155.917 225.057C155.917 210.361 143.952 198.411 129.239 198.411Z" fill="#005041"/>
</g>
<g style="mix-blend-mode:hard-light" opacity="0.5">
<path d="M129.239 249.432C115.775 249.432 104.834 238.492 104.834 225.057C104.834 211.622 115.787 200.681 129.239 200.681C142.69 200.681 153.644 211.622 153.644 225.057C153.644 238.492 142.69 249.432 129.239 249.432ZM129.239 202.64C116.862 202.64 106.795 212.694 106.795 225.057C106.795 237.419 116.862 247.474 129.239 247.474C141.616 247.474 151.683 237.419 151.683 225.057C151.683 212.694 141.616 202.64 129.239 202.64Z" fill="#005041"/>
</g>
<path d="M129.239 241.074C138.096 241.074 145.276 233.903 145.276 225.057C145.276 216.21 138.096 209.039 129.239 209.039C120.382 209.039 113.202 216.21 113.202 225.057C113.202 233.903 120.382 241.074 129.239 241.074Z" fill="url(#paint23_linear_4_1907)"/>
<path d="M129.239 205.022C118.16 205.022 109.18 213.992 109.18 225.057C109.18 236.122 118.16 245.091 129.239 245.091C140.317 245.091 149.297 236.122 149.297 225.057C149.297 213.992 140.317 205.022 129.239 205.022ZM129.239 243.157C119.234 243.157 111.116 235.049 111.116 225.057C111.116 215.064 119.234 206.956 129.239 206.956C139.243 206.956 147.361 215.064 147.361 225.057C147.361 235.049 139.243 243.157 129.239 243.157Z" fill="url(#paint24_linear_4_1907)"/>
<g style="mix-blend-mode:hard-light" opacity="0.1">
<path d="M451.616 183.188C433.756 183.188 419.23 168.679 419.23 150.841C419.23 133.002 433.756 118.494 451.616 118.494C469.477 118.494 484.002 133.002 484.002 150.841C484.002 168.679 469.477 183.188 451.616 183.188ZM451.616 120.265C434.73 120.265 421.004 133.987 421.004 150.841C421.004 167.694 434.743 181.416 451.616 181.416C468.49 181.416 482.228 167.694 482.228 150.841C482.228 133.987 468.49 120.265 451.616 120.265Z" fill="#005041"/>
</g>
<g style="mix-blend-mode:hard-light" opacity="0.3">
<path d="M451.616 179.358C435.867 179.358 423.065 166.559 423.065 150.84C423.065 135.122 435.879 122.323 451.616 122.323C467.353 122.323 480.168 135.11 480.168 150.84C480.168 166.571 467.366 179.358 451.616 179.358ZM451.616 124.194C436.904 124.194 424.938 136.145 424.938 150.84C424.938 165.536 436.904 177.486 451.616 177.486C466.329 177.486 478.294 165.536 478.294 150.84C478.294 136.145 466.329 124.194 451.616 124.194Z" fill="#005041"/>
</g>
<g style="mix-blend-mode:hard-light" opacity="0.5">
<path d="M451.616 175.216C438.152 175.216 427.211 164.276 427.211 150.84C427.211 137.405 438.165 126.465 451.616 126.465C465.068 126.465 476.021 137.405 476.021 150.84C476.021 164.276 465.068 175.216 451.616 175.216ZM451.616 128.423C439.239 128.423 429.172 138.478 429.172 150.84C429.172 163.203 439.239 173.258 451.616 173.258C463.994 173.258 474.06 163.203 474.06 150.84C474.06 138.478 463.994 128.423 451.616 128.423Z" fill="#005041"/>
</g>
<path d="M451.616 166.858C460.473 166.858 467.653 159.687 467.653 150.841C467.653 141.994 460.473 134.823 451.616 134.823C442.759 134.823 435.58 141.994 435.58 150.841C435.58 159.687 442.759 166.858 451.616 166.858Z" fill="url(#paint25_linear_4_1907)"/>
<path d="M451.616 130.806C440.538 130.806 431.558 139.775 431.558 150.841C431.558 161.906 440.538 170.875 451.616 170.875C462.694 170.875 471.675 161.906 471.675 150.841C471.675 139.775 462.694 130.806 451.616 130.806ZM451.616 168.941C441.612 168.941 433.494 160.833 433.494 150.841C433.494 140.848 441.612 132.74 451.616 132.74C461.62 132.74 469.739 140.848 469.739 150.841C469.739 160.833 461.62 168.941 451.616 168.941Z" fill="url(#paint26_linear_4_1907)"/>
<g style="mix-blend-mode:hard-light" opacity="0.1">
<path d="M440.969 278.498C424.22 272.323 415.615 253.686 421.797 236.958C427.98 220.229 446.639 211.634 463.388 217.809C480.137 223.984 488.742 242.621 482.56 259.35C476.377 276.078 457.718 284.673 440.969 278.498ZM462.789 219.468C446.952 213.63 429.304 221.751 423.459 237.569C417.613 253.387 425.744 271.014 441.581 276.852C457.418 282.69 475.066 274.569 480.911 258.751C486.756 242.933 478.625 225.306 462.789 219.468Z" fill="#005041"/>
</g>
<g style="mix-blend-mode:hard-light" opacity="0.3">
<path d="M442.293 274.918C427.518 269.479 419.936 253.038 425.394 238.293C430.84 223.535 447.301 215.975 462.064 221.414C476.827 226.853 484.421 243.282 478.963 258.04C473.517 272.798 457.056 280.37 442.293 274.918ZM461.415 223.161C447.613 218.071 432.239 225.144 427.143 238.929C422.047 252.713 429.129 268.07 442.93 273.159C456.731 278.249 472.106 271.176 477.202 257.379C482.297 243.582 475.216 228.238 461.415 223.148V223.161Z" fill="#005041"/>
</g>
<g style="mix-blend-mode:hard-light" opacity="0.5">
<path d="M443.729 271.038C431.102 266.385 424.62 252.339 429.279 239.727C433.937 227.115 448.001 220.641 460.628 225.294C473.255 229.947 479.737 243.993 475.079 256.605C470.42 269.217 456.356 275.692 443.729 271.038ZM459.954 227.14C448.338 222.861 435.411 228.811 431.127 240.401C426.843 252.002 432.801 264.913 444.416 269.192C456.032 273.471 468.959 267.521 473.243 255.919C477.527 244.318 471.569 231.406 459.954 227.127V227.14Z" fill="#005041"/>
</g>
<path d="M467.226 253.727C470.293 245.428 466.043 236.217 457.735 233.153C449.426 230.09 440.204 234.334 437.137 242.633C434.07 250.932 438.319 260.143 446.628 263.206C454.937 266.27 464.159 262.025 467.226 253.727Z" fill="url(#paint27_linear_4_1907)"/>
<path d="M459.129 229.361C448.738 225.531 437.197 230.845 433.363 241.224C429.529 251.603 434.849 263.13 445.241 266.959C455.632 270.789 467.173 265.475 471.007 255.096C474.841 244.717 469.521 233.19 459.129 229.361ZM445.903 265.138C436.51 261.683 431.714 251.266 435.174 241.885C438.634 232.504 449.063 227.714 458.455 231.169C467.847 234.625 472.643 245.041 469.183 254.422C465.724 263.803 455.295 268.594 445.903 265.138Z" fill="url(#paint28_linear_4_1907)"/>
<path d="M11.4414 93.0312H18.1914C19.4023 93.0312 20.4297 93.2148 21.2734 93.582C22.1172 93.9414 22.75 94.4492 23.1719 95.1055C23.6016 95.7617 23.8164 96.5234 23.8164 97.3906C23.8164 98.0391 23.6836 98.6133 23.418 99.1133C23.1602 99.6055 22.8008 100.016 22.3398 100.344C21.8789 100.664 21.3516 100.891 20.7578 101.023V101.188C21.4062 101.219 22.0156 101.406 22.5859 101.75C23.1562 102.094 23.6133 102.574 23.957 103.191C24.3008 103.801 24.4727 104.512 24.4727 105.324C24.4727 106.23 24.2461 107.035 23.793 107.738C23.3477 108.441 22.6875 108.996 21.8125 109.402C20.9375 109.801 19.8789 110 18.6367 110H11.4414V93.0312ZM17.9219 107.105C18.5859 107.105 19.1328 107.02 19.5625 106.848C20 106.668 20.3203 106.422 20.5234 106.109C20.7344 105.789 20.8359 105.41 20.8281 104.973C20.8359 104.504 20.7227 104.086 20.4883 103.719C20.2617 103.344 19.9336 103.055 19.5039 102.852C19.082 102.648 18.5859 102.547 18.0156 102.547H14.957V107.105H17.9219ZM17.6641 100.145C18.1562 100.137 18.5977 100.047 18.9883 99.875C19.3867 99.6953 19.6953 99.4414 19.9141 99.1133C20.1406 98.7852 20.2539 98.3984 20.2539 97.9531C20.2539 97.5391 20.1523 97.1758 19.9492 96.8633C19.7539 96.5508 19.4648 96.3125 19.082 96.1484C18.707 95.9766 18.2578 95.8906 17.7344 95.8906H14.957V100.145H17.6641ZM26.6406 97.2734H29.9922V99.4883H30.1328C30.3594 98.7148 30.7461 98.125 31.293 97.7188C31.8398 97.3047 32.4727 97.0938 33.1914 97.0859C33.6914 97.1016 34.0625 97.1406 34.3047 97.2031V100.297C34.1328 100.242 33.9062 100.199 33.625 100.168C33.3438 100.129 33.0742 100.109 32.8164 100.109C32.3008 100.109 31.8398 100.223 31.4336 100.449C31.0273 100.676 30.7031 100.992 30.4609 101.398C30.2266 101.797 30.1094 102.254 30.1094 102.77V110H26.6406V97.2734ZM43.1055 104.504C42.8945 104.52 42.7227 104.531 42.5898 104.539C42.4648 104.547 42.2812 104.559 42.0391 104.574C41.3906 104.598 40.8203 104.637 40.3281 104.691C39.7109 104.738 39.2266 104.906 38.875 105.195C38.5312 105.477 38.3555 105.859 38.3477 106.344C38.3477 106.656 38.4297 106.926 38.5938 107.152C38.7578 107.371 38.9805 107.539 39.2617 107.656C39.5508 107.773 39.8828 107.828 40.2578 107.82C40.7734 107.828 41.2344 107.73 41.6406 107.527C42.0547 107.316 42.375 107.031 42.6016 106.672C42.8281 106.305 42.9414 105.898 42.9414 105.453L42.918 101.34C42.918 100.98 42.8398 100.676 42.6836 100.426C42.5352 100.168 42.3086 99.9766 42.0039 99.8516C41.6992 99.7188 41.332 99.6523 40.9023 99.6523C40.3086 99.6523 39.8281 99.7773 39.4609 100.027C39.1016 100.27 38.875 100.613 38.7812 101.059H35.4766C35.5469 100.309 35.8086 99.6367 36.2617 99.043C36.7148 98.4414 37.3398 97.9688 38.1367 97.625C38.9414 97.2812 39.8906 97.1094 40.9844 97.1094C41.9688 97.1094 42.8672 97.2578 43.6797 97.5547C44.4922 97.8516 45.1445 98.3281 45.6367 98.9844C46.1289 99.6328 46.3789 100.445 46.3867 101.422V110H43.0938V108.242H43C42.6719 108.859 42.1953 109.348 41.5703 109.707C40.9531 110.059 40.1836 110.234 39.2617 110.234C38.4414 110.234 37.7148 110.094 37.082 109.812C36.4492 109.523 35.9492 109.094 35.582 108.523C35.2148 107.953 35.0312 107.262 35.0312 106.449C35.0312 105.129 35.4688 104.168 36.3438 103.566C37.2188 102.957 38.3594 102.609 39.7656 102.523C40.1484 102.492 40.5625 102.469 41.0078 102.453C41.4609 102.43 41.8945 102.406 42.3086 102.383C42.5664 102.375 42.8242 102.367 43.082 102.359L43.1055 104.504ZM49.0234 97.2734H52.4922V110H49.0234V97.2734ZM50.7578 95.5977C50.4062 95.5977 50.0859 95.5195 49.7969 95.3633C49.5156 95.1992 49.2891 94.9844 49.1172 94.7188C48.9453 94.4531 48.8594 94.1602 48.8594 93.8398C48.8594 93.5273 48.9453 93.2344 49.1172 92.9609C49.2891 92.6875 49.5195 92.4727 49.8086 92.3164C50.0977 92.1602 50.4141 92.082 50.7578 92.082C51.0938 92.082 51.4062 92.1602 51.6953 92.3164C51.9844 92.4727 52.2148 92.6875 52.3867 92.9609C52.5586 93.2344 52.6445 93.5273 52.6445 93.8398C52.6445 94.1602 52.5586 94.4531 52.3867 94.7188C52.2148 94.9844 51.9844 95.1992 51.6953 95.3633C51.4062 95.5195 51.0938 95.5977 50.7578 95.5977ZM58.6562 110H55.1875V97.2734H58.4922V99.5H58.6328C58.9219 98.75 59.3984 98.1641 60.0625 97.7422C60.7344 97.3203 61.5352 97.1094 62.4648 97.1094C63.3398 97.1094 64.1055 97.3008 64.7617 97.6836C65.4258 98.0664 65.9375 98.6211 66.2969 99.3477C66.6641 100.066 66.8477 100.914 66.8477 101.891V110H63.3789V102.488C63.3789 101.973 63.2891 101.527 63.1094 101.152C62.9375 100.777 62.6758 100.492 62.3242 100.297C61.9805 100.094 61.5703 99.9922 61.0938 99.9922C60.6094 99.9922 60.1836 100.098 59.8164 100.309C59.4492 100.512 59.1641 100.812 58.9609 101.211C58.7578 101.609 58.6562 102.082 58.6562 102.629V110ZM71.3828 112.555H68.4062L73.8672 92.2344H76.8672L71.3828 112.555ZM78.543 93.0312H82.0586V100.062H89.418V93.0312H92.9336V110H89.418V102.957H82.0586V110H78.543V93.0312ZM101.512 110.246C100.223 110.246 99.1016 109.98 98.1484 109.449C97.2031 108.918 96.4766 108.16 95.9688 107.176C95.4609 106.191 95.207 105.035 95.207 103.707C95.207 102.402 95.4609 101.25 95.9688 100.25C96.4844 99.25 97.2031 98.4766 98.125 97.9297C99.0547 97.3828 100.137 97.1094 101.371 97.1094C102.512 97.1094 103.531 97.3516 104.43 97.8359C105.328 98.3125 106.035 99.0352 106.551 100.004C107.074 100.973 107.336 102.156 107.336 103.555V104.527H96.625V102.359H104.066C104.059 101.852 103.941 101.395 103.715 100.988C103.496 100.582 103.188 100.266 102.789 100.039C102.391 99.8125 101.938 99.6992 101.43 99.6992C100.891 99.6992 100.41 99.8242 99.9883 100.074C99.5664 100.316 99.2344 100.652 98.9922 101.082C98.7578 101.512 98.6367 101.98 98.6289 102.488V104.527C98.6289 105.168 98.75 105.723 98.9922 106.191C99.2422 106.652 99.5859 107.012 100.023 107.27C100.461 107.527 100.973 107.656 101.559 107.656C101.949 107.648 102.305 107.59 102.625 107.48C102.945 107.371 103.215 107.227 103.434 107.047C103.652 106.859 103.824 106.641 103.949 106.391H107.254C107.082 107.172 106.742 107.852 106.234 108.43C105.727 109.008 105.07 109.457 104.266 109.777C103.461 110.09 102.543 110.246 101.512 110.246ZM116.98 104.504C116.77 104.52 116.598 104.531 116.465 104.539C116.34 104.547 116.156 104.559 115.914 104.574C115.266 104.598 114.695 104.637 114.203 104.691C113.586 104.738 113.102 104.906 112.75 105.195C112.406 105.477 112.23 105.859 112.223 106.344C112.223 106.656 112.305 106.926 112.469 107.152C112.633 107.371 112.855 107.539 113.137 107.656C113.426 107.773 113.758 107.828 114.133 107.82C114.648 107.828 115.109 107.73 115.516 107.527C115.93 107.316 116.25 107.031 116.477 106.672C116.703 106.305 116.816 105.898 116.816 105.453L116.793 101.34C116.793 100.98 116.715 100.676 116.559 100.426C116.41 100.168 116.184 99.9766 115.879 99.8516C115.574 99.7188 115.207 99.6523 114.777 99.6523C114.184 99.6523 113.703 99.7773 113.336 100.027C112.977 100.27 112.75 100.613 112.656 101.059H109.352C109.422 100.309 109.684 99.6367 110.137 99.043C110.59 98.4414 111.215 97.9688 112.012 97.625C112.816 97.2812 113.766 97.1094 114.859 97.1094C115.844 97.1094 116.742 97.2578 117.555 97.5547C118.367 97.8516 119.02 98.3281 119.512 98.9844C120.004 99.6328 120.254 100.445 120.262 101.422V110H116.969V108.242H116.875C116.547 108.859 116.07 109.348 115.445 109.707C114.828 110.059 114.059 110.234 113.137 110.234C112.316 110.234 111.59 110.094 110.957 109.812C110.324 109.523 109.824 109.094 109.457 108.523C109.09 107.953 108.906 107.262 108.906 106.449C108.906 105.129 109.344 104.168 110.219 103.566C111.094 102.957 112.234 102.609 113.641 102.523C114.023 102.492 114.438 102.469 114.883 102.453C115.336 102.43 115.77 102.406 116.184 102.383C116.441 102.375 116.699 102.367 116.957 102.359L116.98 104.504ZM127.586 110.199C126.602 110.199 125.719 109.945 124.938 109.438C124.156 108.922 123.539 108.176 123.086 107.199C122.641 106.215 122.418 105.031 122.418 103.648C122.418 102.25 122.648 101.059 123.109 100.074C123.57 99.082 124.188 98.3398 124.961 97.8477C125.742 97.3555 126.617 97.1094 127.586 97.1094C128.219 97.1094 128.766 97.2109 129.227 97.4141C129.695 97.6094 130.074 97.8633 130.363 98.1758C130.66 98.4805 130.906 98.8281 131.102 99.2188C131.125 99.2578 131.141 99.2891 131.148 99.3125C131.156 99.3281 131.172 99.3594 131.195 99.4062H131.301V93.0312H134.77V110H131.359V107.973H131.195L131.125 108.113C130.922 108.504 130.672 108.852 130.375 109.156C130.078 109.453 129.695 109.703 129.227 109.906C128.758 110.102 128.211 110.199 127.586 110.199ZM128.664 107.434C129.234 107.434 129.723 107.273 130.129 106.953C130.543 106.633 130.855 106.191 131.066 105.629C131.285 105.059 131.395 104.391 131.395 103.625C131.395 102.859 131.285 102.195 131.066 101.633C130.855 101.062 130.547 100.629 130.141 100.332C129.734 100.035 129.242 99.8867 128.664 99.8867C128.086 99.8867 127.594 100.043 127.188 100.355C126.789 100.66 126.484 101.094 126.273 101.656C126.062 102.219 125.957 102.875 125.957 103.625C125.957 104.383 126.062 105.047 126.273 105.617C126.492 106.188 126.801 106.633 127.199 106.953C127.605 107.273 128.094 107.434 128.664 107.434Z" fill="#0E303C"/>
<path d="M27.4807 231L33.3481 214.028H37.8812L43.7486 231H39.9696L35.6768 217.856H35.5442L31.2597 231H27.4807ZM40.1354 224.329V227.088H31.0608V224.329H40.1354ZM45.6603 214.028H49.1244V220.409H49.2238C49.2404 220.365 49.2597 220.326 49.2818 220.293C49.3039 220.254 49.3232 220.215 49.3398 220.177C49.5498 219.785 49.8011 219.439 50.094 219.141C50.3868 218.843 50.7625 218.597 51.221 218.403C51.6851 218.204 52.2293 218.105 52.8536 218.105C53.815 218.105 54.6879 218.354 55.4724 218.851C56.2569 219.343 56.8785 220.083 57.3371 221.072C57.7956 222.055 58.0249 223.249 58.0249 224.652C58.0249 226.028 57.7984 227.21 57.3453 228.199C56.8978 229.188 56.2818 229.936 55.4973 230.445C54.7128 230.953 53.8288 231.207 52.8453 231.207C52.2266 231.207 51.6824 231.108 51.2128 230.909C50.7431 230.71 50.3564 230.459 50.0525 230.155C49.7542 229.851 49.5 229.5 49.2901 229.102C49.279 229.08 49.268 229.061 49.2569 229.044C49.2514 229.022 49.2404 228.997 49.2238 228.97H49.0746V231H45.6603V214.028ZM49.0498 224.635C49.0498 225.398 49.1575 226.066 49.373 226.641C49.5884 227.21 49.8978 227.652 50.3011 227.967C50.71 228.282 51.1962 228.439 51.7597 228.439C52.3343 228.439 52.826 228.279 53.2349 227.959C53.6492 227.638 53.9586 227.193 54.163 226.624C54.373 226.055 54.4779 225.392 54.4779 224.635C54.4779 223.884 54.373 223.227 54.163 222.663C53.9586 222.099 53.652 221.663 53.2431 221.354C52.8343 221.039 52.3398 220.881 51.7597 220.881C51.1907 220.881 50.7017 221.033 50.2929 221.337C49.8895 221.635 49.5802 222.069 49.3647 222.638C49.1547 223.202 49.0498 223.867 49.0498 224.635ZM64.9482 231.207C63.9647 231.207 63.0808 230.953 62.2962 230.445C61.5172 229.936 60.9012 229.188 60.4482 228.199C59.9951 227.21 59.7686 226.028 59.7686 224.652C59.7686 223.249 59.9979 222.055 60.4564 221.072C60.9205 220.083 61.5421 219.343 62.3211 218.851C63.1056 218.354 63.9785 218.105 64.9399 218.105C65.5697 218.105 66.1194 218.207 66.589 218.412C67.0587 218.61 67.4371 218.865 67.7244 219.174C68.0172 219.478 68.2658 219.826 68.4703 220.218C68.4924 220.251 68.5089 220.282 68.52 220.309C68.5366 220.337 68.5531 220.37 68.5697 220.409H68.6692V214.028H72.1332V231H68.7189V228.97H68.5697C68.5476 229.019 68.5255 229.064 68.5034 229.102C68.2879 229.5 68.031 229.851 67.7327 230.155C67.4399 230.459 67.0587 230.71 66.589 230.909C66.1194 231.108 65.5725 231.207 64.9482 231.207ZM66.0338 228.439C66.5973 228.439 67.0835 228.282 67.4924 227.967C67.9012 227.652 68.2106 227.21 68.4205 226.641C68.636 226.066 68.7437 225.398 68.7437 224.635C68.7437 223.867 68.6388 223.202 68.4288 222.638C68.2189 222.069 67.9095 221.635 67.5006 221.337C67.0918 221.033 66.6029 220.881 66.0338 220.881C65.4537 220.881 64.962 221.039 64.5587 221.354C64.1553 221.663 63.846 222.099 63.6305 222.663C63.4205 223.227 63.3156 223.884 63.3156 224.635C63.3156 225.392 63.4205 226.055 63.6305 226.624C63.846 227.193 64.1553 227.638 64.5587 227.959C64.9675 228.279 65.4592 228.439 66.0338 228.439ZM80.6559 231.249C79.3908 231.249 78.2858 230.975 77.341 230.428C76.3963 229.881 75.6698 229.113 75.1615 228.124C74.6532 227.13 74.399 225.983 74.399 224.685C74.399 223.376 74.6532 222.227 75.1615 221.238C75.6698 220.243 76.3963 219.472 77.341 218.925C78.2858 218.378 79.3908 218.105 80.6559 218.105C81.9211 218.105 83.0234 218.378 83.9626 218.925C84.9073 219.472 85.6311 220.243 86.1338 221.238C86.6421 222.227 86.8963 223.376 86.8963 224.685C86.8963 225.983 86.6421 227.13 86.1338 228.124C85.6311 229.113 84.9073 229.881 83.9626 230.428C83.0234 230.975 81.9211 231.249 80.6559 231.249ZM80.6725 228.555C81.2471 228.555 81.7361 228.39 82.1394 228.058C82.5482 227.721 82.8548 227.26 83.0593 226.674C83.2692 226.083 83.3742 225.412 83.3742 224.66C83.3742 223.909 83.2692 223.24 83.0593 222.655C82.8548 222.064 82.5482 221.599 82.1394 221.262C81.7361 220.925 81.2471 220.757 80.6725 220.757C80.0869 220.757 79.5869 220.925 79.1725 221.262C78.7637 221.594 78.4543 222.055 78.2443 222.646C78.0344 223.238 77.9294 223.909 77.9294 224.66C77.9294 225.417 78.0344 226.088 78.2443 226.674C78.4543 227.26 78.7637 227.721 79.1725 228.058C79.5869 228.39 80.0869 228.555 80.6725 228.555ZM89.0774 218.271H92.384V220.508H92.5332C92.7984 219.757 93.2404 219.169 93.8592 218.743C94.4835 218.318 95.2238 218.105 96.0802 218.105C96.6547 218.105 97.1768 218.202 97.6465 218.395C98.1216 218.588 98.5194 218.867 98.8398 219.232C99.1603 219.591 99.3923 220.017 99.536 220.508H99.6686C99.8398 220.028 100.111 219.605 100.481 219.24C100.851 218.876 101.293 218.597 101.807 218.403C102.32 218.204 102.884 218.105 103.497 218.105C104.287 218.105 104.986 218.276 105.594 218.619C106.202 218.956 106.674 219.453 107.011 220.11C107.348 220.762 107.517 221.539 107.517 222.439V231H104.044V223.11C104.044 222.414 103.859 221.884 103.489 221.519C103.124 221.155 102.644 220.972 102.047 220.972C101.616 220.972 101.246 221.066 100.937 221.254C100.627 221.436 100.39 221.696 100.224 222.033C100.058 222.37 99.9752 222.762 99.9752 223.21V231H96.6188V223.028C96.6188 222.613 96.536 222.251 96.3702 221.942C96.21 221.633 95.9807 221.395 95.6824 221.229C95.384 221.058 95.0387 220.972 94.6465 220.972C94.2487 220.972 93.8895 221.072 93.5691 221.271C93.2542 221.464 93.0056 221.743 92.8232 222.108C92.6409 222.467 92.5498 222.881 92.5498 223.351V231H89.0774V218.271ZM115.947 231.249C114.66 231.249 113.541 230.983 112.591 230.453C111.646 229.917 110.92 229.157 110.411 228.174C109.903 227.191 109.649 226.03 109.649 224.693C109.649 223.395 109.903 222.249 110.411 221.254C110.925 220.254 111.646 219.481 112.574 218.934C113.503 218.381 114.58 218.105 115.807 218.105C116.95 218.105 117.972 218.345 118.873 218.826C119.773 219.307 120.483 220.033 121.003 221.006C121.522 221.972 121.782 223.157 121.782 224.561V225.53H111.066V223.359H118.508C118.503 222.845 118.387 222.387 118.16 221.983C117.939 221.58 117.63 221.265 117.232 221.039C116.834 220.812 116.381 220.699 115.873 220.699C115.337 220.699 114.856 220.823 114.431 221.072C114.011 221.32 113.682 221.657 113.445 222.083C113.207 222.508 113.086 222.975 113.08 223.483V225.53C113.08 226.166 113.199 226.718 113.436 227.188C113.679 227.652 114.019 228.011 114.456 228.265C114.898 228.519 115.414 228.646 116.005 228.646C116.398 228.646 116.751 228.594 117.066 228.489C117.387 228.384 117.657 228.238 117.878 228.05C118.105 227.856 118.276 227.633 118.392 227.378H121.69C121.525 228.157 121.188 228.84 120.679 229.425C120.171 230.006 119.514 230.456 118.707 230.776C117.9 231.091 116.981 231.249 115.947 231.249ZM127.425 231H123.952V218.271H127.259V220.508H127.408C127.602 220.017 127.878 219.591 128.237 219.232C128.602 218.867 129.035 218.588 129.538 218.395C130.046 218.202 130.613 218.105 131.237 218.105C132.115 218.105 132.886 218.298 133.549 218.685C134.212 219.066 134.723 219.619 135.082 220.343C135.441 221.066 135.621 221.917 135.621 222.895V231H132.149V223.5C132.149 222.981 132.057 222.533 131.875 222.157C131.698 221.776 131.439 221.486 131.096 221.287C130.753 221.088 130.345 220.989 129.87 220.989C129.383 220.989 128.958 221.094 128.593 221.304C128.229 221.514 127.941 221.818 127.731 222.215C127.527 222.613 127.425 223.086 127.425 223.633V231Z" fill="#0E303C"/>
<path d="M454.773 147.949C454.68 147.324 454.465 146.785 454.129 146.332C453.801 145.871 453.375 145.52 452.852 145.277C452.328 145.035 451.738 144.914 451.082 144.914C450.191 144.914 449.418 145.137 448.762 145.582C448.105 146.02 447.594 146.66 447.227 147.504C446.859 148.34 446.676 149.344 446.676 150.516C446.676 151.711 446.859 152.727 447.227 153.562C447.594 154.391 448.102 155.023 448.75 155.461C449.406 155.891 450.172 156.109 451.047 156.117C451.695 156.109 452.277 155.992 452.793 155.766C453.316 155.531 453.746 155.199 454.082 154.77C454.426 154.332 454.656 153.812 454.773 153.211L458.348 153.246C458.207 154.316 457.824 155.309 457.199 156.223C456.574 157.129 455.73 157.859 454.668 158.414C453.605 158.961 452.383 159.234 451 159.234C449.477 159.234 448.117 158.891 446.922 158.203C445.734 157.508 444.801 156.504 444.121 155.191C443.449 153.871 443.113 152.312 443.113 150.516C443.113 148.711 443.453 147.152 444.133 145.84C444.82 144.52 445.758 143.516 446.945 142.828C448.141 142.141 449.492 141.797 451 141.797C452.305 141.797 453.484 142.039 454.539 142.523C455.594 143 456.449 143.703 457.105 144.633C457.77 145.562 458.184 146.668 458.348 147.949H454.773ZM464.195 159H460.727V142.031H464.102V148.5H464.242C464.539 147.742 465.008 147.156 465.648 146.742C466.297 146.32 467.094 146.109 468.039 146.109C468.93 146.109 469.707 146.301 470.371 146.684C471.035 147.066 471.547 147.617 471.906 148.336C472.266 149.055 472.445 149.906 472.445 150.891V159H468.977V151.488C468.977 150.965 468.887 150.516 468.707 150.141C468.527 149.766 468.262 149.48 467.91 149.285C467.566 149.09 467.156 148.992 466.68 148.992C466.188 148.992 465.758 149.098 465.391 149.309C465.023 149.512 464.73 149.812 464.512 150.211C464.301 150.609 464.195 151.082 464.195 151.629V159ZM480.918 159.246C479.629 159.246 478.508 158.98 477.555 158.449C476.609 157.918 475.883 157.16 475.375 156.176C474.867 155.191 474.613 154.035 474.613 152.707C474.613 151.402 474.867 150.25 475.375 149.25C475.891 148.25 476.609 147.477 477.531 146.93C478.461 146.383 479.543 146.109 480.777 146.109C481.918 146.109 482.938 146.352 483.836 146.836C484.734 147.312 485.441 148.035 485.957 149.004C486.48 149.973 486.742 151.156 486.742 152.555V153.527H476.031V151.359H483.473C483.465 150.852 483.348 150.395 483.121 149.988C482.902 149.582 482.594 149.266 482.195 149.039C481.797 148.812 481.344 148.699 480.836 148.699C480.297 148.699 479.816 148.824 479.395 149.074C478.973 149.316 478.641 149.652 478.398 150.082C478.164 150.512 478.043 150.98 478.035 151.488V153.527C478.035 154.168 478.156 154.723 478.398 155.191C478.648 155.652 478.992 156.012 479.43 156.27C479.867 156.527 480.379 156.656 480.965 156.656C481.355 156.648 481.711 156.59 482.031 156.48C482.352 156.371 482.621 156.227 482.84 156.047C483.059 155.859 483.23 155.641 483.355 155.391H486.66C486.488 156.172 486.148 156.852 485.641 157.43C485.133 158.008 484.477 158.457 483.672 158.777C482.867 159.09 481.949 159.246 480.918 159.246ZM496.188 150.059C496.109 149.605 495.887 149.246 495.52 148.98C495.152 148.715 494.68 148.582 494.102 148.582C493.727 148.582 493.391 148.637 493.094 148.746C492.797 148.855 492.559 149.008 492.379 149.203C492.207 149.398 492.121 149.621 492.121 149.871C492.121 150.168 492.25 150.426 492.508 150.645C492.766 150.863 493.184 151.031 493.762 151.148L496.059 151.617C497.285 151.875 498.199 152.289 498.801 152.859C499.41 153.422 499.719 154.156 499.727 155.062C499.719 155.891 499.48 156.621 499.012 157.254C498.543 157.879 497.883 158.367 497.031 158.719C496.18 159.07 495.195 159.246 494.078 159.246C492.945 159.246 491.965 159.086 491.137 158.766C490.316 158.438 489.668 157.977 489.191 157.383C488.715 156.781 488.43 156.066 488.336 155.238H491.816C491.902 155.73 492.141 156.105 492.531 156.363C492.922 156.613 493.441 156.734 494.09 156.727C494.504 156.734 494.871 156.688 495.191 156.586C495.512 156.477 495.758 156.324 495.93 156.129C496.102 155.926 496.188 155.691 496.188 155.426C496.188 155.098 496.047 154.828 495.766 154.617C495.492 154.398 495.059 154.227 494.465 154.102L492.355 153.68C491.145 153.445 490.227 153.023 489.602 152.414C488.984 151.797 488.676 151.02 488.676 150.082C488.676 149.277 488.895 148.574 489.332 147.973C489.77 147.371 490.391 146.91 491.195 146.59C492.008 146.27 492.961 146.109 494.055 146.109C495.109 146.109 496.031 146.27 496.82 146.59C497.617 146.91 498.234 147.367 498.672 147.961C499.117 148.555 499.371 149.254 499.434 150.059H496.188ZM508.562 148.875H500.945V146.273H508.562V148.875ZM506.172 143.227V155.086C506.172 155.414 506.219 155.672 506.312 155.859C506.414 156.039 506.551 156.168 506.723 156.246C506.902 156.324 507.121 156.363 507.379 156.363C507.496 156.371 507.641 156.371 507.812 156.363C507.984 156.355 508.156 156.348 508.328 156.34L508.738 156.305V159.047C508.207 159.133 507.602 159.176 506.922 159.176C506.062 159.176 505.316 159.047 504.684 158.789C504.051 158.523 503.559 158.125 503.207 157.594C502.863 157.055 502.691 156.379 502.691 155.566V143.227H506.172Z" fill="#0E303C"/>
<path d="M458.469 240.031V251.059C458.469 252.285 458.176 253.367 457.59 254.305C457.012 255.234 456.188 255.957 455.117 256.473C454.055 256.98 452.832 257.234 451.449 257.234C450.051 257.234 448.824 256.98 447.77 256.473C446.715 255.957 445.895 255.234 445.309 254.305C444.73 253.367 444.441 252.285 444.441 251.059V240.031H447.957V250.766C447.957 251.414 448.102 251.992 448.391 252.5C448.68 253.008 449.086 253.41 449.609 253.707C450.141 253.996 450.754 254.141 451.449 254.141C452.137 254.141 452.746 253.996 453.277 253.707C453.816 253.41 454.227 253.008 454.508 252.5C454.789 251.992 454.934 251.414 454.941 250.766V240.031H458.469ZM461.258 244.273H464.609V246.488H464.75C464.977 245.715 465.363 245.125 465.91 244.719C466.457 244.305 467.09 244.094 467.809 244.086C468.309 244.102 468.68 244.141 468.922 244.203V247.297C468.75 247.242 468.523 247.199 468.242 247.168C467.961 247.129 467.691 247.109 467.434 247.109C466.918 247.109 466.457 247.223 466.051 247.449C465.645 247.676 465.32 247.992 465.078 248.398C464.844 248.797 464.727 249.254 464.727 249.77V257H461.258V244.273ZM475.918 257.246C474.645 257.246 473.535 256.973 472.59 256.426C471.652 255.879 470.93 255.113 470.422 254.129C469.914 253.137 469.66 251.988 469.66 250.684C469.66 249.371 469.914 248.223 470.422 247.238C470.93 246.246 471.652 245.477 472.59 244.93C473.535 244.383 474.645 244.109 475.918 244.109C477.176 244.109 478.277 244.383 479.223 244.93C480.176 245.477 480.902 246.246 481.402 247.238C481.902 248.223 482.152 249.371 482.152 250.684C482.152 251.988 481.902 253.137 481.402 254.129C480.902 255.113 480.176 255.879 479.223 256.426C478.277 256.973 477.176 257.246 475.918 257.246ZM475.941 254.562C476.512 254.562 477 254.395 477.406 254.059C477.812 253.723 478.117 253.262 478.32 252.676C478.523 252.082 478.625 251.41 478.625 250.66C478.625 249.902 478.523 249.23 478.32 248.645C478.117 248.059 477.812 247.598 477.406 247.262C477 246.926 476.512 246.758 475.941 246.758C475.348 246.758 474.844 246.926 474.43 247.262C474.016 247.598 473.703 248.059 473.492 248.645C473.289 249.23 473.184 249.902 473.176 250.66C473.184 251.41 473.289 252.082 473.492 252.676C473.703 253.262 474.016 253.723 474.43 254.059C474.844 254.395 475.348 254.562 475.941 254.562ZM487.812 257H484.344V240.031H487.812V257ZM496.238 257.246C494.965 257.246 493.855 256.973 492.91 256.426C491.973 255.879 491.25 255.113 490.742 254.129C490.234 253.137 489.98 251.988 489.98 250.684C489.98 249.371 490.234 248.223 490.742 247.238C491.25 246.246 491.973 245.477 492.91 244.93C493.855 244.383 494.965 244.109 496.238 244.109C497.496 244.109 498.598 244.383 499.543 244.93C500.496 245.477 501.223 246.246 501.723 247.238C502.223 248.223 502.473 249.371 502.473 250.684C502.473 251.988 502.223 253.137 501.723 254.129C501.223 255.113 500.496 255.879 499.543 256.426C498.598 256.973 497.496 257.246 496.238 257.246ZM496.262 254.562C496.832 254.562 497.32 254.395 497.727 254.059C498.133 253.723 498.438 253.262 498.641 252.676C498.844 252.082 498.945 251.41 498.945 250.66C498.945 249.902 498.844 249.23 498.641 248.645C498.438 248.059 498.133 247.598 497.727 247.262C497.32 246.926 496.832 246.758 496.262 246.758C495.668 246.758 495.164 246.926 494.75 247.262C494.336 247.598 494.023 248.059 493.812 248.645C493.609 249.23 493.504 249.902 493.496 250.66C493.504 251.41 493.609 252.082 493.812 252.676C494.023 253.262 494.336 253.723 494.75 254.059C495.164 254.395 495.668 254.562 496.262 254.562ZM510.371 262.039C509.223 262.039 508.219 261.875 507.359 261.547C506.5 261.219 505.824 260.754 505.332 260.152C504.848 259.551 504.57 258.848 504.5 258.043H507.91C508.012 258.543 508.281 258.914 508.719 259.156C509.164 259.406 509.742 259.527 510.453 259.52C511.297 259.527 511.953 259.332 512.422 258.934C512.898 258.543 513.141 257.93 513.148 257.094V254.75H512.996L512.949 254.844C512.746 255.227 512.492 255.562 512.188 255.852C511.891 256.133 511.5 256.367 511.016 256.555C510.539 256.734 509.984 256.824 509.352 256.824C508.367 256.824 507.484 256.59 506.703 256.121C505.922 255.652 505.305 254.949 504.852 254.012C504.406 253.074 504.184 251.922 504.184 250.555C504.184 249.172 504.414 247.996 504.875 247.027C505.336 246.051 505.953 245.32 506.727 244.836C507.508 244.352 508.383 244.109 509.352 244.109C509.977 244.109 510.523 244.207 510.992 244.402C511.461 244.598 511.836 244.848 512.117 245.152C512.406 245.449 512.66 245.801 512.879 246.207C512.918 246.262 512.953 246.328 512.984 246.406H513.125V244.273H516.57V257.141C516.57 258.195 516.309 259.09 515.785 259.824C515.262 260.559 514.535 261.109 513.605 261.477C512.676 261.852 511.598 262.039 510.371 262.039ZM510.43 254.199C511.008 254.199 511.5 254.055 511.906 253.766C512.312 253.477 512.621 253.062 512.832 252.523C513.051 251.984 513.16 251.34 513.16 250.59C513.16 249.832 513.051 249.176 512.832 248.621C512.621 248.059 512.312 247.629 511.906 247.332C511.5 247.035 511.008 246.887 510.43 246.887C509.852 246.887 509.359 247.039 508.953 247.344C508.555 247.648 508.25 248.082 508.039 248.645C507.828 249.207 507.723 249.855 507.723 250.59C507.723 251.332 507.828 251.973 508.039 252.512C508.258 253.051 508.566 253.469 508.965 253.766C509.363 254.055 509.852 254.199 510.43 254.199ZM521.305 261.781C520.438 261.766 519.852 261.746 519.547 261.723V259.016C519.82 259.039 520.289 259.055 520.953 259.062C521.227 259.055 521.457 259.027 521.645 258.98C521.84 258.941 522.016 258.836 522.172 258.664C522.336 258.5 522.484 258.242 522.617 257.891L522.828 257.363L518.246 244.273H521.902L524.574 253.648H524.715L527.398 244.273H531.078L526.109 258.395C525.727 259.488 525.152 260.324 524.387 260.902C523.621 261.48 522.594 261.773 521.305 261.781ZM446.211 288.555H443.234L448.695 268.234H451.695L446.211 288.555ZM453.371 269.031H460.004C461.27 269.031 462.359 269.273 463.273 269.758C464.195 270.234 464.895 270.906 465.371 271.773C465.848 272.641 466.086 273.637 466.086 274.762C466.086 275.895 465.844 276.891 465.359 277.75C464.875 278.602 464.168 279.27 463.238 279.754C462.309 280.23 461.203 280.469 459.922 280.469H455.656V277.633H459.371C460.051 277.633 460.621 277.516 461.082 277.281C461.551 277.039 461.898 276.703 462.125 276.273C462.352 275.844 462.465 275.34 462.465 274.762C462.465 274.184 462.352 273.684 462.125 273.262C461.898 272.832 461.551 272.504 461.082 272.277C460.613 272.043 460.039 271.926 459.359 271.926H456.887V286H453.371V269.031ZM473.809 286.246C472.52 286.246 471.398 285.98 470.445 285.449C469.5 284.918 468.773 284.16 468.266 283.176C467.758 282.191 467.504 281.035 467.504 279.707C467.504 278.402 467.758 277.25 468.266 276.25C468.781 275.25 469.5 274.477 470.422 273.93C471.352 273.383 472.434 273.109 473.668 273.109C474.809 273.109 475.828 273.352 476.727 273.836C477.625 274.312 478.332 275.035 478.848 276.004C479.371 276.973 479.633 278.156 479.633 279.555V280.527H468.922V278.359H476.363C476.355 277.852 476.238 277.395 476.012 276.988C475.793 276.582 475.484 276.266 475.086 276.039C474.688 275.812 474.234 275.699 473.727 275.699C473.188 275.699 472.707 275.824 472.285 276.074C471.863 276.316 471.531 276.652 471.289 277.082C471.055 277.512 470.934 277.98 470.926 278.488V280.527C470.926 281.168 471.047 281.723 471.289 282.191C471.539 282.652 471.883 283.012 472.32 283.27C472.758 283.527 473.27 283.656 473.855 283.656C474.246 283.648 474.602 283.59 474.922 283.48C475.242 283.371 475.512 283.227 475.73 283.047C475.949 282.859 476.121 282.641 476.246 282.391H479.551C479.379 283.172 479.039 283.852 478.531 284.43C478.023 285.008 477.367 285.457 476.562 285.777C475.758 286.09 474.84 286.246 473.809 286.246ZM485.281 286H481.812V269.031H485.281V286ZM495.312 286H491.41L486.957 273.273H490.637L493.297 282.414H493.438L496.109 273.273H499.789L495.312 286ZM501.5 273.273H504.969V286H501.5V273.273ZM503.234 271.598C502.883 271.598 502.562 271.52 502.273 271.363C501.992 271.199 501.766 270.984 501.594 270.719C501.422 270.453 501.336 270.16 501.336 269.84C501.336 269.527 501.422 269.234 501.594 268.961C501.766 268.688 501.996 268.473 502.285 268.316C502.574 268.16 502.891 268.082 503.234 268.082C503.57 268.082 503.883 268.16 504.172 268.316C504.461 268.473 504.691 268.688 504.863 268.961C505.035 269.234 505.121 269.527 505.121 269.84C505.121 270.16 505.035 270.453 504.863 270.719C504.691 270.984 504.461 271.199 504.172 271.363C503.883 271.52 503.57 271.598 503.234 271.598ZM514.93 277.059C514.852 276.605 514.629 276.246 514.262 275.98C513.895 275.715 513.422 275.582 512.844 275.582C512.469 275.582 512.133 275.637 511.836 275.746C511.539 275.855 511.301 276.008 511.121 276.203C510.949 276.398 510.863 276.621 510.863 276.871C510.863 277.168 510.992 277.426 511.25 277.645C511.508 277.863 511.926 278.031 512.504 278.148L514.801 278.617C516.027 278.875 516.941 279.289 517.543 279.859C518.152 280.422 518.461 281.156 518.469 282.062C518.461 282.891 518.223 283.621 517.754 284.254C517.285 284.879 516.625 285.367 515.773 285.719C514.922 286.07 513.938 286.246 512.82 286.246C511.688 286.246 510.707 286.086 509.879 285.766C509.059 285.438 508.41 284.977 507.934 284.383C507.457 283.781 507.172 283.066 507.078 282.238H510.559C510.645 282.73 510.883 283.105 511.273 283.363C511.664 283.613 512.184 283.734 512.832 283.727C513.246 283.734 513.613 283.688 513.934 283.586C514.254 283.477 514.5 283.324 514.672 283.129C514.844 282.926 514.93 282.691 514.93 282.426C514.93 282.098 514.789 281.828 514.508 281.617C514.234 281.398 513.801 281.227 513.207 281.102L511.098 280.68C509.887 280.445 508.969 280.023 508.344 279.414C507.727 278.797 507.418 278.02 507.418 277.082C507.418 276.277 507.637 275.574 508.074 274.973C508.512 274.371 509.133 273.91 509.938 273.59C510.75 273.27 511.703 273.109 512.797 273.109C513.852 273.109 514.773 273.27 515.562 273.59C516.359 273.91 516.977 274.367 517.414 274.961C517.859 275.555 518.113 276.254 518.176 277.059H514.93Z" fill="#0E303C"/>
</g>
<defs>
<linearGradient id="paint0_linear_4_1907" x1="275.006" y1="392.018" x2="275.006" y2="465.12" gradientUnits="userSpaceOnUse">
<stop stop-color="#D4B9D7" stop-opacity="0"/>
<stop offset="1" stop-color="#895BA6"/>
</linearGradient>
<linearGradient id="paint1_linear_4_1907" x1="275.83" y1="130.174" x2="275.83" y2="63.1347" gradientUnits="userSpaceOnUse">
<stop stop-color="#D4B9D7" stop-opacity="0"/>
<stop offset="1" stop-color="#895BA6"/>
</linearGradient>
<linearGradient id="paint2_linear_4_1907" x1="275.83" y1="196.415" x2="275.83" y2="346.236" gradientUnits="userSpaceOnUse">
<stop stop-color="#D4B9D7" stop-opacity="0.31"/>
<stop offset="1" stop-color="#A77BB7"/>
</linearGradient>
<linearGradient id="paint3_linear_4_1907" x1="165.821" y1="425.301" x2="165.821" y2="374.267" gradientUnits="userSpaceOnUse">
<stop stop-color="#D4B9D7"/>
<stop offset="0.0001" stop-color="#D4B9D7" stop-opacity="0"/>
<stop offset="1" stop-color="#895BA6"/>
</linearGradient>
<linearGradient id="paint4_linear_4_1907" x1="379.333" y1="442.815" x2="379.333" y2="391.781" gradientUnits="userSpaceOnUse">
<stop stop-color="#D4B9D7"/>
<stop offset="0.0001" stop-color="#D4B9D7" stop-opacity="0"/>
<stop offset="1" stop-color="#895BA6"/>
</linearGradient>
<linearGradient id="paint5_linear_4_1907" x1="392.434" y1="343.891" x2="392.434" y2="292.857" gradientUnits="userSpaceOnUse">
<stop stop-color="#2979FF" stop-opacity="0"/>
<stop offset="1" stop-color="#895BA6"/>
</linearGradient>
<linearGradient id="paint6_linear_4_1907" x1="188.715" y1="288.877" x2="188.715" y2="237.843" gradientUnits="userSpaceOnUse">
<stop stop-color="#D4B9D7"/>
<stop offset="0.0001" stop-color="#D4B9D7" stop-opacity="0"/>
<stop offset="1" stop-color="#895BA6"/>
</linearGradient>
<linearGradient id="paint7_linear_4_1907" x1="184.693" y1="114.056" x2="184.693" y2="63.0099" gradientUnits="userSpaceOnUse">
<stop stop-color="#D4B9D7" stop-opacity="0"/>
<stop offset="1" stop-color="#895BA6"/>
</linearGradient>
<linearGradient id="paint8_linear_4_1907" x1="333.545" y1="52.6434" x2="333.545" y2="1.60924" gradientUnits="userSpaceOnUse">
<stop stop-color="#D4B9D7"/>
<stop offset="0.0001" stop-color="#D4B9D7" stop-opacity="0"/>
<stop offset="1" stop-color="#895BA6"/>
</linearGradient>
<linearGradient id="paint9_linear_4_1907" x1="202.84" y1="356.216" x2="202.84" y2="328.247" gradientUnits="userSpaceOnUse">
<stop stop-color="#D4B9D7" stop-opacity="0"/>
<stop offset="1" stop-color="#895BA6"/>
</linearGradient>
<linearGradient id="paint10_linear_4_1907" x1="377.309" y1="202.527" x2="377.309" y2="174.571" gradientUnits="userSpaceOnUse">
<stop stop-color="#D4B9D7" stop-opacity="0"/>
<stop offset="1" stop-color="#895BA6"/>
</linearGradient>
<linearGradient id="paint11_linear_4_1907" x1="344.774" y1="378.945" x2="344.774" y2="350.977" gradientUnits="userSpaceOnUse">
<stop stop-color="#D4B9D7" stop-opacity="0"/>
<stop offset="1" stop-color="#895BA6"/>
</linearGradient>
<linearGradient id="paint12_linear_4_1907" x1="159.789" y1="218.819" x2="159.789" y2="190.863" gradientUnits="userSpaceOnUse">
<stop stop-color="#D4B9D7" stop-opacity="0"/>
<stop offset="1" stop-color="#895BA6"/>
</linearGradient>
<linearGradient id="paint13_linear_4_1907" x1="280.618" y1="229.925" x2="270.282" y2="238.37" gradientUnits="userSpaceOnUse">
<stop stop-color="#FF7EB3"/>
<stop offset="1" stop-color="#FF758C"/>
</linearGradient>
<linearGradient id="paint14_linear_4_1907" x1="282.07" y1="228.732" x2="268.605" y2="239.749" gradientUnits="userSpaceOnUse">
<stop stop-color="#FF7EB3"/>
<stop offset="1" stop-color="#FF758C"/>
</linearGradient>
<linearGradient id="paint15_linear_4_1907" x1="278.978" y1="175.47" x2="272.208" y2="186.966" gradientUnits="userSpaceOnUse">
<stop stop-color="#FF7EB3"/>
<stop offset="1" stop-color="#FF758C"/>
</linearGradient>
<linearGradient id="paint16_linear_4_1907" x1="279.927" y1="173.848" x2="271.112" y2="188.839" gradientUnits="userSpaceOnUse">
<stop stop-color="#FF7EB3"/>
<stop offset="1" stop-color="#FF758C"/>
</linearGradient>
<linearGradient id="paint17_linear_4_1907" x1="278.978" y1="19.6227" x2="272.208" y2="31.119" gradientUnits="userSpaceOnUse">
<stop stop-color="#FF7EB3"/>
<stop offset="1" stop-color="#FF758C"/>
</linearGradient>
<linearGradient id="paint18_linear_4_1907" x1="279.927" y1="18.0011" x2="271.112" y2="32.9925" gradientUnits="userSpaceOnUse">
<stop stop-color="#FF7EB3"/>
<stop offset="1" stop-color="#FF758C"/>
</linearGradient>
<linearGradient id="paint19_linear_4_1907" x1="301.784" y1="107.894" x2="295.026" y2="119.403" gradientUnits="userSpaceOnUse">
<stop stop-color="#FF7EB3"/>
<stop offset="1" stop-color="#FF758C"/>
</linearGradient>
<linearGradient id="paint20_linear_4_1907" x1="302.746" y1="106.272" x2="293.931" y2="121.263" gradientUnits="userSpaceOnUse">
<stop stop-color="#FF7EB3"/>
<stop offset="1" stop-color="#FF758C"/>
</linearGradient>
<linearGradient id="paint21_linear_4_1907" x1="136.47" y1="90.3045" x2="120.961" y2="116.667" gradientUnits="userSpaceOnUse">
<stop stop-color="#FF7EB3"/>
<stop offset="1" stop-color="#FF758C"/>
</linearGradient>
<linearGradient id="paint22_linear_4_1907" x1="138.281" y1="87.2232" x2="118.882" y2="120.214" gradientUnits="userSpaceOnUse">
<stop stop-color="#FF7EB3"/>
<stop offset="1" stop-color="#FF758C"/>
</linearGradient>
<linearGradient id="paint23_linear_4_1907" x1="136.47" y1="212.806" x2="120.961" y2="239.169" gradientUnits="userSpaceOnUse">
<stop stop-color="#FF7EB3"/>
<stop offset="1" stop-color="#FF758C"/>
</linearGradient>
<linearGradient id="paint24_linear_4_1907" x1="138.281" y1="209.725" x2="118.882" y2="242.716" gradientUnits="userSpaceOnUse">
<stop stop-color="#FF7EB3"/>
<stop offset="1" stop-color="#FF758C"/>
</linearGradient>
<linearGradient id="paint25_linear_4_1907" x1="458.835" y1="138.59" x2="443.338" y2="164.953" gradientUnits="userSpaceOnUse">
<stop stop-color="#FF7EB3"/>
<stop offset="1" stop-color="#FF758C"/>
</linearGradient>
<linearGradient id="paint26_linear_4_1907" x1="460.646" y1="135.509" x2="441.259" y2="168.5" gradientUnits="userSpaceOnUse">
<stop stop-color="#FF7EB3"/>
<stop offset="1" stop-color="#FF758C"/>
</linearGradient>
<linearGradient id="paint27_linear_4_1907" x1="463.217" y1="239.177" x2="439.529" y2="258.548" gradientUnits="userSpaceOnUse">
<stop stop-color="#FF7EB3"/>
<stop offset="1" stop-color="#FF758C"/>
</linearGradient>
<linearGradient id="paint28_linear_4_1907" x1="465.954" y1="236.913" x2="436.32" y2="261.157" gradientUnits="userSpaceOnUse">
<stop stop-color="#FF7EB3"/>
<stop offset="1" stop-color="#FF758C"/>
</linearGradient>
<clipPath id="clip0_4_1907">
<rect width="550" height="506" fill="white"/>
</clipPath>
</defs>
</svg>
