<svg width="570" height="90" viewBox="0 0 570 90" fill="none" xmlns="http://www.w3.org/2000/svg">
<g clip-path="url(#clip0_520_24180)">
<path d="M16.95 3.72006C15.6982 3.21929 14.3018 3.21929 13.05 3.72006L4.4145 7.17756C3.99736 7.34438 3.63972 7.63226 3.38762 8.00412C3.13553 8.37599 3.00052 8.8148 3 9.26406V20.7331C2.99992 21.1828 3.13465 21.6223 3.38678 21.9948C3.63892 22.3672 3.99689 22.6555 4.4145 22.8226L13.05 26.2771C14.3018 26.7778 15.6982 26.7778 16.95 26.2771L17.0955 26.2186C16.5638 25.9371 16.072 25.586 15.633 25.1746C15.1476 25.3175 14.6281 25.2927 14.1585 25.1041L13.7145 24.9241C13.6788 24.9116 13.6433 24.8986 13.608 24.8851L4.971 21.4306C4.83173 21.3747 4.7124 21.2784 4.62844 21.1541C4.54448 21.0298 4.49973 20.8831 4.5 20.7331V9.35706L14.25 13.2571V17.1541C14.6295 16.4191 15.1395 15.7651 15.75 15.2191V13.2571L25.5 9.35706V16.0066C26.4375 17.1661 27 18.6421 27 20.2501V9.26406C26.9998 8.81455 26.8649 8.3754 26.6128 8.00325C26.3607 7.63109 26.0029 7.34298 25.5855 7.17606L16.95 3.72006ZM13.608 5.11506C14.5021 4.75742 15.4994 4.75742 16.3935 5.11506L24.231 8.25006L20.8125 9.61506L11.5815 5.92506L13.608 5.11506ZM9.5625 6.73056L18.7935 10.4221L15 11.9416L5.769 8.24856L9.5625 6.73056ZM24.4545 23.3926C25.2494 22.3296 25.6121 21.005 25.4697 19.6853C25.3273 18.3657 24.6903 17.1489 23.687 16.28C22.6836 15.411 21.3884 14.9544 20.0619 15.0019C18.7355 15.0495 17.4762 15.5977 16.5377 16.5363C15.5991 17.4748 15.0509 18.734 15.0034 20.0605C14.9558 21.387 15.4125 22.6822 16.2814 23.6855C17.1504 24.6889 18.3671 25.3259 19.6867 25.4683C21.0064 25.6107 22.331 25.2479 23.394 24.4531L27.219 28.2781C27.3596 28.4189 27.5504 28.4981 27.7495 28.4982C27.9485 28.4984 28.1394 28.4194 28.2803 28.2788C28.4211 28.1382 28.5003 27.9474 28.5004 27.7483C28.5006 27.5493 28.4216 27.3584 28.281 27.2176L24.456 23.3926H24.4545ZM24 20.2501C24 21.2446 23.6049 22.1984 22.9017 22.9017C22.1984 23.605 21.2446 24.0001 20.25 24.0001C19.2554 24.0001 18.3016 23.605 17.5983 22.9017C16.8951 22.1984 16.5 21.2446 16.5 20.2501C16.5 19.2555 16.8951 18.3017 17.5983 17.5984C18.3016 16.8951 19.2554 16.5001 20.25 16.5001C21.2446 16.5001 22.1984 16.8951 22.9017 17.5984C23.6049 18.3017 24 19.2555 24 20.2501Z" fill="black"/>
<rect y="60" width="30" height="30" fill="#C60E0E"/>
<rect x="120" y="60" width="30" height="30" fill="#C60E0E"/>
<rect x="120" width="30" height="30" fill="#C60E0E"/>
<rect x="240" y="60" width="30" height="30" fill="#C60E0E"/>
<rect x="240" width="30" height="30" fill="#C60E0E"/>
<rect x="360" y="60" width="30" height="30" fill="#C60E0E"/>
<rect x="360" width="30" height="30" fill="#C60E0E"/>
<rect x="480" y="60" width="30" height="30" fill="#C60E0E"/>
<rect x="480" width="30" height="30" fill="#C60E0E"/>
<rect x="60" y="60" width="30" height="30" fill="#C60E0E"/>
<rect x="60" width="30" height="30" fill="#C60E0E"/>
<rect x="180" y="60" width="30" height="30" fill="#C60E0E"/>
<rect x="180" width="30" height="30" fill="#C60E0E"/>
<rect x="300" y="60" width="30" height="30" fill="#C60E0E"/>
<rect x="300" width="30" height="30" fill="#C60E0E"/>
<rect x="420" y="60" width="30" height="30" fill="#C60E0E"/>
<rect x="420" width="30" height="30" fill="#C60E0E"/>
<rect x="540" y="60" width="30" height="30" fill="#C60E0E"/>
<rect x="540" width="30" height="30" fill="#C60E0E"/>
</g>
<defs>
<clipPath id="clip0_520_24180">
<rect width="570" height="90" fill="white"/>
</clipPath>
</defs>
</svg>
